<?xml version="1.0" encoding="UTF-8" standalone="no"?>
<!-- Created with Inkscape (http://www.inkscape.org/) -->

<svg
   xmlns:dc="http://purl.org/dc/elements/1.1/"
   xmlns:cc="http://creativecommons.org/ns#"
   xmlns:rdf="http://www.w3.org/1999/02/22-rdf-syntax-ns#"
   xmlns:svg="http://www.w3.org/2000/svg"
   xmlns="http://www.w3.org/2000/svg"
   xmlns:xlink="http://www.w3.org/1999/xlink"
   xmlns:sodipodi="http://sodipodi.sourceforge.net/DTD/sodipodi-0.dtd"
   xmlns:inkscape="http://www.inkscape.org/namespaces/inkscape"
   inkscape:export-ydpi="96"
   inkscape:export-xdpi="96"
   inkscape:export-filename="Template.png"
   width="400"
   height="320"
   id="svg11300"
   sodipodi:version="0.32"
   inkscape:version="0.92.0 r"
   sodipodi:docname="document-mimetypes.svg"
   inkscape:output_extension="org.inkscape.output.svg.inkscape"
   version="1.0"
   style="display:inline;enable-background:new"
   viewBox="0 0 400 320">
  <title
     id="title4162">Solus Icon Template</title>
  <defs
     id="defs3">
    <linearGradient
       id="linearGradient4880"
       inkscape:collect="always">
      <stop
         id="stop4876"
         offset="0"
         style="stop-color: rgb(0, 0, 0); stop-opacity: 1;" />
      <stop
         id="stop4878"
         offset="1"
         style="stop-color: rgb(0, 0, 0); stop-opacity: 0;" />
    </linearGradient>
    <clipPath
       clipPathUnits="userSpaceOnUse"
       id="clipPath4759">
      <path
         style="opacity:1;fill:#f2f2f2;fill-opacity:1;fill-rule:evenodd;stroke:none;stroke-width:2;stroke-linecap:butt;stroke-linejoin:miter;stroke-miterlimit:4;stroke-dasharray:none;stroke-opacity:1"
         d="m 64,251.9998 v -224 c 0,-8 8,-8 8,-8 h 112 l 72,72 v 160 c 0,0 0.7136,8 -8,8 H 72 c 0,0 -8,0 -8,-8 z"
         id="path4761"
         inkscape:connector-curvature="0"
         sodipodi:nodetypes="ccccccccc" />
    </clipPath>
    <linearGradient
       gradientTransform="translate(-181.61876,219.56248)"
       inkscape:collect="always"
       xlink:href="#linearGradient4880"
       id="linearGradient6779"
       gradientUnits="userSpaceOnUse"
       x1="413.03363"
       y1="-128.0295"
       x2="520.68433"
       y2="-126.0295" />
    <filter
       inkscape:collect="always"
       style="color-interpolation-filters:sRGB"
       id="filter7524"
       x="-0.14115115"
       width="1.2823023"
       y="-0.13730207"
       height="1.2746041">
      <feGaussianBlur
         inkscape:collect="always"
         stdDeviation="3.9762639"
         id="feGaussianBlur7526" />
    </filter>
    <clipPath
       clipPathUnits="userSpaceOnUse"
       id="clipPath4898">
      <path
         style="display:inline;opacity:1;fill:#f2f2f2;fill-opacity:1;fill-rule:evenodd;stroke:none;stroke-width:2;stroke-linecap:butt;stroke-linejoin:miter;stroke-miterlimit:4;stroke-dasharray:none;stroke-opacity:1;enable-background:new"
         d="m 63.99287,248.0073 v -216 c 0,-12 12,-12 12,-12 h 100 c 8,0 9.72468,1.72468 16,8 l 28,28 L 252,88 c 4.7359,3.51946 3.99504,6.44279 4,12 l -0.007,148.0073 c 0,0 0,12 -12,12 h -168 c 0,0 -12,0 -12,-12 z"
         id="path4900"
         inkscape:connector-curvature="0"
         sodipodi:nodetypes="ccccccccccccc" />
    </clipPath>
    <filter
       inkscape:collect="always"
       style="color-interpolation-filters:sRGB"
       id="filter4922"
       x="-0.026996929"
       width="1.0539939"
       y="-0.021601966"
       height="1.0432039">
      <feGaussianBlur
         inkscape:collect="always"
         stdDeviation="2.1601966"
         id="feGaussianBlur4924" />
    </filter>
    <clipPath
       clipPathUnits="userSpaceOnUse"
       id="clipPath4936">
      <path
         style="display:inline;opacity:1;fill:#f9f9f9;fill-opacity:1;fill-rule:evenodd;stroke:none;stroke-width:2;stroke-linecap:butt;stroke-linejoin:miter;stroke-miterlimit:4;stroke-dasharray:none;stroke-opacity:1;enable-background:new"
         d="m 64,20 111.99287,0.0073 c 8,0 9.72468,1.72468 16,8 l 28,28 L 252,88 c 4.7359,3.51946 3.99504,6.44279 4,12 V 260 H 64 Z"
         id="path4938"
         inkscape:connector-curvature="0"
         sodipodi:nodetypes="ccccccccc" />
    </clipPath>
  </defs>
  <sodipodi:namedview
     stroke="#ef2929"
     fill="#f57900"
     id="base"
     pagecolor="#ffffff"
     bordercolor="#666666"
     borderopacity="0.25490196"
     inkscape:pageopacity="0"
     inkscape:pageshadow="2"
     inkscape:zoom="1"
     inkscape:cx="1425.5"
     inkscape:cy="150.5"
     inkscape:current-layer="g4628"
     showgrid="false"
     inkscape:grid-bbox="true"
     inkscape:document-units="px"
     inkscape:showpageshadow="false"
     inkscape:window-width="1920"
     inkscape:window-height="1016"
     inkscape:window-x="0"
     inkscape:window-y="27"
     width="400px"
     height="300px"
     inkscape:snap-nodes="true"
     inkscape:snap-bbox="true"
     objecttolerance="7"
     gridtolerance="12"
     guidetolerance="13"
     inkscape:window-maximized="1"
     inkscape:pagecheckerboard="false"
     showguides="false"
     inkscape:guide-bbox="true"
     inkscape:locked="false"
     inkscape:measure-start="0,0"
     inkscape:measure-end="0,0"
     inkscape:object-nodes="true"
     inkscape:bbox-nodes="true"
     inkscape:snap-global="true"
     inkscape:snap-intersection-paths="false">
    <inkscape:grid
       type="xygrid"
       id="grid5883"
       spacingx="1px"
       spacingy="1px"
       enabled="true"
       visible="true"
       empspacing="4" />
  </sodipodi:namedview>
  <metadata
     id="metadata4">
    <rdf:RDF>
      <cc:Work
         rdf:about="">
        <dc:format>image/svg+xml</dc:format>
        <dc:type
           rdf:resource="http://purl.org/dc/dcmitype/StillImage" />
        <dc:creator>
          <cc:Agent>
            <dc:title>Sam Hewitt</dc:title>
          </cc:Agent>
        </dc:creator>
        <dc:source />
        <cc:license
           rdf:resource="http://creativecommons.org/licenses/by-nc-sa/4.0/" />
        <dc:title>Solus Icon Template</dc:title>
        <dc:subject>
          <rdf:Bag />
        </dc:subject>
        <dc:date />
        <dc:rights>
          <cc:Agent>
            <dc:title />
          </cc:Agent>
        </dc:rights>
        <dc:publisher>
          <cc:Agent>
            <dc:title />
          </cc:Agent>
        </dc:publisher>
        <dc:identifier />
        <dc:relation />
        <dc:language />
        <dc:coverage />
        <dc:description />
        <dc:contributor>
          <cc:Agent>
            <dc:title />
          </cc:Agent>
        </dc:contributor>
      </cc:Work>
      <cc:License
         rdf:about="http://creativecommons.org/licenses/by-nc-sa/4.0/">
        <cc:permits
           rdf:resource="http://creativecommons.org/ns#Reproduction" />
        <cc:permits
           rdf:resource="http://creativecommons.org/ns#Distribution" />
        <cc:requires
           rdf:resource="http://creativecommons.org/ns#Notice" />
        <cc:requires
           rdf:resource="http://creativecommons.org/ns#Attribution" />
        <cc:prohibits
           rdf:resource="http://creativecommons.org/ns#CommercialUse" />
        <cc:permits
           rdf:resource="http://creativecommons.org/ns#DerivativeWorks" />
        <cc:requires
           rdf:resource="http://creativecommons.org/ns#ShareAlike" />
      </cc:License>
    </rdf:RDF>
  </metadata>
  <g
     id="layer1"
     inkscape:label="artwork:text-x-preview"
     inkscape:groupmode="layer"
     style="display:inline"
     transform="translate(0,20)">
    <g
       inkscape:groupmode="layer"
       id="layer7"
       inkscape:label="baseplate"
       style="display:none">
      <rect
         style="display:inline;overflow:visible;visibility:visible;fill:#eeeeec;fill-opacity:1;fill-rule:nonzero;stroke:none;stroke-width:2;marker:none;enable-background:accumulate"
         id="rect6592"
         width="32"
         height="32"
         x="320"
         y="116"
         inkscape:label="32x32" />
      <rect
         style="display:inline;overflow:visible;visibility:visible;fill:#eeeeec;fill-opacity:1;fill-rule:nonzero;stroke:none;stroke-width:2;marker:none;enable-background:accumulate"
         id="rect6833"
         width="16"
         height="16"
         x="320"
         y="220"
         inkscape:label="16x16" />
      <rect
         style="display:inline;overflow:visible;visibility:visible;fill:#eeeeec;fill-opacity:1;fill-rule:nonzero;stroke:none;stroke-width:2;marker:none;enable-background:accumulate"
         id="rect8104"
         width="24"
         height="24"
         x="320"
         y="172"
         inkscape:label="24x24" />
      <text
         xml:space="preserve"
         style="font-style:normal;font-variant:normal;font-weight:normal;font-stretch:normal;font-size:18.30133247px;line-height:125%;font-family:Cantarell;-inkscape-font-specification:'Cantarell, Normal';text-align:start;writing-mode:lr-tb;text-anchor:start;display:inline;fill:#000000;fill-opacity:1;stroke:none;enable-background:new"
         x="31.855944"
         y="-65.699577"
         id="context"
         inkscape:label="context"><tspan
           sodipodi:role="line"
           id="tspan2716"
           x="31.855944"
           y="-65.699577">mimetypes</tspan></text>
      <text
         inkscape:label="icon-name"
         id="text3021"
         y="-39.900627"
         x="31.264769"
         style="font-style:normal;font-variant:normal;font-weight:bold;font-stretch:normal;font-size:18.30133247px;line-height:22.87666512px;font-family:Cantarell;-inkscape-font-specification:'Cantarell, Bold';text-align:start;writing-mode:lr-tb;text-anchor:start;display:inline;fill:#000000;fill-opacity:1;stroke:none;enable-background:new"
         xml:space="preserve"><tspan
           y="-39.900627"
           x="31.264769"
           id="tspan3023"
           sodipodi:role="line">text-x-preview</tspan></text>
      <rect
         style="display:inline;overflow:visible;visibility:visible;fill:#eeeeec;fill-opacity:1;fill-rule:nonzero;stroke:none;stroke-width:1.99999976;marker:none;enable-background:accumulate"
         id="rect13805"
         width="256"
         height="256"
         x="32.000004"
         y="12.000042"
         inkscape:label="512x512" />
      <rect
         inkscape:label="48x48"
         y="320"
         x="44"
         height="48"
         width="48"
         id="rect6284"
         style="display:inline;overflow:visible;visibility:visible;fill:#eeeeec;fill-opacity:1;fill-rule:nonzero;stroke:none;stroke-width:2;marker:none;enable-background:accumulate"
         transform="matrix(0,1,1,0,0,0)" />
      <rect
         inkscape:label="22x22"
         y="173.05884"
         x="321"
         height="22"
         width="22"
         id="rect6749"
         style="display:inline;overflow:visible;visibility:visible;fill:#eeeeec;fill-opacity:1;fill-rule:nonzero;stroke:none;stroke-width:2;marker:none;enable-background:accumulate" />
    </g>
    <g
       inkscape:groupmode="layer"
       id="layer9"
       inkscape:label="icons"
       style="display:inline">
      <g
         id="g5048">
        <path
           sodipodi:nodetypes="ccccccccc"
           inkscape:connector-curvature="0"
           id="path5054"
           d="m 328.5,88.999661 v -40.00824 c 0,-1.50032 1.5,-1.50032 1.5,-1.50032 h 19.5 l 12.00564,12.00898 v 29.49958 c 0,0 0.1338,1.50032 -1.5,1.50032 H 330 c 0,0 -1.5,0 -1.5,-1.50032 z"
           style="display:inline;opacity:0.05;fill:#000000;fill-opacity:1;fill-rule:evenodd;stroke:#000000;stroke-width:1;stroke-linecap:butt;stroke-linejoin:miter;stroke-miterlimit:4;stroke-dasharray:none;stroke-opacity:1;enable-background:new" />
        <path
           sodipodi:nodetypes="ccccccccc"
           inkscape:connector-curvature="0"
           id="path4920"
           d="m 64,21 111.99287,0.0073 c 8,0 9.72468,1.72468 16,8 l 28,28 L 252,89 c 4.7359,3.519464 3.99504,6.442789 4,12 V 261 H 64 Z"
           style="display:inline;opacity:0.4;fill:#000000;fill-opacity:1;fill-rule:evenodd;stroke:#020000;stroke-width:2;stroke-linecap:butt;stroke-linejoin:miter;stroke-miterlimit:4;stroke-dasharray:none;stroke-opacity:1;filter:url(#filter4922);enable-background:new" />
        <path
           style="display:inline;opacity:1;fill:#f9f9f9;fill-opacity:1;fill-rule:evenodd;stroke:none;stroke-width:2;stroke-linecap:butt;stroke-linejoin:miter;stroke-miterlimit:4;stroke-dasharray:none;stroke-opacity:1;enable-background:new"
           d="m 64,20 111.99287,0.0073 c 8,0 9.72468,1.72468 16,8 l 28,28 L 252,88 c 4.7359,3.519464 3.99504,6.442789 4,12 V 260 H 64 Z"
           id="path4740"
           inkscape:connector-curvature="0"
           sodipodi:nodetypes="ccccccccc" />
        <path
           inkscape:connector-curvature="0"
           id="rect4340-2-4"
           d="m 184.69569,24.248037 v 0.0156 c 2.99667,2.997061 9.93181,11.060641 9.93555,15.298851 l -6,49.5 48.75,-2 c 8.21228,0 13.66987,3.51393 14.92307,6.68948 -0.99732,-2.5175 -2.29738,-4.05109 -3.62229,-5.50393 h 0.0137 l -64,-64.000001 z"
           style="color:#000000;clip-rule:nonzero;display:inline;overflow:visible;visibility:visible;opacity:0.353;isolation:auto;mix-blend-mode:normal;color-interpolation:sRGB;color-interpolation-filters:linearRGB;solid-color:#000000;solid-opacity:1;fill:url(#linearGradient6779);fill-opacity:1;fill-rule:evenodd;stroke:none;stroke-width:1.875;stroke-linecap:butt;stroke-linejoin:miter;stroke-miterlimit:4;stroke-dasharray:none;stroke-dashoffset:0;stroke-opacity:1;marker:none;marker-start:none;marker-mid:none;marker-end:none;paint-order:normal;filter:url(#filter7524);color-rendering:auto;image-rendering:auto;shape-rendering:auto;text-rendering:auto;enable-background:accumulate"
           sodipodi:nodetypes="cccccccccc" />
        <path
           sodipodi:nodetypes="cccc"
           style="display:inline;fill:#f9f9f9;fill-opacity:1;fill-rule:evenodd;stroke:none;stroke-width:1px;stroke-linecap:butt;stroke-linejoin:miter;stroke-opacity:1;enable-background:new"
           d="m 329.49978,225.49993 v -4 l 4,4 z"
           id="path4687"
           inkscape:connector-curvature="0" />
        <path
           inkscape:connector-curvature="0"
           id="path4670"
           d="m 334.5,179.5 v -6.00449 l 6.00282,6.00449 z"
           style="display:inline;fill:#f9f9f9;fill-opacity:1;fill-rule:evenodd;stroke:none;stroke-width:1px;stroke-linecap:butt;stroke-linejoin:miter;stroke-opacity:1;enable-background:new"
           sodipodi:nodetypes="cccc" />
        <path
           inkscape:connector-curvature="0"
           id="path4666"
           d="m 349.5,58.500081 v -12.00898 l 12.00564,12.00898 z"
           style="display:inline;fill:#f9f9f9;fill-opacity:1;fill-rule:evenodd;stroke:none;stroke-width:1px;stroke-linecap:butt;stroke-linejoin:miter;stroke-opacity:1;enable-background:new" />
        <path
           style="display:inline;opacity:1;fill:#f9f9f9;fill-opacity:1;fill-rule:evenodd;stroke:none;stroke-width:1px;stroke-linecap:butt;stroke-linejoin:miter;stroke-opacity:1;enable-background:new"
           d="m 322.49978,234.99993 v -13 c 0,-0.5 0.5,-0.5 0.5,-0.5 h 6.5 v 4 h 4 v 9.5 c 0,0 0.0446,0.5 -0.5,0.5 h -10 c 0,0 -0.5,0 -0.5,-0.5 z"
           id="path6381-2"
           inkscape:connector-curvature="0"
           sodipodi:nodetypes="cccccccccc" />
        <path
           sodipodi:nodetypes="cccccccccc"
           inkscape:connector-curvature="0"
           id="path4540"
           d="m 324.5,193.74979 v -19.50412 c 0,-0.75016 0.75,-0.75016 0.75,-0.75016 h 9.25 V 179.5 h 6.00282 v 14.24979 c 0,0 0.0669,0.75016 -0.75,0.75016 H 325.25 c 0,0 -0.75,0 -0.75,-0.75016 z"
           style="display:inline;opacity:1;fill:#f9f9f9;fill-opacity:1;fill-rule:evenodd;stroke:none;stroke-width:1px;stroke-linecap:butt;stroke-linejoin:miter;stroke-opacity:1;enable-background:new" />
        <path
           style="display:inline;opacity:1;fill:#f9f9f9;fill-opacity:1;fill-rule:evenodd;stroke:none;stroke-width:1;stroke-linecap:butt;stroke-linejoin:miter;stroke-miterlimit:4;stroke-dasharray:none;stroke-opacity:1;enable-background:new"
           d="m 328.5,87.999661 v -40.00824 c 0,-1.50032 1.5,-1.50032 1.5,-1.50032 h 19.5 v 12.00898 h 12.00564 v 29.49958 c 0,0 0.1338,1.50032 -1.5,1.50032 H 330 c 0,0 -1.5,0 -1.5,-1.50032 z"
           id="path4582"
           inkscape:connector-curvature="0"
           sodipodi:nodetypes="cccccccccc" />
        <path
           sodipodi:nodetypes="ccccccccc"
           inkscape:connector-curvature="0"
           id="path6379-9"
           d="m 322.49978,234.99993 v -13 c 0,-0.5 0.5,-0.5 0.5,-0.5 h 6.5 l 4,4 v 9.5 c 0,0 0.0446,0.5 -0.5,0.5 h -10 c 0,0 -0.5,0 -0.5,-0.5 z"
           style="display:inline;fill:none;fill-rule:evenodd;stroke:#cccccc;stroke-width:1px;stroke-linecap:butt;stroke-linejoin:miter;stroke-opacity:1;enable-background:new" />
        <path
           sodipodi:nodetypes="ccc"
           inkscape:connector-curvature="0"
           id="path6531-2"
           d="m 329.49978,221.49993 v 4 h 4"
           style="display:inline;fill:none;fill-rule:evenodd;stroke:#cccccc;stroke-width:1px;stroke-linecap:butt;stroke-linejoin:miter;stroke-opacity:1;enable-background:new" />
        <g
           id="g4736"
           style="display:inline;enable-background:new">
          <path
             inkscape:connector-curvature="0"
             id="path4668"
             d="m 339.5,125.5 v -8 l 8,8 z"
             style="fill:#f9f9f9;fill-opacity:1;fill-rule:evenodd;stroke:none;stroke-width:1px;stroke-linecap:butt;stroke-linejoin:miter;stroke-opacity:1"
             sodipodi:nodetypes="cccc" />
          <path
             style="opacity:1;fill:#f9f9f9;fill-opacity:1;fill-rule:evenodd;stroke:none;stroke-width:2px;stroke-linecap:butt;stroke-linejoin:miter;stroke-opacity:1"
             d="m 324.5,145.5 v -27 c 0,-1 1,-1 1,-1 h 14 v 8 h 8 v 20 c 0,0 0.0892,1 -1,1 h -21 c 0,0 -1,0 -1,-1 z"
             id="path4528"
             inkscape:connector-curvature="0"
             sodipodi:nodetypes="cccccccccc" />
          <path
             sodipodi:nodetypes="ccccccccc"
             inkscape:connector-curvature="0"
             id="path4526"
             d="m 324.5,145.5 v -27 c 0,-1 1,-1 1,-1 h 14 l 8,8 v 20 c 0,0 0.0892,1 -1,1 h -21 c 0,0 -1,0 -1,-1 z"
             style="fill:none;fill-rule:evenodd;stroke:#cccccc;stroke-width:1;stroke-linecap:butt;stroke-linejoin:miter;stroke-miterlimit:4;stroke-dasharray:none;stroke-opacity:1" />
          <path
             sodipodi:nodetypes="ccc"
             inkscape:connector-curvature="0"
             id="path4530"
             d="m 339.5,117.5 v 8 h 8"
             style="fill:none;fill-rule:evenodd;stroke:#cccccc;stroke-width:1;stroke-linecap:butt;stroke-linejoin:miter;stroke-miterlimit:4;stroke-dasharray:none;stroke-opacity:1" />
        </g>
        <path
           style="display:inline;fill:none;fill-rule:evenodd;stroke:#cccccc;stroke-width:1px;stroke-linecap:butt;stroke-linejoin:miter;stroke-opacity:1;enable-background:new"
           d="m 324.5,193.74979 v -19.50412 c 0,-0.75016 0.75,-0.75016 0.75,-0.75016 h 9.25 l 6.00282,6.00449 v 14.24979 c 0,0 0.0669,0.75016 -0.75,0.75016 H 325.25 c 0,0 -0.75,0 -0.75,-0.75016 z"
           id="path4538"
           inkscape:connector-curvature="0"
           sodipodi:nodetypes="ccccccccc" />
        <path
           style="display:inline;fill:none;fill-rule:evenodd;stroke:#cccccc;stroke-width:1px;stroke-linecap:butt;stroke-linejoin:miter;stroke-opacity:1;enable-background:new"
           d="M 334.5,173.49551 V 179.5 h 6.00282"
           id="path4542"
           inkscape:connector-curvature="0"
           sodipodi:nodetypes="ccc" />
        <path
           sodipodi:nodetypes="ccccccccc"
           inkscape:connector-curvature="0"
           id="path4580"
           d="m 328.5,87.999661 v -40.00824 c 0,-1.50032 1.5,-1.50032 1.5,-1.50032 h 19.5 l 12.00564,12.00898 v 29.49958 c 0,0 0.1338,1.50032 -1.5,1.50032 H 330 c 0,0 -1.5,0 -1.5,-1.50032 z"
           style="display:inline;fill:none;fill-rule:evenodd;stroke:#cccccc;stroke-width:1;stroke-linecap:butt;stroke-linejoin:miter;stroke-miterlimit:4;stroke-dasharray:none;stroke-opacity:1;enable-background:new" />
        <path
           sodipodi:nodetypes="ccc"
           inkscape:connector-curvature="0"
           id="path4584"
           d="m 349.5,48.491101 v 10.00898 h 10.00564"
           style="display:inline;fill:none;fill-rule:evenodd;stroke:#cccccc;stroke-width:1;stroke-linecap:round;stroke-linejoin:miter;stroke-miterlimit:4;stroke-dasharray:none;stroke-opacity:1;enable-background:new" />
        <path
           style="color:#000000;clip-rule:nonzero;display:inline;overflow:visible;visibility:visible;opacity:1;isolation:auto;mix-blend-mode:normal;color-interpolation:sRGB;color-interpolation-filters:linearRGB;solid-color:#000000;solid-opacity:1;fill:#ffffff;fill-opacity:1;fill-rule:evenodd;stroke:none;stroke-width:1;stroke-linecap:butt;stroke-linejoin:miter;stroke-miterlimit:4;stroke-dasharray:none;stroke-dashoffset:0;stroke-opacity:1;marker:none;marker-start:none;marker-mid:none;marker-end:none;paint-order:normal;color-rendering:auto;image-rendering:auto;shape-rendering:auto;text-rendering:auto;enable-background:accumulate"
           d="M 256,99.51381 C 256,90 249,84 240,84 l -47.51398,-4.7e-4 C 192.21775,83.99944 192.00026,83.78208 192,83.51381 V 36 c 0,-9 -7,-16 -16,-16 9,0 9.72732,1.738465 16,8 l 60,60 c 4.606,3.439592 3.99486,6.09845 4,11.51381 z"
           id="path4362"
           inkscape:connector-curvature="0"
           sodipodi:nodetypes="ccccccccc" />
        <path
           clip-path="url(#clipPath4936)"
           sodipodi:nodetypes="ccccccccc"
           inkscape:connector-curvature="0"
           id="path4932"
           d="m 64,20 111.99287,0.0073 c 8,0 9.72468,1.72468 16,8 l 28,28 L 252,88 c 4.7359,3.519464 3.99504,6.442789 4,12 V 260 H 64 Z"
           style="display:inline;opacity:1;fill:none;fill-opacity:1;fill-rule:evenodd;stroke:#ffffff;stroke-width:2;stroke-linecap:butt;stroke-linejoin:miter;stroke-miterlimit:4;stroke-dasharray:none;stroke-opacity:1;enable-background:new" />
      </g>
    </g>
  </g>
  <g
     transform="translate(0,20)"
     style="display:inline"
     inkscape:groupmode="layer"
     inkscape:label="artwork:text-x-generic"
     id="g5022">
    <g
       style="display:none"
       inkscape:label="baseplate"
       id="g4960"
       inkscape:groupmode="layer">
      <rect
         inkscape:label="32x32"
         y="116"
         x="720"
         height="32"
         width="32"
         id="rect4940"
         style="display:inline;overflow:visible;visibility:visible;fill:#eeeeec;fill-opacity:1;fill-rule:nonzero;stroke:none;stroke-width:2;marker:none;enable-background:accumulate" />
      <rect
         inkscape:label="16x16"
         y="220"
         x="720"
         height="16"
         width="16"
         id="rect4942"
         style="display:inline;overflow:visible;visibility:visible;fill:#eeeeec;fill-opacity:1;fill-rule:nonzero;stroke:none;stroke-width:2;marker:none;enable-background:accumulate" />
      <rect
         inkscape:label="24x24"
         y="172"
         x="720"
         height="24"
         width="24"
         id="rect4944"
         style="display:inline;overflow:visible;visibility:visible;fill:#eeeeec;fill-opacity:1;fill-rule:nonzero;stroke:none;stroke-width:2;marker:none;enable-background:accumulate" />
      <text
         inkscape:label="context"
         id="text4948"
         y="-65.699577"
         x="431.85596"
         style="font-style:normal;font-variant:normal;font-weight:normal;font-stretch:normal;font-size:18.30133247px;line-height:125%;font-family:Cantarell;-inkscape-font-specification:'Cantarell, Normal';text-align:start;writing-mode:lr-tb;text-anchor:start;display:inline;fill:#000000;fill-opacity:1;stroke:none;enable-background:new"
         xml:space="preserve"><tspan
           y="-65.699577"
           x="431.85596"
           id="tspan4946"
           sodipodi:role="line">mimetypes</tspan></text>
      <text
         xml:space="preserve"
         style="font-style:normal;font-variant:normal;font-weight:bold;font-stretch:normal;font-size:18.30133247px;line-height:22.87666512px;font-family:Cantarell;-inkscape-font-specification:'Cantarell, Bold';text-align:start;writing-mode:lr-tb;text-anchor:start;display:inline;fill:#000000;fill-opacity:1;stroke:none;enable-background:new"
         x="431.26477"
         y="-39.900627"
         id="text4952"
         inkscape:label="icon-name"><tspan
           sodipodi:role="line"
           id="tspan4950"
           x="431.26477"
           y="-39.900627">text-x-generic</tspan></text>
      <rect
         inkscape:label="512x512"
         y="12.000042"
         x="432"
         height="256"
         width="256"
         id="rect4954"
         style="display:inline;overflow:visible;visibility:visible;fill:#eeeeec;fill-opacity:1;fill-rule:nonzero;stroke:none;stroke-width:1.99999976;marker:none;enable-background:accumulate" />
      <rect
         transform="matrix(0,1,1,0,0,0)"
         style="display:inline;overflow:visible;visibility:visible;fill:#eeeeec;fill-opacity:1;fill-rule:nonzero;stroke:none;stroke-width:2;marker:none;enable-background:accumulate"
         id="rect4956"
         width="48"
         height="48"
         x="44"
         y="720"
         inkscape:label="48x48" />
      <rect
         style="display:inline;overflow:visible;visibility:visible;fill:#eeeeec;fill-opacity:1;fill-rule:nonzero;stroke:none;stroke-width:2;marker:none;enable-background:accumulate"
         id="rect4958"
         width="22"
         height="22"
         x="721"
         y="173.05884"
         inkscape:label="22x22" />
    </g>
    <g
       style="display:inline"
       inkscape:label="icons"
       id="g5006"
       inkscape:groupmode="layer">
      <use
         style="display:inline;enable-background:new"
         x="0"
         y="0"
         xlink:href="#g5048"
         id="use5050"
         transform="translate(400)"
         width="100%"
         height="100%" />
    </g>
    <g
       style="display:inline"
       inkscape:label="emblem"
       id="g5020"
       inkscape:groupmode="layer">
      <path
         sodipodi:nodetypes="ccccccccccccccc"
         style="display:inline;fill:#cccccc;fill-opacity:1;stroke:none;enable-background:new"
         d="m 725.00002,227.98986 h 6 v 1 h -6 z M 725,229.9865 h 6 v 1 h -6 z m 2e-5,2.00336 h 4 v 1 h -4 z"
         id="path5008"
         inkscape:connector-curvature="0" />
      <path
         style="display:inline;fill:#cccccc;fill-opacity:1;stroke:none;stroke-width:2;enable-background:new"
         d="m 730,152 v 1 h 12 v -1 z m 0,2 v 1 h 12 v -1 z m 0,1.99414 V 157 h 12 v -1.00586 z m 0,2 V 159 h 12 v -1.00586 z M 730,160 v 1 h 8 v -1 z"
         transform="translate(0,-20)"
         id="path5010"
         inkscape:connector-curvature="0" />
      <path
         style="display:inline;fill:#cccccc;fill-opacity:1;stroke:none;stroke-width:1;enable-background:new"
         d="m 728,203 v 1 h 9 v -1 z m 0,2 v 1 h 9 v -1 z m 0,2 v 1 h 9 v -1 z m 0,2.00195 V 210 h 5.46875 v -0.99805 z"
         transform="translate(0,-20)"
         id="path5012"
         inkscape:connector-curvature="0" />
      <path
         style="display:inline;fill:#cccccc;fill-opacity:1;stroke:none;stroke-width:2;enable-background:new"
         d="m 734,66 v 1 h 22 v -1 z m 0,3 v 1 h 22 v -1 z m 0,3 v 1 h 22 v -1 z m 0,3 v 1 h 22 v -1 z m 0,3.001953 V 79 l 22,-0.002 V 78 Z m 0,2.999997 V 82 l 15,-0.002 V 81 Z"
         id="path5014"
         inkscape:connector-curvature="0"
         sodipodi:nodetypes="cccccccccccccccccccccccccccccc" />
      <path
         style="display:inline;fill:#cccccc;fill-opacity:1;stroke:none;stroke-width:2;stroke-miterlimit:4;stroke-dasharray:none;enable-background:new"
         d="m 496,140 v 4 h 128 v -4 z m 0,16 v 4 h 128 v -4 z m 0,15.94531 V 176 h 128 v -4.05469 z m 0,16 V 192 h 128 v -4.05469 z M 496,204 v 4 h 128 v -4 z m 0,16 v 4 h 96 v -4 z"
         id="path5016"
         inkscape:connector-curvature="0"
         sodipodi:nodetypes="cccccccccccccccccccccccccccccc" />
    </g>
  </g>
  <g
     id="g4600"
     inkscape:label="artwork:text-x-generic-template"
     inkscape:groupmode="layer"
     style="display:inline"
     transform="translate(0,20)">
    <g
       inkscape:groupmode="layer"
       id="g4582"
       inkscape:label="baseplate"
       style="display:none">
      <rect
         style="display:inline;overflow:visible;visibility:visible;fill:#eeeeec;fill-opacity:1;fill-rule:nonzero;stroke:none;stroke-width:2;marker:none;enable-background:accumulate"
         id="rect4562"
         width="32"
         height="32"
         x="1120"
         y="116"
         inkscape:label="32x32" />
      <rect
         style="display:inline;overflow:visible;visibility:visible;fill:#eeeeec;fill-opacity:1;fill-rule:nonzero;stroke:none;stroke-width:2;marker:none;enable-background:accumulate"
         id="rect4564"
         width="16"
         height="16"
         x="1120"
         y="220"
         inkscape:label="16x16" />
      <rect
         style="display:inline;overflow:visible;visibility:visible;fill:#eeeeec;fill-opacity:1;fill-rule:nonzero;stroke:none;stroke-width:2;marker:none;enable-background:accumulate"
         id="rect4566"
         width="24"
         height="24"
         x="1120"
         y="172"
         inkscape:label="24x24" />
      <text
         xml:space="preserve"
         style="font-style:normal;font-variant:normal;font-weight:normal;font-stretch:normal;font-size:18.30133247px;line-height:125%;font-family:Cantarell;-inkscape-font-specification:'Cantarell, Normal';text-align:start;writing-mode:lr-tb;text-anchor:start;display:inline;fill:#000000;fill-opacity:1;stroke:none;enable-background:new"
         x="831.85596"
         y="-65.699577"
         id="text4570"
         inkscape:label="context"><tspan
           sodipodi:role="line"
           id="tspan4568"
           x="831.85596"
           y="-65.699577">mimetypes</tspan></text>
      <text
         inkscape:label="icon-name"
         id="text4574"
         y="-39.900627"
         x="831.26477"
         style="font-style:normal;font-variant:normal;font-weight:bold;font-stretch:normal;font-size:18.30133247px;line-height:22.87666512px;font-family:Cantarell;-inkscape-font-specification:'Cantarell, Bold';text-align:start;writing-mode:lr-tb;text-anchor:start;display:inline;fill:#000000;fill-opacity:1;stroke:none;enable-background:new"
         xml:space="preserve"><tspan
           y="-39.900627"
           x="831.26477"
           id="tspan4572"
           sodipodi:role="line">text-x-generic-template</tspan></text>
      <rect
         style="display:inline;overflow:visible;visibility:visible;fill:#eeeeec;fill-opacity:1;fill-rule:nonzero;stroke:none;stroke-width:1.99999976;marker:none;enable-background:accumulate"
         id="rect4576"
         width="256"
         height="256"
         x="832"
         y="12.000042"
         inkscape:label="512x512" />
      <rect
         inkscape:label="48x48"
         y="1120"
         x="44"
         height="48"
         width="48"
         id="rect4578"
         style="display:inline;overflow:visible;visibility:visible;fill:#eeeeec;fill-opacity:1;fill-rule:nonzero;stroke:none;stroke-width:2;marker:none;enable-background:accumulate"
         transform="matrix(0,1,1,0,0,0)" />
      <rect
         inkscape:label="22x22"
         y="173.05884"
         x="1121"
         height="22"
         width="22"
         id="rect4580"
         style="display:inline;overflow:visible;visibility:visible;fill:#eeeeec;fill-opacity:1;fill-rule:nonzero;stroke:none;stroke-width:2;marker:none;enable-background:accumulate" />
    </g>
    <g
       inkscape:groupmode="layer"
       id="g4586"
       inkscape:label="icons"
       style="display:inline">
      <use
         height="100%"
         width="100%"
         transform="translate(800)"
         id="use4584"
         xlink:href="#g5048"
         y="0"
         x="0"
         style="display:inline;enable-background:new" />
    </g>
    <g
       inkscape:groupmode="layer"
       id="g4598"
       inkscape:label="emblem"
       style="display:inline" />
  </g>
  <g
     transform="translate(0,20)"
     style="display:inline"
     inkscape:groupmode="layer"
     inkscape:label="artwork:text-html"
     id="g4630">
    <g
       style="display:none"
       inkscape:label="baseplate"
       id="g4622"
       inkscape:groupmode="layer">
      <rect
         inkscape:label="32x32"
         y="116"
         x="1520"
         height="32"
         width="32"
         id="rect4602"
         style="display:inline;overflow:visible;visibility:visible;fill:#eeeeec;fill-opacity:1;fill-rule:nonzero;stroke:none;stroke-width:2;marker:none;enable-background:accumulate" />
      <rect
         inkscape:label="16x16"
         y="220"
         x="1520"
         height="16"
         width="16"
         id="rect4604"
         style="display:inline;overflow:visible;visibility:visible;fill:#eeeeec;fill-opacity:1;fill-rule:nonzero;stroke:none;stroke-width:2;marker:none;enable-background:accumulate" />
      <rect
         inkscape:label="24x24"
         y="172"
         x="1520"
         height="24"
         width="24"
         id="rect4606"
         style="display:inline;overflow:visible;visibility:visible;fill:#eeeeec;fill-opacity:1;fill-rule:nonzero;stroke:none;stroke-width:2;marker:none;enable-background:accumulate" />
      <text
         inkscape:label="context"
         id="text4610"
         y="-65.699577"
         x="1231.856"
         style="font-style:normal;font-variant:normal;font-weight:normal;font-stretch:normal;font-size:18.30133247px;line-height:125%;font-family:Cantarell;-inkscape-font-specification:'Cantarell, Normal';text-align:start;writing-mode:lr-tb;text-anchor:start;display:inline;fill:#000000;fill-opacity:1;stroke:none;enable-background:new"
         xml:space="preserve"><tspan
           y="-65.699577"
           x="1231.856"
           id="tspan4608"
           sodipodi:role="line">mimetypes</tspan></text>
      <text
         xml:space="preserve"
         style="font-style:normal;font-variant:normal;font-weight:bold;font-stretch:normal;font-size:18.30133247px;line-height:22.87666512px;font-family:Cantarell;-inkscape-font-specification:'Cantarell, Bold';text-align:start;writing-mode:lr-tb;text-anchor:start;display:inline;fill:#000000;fill-opacity:1;stroke:none;enable-background:new"
         x="1231.2648"
         y="-39.900627"
         id="text4614"
         inkscape:label="icon-name"><tspan
           sodipodi:role="line"
           id="tspan4612"
           x="1231.2648"
           y="-39.900627">text-html</tspan></text>
      <rect
         inkscape:label="512x512"
         y="12.000042"
         x="1232"
         height="256"
         width="256"
         id="rect4616"
         style="display:inline;overflow:visible;visibility:visible;fill:#eeeeec;fill-opacity:1;fill-rule:nonzero;stroke:none;stroke-width:1.99999976;marker:none;enable-background:accumulate" />
      <rect
         transform="matrix(0,1,1,0,0,0)"
         style="display:inline;overflow:visible;visibility:visible;fill:#eeeeec;fill-opacity:1;fill-rule:nonzero;stroke:none;stroke-width:2;marker:none;enable-background:accumulate"
         id="rect4618"
         width="48"
         height="48"
         x="44"
         y="1520"
         inkscape:label="48x48" />
      <rect
         style="display:inline;overflow:visible;visibility:visible;fill:#eeeeec;fill-opacity:1;fill-rule:nonzero;stroke:none;stroke-width:2;marker:none;enable-background:accumulate"
         id="rect4620"
         width="22"
         height="22"
         x="1521"
         y="173.05884"
         inkscape:label="22x22" />
    </g>
    <g
       style="display:inline"
       inkscape:label="icons"
       id="g4626"
       inkscape:groupmode="layer">
      <use
         style="display:inline;enable-background:new"
         x="0"
         y="0"
         xlink:href="#g5048"
         id="use4624"
         transform="translate(1200)"
         width="100%"
         height="100%" />
    </g>
    <g
       style="display:inline"
       inkscape:label="emblem"
       id="g4628"
       inkscape:groupmode="layer">
      <path
         style="font-style:normal;font-variant:normal;font-weight:normal;font-stretch:normal;font-size:medium;line-height:25px;font-family:Montserrat;-inkscape-font-specification:Montserrat;letter-spacing:0px;word-spacing:0px;display:inline;fill:#da5c9d;fill-opacity:1;stroke:none;stroke-width:0.99999994px;stroke-linecap:butt;stroke-linejoin:miter;stroke-opacity:1;enable-background:new"
         d="M 1547.0254,86 1542,101 h 1.5605 l 5.0254,-15 z m 1.1601,3.789062 v 1.417969 l 5.5879,2.355469 -5.5879,2.339844 v 1.417968 L 1555,94.359375 V 92.75 Z m -6.371,0.08008 L 1535,92.830078 V 94.4375 l 6.8145,2.962891 v -1.417969 l -5.5879,-2.355469 5.5879,-2.341797 z"
         transform="translate(0,-20)"
         id="path4656"
         inkscape:connector-curvature="0"
         sodipodi:nodetypes="ccccccccccccccccccccc" />
      <path
         style="font-style:normal;font-variant:normal;font-weight:normal;font-stretch:normal;font-size:medium;line-height:25px;font-family:Montserrat;-inkscape-font-specification:Montserrat;letter-spacing:0px;word-spacing:0px;display:inline;fill:#da5c9d;fill-opacity:1;stroke:none;stroke-width:0.99999988px;stroke-linecap:butt;stroke-linejoin:miter;stroke-opacity:1;enable-background:new"
         d="m 1372.6426,148 -31.2578,92 h 9.9863 l 31.2578,-92 z M 1380,171.30078 v 9.07031 l 36.1543,15.08203 L 1380,210.42969 V 219.5 l 44,-18.95312 v -10.29493 z m -40,0.50781 -44,18.95703 v 10.28907 l 44,18.95312 v -9.0664 L 1303.8477,195.86133 1340,180.87891 Z"
         transform="translate(0,-20)"
         id="path4669"
         inkscape:connector-curvature="0"
         sodipodi:nodetypes="ccccccccccccccccccccc" />
      <path
         inkscape:connector-curvature="0"
         id="path4671"
         d="m 1537.4599,130.28077 -3.5331,10.39892 h 1.0923 l 3.533,-10.39892 z m 0.77,2.77551 v 0.99211 l 3.9119,1.64953 -3.9119,1.63809 v 0.99211 L 1543,136.2552 v -1.12599 z m -4.4598,0.0555 -4.7701,2.07347 v 1.12545 l 4.7701,2.07292 v -0.99156 l -3.9118,-1.64953 3.9118,-1.63864 z"
         style="font-style:normal;font-variant:normal;font-weight:normal;font-stretch:normal;font-size:medium;line-height:25px;font-family:Montserrat;-inkscape-font-specification:Montserrat;letter-spacing:0px;word-spacing:0px;display:inline;fill:#da5c9d;fill-opacity:1;stroke:none;stroke-width:0.99999994px;stroke-linecap:butt;stroke-linejoin:miter;stroke-opacity:1;enable-background:new" />
      <path
         style="font-style:normal;font-variant:normal;font-weight:normal;font-stretch:normal;font-size:medium;line-height:25px;font-family:Montserrat;-inkscape-font-specification:Montserrat;letter-spacing:0px;word-spacing:0px;display:inline;fill:#da5c9d;fill-opacity:1;stroke:none;stroke-width:0.99999994px;stroke-linecap:butt;stroke-linejoin:miter;stroke-opacity:1;enable-background:new"
         d="m 1533.5431,183.25189 -2.5235,7.4278 h 0.7801 l 2.5236,-7.4278 z m 1.0496,1.98251 v 0.70865 l 2.7943,1.17823 -2.7943,1.17007 V 189 L 1538,187.51934 v -0.80428 z m -4.1847,0.0397 -3.4072,1.48105 v 0.8039 l 3.4072,1.48065 v -0.70825 l -2.7941,-1.17824 2.7941,-1.17046 z"
         id="path4673"
         inkscape:connector-curvature="0"
         sodipodi:nodetypes="ccccccccccccccccccccc" />
      <path
         id="path8657"
         d="m 1526.4902,228.98681 a 0.50005,0.50005 0 0 0 -0.4062,0.22852 l -1,1.5 a 0.50005,0.50005 0 0 0 0,0.55468 l 1,1.5 a 0.50005,0.50005 0 1 0 0.832,-0.55468 l -0.8144,-1.22266 0.8144,-1.22266 a 0.50005,0.50005 0 0 0 -0.4258,-0.7832 z m 3.0039,0 a 0.50005,0.50005 0 0 0 -0.4101,0.7832 l 0.8144,1.22266 -0.8144,1.22266 a 0.50005,0.50005 0 1 0 0.832,0.55468 l 1,-1.5 a 0.50005,0.50005 0 0 0 0,-0.55468 l -1,-1.5 a 0.50005,0.50005 0 0 0 -0.4219,-0.22852 z"
         style="color:#000000;font-style:normal;font-variant:normal;font-weight:normal;font-stretch:normal;font-size:medium;line-height:normal;font-family:sans-serif;font-variant-ligatures:normal;font-variant-position:normal;font-variant-caps:normal;font-variant-numeric:normal;font-variant-alternates:normal;font-feature-settings:normal;text-indent:0;text-align:start;text-decoration:none;text-decoration-line:none;text-decoration-style:solid;text-decoration-color:#000000;letter-spacing:normal;word-spacing:normal;text-transform:none;writing-mode:lr-tb;direction:ltr;text-orientation:mixed;dominant-baseline:auto;baseline-shift:baseline;text-anchor:start;white-space:normal;shape-padding:0;clip-rule:nonzero;display:inline;overflow:visible;visibility:visible;opacity:1;isolation:auto;mix-blend-mode:normal;color-interpolation:sRGB;color-interpolation-filters:linearRGB;solid-color:#000000;solid-opacity:1;vector-effect:none;fill:#da5c9d;fill-opacity:1;fill-rule:evenodd;stroke:none;stroke-width:1px;stroke-linecap:round;stroke-linejoin:round;stroke-miterlimit:4;stroke-dasharray:none;stroke-dashoffset:0;stroke-opacity:1;color-rendering:auto;image-rendering:auto;shape-rendering:auto;text-rendering:auto;enable-background:accumulate"
         inkscape:connector-curvature="0" />
    </g>
  </g>
  <g
     id="g4728"
     inkscape:label="artwork:text-x-script"
     inkscape:groupmode="layer"
     style="display:inline"
     transform="translate(0,20)">
    <g
       inkscape:groupmode="layer"
       id="g4710"
       inkscape:label="baseplate"
       style="display:none">
      <rect
         style="display:inline;overflow:visible;visibility:visible;fill:#eeeeec;fill-opacity:1;fill-rule:nonzero;stroke:none;stroke-width:2;marker:none;enable-background:accumulate"
         id="rect4690"
         width="32"
         height="32"
         x="1900"
         y="116"
         inkscape:label="32x32" />
      <rect
         style="display:inline;overflow:visible;visibility:visible;fill:#eeeeec;fill-opacity:1;fill-rule:nonzero;stroke:none;stroke-width:2;marker:none;enable-background:accumulate"
         id="rect4692"
         width="16"
         height="16"
         x="1900"
         y="220"
         inkscape:label="16x16" />
      <rect
         style="display:inline;overflow:visible;visibility:visible;fill:#eeeeec;fill-opacity:1;fill-rule:nonzero;stroke:none;stroke-width:2;marker:none;enable-background:accumulate"
         id="rect4694"
         width="24"
         height="24"
         x="1900"
         y="172"
         inkscape:label="24x24" />
      <text
         xml:space="preserve"
         style="font-style:normal;font-variant:normal;font-weight:normal;font-stretch:normal;font-size:18.30133247px;line-height:125%;font-family:Cantarell;-inkscape-font-specification:'Cantarell, Normal';text-align:start;writing-mode:lr-tb;text-anchor:start;display:inline;fill:#000000;fill-opacity:1;stroke:none;enable-background:new"
         x="1611.856"
         y="-65.699577"
         id="text4698"
         inkscape:label="context"><tspan
           sodipodi:role="line"
           id="tspan4696"
           x="1611.856"
           y="-65.699577">mimetypes</tspan></text>
      <text
         inkscape:label="icon-name"
         id="text4702"
         y="-39.900627"
         x="1611.2648"
         style="font-style:normal;font-variant:normal;font-weight:bold;font-stretch:normal;font-size:18.30133247px;line-height:22.87666512px;font-family:Cantarell;-inkscape-font-specification:'Cantarell, Bold';text-align:start;writing-mode:lr-tb;text-anchor:start;display:inline;fill:#000000;fill-opacity:1;stroke:none;enable-background:new"
         xml:space="preserve"><tspan
           y="-39.900627"
           x="1611.2648"
           id="tspan4700"
           sodipodi:role="line">text-x-script</tspan></text>
      <rect
         style="display:inline;overflow:visible;visibility:visible;fill:#eeeeec;fill-opacity:1;fill-rule:nonzero;stroke:none;stroke-width:1.99999976;marker:none;enable-background:accumulate"
         id="rect4704"
         width="256"
         height="256"
         x="1612"
         y="12.000042"
         inkscape:label="512x512" />
      <rect
         inkscape:label="48x48"
         y="1900"
         x="44"
         height="48"
         width="48"
         id="rect4706"
         style="display:inline;overflow:visible;visibility:visible;fill:#eeeeec;fill-opacity:1;fill-rule:nonzero;stroke:none;stroke-width:2;marker:none;enable-background:accumulate"
         transform="matrix(0,1,1,0,0,0)" />
      <rect
         inkscape:label="22x22"
         y="173.05884"
         x="1901"
         height="22"
         width="22"
         id="rect4708"
         style="display:inline;overflow:visible;visibility:visible;fill:#eeeeec;fill-opacity:1;fill-rule:nonzero;stroke:none;stroke-width:2;marker:none;enable-background:accumulate" />
    </g>
    <g
       inkscape:groupmode="layer"
       id="g4714"
       inkscape:label="icons"
       style="display:inline">
      <use
         height="100%"
         width="100%"
         transform="translate(1580)"
         id="use4712"
         xlink:href="#g5048"
         y="0"
         x="0"
         style="display:inline;enable-background:new" />
    </g>
    <g
       inkscape:groupmode="layer"
       id="g4726"
       inkscape:label="emblem"
       style="display:inline">
      <g
         id="g4997"
         transform="translate(-217.75,50)"
         style="fill:#85b3df">
        <path
           sodipodi:nodetypes="ccccc"
           style="color:#bebebe;display:inline;overflow:visible;visibility:visible;fill:#85b3df;fill-opacity:1;fill-rule:nonzero;stroke:none;stroke-width:2;marker:none;enable-background:accumulate"
           d="m 2134.75,90 h 5 v 1 h -5 z"
           id="path4449"
           inkscape:connector-curvature="0" />
        <rect
           y="84"
           x="2129.75"
           height="7"
           width="1"
           id="rect4453"
           style="display:inline;opacity:1;fill:#85b3df;fill-opacity:1;stroke:none;stroke-width:8;stroke-linecap:square;stroke-linejoin:miter;stroke-miterlimit:4;stroke-dasharray:none;stroke-opacity:1;enable-background:new" />
        <path
           sodipodi:nodetypes="ssscssscccscssscssscccscs"
           inkscape:connector-curvature="0"
           style="display:inline;opacity:1;fill:#85b3df;fill-opacity:1;stroke:none;stroke-width:8;stroke-linecap:square;stroke-linejoin:miter;stroke-miterlimit:4;stroke-dasharray:none;stroke-opacity:1;enable-background:new"
           d="m 2129.25,85 c -0.831,0 -1.5,0.669 -1.5,1.5 0,0.831 0.669,1.5 1.5,1.5 h 1.5 0.5 c 0.277,0 0.5,0.223 0.5,0.5 0,0.277 -0.2233,0.51287 -0.5,0.5 h -0.5 -1.5 -1.4082 c 0.206,0.58192 0.754,1 1.4082,1 h 1.5 0.5 c 0.831,0 1.5,-0.669 1.5,-1.5 0,-0.831 -0.669,-1.5 -1.5,-1.5 h -0.5 -1.5 c -0.277,0 -0.5,-0.223 -0.5,-0.5 0,-0.277 0.223,-0.5 0.5,-0.5 h 1.5 0.5 1.4082 c -0.206,-0.58192 -0.754,-1 -1.4082,-1 h -0.5 z"
           id="path4455" />
      </g>
      <path
         style="color:#bebebe;display:inline;overflow:visible;visibility:visible;fill:#85b3df;fill-opacity:1;fill-rule:nonzero;stroke:none;stroke-width:2;marker:none;enable-background:accumulate"
         d="m 1909,184 v 1 c -0.831,0 -1.5,0.669 -1.5,1.5 0,0.831 0.669,1.5 1.5,1.5 v 1 h -1.4082 c 0.206,0.58192 0.754,1 1.4082,1 v 1 h 1 v -1 c 0.831,0 1.5,-0.669 1.5,-1.5 0,-0.831 -0.669,-1.5 -1.5,-1.5 v -1 h 1.4082 c -0.206,-0.58192 -0.754,-1 -1.4082,-1 v -1 z m 0,2 v 1 c -0.277,0 -0.5,-0.223 -0.5,-0.5 0,-0.277 0.223,-0.5 0.5,-0.5 z m 1,2 c 0.277,0 0.5,0.223 0.5,0.5 0,0.277 -0.223,0.5 -0.5,0.5 z m 3,2 v 1 h 4 v -1 z"
         id="path4469-3"
         inkscape:connector-curvature="0" />
      <path
         style="color:#bebebe;display:inline;overflow:visible;visibility:visible;fill:#85b3df;fill-opacity:1;fill-rule:nonzero;stroke:none;stroke-width:2;marker:none;enable-background:accumulate"
         d="m 1704,148 v 8 h -6 c -7.7733,0 -14,6.2267 -14,14 0,7.7733 6.2267,14 14,14 h 6 v 12 h -6 -12.4258 c 2.2519,4.68617 6.8535,8 12.4258,8 h 6 v 8 h 8 v -8 h 6 c 7.7733,0 14,-6.2267 14,-14 0,-7.7733 -6.2267,-14 -14,-14 h -6 v -12 h 6 12.4258 c -2.2519,-4.68617 -6.8535,-8 -12.4258,-8 h -6 v -8 z m -6,16 h 6 v 12 h -6 c -3.3067,0 -6,-2.6933 -6,-6 0,-3.3067 2.6933,-6 6,-6 z m 14,20 h 6 c 3.3067,0 6,2.6933 6,6 0,3.30742 -2.6885,6.15425 -6.0469,5.99805 L 1718,196 h -6 v -11 z m 32,20 v 8 h 48 v -8 z"
         id="path5000"
         inkscape:connector-curvature="0"
         sodipodi:nodetypes="ccsssccccsccccsssccccscccsccssscsscccccccccc" />
      <path
         style="color:#bebebe;display:inline;overflow:visible;visibility:visible;fill:#85b3df;fill-opacity:1;fill-rule:nonzero;stroke:none;stroke-width:2;marker:none;enable-background:accumulate"
         d="m 1919,69 v 2 h -0.5 c -1.3936,0 -2.5,1.106351 -2.5,2.5 0,1.393649 1.1064,2.5 2.5,2.5 h 0.5 v 3 h -3 c 0.4531,0.56685 1.059,1 1.8496,1 H 1919 v 2 h 1 v -2 h 0.5 c 1.3936,0 2.5,-1.106351 2.5,-2.5 0,-1.393649 -1.1064,-2.5 -2.5,-2.5 h -0.5 v -3 h 3 c -0.4531,-0.566845 -1.059,-1 -1.8496,-1 H 1920 v -2 z m -0.5,3 h 0.5 v 3 h -0.5 c -0.8224,0 -1.5,-0.677649 -1.5,-1.5 0,-0.822351 0.6776,-1.5 1.5,-1.5 z m 1.5,4 h 0.5 c 0.8224,0 1.5,0.677649 1.5,1.5 0,0.822351 -0.6776,1.5 -1.5,1.5 h -0.5 v -2.5 z m 7,5 v 1 h 7 v -1 z"
         id="path5037"
         inkscape:connector-curvature="0"
         sodipodi:nodetypes="ccssscccsccccssscccscccsccssscssscccccccc" />
    </g>
  </g>
</svg>
