<?xml version="1.0" encoding="UTF-8" standalone="no"?>
<!-- Created with Inkscape (http://www.inkscape.org/) -->

<svg
   xmlns:dc="http://purl.org/dc/elements/1.1/"
   xmlns:cc="http://creativecommons.org/ns#"
   xmlns:rdf="http://www.w3.org/1999/02/22-rdf-syntax-ns#"
   xmlns:svg="http://www.w3.org/2000/svg"
   xmlns="http://www.w3.org/2000/svg"
   xmlns:xlink="http://www.w3.org/1999/xlink"
   xmlns:sodipodi="http://sodipodi.sourceforge.net/DTD/sodipodi-0.dtd"
   xmlns:inkscape="http://www.inkscape.org/namespaces/inkscape"
   inkscape:export-ydpi="96"
   inkscape:export-xdpi="96"
   inkscape:export-filename="Template.png"
   width="400"
   height="320"
   id="svg11300"
   sodipodi:version="0.32"
   inkscape:version="0.92.1 r15371"
   sodipodi:docname="green-circles.svg"
   inkscape:output_extension="org.inkscape.output.svg.inkscape"
   version="1.0"
   style="display:inline;enable-background:new"
   viewBox="0 0 400 320">
  <title
     id="title4162">Solus Icon Template</title>
  <defs
     id="defs3">
    <linearGradient
       inkscape:collect="always"
       id="linearGradient4568">
      <stop
         id="stop4566"
         offset="0"
         style="stop-color:#e95800;stop-opacity:1" />
      <stop
         id="stop4564"
         offset="1"
         style="stop-color:#e40004;stop-opacity:1" />
    </linearGradient>
    <linearGradient
       inkscape:collect="always"
       xlink:href="#linearGradient4568"
       id="linearGradient4530"
       gradientUnits="userSpaceOnUse"
       x1="328"
       y1="221"
       x2="328"
       y2="235"
       gradientTransform="matrix(1.375,0,0,1.375,-119,-129.44116)" />
    <linearGradient
       inkscape:collect="always"
       xlink:href="#linearGradient4568"
       id="linearGradient4536"
       gradientUnits="userSpaceOnUse"
       gradientTransform="matrix(1.75,0,0,1.75,-238,-267)"
       x1="328"
       y1="221"
       x2="328"
       y2="235" />
    <linearGradient
       inkscape:collect="always"
       xlink:href="#linearGradient4568"
       id="linearGradient4540"
       gradientUnits="userSpaceOnUse"
       gradientTransform="matrix(2.75,0,0,2.75,-558.00001,-559.00002)"
       x1="328"
       y1="221"
       x2="328"
       y2="235" />
    <filter
       inkscape:collect="always"
       style="color-interpolation-filters:sRGB"
       id="filter4582-3"
       x="-0.059999999"
       width="1.12"
       y="-0.059999999"
       height="1.12">
      <feGaussianBlur
         inkscape:collect="always"
         stdDeviation="5.7"
         id="feGaussianBlur4584-6" />
    </filter>
    <filter
       inkscape:collect="always"
       style="color-interpolation-filters:sRGB"
       id="filter4576-7"
       x="-0.012"
       width="1.024"
       y="-0.012"
       height="1.024">
      <feGaussianBlur
         inkscape:collect="always"
         stdDeviation="1.14"
         id="feGaussianBlur4578-5" />
    </filter>
    <linearGradient
       inkscape:collect="always"
       xlink:href="#linearGradient4641"
       id="linearGradient4524-3"
       x1="328"
       y1="221"
       x2="328"
       y2="235"
       gradientUnits="userSpaceOnUse"
       gradientTransform="matrix(0.875,0,0,0.875,41,28.5)" />
    <linearGradient
       inkscape:collect="always"
       xlink:href="#linearGradient4641"
       id="linearGradient4530-9"
       gradientUnits="userSpaceOnUse"
       x1="328"
       y1="221"
       x2="328"
       y2="235"
       gradientTransform="matrix(1.25,0,0,1.25,-78,-101)" />
    <linearGradient
       inkscape:collect="always"
       xlink:href="#linearGradient4641"
       id="linearGradient4536-1"
       gradientUnits="userSpaceOnUse"
       gradientTransform="matrix(1.625,0,0,1.625,-197,-238.5)"
       x1="328"
       y1="221"
       x2="328"
       y2="235" />
    <linearGradient
       inkscape:collect="always"
       xlink:href="#linearGradient4641"
       id="linearGradient4540-2"
       gradientUnits="userSpaceOnUse"
       gradientTransform="matrix(2.625,0,0,2.625,-517.00001,-530.50002)"
       x1="328"
       y1="221"
       x2="328"
       y2="235" />
    <linearGradient
       inkscape:collect="always"
       xlink:href="#linearGradient4641"
       id="linearGradient4603"
       gradientUnits="userSpaceOnUse"
       gradientTransform="matrix(14.25,0,0,14.25,-4514.0001,-3109.0001)"
       x1="328"
       y1="221"
       x2="328"
       y2="235" />
    <linearGradient
       inkscape:collect="always"
       id="linearGradient4641">
      <stop
         id="stop4639"
         offset="0"
         style="stop-color:#89c7ad;stop-opacity:1" />
      <stop
         id="stop4637"
         offset="1"
         style="stop-color:#3caf85;stop-opacity:1" />
    </linearGradient>
  </defs>
  <sodipodi:namedview
     stroke="#ef2929"
     fill="#f57900"
     id="base"
     pagecolor="#ffffff"
     bordercolor="#666666"
     borderopacity="0.25490196"
     inkscape:pageopacity="0"
     inkscape:pageshadow="2"
     inkscape:zoom="1"
     inkscape:cx="-230.18457"
     inkscape:cy="93.44298"
     inkscape:current-layer="layer9"
     showgrid="false"
     inkscape:grid-bbox="true"
     inkscape:document-units="px"
     inkscape:showpageshadow="false"
     inkscape:window-width="1920"
     inkscape:window-height="1016"
     inkscape:window-x="0"
     inkscape:window-y="27"
     width="400px"
     height="300px"
     inkscape:snap-nodes="true"
     inkscape:snap-bbox="true"
     objecttolerance="7"
     gridtolerance="12"
     guidetolerance="13"
     inkscape:window-maximized="1"
     inkscape:pagecheckerboard="false"
     showguides="false"
     inkscape:guide-bbox="true"
     inkscape:locked="false"
     inkscape:measure-start="0,0"
     inkscape:measure-end="0,0"
     inkscape:object-nodes="true"
     inkscape:bbox-nodes="true"
     inkscape:snap-bbox-midpoints="true">
    <inkscape:grid
       type="xygrid"
       id="grid5883"
       spacingx="1px"
       spacingy="1px"
       enabled="true"
       visible="true"
       empspacing="4" />
  </sodipodi:namedview>
  <metadata
     id="metadata4">
    <rdf:RDF>
      <cc:Work
         rdf:about="">
        <dc:format>image/svg+xml</dc:format>
        <dc:type
           rdf:resource="http://purl.org/dc/dcmitype/StillImage" />
        <dc:creator>
          <cc:Agent>
            <dc:title>Sam Hewitt</dc:title>
          </cc:Agent>
        </dc:creator>
        <dc:source />
        <cc:license
           rdf:resource="http://creativecommons.org/licenses/by-nc-sa/4.0/" />
        <dc:title>Solus Icon Template</dc:title>
        <dc:subject>
          <rdf:Bag />
        </dc:subject>
        <dc:date />
        <dc:rights>
          <cc:Agent>
            <dc:title />
          </cc:Agent>
        </dc:rights>
        <dc:publisher>
          <cc:Agent>
            <dc:title />
          </cc:Agent>
        </dc:publisher>
        <dc:identifier />
        <dc:relation />
        <dc:language />
        <dc:coverage />
        <dc:description />
        <dc:contributor>
          <cc:Agent>
            <dc:title />
          </cc:Agent>
        </dc:contributor>
      </cc:Work>
      <cc:License
         rdf:about="http://creativecommons.org/licenses/by-nc-sa/4.0/">
        <cc:permits
           rdf:resource="http://creativecommons.org/ns#Reproduction" />
        <cc:permits
           rdf:resource="http://creativecommons.org/ns#Distribution" />
        <cc:requires
           rdf:resource="http://creativecommons.org/ns#Notice" />
        <cc:requires
           rdf:resource="http://creativecommons.org/ns#Attribution" />
        <cc:prohibits
           rdf:resource="http://creativecommons.org/ns#CommercialUse" />
        <cc:permits
           rdf:resource="http://creativecommons.org/ns#DerivativeWorks" />
        <cc:requires
           rdf:resource="http://creativecommons.org/ns#ShareAlike" />
      </cc:License>
    </rdf:RDF>
  </metadata>
  <g
     id="layer1"
     inkscape:label="artwork:preferences-system-search"
     inkscape:groupmode="layer"
     style="display:inline"
     transform="translate(0,20)">
    <g
       inkscape:groupmode="layer"
       id="layer7"
       inkscape:label="baseplate"
       style="display:none">
      <rect
         style="display:inline;overflow:visible;visibility:visible;fill:#eeeeec;fill-opacity:1;fill-rule:nonzero;stroke:none;stroke-width:2;marker:none;enable-background:accumulate"
         id="rect6592"
         width="32"
         height="32"
         x="320"
         y="116"
         inkscape:label="32x32" />
      <rect
         inkscape:label="22x22"
         y="173.05884"
         x="321"
         height="22"
         width="22"
         id="rect6749"
         style="display:inline;overflow:visible;visibility:visible;fill:#eeeeec;fill-opacity:1;fill-rule:nonzero;stroke:none;stroke-width:2;marker:none;enable-background:accumulate" />
      <rect
         style="display:inline;overflow:visible;visibility:visible;fill:#eeeeec;fill-opacity:1;fill-rule:nonzero;stroke:none;stroke-width:2;marker:none;enable-background:accumulate"
         id="rect6833"
         width="16"
         height="16"
         x="320"
         y="220"
         inkscape:label="16x16" />
      <rect
         style="display:inline;overflow:visible;visibility:visible;fill:#eeeeec;fill-opacity:1;fill-rule:nonzero;stroke:none;stroke-width:2;marker:none;enable-background:accumulate"
         id="rect8104"
         width="24"
         height="24"
         x="320"
         y="172"
         inkscape:label="24x24" />
      <text
         xml:space="preserve"
         style="font-style:normal;font-variant:normal;font-weight:normal;font-stretch:normal;font-size:13.33333302px;line-height:125%;font-family:monospace;-inkscape-font-specification:monospace;text-align:start;writing-mode:lr-tb;text-anchor:start;display:inline;fill:#000000;fill-opacity:1;stroke:none;enable-background:new"
         x="31.855944"
         y="-65.699577"
         id="context"
         inkscape:label="context"><tspan
           sodipodi:role="line"
           id="tspan2716"
           x="31.855944"
           y="-65.699577"
           style="font-weight:bold">apps</tspan></text>
      <text
         inkscape:label="icon-name"
         id="text3021"
         y="-39.900627"
         x="31.264769"
         style="font-style:normal;font-variant:normal;font-weight:normal;font-stretch:normal;font-size:13.33333302px;line-height:125%;font-family:monospace;-inkscape-font-specification:monospace;text-align:start;writing-mode:lr-tb;text-anchor:start;display:inline;fill:#000000;fill-opacity:1;stroke:none;enable-background:new"
         xml:space="preserve"><tspan
           y="-39.900627"
           x="31.264769"
           id="tspan3023"
           sodipodi:role="line">preferences-system-search</tspan></text>
      <rect
         style="display:inline;overflow:visible;visibility:visible;fill:#eeeeec;fill-opacity:1;fill-rule:nonzero;stroke:none;stroke-width:1.99999976;marker:none;enable-background:accumulate"
         id="rect13805"
         width="256"
         height="256"
         x="32.000004"
         y="12.000042"
         inkscape:label="512x512" />
      <rect
         inkscape:label="48x48"
         y="320"
         x="44"
         height="48"
         width="48"
         id="rect6284"
         style="display:inline;overflow:visible;visibility:visible;fill:#eeeeec;fill-opacity:1;fill-rule:nonzero;stroke:none;stroke-width:2;marker:none;enable-background:accumulate"
         transform="matrix(0,1,1,0,0,0)" />
      <circle
         r="11"
         cy="184.05884"
         cx="332"
         id="circle4528"
         style="display:inline;opacity:1;fill:url(#linearGradient4530);fill-opacity:1;stroke:none;stroke-width:1;stroke-linecap:round;stroke-linejoin:miter;stroke-miterlimit:4;stroke-dasharray:none;stroke-dashoffset:0;stroke-opacity:1;enable-background:new" />
      <circle
         style="display:inline;opacity:1;fill:url(#linearGradient4536);fill-opacity:1;stroke:none;stroke-width:1;stroke-linecap:round;stroke-linejoin:miter;stroke-miterlimit:4;stroke-dasharray:none;stroke-dashoffset:0;stroke-opacity:1;enable-background:new"
         id="circle4534"
         cx="336"
         cy="132"
         r="14" />
      <circle
         r="22"
         cy="68"
         cx="344"
         id="circle4538"
         style="display:inline;opacity:1;fill:url(#linearGradient4540);fill-opacity:1;stroke:none;stroke-width:1;stroke-linecap:round;stroke-linejoin:miter;stroke-miterlimit:4;stroke-dasharray:none;stroke-dashoffset:0;stroke-opacity:1;enable-background:new" />
    </g>
    <g
       inkscape:groupmode="layer"
       id="layer9"
       inkscape:label="icons"
       style="display:inline">
      <g
         transform="translate(-0.0215,-0.18004717)"
         style="display:inline;enable-background:new"
         id="g5288">
        <circle
           style="display:inline;opacity:0.4;fill:#56533d;fill-opacity:1;stroke:none;stroke-width:1;stroke-linecap:round;stroke-linejoin:miter;stroke-miterlimit:4;stroke-dasharray:none;stroke-dashoffset:0;stroke-opacity:1;enable-background:new"
           id="circle6017"
           cx="328"
           cy="229"
           r="7" />
        <circle
           style="display:inline;opacity:0.8;fill:none;fill-opacity:1;stroke:#17463b;stroke-width:2;stroke-linecap:round;stroke-linejoin:miter;stroke-miterlimit:4;stroke-dasharray:none;stroke-dashoffset:0;stroke-opacity:1;enable-background:new"
           id="circle6006"
           cx="328"
           cy="228"
           r="7" />
        <circle
           r="10"
           cy="185"
           cx="332"
           id="circle6000"
           style="display:inline;opacity:0.4;fill:#000000;fill-opacity:1;stroke:none;stroke-width:1;stroke-linecap:round;stroke-linejoin:miter;stroke-miterlimit:4;stroke-dasharray:none;stroke-dashoffset:0;stroke-opacity:1;enable-background:new" />
        <circle
           r="10"
           cy="184"
           cx="332"
           id="circle5989"
           style="display:inline;opacity:0.8;fill:none;fill-opacity:1;stroke:#17463b;stroke-width:2;stroke-linecap:round;stroke-linejoin:miter;stroke-miterlimit:4;stroke-dasharray:none;stroke-dashoffset:0;stroke-opacity:1;enable-background:new" />
        <circle
           style="display:inline;opacity:0.4;fill:#000000;fill-opacity:1;stroke:none;stroke-width:1;stroke-linecap:round;stroke-linejoin:miter;stroke-miterlimit:4;stroke-dasharray:none;stroke-dashoffset:0;stroke-opacity:1;enable-background:new"
           id="circle5987"
           cx="336"
           cy="133"
           r="13" />
        <circle
           r="21"
           cy="69"
           cx="344"
           id="circle4527"
           style="display:inline;opacity:0.4;fill:#000000;fill-opacity:1;stroke:none;stroke-width:1;stroke-linecap:round;stroke-linejoin:miter;stroke-miterlimit:4;stroke-dasharray:none;stroke-dashoffset:0;stroke-opacity:1;enable-background:new" />
        <circle
           r="21"
           cy="68"
           cx="344"
           id="circle4523"
           style="display:inline;opacity:0.8;fill:none;fill-opacity:1;stroke:#17463b;stroke-width:2;stroke-linecap:round;stroke-linejoin:miter;stroke-miterlimit:4;stroke-dasharray:none;stroke-dashoffset:0;stroke-opacity:1;enable-background:new" />
        <circle
           style="display:inline;opacity:0.8;fill:none;fill-opacity:1;stroke:#17463b;stroke-width:2;stroke-linecap:round;stroke-linejoin:miter;stroke-miterlimit:4;stroke-dasharray:none;stroke-dashoffset:0;stroke-opacity:1;enable-background:new"
           id="circle4525"
           cx="336"
           cy="132"
           r="13" />
        <circle
           r="114"
           cy="142.00005"
           cx="160"
           id="circle4580-7"
           style="display:inline;opacity:0.2;fill:#000000;fill-opacity:1;stroke:#000000;stroke-width:1;stroke-linecap:round;stroke-linejoin:miter;stroke-miterlimit:4;stroke-dasharray:none;stroke-dashoffset:0;stroke-opacity:1;filter:url(#filter4582-3);enable-background:new" />
        <circle
           style="display:inline;opacity:0.5;fill:#000000;fill-opacity:1;stroke:#000000;stroke-width:1;stroke-linecap:round;stroke-linejoin:miter;stroke-miterlimit:4;stroke-dasharray:none;stroke-dashoffset:0;stroke-opacity:1;filter:url(#filter4576-7);enable-background:new"
           id="circle4572-0"
           cx="160"
           cy="141.00005"
           r="114" />
        <circle
           r="7"
           cy="228"
           cx="328"
           id="path4510-9"
           style="display:inline;opacity:1;fill:url(#linearGradient4524-3);fill-opacity:1.0;stroke:none;stroke-width:1;stroke-linecap:round;stroke-linejoin:miter;stroke-miterlimit:4;stroke-dasharray:none;stroke-dashoffset:0;stroke-opacity:1;enable-background:new" />
        <circle
           style="display:inline;opacity:1;fill:url(#linearGradient4530-9);fill-opacity:1.0;stroke:none;stroke-width:1;stroke-linecap:round;stroke-linejoin:miter;stroke-miterlimit:4;stroke-dasharray:none;stroke-dashoffset:0;stroke-opacity:1;enable-background:new"
           id="circle4528-3"
           cx="332"
           cy="184"
           r="10" />
        <circle
           r="13"
           cy="132"
           cx="336"
           id="circle4534-6"
           style="display:inline;opacity:1;fill:url(#linearGradient4536-1);fill-opacity:1.0;stroke:none;stroke-width:1;stroke-linecap:round;stroke-linejoin:miter;stroke-miterlimit:4;stroke-dasharray:none;stroke-dashoffset:0;stroke-opacity:1;enable-background:new" />
        <circle
           style="display:inline;opacity:1;fill:url(#linearGradient4540-2);fill-opacity:1.0;stroke:none;stroke-width:1;stroke-linecap:round;stroke-linejoin:miter;stroke-miterlimit:4;stroke-dasharray:none;stroke-dashoffset:0;stroke-opacity:1;enable-background:new"
           id="circle4538-0"
           cx="344"
           cy="68"
           r="21" />
        <circle
           r="114"
           cy="140.00005"
           cx="160"
           id="circle4542-6"
           style="display:inline;opacity:1;fill:url(#linearGradient4603);fill-opacity:1.0;stroke:none;stroke-width:1;stroke-linecap:round;stroke-linejoin:miter;stroke-miterlimit:4;stroke-dasharray:none;stroke-dashoffset:0;stroke-opacity:1;enable-background:new" />
        <path
           inkscape:connector-curvature="0"
           id="circle5967"
           transform="translate(0,-20)"
           d="m 344,67 a 21,21 0 0 0 -21,21 21,21 0 0 0 0.0215,0.585938 A 21,21 0 0 1 344,68 21,21 0 0 1 364.97852,88.414062 21,21 0 0 0 365,88 21,21 0 0 0 344,67 Z"
           style="display:inline;opacity:0.4;fill:#ffffff;fill-opacity:1;stroke:none;stroke-width:1;stroke-linecap:round;stroke-linejoin:miter;stroke-miterlimit:4;stroke-dasharray:none;stroke-dashoffset:0;stroke-opacity:1;enable-background:new" />
        <path
           inkscape:connector-curvature="0"
           id="circle5976"
           transform="translate(0,-20)"
           d="m 336,139 a 13,13 0 0 0 -13,13 13,13 0 0 0 0.0215,0.58008 A 13,13 0 0 1 336,140 13,13 0 0 1 348.97852,152.41992 13,13 0 0 0 349,152 13,13 0 0 0 336,139 Z"
           style="display:inline;opacity:0.4;fill:#ffffff;fill-opacity:1;stroke:none;stroke-width:1;stroke-linecap:round;stroke-linejoin:miter;stroke-miterlimit:4;stroke-dasharray:none;stroke-dashoffset:0;stroke-opacity:1;enable-background:new" />
        <path
           inkscape:connector-curvature="0"
           id="circle5991"
           transform="translate(0,-20)"
           d="m 332,194 a 10,10 0 0 0 -10,10 10,10 0 0 0 0.0215,0.58594 A 10,10 0 0 1 332,195 10,10 0 0 1 341.97852,204.41406 10,10 0 0 0 342,204 10,10 0 0 0 332,194 Z"
           style="display:inline;opacity:0.4;fill:#f5f5f5;fill-opacity:1;stroke:none;stroke-width:1;stroke-linecap:round;stroke-linejoin:miter;stroke-miterlimit:4;stroke-dasharray:none;stroke-dashoffset:0;stroke-opacity:1;enable-background:new" />
        <path
           inkscape:connector-curvature="0"
           id="circle6008"
           transform="translate(0,-20)"
           d="m 328,241 a 7,7 0 0 0 -7,7 7,7 0 0 0 0.0234,0.54102 A 7,7 0 0 1 328,242 7,7 0 0 1 334.97656,248.45898 7,7 0 0 0 335,248 a 7,7 0 0 0 -7,-7 z"
           style="display:inline;opacity:0.4;fill:#ffffff;fill-opacity:1;stroke:none;stroke-width:1;stroke-linecap:round;stroke-linejoin:miter;stroke-miterlimit:4;stroke-dasharray:none;stroke-dashoffset:0;stroke-opacity:1;enable-background:new" />
      </g>
    </g>
    <g
       inkscape:groupmode="layer"
       id="layer2"
       inkscape:label="emblem">
      <path
         style="opacity:0.3;fill:#000000;fill-opacity:1;stroke:none;stroke-width:1;stroke-linecap:round;stroke-linejoin:miter;stroke-miterlimit:4;stroke-dasharray:none;stroke-dashoffset:0;stroke-opacity:1"
         d="m 334.47833,123.82292 c -3.03757,0 -5.5,2.46243 -5.5,5.5 0,3.03757 2.46243,5.5 5.5,5.5 1.20045,-4.9e-4 2.35733,-0.4069 3.31055,-1.12891 l 4.16015,4.16016 1.06055,-1.0625 -4.16211,-4.16211 c 0.72196,-0.95197 1.12901,-2.10722 1.13086,-3.30664 0,-3.03757 -2.46243,-5.5 -5.5,-5.5 z m 0,1 c 2.48528,0 4.5,2.01472 4.5,4.5 0,2.48528 -2.01472,4.5 -4.5,4.5 -2.48528,0 -4.5,-2.01472 -4.5,-4.5 0,-2.48528 2.01472,-4.5 4.5,-4.5 z"
         id="path4656"
         inkscape:connector-curvature="0" />
      <path
         style="opacity:0.3;fill:#000000;fill-opacity:1;stroke:none;stroke-width:2;stroke-linecap:round;stroke-linejoin:round;stroke-miterlimit:4;stroke-dasharray:none;stroke-dashoffset:0;stroke-opacity:1"
         d="m 149,83.00541 c -24.8528,0 -45,20.1472 -45,45 0,24.8528 20.1472,45 45,45 10.1988,-0.02 20.088,-3.5054 28.0469,-9.8828 l 33.4179,33.418 7.0704,-7.0704 -33.379,-33.3789 c 6.3717,-7.9746 9.8429,-17.8784 9.8438,-28.0859 0,-24.8528 -20.1472,-45 -45,-45 z m 0,10 c 19.33,0 35,15.67 35,35 0,19.33 -15.67,35 -35,35 -19.33,0 -35,-15.67 -35,-35 0,-19.33 15.67,-35 35,-35 z"
         id="path4658"
         inkscape:connector-curvature="0"
         sodipodi:nodetypes="ssccccccssssss" />
      <path
         inkscape:connector-curvature="0"
         id="path4660"
         d="m 341.74975,56.008441 c -4.55636,0 -8.25,3.693645 -8.25,8.25 0,4.556355 3.69364,8.25 8.25,8.25 1.80067,-7.35e-4 3.53599,-0.61035 4.96582,-1.693365 l 6.24023,6.24024 1.59082,-1.59375 -6.24316,-6.243165 c 1.08294,-1.427955 1.69351,-3.16083 1.69629,-4.95996 0,-4.556355 -3.69365,-8.25 -8.25,-8.25 z m 0,1.5 c 3.72792,0 6.75,3.02208 6.75,6.75 0,3.72792 -3.02208,6.75 -6.75,6.75 -3.72792,0 -6.75,-3.02208 -6.75,-6.75 0,-3.72792 3.02208,-6.75 6.75,-6.75 z"
         style="opacity:0.3;fill:#000000;fill-opacity:1;stroke:none;stroke-width:1;stroke-linecap:round;stroke-linejoin:miter;stroke-miterlimit:4;stroke-dasharray:none;stroke-dashoffset:0;stroke-opacity:1" />
      <path
         id="path4662"
         d="m 326.5,221.99961 c -1.93299,0 -3.5,1.56701 -3.5,3.5 0,1.93299 1.56701,3.5 3.5,3.5 0.76231,0 1.4623,-0.25031 2.03711,-0.66406 l 2.94141,2.93945 0.79492,-0.79687 -2.93946,-2.93946 C 329.74872,226.96346 330,226.26291 330,225.49961 c 0,-1.93299 -1.56701,-3.5 -3.5,-3.5 z m 0,1 c 1.38071,0 2.5,1.11929 2.5,2.5 0,1.38071 -1.11929,2.5 -2.5,2.5 -1.38071,0 -2.5,-1.11929 -2.5,-2.5 0,-1.38071 1.11929,-2.5 2.5,-2.5 z"
         style="opacity:0.3;fill:#000000;fill-opacity:1;stroke:none;stroke-width:1;stroke-linecap:round;stroke-linejoin:miter;stroke-miterlimit:4;stroke-dasharray:none;stroke-dashoffset:0;stroke-opacity:1"
         inkscape:connector-curvature="0" />
      <path
         sodipodi:nodetypes="ssccccccssssss"
         inkscape:connector-curvature="0"
         id="path4664"
         d="m 330.5,176.99961 c -2.48528,0 -4.5,2.01472 -4.5,4.5 0,2.48528 2.01472,4.5 4.5,4.5 1.01988,-0.002 2.0088,-0.35054 2.80469,-0.98828 l 3.34179,3.3418 0.70704,-0.70704 -3.3379,-3.33789 c 0.63717,-0.79746 0.98429,-1.78784 0.98438,-2.80859 0,-2.48528 -2.01472,-4.5 -4.5,-4.5 z m 0,1 c 1.933,0 3.5,1.567 3.5,3.5 0,1.933 -1.567,3.5 -3.5,3.5 -1.933,0 -3.5,-1.567 -3.5,-3.5 0,-1.933 1.567,-3.5 3.5,-3.5 z"
         style="opacity:0.3;fill:#000000;fill-opacity:1;stroke:none;stroke-width:2;stroke-linecap:round;stroke-linejoin:round;stroke-miterlimit:4;stroke-dasharray:none;stroke-dashoffset:0;stroke-opacity:1" />
      <path
         inkscape:connector-curvature="0"
         id="path7724"
         d="m 334.47833,124.82331 c -3.03757,0 -5.5,2.46243 -5.5,5.5 0,3.03757 2.46243,5.5 5.5,5.5 1.20045,-4.9e-4 2.35733,-0.4069 3.31055,-1.12891 l 4.16015,4.16016 1.06055,-1.0625 -4.16211,-4.16211 c 0.72196,-0.95197 1.12901,-2.10722 1.13086,-3.30664 0,-3.03757 -2.46243,-5.5 -5.5,-5.5 z m 0,1 c 2.48528,0 4.5,2.01472 4.5,4.5 0,2.48528 -2.01472,4.5 -4.5,4.5 -2.48528,0 -4.5,-2.01472 -4.5,-4.5 0,-2.48528 2.01472,-4.5 4.5,-4.5 z"
         style="opacity:1;fill:#ffffff;fill-opacity:1;stroke:none;stroke-width:1;stroke-linecap:round;stroke-linejoin:miter;stroke-miterlimit:4;stroke-dasharray:none;stroke-dashoffset:0;stroke-opacity:1" />
      <path
         sodipodi:nodetypes="ssccccccssssss"
         inkscape:connector-curvature="0"
         id="path4654"
         d="m 149,84.0058 c -24.8528,0 -45,20.1472 -45,45 0,24.8528 20.1472,45 45,45 10.1988,-0.02 20.088,-3.5054 28.0469,-9.8828 l 33.4179,33.418 7.0704,-7.0704 -33.379,-33.3789 c 6.3717,-7.9746 9.8429,-17.8784 9.8438,-28.0859 0,-24.8528 -20.1472,-45 -45,-45 z m 0,10 c 19.33,0 35,15.67 35,35 0,19.33 -15.67,35 -35,35 -19.33,0 -35,-15.67 -35,-35 0,-19.33 15.67,-35 35,-35 z"
         style="opacity:1;fill:#ffffff;fill-opacity:1;stroke:none;stroke-width:2;stroke-linecap:round;stroke-linejoin:round;stroke-miterlimit:4;stroke-dasharray:none;stroke-dashoffset:0;stroke-opacity:1" />
      <path
         style="opacity:1;fill:#ffffff;fill-opacity:1;stroke:none;stroke-width:1;stroke-linecap:round;stroke-linejoin:miter;stroke-miterlimit:4;stroke-dasharray:none;stroke-dashoffset:0;stroke-opacity:1"
         d="m 341.74975,57.008831 c -4.55636,0 -8.25,3.693645 -8.25,8.25 0,4.556355 3.69364,8.25 8.25,8.25 1.80067,-7.35e-4 3.53599,-0.61035 4.96582,-1.693365 l 6.24023,6.24024 1.59082,-1.59375 -6.24316,-6.243165 c 1.08294,-1.427955 1.69351,-3.16083 1.69629,-4.95996 0,-4.556355 -3.69365,-8.25 -8.25,-8.25 z m 0,1.5 c 3.72792,0 6.75,3.02208 6.75,6.75 0,3.72792 -3.02208,6.75 -6.75,6.75 -3.72792,0 -6.75,-3.02208 -6.75,-6.75 0,-3.72792 3.02208,-6.75 6.75,-6.75 z"
         id="path4598"
         inkscape:connector-curvature="0" />
      <path
         style="opacity:1;fill:#ffffff;fill-opacity:1;stroke:none;stroke-width:1;stroke-linecap:round;stroke-linejoin:miter;stroke-miterlimit:4;stroke-dasharray:none;stroke-dashoffset:0;stroke-opacity:1"
         d="M 326.5 243 C 324.56701 243 323 244.56701 323 246.5 C 323 248.43299 324.56701 250 326.5 250 C 327.26231 250 327.9623 249.74969 328.53711 249.33594 L 331.47852 252.27539 L 332.27344 251.47852 L 329.33398 248.53906 C 329.74872 247.96385 330 247.2633 330 246.5 C 330 244.56701 328.43299 243 326.5 243 z M 326.5 244 C 327.88071 244 329 245.11929 329 246.5 C 329 247.88071 327.88071 249 326.5 249 C 325.11929 249 324 247.88071 324 246.5 C 324 245.11929 325.11929 244 326.5 244 z "
         transform="translate(0,-20)"
         id="path4604" />
      <path
         style="opacity:1;fill:#ffffff;fill-opacity:1;stroke:none;stroke-width:2;stroke-linecap:round;stroke-linejoin:round;stroke-miterlimit:4;stroke-dasharray:none;stroke-dashoffset:0;stroke-opacity:1"
         d="m 330.5,198 c -2.48528,0 -4.5,2.01472 -4.5,4.5 0,2.48528 2.01472,4.5 4.5,4.5 1.01988,-0.002 2.0088,-0.35054 2.80469,-0.98828 l 3.34179,3.3418 0.70704,-0.70704 -3.3379,-3.33789 c 0.63717,-0.79746 0.98429,-1.78784 0.98438,-2.80859 0,-2.48528 -2.01472,-4.5 -4.5,-4.5 z m 0,1 c 1.933,0 3.5,1.567 3.5,3.5 0,1.933 -1.567,3.5 -3.5,3.5 -1.933,0 -3.5,-1.567 -3.5,-3.5 0,-1.933 1.567,-3.5 3.5,-3.5 z"
         transform="translate(0,-20)"
         id="path4642"
         inkscape:connector-curvature="0"
         sodipodi:nodetypes="ssccccccssssss" />
    </g>
  </g>
</svg>
