<?xml version="1.0" encoding="UTF-8" standalone="no"?>
<!-- Created with Inkscape (http://www.inkscape.org/) -->

<svg
   xmlns:dc="http://purl.org/dc/elements/1.1/"
   xmlns:cc="http://creativecommons.org/ns#"
   xmlns:rdf="http://www.w3.org/1999/02/22-rdf-syntax-ns#"
   xmlns:svg="http://www.w3.org/2000/svg"
   xmlns="http://www.w3.org/2000/svg"
   xmlns:xlink="http://www.w3.org/1999/xlink"
   xmlns:sodipodi="http://sodipodi.sourceforge.net/DTD/sodipodi-0.dtd"
   xmlns:inkscape="http://www.inkscape.org/namespaces/inkscape"
   inkscape:export-ydpi="96"
   inkscape:export-xdpi="96"
   inkscape:export-filename="Template.png"
   width="400"
   height="320"
   id="svg11300"
   sodipodi:version="0.32"
   inkscape:version="0.92.0 r"
   sodipodi:docname="help-browser.svg"
   inkscape:output_extension="org.inkscape.output.svg.inkscape"
   version="1.0"
   style="display:inline;enable-background:new"
   viewBox="0 0 400 320">
  <title
     id="title4162">Solus Icon Template</title>
  <defs
     id="defs3">
    <linearGradient
       inkscape:collect="always"
       id="linearGradient4568">
      <stop
         id="stop4566"
         offset="0"
         style="stop-color:#00b8ed;stop-opacity:1" />
      <stop
         id="stop4564"
         offset="1"
         style="stop-color:#0572ce;stop-opacity:1" />
    </linearGradient>
    <linearGradient
       inkscape:collect="always"
       xlink:href="#linearGradient4568"
       id="linearGradient4524"
       x1="328"
       y1="221"
       x2="328"
       y2="235"
       gradientUnits="userSpaceOnUse" />
    <linearGradient
       inkscape:collect="always"
       xlink:href="#linearGradient4568"
       id="linearGradient4530"
       gradientUnits="userSpaceOnUse"
       x1="328"
       y1="221"
       x2="328"
       y2="235"
       gradientTransform="matrix(1.375,0,0,1.375,-119,-129.44116)" />
    <linearGradient
       inkscape:collect="always"
       xlink:href="#linearGradient4568"
       id="linearGradient4536"
       gradientUnits="userSpaceOnUse"
       gradientTransform="matrix(1.75,0,0,1.75,-238,-267)"
       x1="328"
       y1="221"
       x2="328"
       y2="235" />
    <linearGradient
       inkscape:collect="always"
       xlink:href="#linearGradient4568"
       id="linearGradient4540"
       gradientUnits="userSpaceOnUse"
       gradientTransform="matrix(2.75,0,0,2.75,-558.00001,-559.00002)"
       x1="328"
       y1="221"
       x2="328"
       y2="235" />
    <linearGradient
       inkscape:collect="always"
       xlink:href="#linearGradient4568"
       id="linearGradient4544"
       gradientUnits="userSpaceOnUse"
       gradientTransform="matrix(14.25,0,0,14.25,-4514.0001,-3109.0001)"
       x1="328"
       y1="221"
       x2="328"
       y2="235" />
    <filter
       inkscape:collect="always"
       style="color-interpolation-filters:sRGB"
       id="filter4576"
       x="-0.012"
       width="1.024"
       y="-0.012"
       height="1.024">
      <feGaussianBlur
         inkscape:collect="always"
         stdDeviation="1.14"
         id="feGaussianBlur4578" />
    </filter>
    <filter
       inkscape:collect="always"
       style="color-interpolation-filters:sRGB"
       id="filter4582"
       x="-0.06"
       width="1.12"
       y="-0.06"
       height="1.12">
      <feGaussianBlur
         inkscape:collect="always"
         stdDeviation="5.7"
         id="feGaussianBlur4584" />
    </filter>
  </defs>
  <sodipodi:namedview
     stroke="#ef2929"
     fill="#f57900"
     id="base"
     pagecolor="#ffffff"
     bordercolor="#666666"
     borderopacity="0.25490196"
     inkscape:pageopacity="0.0"
     inkscape:pageshadow="2"
     inkscape:zoom="1"
     inkscape:cx="194.90069"
     inkscape:cy="-21.728309"
     inkscape:current-layer="layer9"
     showgrid="false"
     inkscape:grid-bbox="true"
     inkscape:document-units="px"
     inkscape:showpageshadow="false"
     inkscape:window-width="1920"
     inkscape:window-height="1016"
     inkscape:window-x="0"
     inkscape:window-y="27"
     width="400px"
     height="300px"
     inkscape:snap-nodes="true"
     inkscape:snap-bbox="true"
     objecttolerance="7"
     gridtolerance="12"
     guidetolerance="13"
     inkscape:window-maximized="1"
     inkscape:pagecheckerboard="false"
     showguides="false"
     inkscape:guide-bbox="true"
     inkscape:locked="false"
     inkscape:measure-start="0,0"
     inkscape:measure-end="0,0"
     inkscape:object-nodes="true"
     inkscape:bbox-nodes="true"
     inkscape:snap-bbox-midpoints="true">
    <inkscape:grid
       type="xygrid"
       id="grid5883"
       spacingx="1px"
       spacingy="1px"
       enabled="true"
       visible="true"
       empspacing="4" />
  </sodipodi:namedview>
  <metadata
     id="metadata4">
    <rdf:RDF>
      <cc:Work
         rdf:about="">
        <dc:format>image/svg+xml</dc:format>
        <dc:type
           rdf:resource="http://purl.org/dc/dcmitype/StillImage" />
        <dc:creator>
          <cc:Agent>
            <dc:title>Sam Hewitt</dc:title>
          </cc:Agent>
        </dc:creator>
        <dc:source />
        <cc:license
           rdf:resource="http://creativecommons.org/licenses/by-nc-sa/4.0/" />
        <dc:title>Solus Icon Template</dc:title>
        <dc:subject>
          <rdf:Bag />
        </dc:subject>
        <dc:date />
        <dc:rights>
          <cc:Agent>
            <dc:title />
          </cc:Agent>
        </dc:rights>
        <dc:publisher>
          <cc:Agent>
            <dc:title />
          </cc:Agent>
        </dc:publisher>
        <dc:identifier />
        <dc:relation />
        <dc:language />
        <dc:coverage />
        <dc:description />
        <dc:contributor>
          <cc:Agent>
            <dc:title />
          </cc:Agent>
        </dc:contributor>
      </cc:Work>
      <cc:License
         rdf:about="http://creativecommons.org/licenses/by-nc-sa/4.0/">
        <cc:permits
           rdf:resource="http://creativecommons.org/ns#Reproduction" />
        <cc:permits
           rdf:resource="http://creativecommons.org/ns#Distribution" />
        <cc:requires
           rdf:resource="http://creativecommons.org/ns#Notice" />
        <cc:requires
           rdf:resource="http://creativecommons.org/ns#Attribution" />
        <cc:prohibits
           rdf:resource="http://creativecommons.org/ns#CommercialUse" />
        <cc:permits
           rdf:resource="http://creativecommons.org/ns#DerivativeWorks" />
        <cc:requires
           rdf:resource="http://creativecommons.org/ns#ShareAlike" />
      </cc:License>
    </rdf:RDF>
  </metadata>
  <g
     id="layer1"
     inkscape:label="artwork:icon-name"
     inkscape:groupmode="layer"
     style="display:inline"
     transform="translate(0,20)">
    <g
       inkscape:groupmode="layer"
       id="layer7"
       inkscape:label="baseplate"
       style="display:none">
      <rect
         style="display:inline;overflow:visible;visibility:visible;fill:#eeeeec;fill-opacity:1;fill-rule:nonzero;stroke:none;stroke-width:2;marker:none;enable-background:accumulate"
         id="rect6592"
         width="32"
         height="32"
         x="320"
         y="116"
         inkscape:label="32x32" />
      <rect
         inkscape:label="22x22"
         y="173.05884"
         x="321"
         height="22"
         width="22"
         id="rect6749"
         style="display:inline;overflow:visible;visibility:visible;fill:#eeeeec;fill-opacity:1;fill-rule:nonzero;stroke:none;stroke-width:2;marker:none;enable-background:accumulate" />
      <rect
         style="display:inline;overflow:visible;visibility:visible;fill:#eeeeec;fill-opacity:1;fill-rule:nonzero;stroke:none;stroke-width:2;marker:none;enable-background:accumulate"
         id="rect6833"
         width="16"
         height="16"
         x="320"
         y="220"
         inkscape:label="16x16" />
      <rect
         style="display:inline;overflow:visible;visibility:visible;fill:#eeeeec;fill-opacity:1;fill-rule:nonzero;stroke:none;stroke-width:2;marker:none;enable-background:accumulate"
         id="rect8104"
         width="24"
         height="24"
         x="320"
         y="172"
         inkscape:label="24x24" />
      <text
         xml:space="preserve"
         style="font-style:normal;font-variant:normal;font-weight:normal;font-stretch:normal;font-size:13.33333302px;line-height:125%;font-family:monospace;-inkscape-font-specification:monospace;text-align:start;writing-mode:lr-tb;text-anchor:start;display:inline;fill:#000000;fill-opacity:1;stroke:none;enable-background:new"
         x="31.855944"
         y="-65.699577"
         id="context"
         inkscape:label="context"><tspan
           sodipodi:role="line"
           id="tspan2716"
           x="31.855944"
           y="-65.699577"
           style="font-weight:bold">apps</tspan></text>
      <text
         inkscape:label="icon-name"
         id="text3021"
         y="-39.900627"
         x="31.264769"
         style="font-style:normal;font-variant:normal;font-weight:normal;font-stretch:normal;font-size:13.33333302px;line-height:125%;font-family:monospace;-inkscape-font-specification:monospace;text-align:start;writing-mode:lr-tb;text-anchor:start;display:inline;fill:#000000;fill-opacity:1;stroke:none;enable-background:new"
         xml:space="preserve"><tspan
           y="-39.900627"
           x="31.264769"
           id="tspan3023"
           sodipodi:role="line">help-browser</tspan></text>
      <rect
         style="display:inline;overflow:visible;visibility:visible;fill:#eeeeec;fill-opacity:1;fill-rule:nonzero;stroke:none;stroke-width:1.99999976;marker:none;enable-background:accumulate"
         id="rect13805"
         width="256"
         height="256"
         x="32.000004"
         y="12.000042"
         inkscape:label="512x512" />
      <rect
         inkscape:label="48x48"
         y="320"
         x="44"
         height="48"
         width="48"
         id="rect6284"
         style="display:inline;overflow:visible;visibility:visible;fill:#eeeeec;fill-opacity:1;fill-rule:nonzero;stroke:none;stroke-width:2;marker:none;enable-background:accumulate"
         transform="matrix(0,1,1,0,0,0)" />
    </g>
    <g
       inkscape:groupmode="layer"
       id="layer9"
       inkscape:label="icons"
       style="display:inline">
      <circle
         r="11"
         cy="184.05884"
         cx="332"
         id="circle4680"
         style="display:inline;opacity:0.05;fill:#000000;fill-opacity:1;stroke:#000000;stroke-width:2;stroke-linecap:round;stroke-linejoin:miter;stroke-miterlimit:4;stroke-dasharray:none;stroke-dashoffset:0;stroke-opacity:1;enable-background:new" />
      <circle
         style="display:inline;opacity:0.05;fill:#000000;fill-opacity:1;stroke:#000000;stroke-width:2;stroke-linecap:round;stroke-linejoin:miter;stroke-miterlimit:4;stroke-dasharray:none;stroke-dashoffset:0;stroke-opacity:1;enable-background:new"
         id="circle4682"
         cx="336"
         cy="132"
         r="14" />
      <circle
         style="display:inline;opacity:0.1;fill:#000000;fill-opacity:1;stroke:none;stroke-width:1;stroke-linecap:round;stroke-linejoin:miter;stroke-miterlimit:4;stroke-dasharray:none;stroke-dashoffset:0;stroke-opacity:1;enable-background:new"
         id="circle4672"
         cx="332"
         cy="185.05884"
         r="11" />
      <circle
         r="14"
         cy="133"
         cx="336"
         id="circle4674"
         style="display:inline;opacity:0.1;fill:#000000;fill-opacity:1;stroke:none;stroke-width:1;stroke-linecap:round;stroke-linejoin:miter;stroke-miterlimit:4;stroke-dasharray:none;stroke-dashoffset:0;stroke-opacity:1;enable-background:new" />
      <circle
         r="22"
         cy="69"
         cx="344"
         id="circle4596"
         style="display:inline;opacity:0.1;fill:#000000;fill-opacity:1;stroke:#000000;stroke-width:2;stroke-linecap:round;stroke-linejoin:miter;stroke-miterlimit:4;stroke-dasharray:none;stroke-dashoffset:0;stroke-opacity:1;enable-background:new" />
      <circle
         style="display:inline;opacity:0.1;fill:#000000;fill-opacity:1;stroke:none;stroke-width:1;stroke-linecap:round;stroke-linejoin:miter;stroke-miterlimit:4;stroke-dasharray:none;stroke-dashoffset:0;stroke-opacity:1;enable-background:new"
         id="circle4594"
         cx="344"
         cy="69"
         r="22" />
      <circle
         style="display:inline;opacity:0.2;fill:#000000;fill-opacity:1;stroke:#000000;stroke-width:1;stroke-linecap:round;stroke-linejoin:miter;stroke-miterlimit:4;stroke-dasharray:none;stroke-dashoffset:0;stroke-opacity:1;filter:url(#filter4582);enable-background:new"
         id="circle4580"
         cx="160"
         cy="142.00005"
         r="114" />
      <circle
         r="114"
         cy="141.00005"
         cx="160"
         id="circle4572"
         style="display:inline;opacity:0.5;fill:#000000;fill-opacity:1;stroke:#000000;stroke-width:1;stroke-linecap:round;stroke-linejoin:miter;stroke-miterlimit:4;stroke-dasharray:none;stroke-dashoffset:0;stroke-opacity:1;enable-background:new;filter:url(#filter4576)" />
      <circle
         style="display:inline;enable-background:new;opacity:1;fill:url(#linearGradient4524);fill-opacity:1;stroke:none;stroke-width:1;stroke-linecap:round;stroke-linejoin:miter;stroke-miterlimit:4;stroke-dasharray:none;stroke-dashoffset:0;stroke-opacity:1"
         id="path4510"
         cx="328"
         cy="228"
         r="8" />
      <circle
         r="11"
         cy="184.05884"
         cx="332"
         id="circle4528"
         style="display:inline;opacity:1;fill:url(#linearGradient4530);fill-opacity:1;stroke:none;stroke-width:1;stroke-linecap:round;stroke-linejoin:miter;stroke-miterlimit:4;stroke-dasharray:none;stroke-dashoffset:0;stroke-opacity:1;enable-background:new" />
      <circle
         style="display:inline;opacity:1;fill:url(#linearGradient4536);fill-opacity:1;stroke:none;stroke-width:1;stroke-linecap:round;stroke-linejoin:miter;stroke-miterlimit:4;stroke-dasharray:none;stroke-dashoffset:0;stroke-opacity:1;enable-background:new"
         id="circle4534"
         cx="336"
         cy="132"
         r="14" />
      <circle
         r="22"
         cy="68"
         cx="344"
         id="circle4538"
         style="display:inline;opacity:1;fill:url(#linearGradient4540);fill-opacity:1;stroke:none;stroke-width:1;stroke-linecap:round;stroke-linejoin:miter;stroke-miterlimit:4;stroke-dasharray:none;stroke-dashoffset:0;stroke-opacity:1;enable-background:new" />
      <circle
         style="display:inline;opacity:1;fill:url(#linearGradient4544);fill-opacity:1;stroke:none;stroke-width:1;stroke-linecap:round;stroke-linejoin:miter;stroke-miterlimit:4;stroke-dasharray:none;stroke-dashoffset:0;stroke-opacity:1;enable-background:new"
         id="circle4542"
         cx="160"
         cy="140.00005"
         r="114" />
    </g>
    <g
       inkscape:groupmode="layer"
       id="layer2"
       inkscape:label="emblem">
      <g
         transform="matrix(5.6626727,0,0,5.6626727,-3165.5225,314.29216)"
         id="g4647"
         style="font-style:normal;font-variant:normal;font-weight:normal;font-stretch:normal;font-size:40px;line-height:25px;font-family:Meera;-inkscape-font-specification:Meera;letter-spacing:0px;word-spacing:0px;display:inline;opacity:0.2;fill:#000000;fill-opacity:1;stroke:none;stroke-width:0.17659505px;stroke-linecap:butt;stroke-linejoin:miter;stroke-opacity:1;enable-background:new"
         aria-label="?">
        <path
           sodipodi:nodetypes="csccsccscsccscsccccccc"
           inkscape:connector-curvature="0"
           id="path4645"
           style="font-style:normal;font-variant:normal;font-weight:normal;font-stretch:normal;font-family:Meera;-inkscape-font-specification:Meera;fill:#000000;fill-opacity:1;stroke-width:0.17659505px"
           d="m 589.73828,-29.315104 c -0.70313,0.677083 -1.06717,1.530024 -1.05469,2.558594 v 1.451823 h -2.82552 v -1.569011 c 0,-1.419271 0.83334,-2.845052 2.31771,-4.277344 l 2.38281,-2.304687 c 1.15885,-1.119792 1.73828,-2.363282 1.73828,-3.730469 0,-1.354167 -0.44922,-2.389323 -1.34765,-3.105469 -0.89844,-0.716145 -2.03776,-1.074218 -3.41797,-1.074218 -3.13802,0 -4.73958,1.858724 -4.80469,5.465495 h -2.51953 c 0.0651,-5.143229 2.57164,-7.770183 7.51953,-7.770183 2.13542,0 3.88021,0.559896 5.23438,1.679688 1.36719,1.119791 2.05078,2.65625 2.05078,4.609375 0,1.953125 -0.59896,3.515625 -1.79688,4.6875 z m -3.88021,11.074219 v -2.825521 h 2.82552 v 2.825521 z" />
      </g>
      <g
         aria-label="?"
         style="font-style:normal;font-variant:normal;font-weight:normal;font-stretch:normal;font-size:40px;line-height:25px;font-family:Meera;-inkscape-font-specification:Meera;letter-spacing:0px;word-spacing:0px;display:inline;opacity:0.2;fill:#000000;fill-opacity:1;stroke:none;stroke-width:0.94184023px;stroke-linecap:butt;stroke-linejoin:miter;stroke-opacity:1;enable-background:new"
         id="g4651"
         transform="matrix(1.0617511,0,0,1.0617512,-280.03545,100.36728)">
        <path
           d="m 589.73828,-28.844182 c -0.70313,0.677083 -1.05469,1.529948 -1.05469,2.558594 v 1.451823 h -2.82552 v -1.569011 c 0,-1.419271 0.83334,-2.845052 2.31771,-4.277344 l 2.38281,-2.304687 c 1.15885,-1.119792 1.73828,-2.363282 1.73828,-3.730469 0,-1.354167 -0.44922,-2.389323 -1.34765,-3.105469 -0.89844,-0.716145 -2.03776,-1.074218 -3.41797,-1.074218 -3.13802,0 -4.73958,1.858724 -4.80469,5.465495 h -2.51953 c 0.0651,-5.143229 2.57164,-7.770183 7.51953,-7.770183 2.13542,0 3.88021,0.559896 5.23438,1.679688 1.36719,1.119791 2.05078,2.65625 2.05078,4.609375 0,1.953125 -0.59896,3.515625 -1.79688,4.6875 z m -3.88021,10.603297 v -2.825521 h 2.82552 v 2.825521 z"
           style="font-style:normal;font-variant:normal;font-weight:normal;font-stretch:normal;font-family:Meera;-inkscape-font-specification:Meera;fill:#000000;fill-opacity:1;stroke-width:0.94184023px"
           id="path4649"
           inkscape:connector-curvature="0"
           sodipodi:nodetypes="csccsccscsccscsccccccc" />
      </g>
      <g
         aria-label="?"
         style="font-style:normal;font-variant:normal;font-weight:normal;font-stretch:normal;font-size:40px;line-height:25px;font-family:Meera;-inkscape-font-specification:Meera;letter-spacing:0px;word-spacing:0px;display:inline;fill:#ffffff;fill-opacity:1;stroke:none;stroke-width:0.17659505px;stroke-linecap:butt;stroke-linejoin:miter;stroke-opacity:1;enable-background:new"
         id="text4538"
         transform="matrix(5.6626727,0,0,5.6626727,-3165.5225,315.29216)">
        <path
           d="m 589.73828,-29.315104 c -0.70313,0.677083 -1.06717,1.530024 -1.05469,2.558594 v 1.451823 h -2.82552 v -1.569011 c 0,-1.419271 0.83334,-2.845052 2.31771,-4.277344 l 2.38281,-2.304687 c 1.15885,-1.119792 1.73828,-2.363282 1.73828,-3.730469 0,-1.354167 -0.44922,-2.389323 -1.34765,-3.105469 -0.89844,-0.716145 -2.03776,-1.074218 -3.41797,-1.074218 -3.13802,0 -4.73958,1.858724 -4.80469,5.465495 h -2.51953 c 0.0651,-5.143229 2.57164,-7.770183 7.51953,-7.770183 2.13542,0 3.88021,0.559896 5.23438,1.679688 1.36719,1.119791 2.05078,2.65625 2.05078,4.609375 0,1.953125 -0.59896,3.515625 -1.79688,4.6875 z m -3.88021,11.074219 v -2.825521 h 2.82552 v 2.825521 z"
           style="font-style:normal;font-variant:normal;font-weight:normal;font-stretch:normal;font-family:Meera;-inkscape-font-specification:Meera;fill:#ffffff;stroke-width:0.17659505px"
           id="path4540"
           inkscape:connector-curvature="0"
           sodipodi:nodetypes="csccsccscsccscsccccccc" />
      </g>
      <g
         transform="matrix(0.70783405,0,0,0.7078341,-79.69029,152.91152)"
         id="g4559"
         style="font-style:normal;font-variant:normal;font-weight:normal;font-stretch:normal;font-size:40px;line-height:25px;font-family:Meera;-inkscape-font-specification:Meera;letter-spacing:0px;word-spacing:0px;display:inline;fill:#ffffff;fill-opacity:1;stroke:none;stroke-width:1.41276038px;stroke-linecap:butt;stroke-linejoin:miter;stroke-opacity:1;enable-background:new"
         aria-label="?">
        <path
           sodipodi:nodetypes="csccsccscsccscsccccccc"
           inkscape:connector-curvature="0"
           id="path4557"
           style="font-style:normal;font-variant:normal;font-weight:normal;font-stretch:normal;font-family:Meera;-inkscape-font-specification:Meera;fill:#ffffff;stroke-width:1.41276038px"
           d="m 589.73828,-27.902343 c -0.70313,0.677083 -1.05469,1.529948 -1.05469,2.558594 v 1.451823 h -2.82552 v -1.569011 c 0,-1.419271 0.83334,-2.845052 2.31771,-4.277344 l 2.38281,-2.304687 c 1.15885,-1.119792 1.73828,-2.363282 1.73828,-3.730469 0,-1.354167 -0.44922,-2.389323 -1.34765,-3.105469 -0.89844,-0.716145 -2.03776,-1.074218 -3.41797,-1.074218 -3.13802,0 -4.73958,1.858724 -4.80469,5.465495 h -2.51953 c 0.0651,-5.143229 2.57164,-7.770183 7.51953,-7.770183 2.13542,0 3.88021,0.559896 5.23438,1.679688 1.36719,1.119791 2.05078,2.65625 2.05078,4.609375 0,1.953125 -0.59896,3.515625 -1.79688,4.6875 z m -3.88021,9.661458 v -2.825521 h 2.82552 v 2.825521 z" />
      </g>
      <g
         transform="matrix(1.0617511,0,0,1.0617512,-280.03545,101.36728)"
         id="g4581"
         style="font-style:normal;font-variant:normal;font-weight:normal;font-stretch:normal;font-size:40px;line-height:25px;font-family:Meera;-inkscape-font-specification:Meera;letter-spacing:0px;word-spacing:0px;display:inline;fill:#ffffff;fill-opacity:1;stroke:none;stroke-width:0.94184023px;stroke-linecap:butt;stroke-linejoin:miter;stroke-opacity:1;enable-background:new"
         aria-label="?">
        <path
           sodipodi:nodetypes="csccsccscsccscsccccccc"
           inkscape:connector-curvature="0"
           id="path4579"
           style="font-style:normal;font-variant:normal;font-weight:normal;font-stretch:normal;font-family:Meera;-inkscape-font-specification:Meera;fill:#ffffff;stroke-width:0.94184023px"
           d="m 589.73828,-28.844182 c -0.70313,0.677083 -1.05469,1.529948 -1.05469,2.558594 v 1.451823 h -2.82552 v -1.569011 c 0,-1.419271 0.83334,-2.845052 2.31771,-4.277344 l 2.38281,-2.304687 c 1.15885,-1.119792 1.73828,-2.363282 1.73828,-3.730469 0,-1.354167 -0.44922,-2.389323 -1.34765,-3.105469 -0.89844,-0.716145 -2.03776,-1.074218 -3.41797,-1.074218 -3.13802,0 -4.73958,1.858724 -4.80469,5.465495 h -2.51953 c 0.0651,-5.143229 2.57164,-7.770183 7.51953,-7.770183 2.13542,0 3.88021,0.559896 5.23438,1.679688 1.36719,1.119791 2.05078,2.65625 2.05078,4.609375 0,1.953125 -0.59896,3.515625 -1.79688,4.6875 z m -3.88021,10.603297 v -2.825521 h 2.82552 v 2.825521 z" />
      </g>
      <g
         aria-label="?"
         style="font-style:normal;font-variant:normal;font-weight:normal;font-stretch:normal;font-size:40px;line-height:25px;font-family:Meera;-inkscape-font-specification:Meera;letter-spacing:0px;word-spacing:0px;display:inline;fill:#ffffff;fill-opacity:1;stroke:none;stroke-width:2.82552075px;stroke-linecap:butt;stroke-linejoin:miter;stroke-opacity:1;enable-background:new"
         id="g4603"
         transform="matrix(0.35391703,0,0,0.35391705,119.65485,238.45576)">
        <path
           d="m 589.73828,-27.902343 c -0.70313,0.677083 -1.05469,1.529948 -1.05469,2.558594 v 1.451823 h -2.82552 v -1.569011 c 0,-1.419271 0.83334,-2.845052 2.31771,-4.277344 l 2.38281,-2.304687 c 1.15885,-1.119792 1.73828,-2.363282 1.73828,-3.730469 0,-1.354167 -0.44922,-2.389323 -1.34765,-3.105469 -0.89844,-0.716145 -2.03776,-1.074218 -3.41797,-1.074218 -3.13802,0 -4.73958,1.858724 -4.80469,5.465495 h -2.51953 c 0.0651,-5.143229 2.57164,-7.770183 7.51953,-7.770183 2.13542,0 3.88021,0.559896 5.23438,1.679688 1.36719,1.119791 2.05078,2.65625 2.05078,4.609375 0,1.953125 -0.59896,3.515625 -1.79688,4.6875 z m -3.88021,9.661458 v -2.825521 h 2.82552 v 2.825521 z"
           style="font-style:normal;font-variant:normal;font-weight:normal;font-stretch:normal;font-family:Meera;-inkscape-font-specification:Meera;fill:#ffffff;stroke-width:2.82552075px"
           id="path4601"
           inkscape:connector-curvature="0"
           sodipodi:nodetypes="csccsccscsccscsccccccc" />
      </g>
      <g
         transform="matrix(0.53087555,0,0,0.53087558,19.982275,200.18364)"
         id="g4625"
         style="font-style:normal;font-variant:normal;font-weight:normal;font-stretch:normal;font-size:40px;line-height:25px;font-family:Meera;-inkscape-font-specification:Meera;letter-spacing:0px;word-spacing:0px;display:inline;fill:#ffffff;fill-opacity:1;stroke:none;stroke-width:1.88368046px;stroke-linecap:butt;stroke-linejoin:miter;stroke-opacity:1;enable-background:new"
         aria-label="?">
        <path
           sodipodi:nodetypes="csccsccscsccscsccccccc"
           inkscape:connector-curvature="0"
           id="path4623"
           style="font-style:normal;font-variant:normal;font-weight:normal;font-stretch:normal;font-family:Meera;-inkscape-font-specification:Meera;fill:#ffffff;stroke-width:1.88368046px"
           d="m 589.73828,-27.902343 c -0.70313,0.677083 -1.05469,1.529948 -1.05469,2.558594 v 1.451823 h -2.82552 v -1.569011 c 0,-1.419271 0.83334,-2.845052 2.31771,-4.277344 l 2.38281,-2.304687 c 1.15885,-1.119792 1.73828,-2.363282 1.73828,-3.730469 0,-1.354167 -0.44922,-2.389323 -1.34765,-3.105469 -0.89844,-0.716145 -2.03776,-1.074218 -3.41797,-1.074218 -3.13802,0 -4.73958,1.858724 -4.80469,5.465495 h -2.51953 c 0.0651,-5.143229 2.57164,-7.770183 7.51953,-7.770183 2.13542,0 3.88021,0.559896 5.23438,1.679688 1.36719,1.119791 2.05078,2.65625 2.05078,4.609375 0,1.953125 -0.59896,3.515625 -1.79688,4.6875 z m -3.88021,9.661458 v -2.825521 h 2.82552 v 2.825521 z" />
      </g>
    </g>
  </g>
</svg>
