<?xml version="1.0" encoding="UTF-8" standalone="no"?>
<!-- Created with Inkscape (http://www.inkscape.org/) -->

<svg
   xmlns:dc="http://purl.org/dc/elements/1.1/"
   xmlns:cc="http://creativecommons.org/ns#"
   xmlns:rdf="http://www.w3.org/1999/02/22-rdf-syntax-ns#"
   xmlns:svg="http://www.w3.org/2000/svg"
   xmlns="http://www.w3.org/2000/svg"
   xmlns:xlink="http://www.w3.org/1999/xlink"
   xmlns:sodipodi="http://sodipodi.sourceforge.net/DTD/sodipodi-0.dtd"
   xmlns:inkscape="http://www.inkscape.org/namespaces/inkscape"
   inkscape:export-ydpi="96"
   inkscape:export-xdpi="96"
   inkscape:export-filename="Template.png"
   width="400"
   height="320"
   id="svg11300"
   sodipodi:version="0.32"
   inkscape:version="0.92.0 r"
   sodipodi:docname="package-x-generic.svg"
   inkscape:output_extension="org.inkscape.output.svg.inkscape"
   version="1.0"
   style="display:inline;enable-background:new"
   viewBox="0 0 400 320">
  <title
     id="title4162">Solus Icon Template</title>
  <defs
     id="defs3">
    <linearGradient
       id="linearGradient4726"
       inkscape:collect="always">
      <stop
         id="stop4722"
         offset="0"
         style="stop-color:#000000;stop-opacity:1" />
      <stop
         id="stop4724"
         offset="1"
         style="stop-color:#000000;stop-opacity:0" />
    </linearGradient>
    <linearGradient
       inkscape:collect="always"
       id="linearGradient4525">
      <stop
         style="stop-color:#ffffff;stop-opacity:1;"
         offset="0"
         id="stop4521" />
      <stop
         style="stop-color:#ffffff;stop-opacity:0;"
         offset="1"
         id="stop4523" />
    </linearGradient>
    <linearGradient
       inkscape:collect="always"
       id="linearGradient4513">
      <stop
         style="stop-color:#a8947f;stop-opacity:1"
         offset="0"
         id="stop4509" />
      <stop
         style="stop-color:#bea78d;stop-opacity:1"
         offset="1"
         id="stop4511" />
    </linearGradient>
    <linearGradient
       inkscape:collect="always"
       xlink:href="#linearGradient4513"
       id="linearGradient4515"
       x1="344"
       y1="84"
       x2="344"
       y2="52"
       gradientUnits="userSpaceOnUse"
       gradientTransform="matrix(1.1111112,0,0,1.0606061,-38.222223,-2.1515151)" />
    <linearGradient
       inkscape:collect="always"
       xlink:href="#linearGradient4525"
       id="linearGradient4527"
       x1="344"
       y1="52"
       x2="344"
       y2="55"
       gradientUnits="userSpaceOnUse"
       gradientTransform="matrix(1.1111112,0,0,1.0606061,-38.222223,-2.1515151)" />
    <linearGradient
       inkscape:collect="always"
       xlink:href="#linearGradient4513"
       id="linearGradient4555"
       gradientUnits="userSpaceOnUse"
       x1="344"
       y1="84"
       x2="344"
       y2="52"
       gradientTransform="matrix(0.77777779,0,0,0.74728185,68.444443,82.141359)" />
    <linearGradient
       inkscape:collect="always"
       xlink:href="#linearGradient4525"
       id="linearGradient4557"
       gradientUnits="userSpaceOnUse"
       x1="344"
       y1="52"
       x2="344"
       y2="55"
       gradientTransform="matrix(0.76923076,0,0,0.73632465,71.384617,82.886461)" />
    <linearGradient
       inkscape:collect="always"
       xlink:href="#linearGradient4513"
       id="linearGradient4581"
       gradientUnits="userSpaceOnUse"
       gradientTransform="matrix(0.55555556,0,0,0.56250003,140.88889,145.74999)"
       x1="344"
       y1="84"
       x2="344"
       y2="52" />
    <linearGradient
       inkscape:collect="always"
       xlink:href="#linearGradient4525"
       id="linearGradient4583"
       gradientUnits="userSpaceOnUse"
       gradientTransform="matrix(0.54285711,0,0,0.54838714,145.25716,146.70971)"
       x1="344"
       y1="52"
       x2="344"
       y2="55" />
    <linearGradient
       inkscape:collect="always"
       xlink:href="#linearGradient4513"
       id="linearGradient4646"
       gradientUnits="userSpaceOnUse"
       gradientTransform="matrix(0.38888889,0,0,0.40625002,194.22222,200.87499)"
       x1="344"
       y1="84"
       x2="344"
       y2="52" />
    <linearGradient
       inkscape:collect="always"
       xlink:href="#linearGradient4525"
       id="linearGradient4648"
       gradientUnits="userSpaceOnUse"
       gradientTransform="matrix(0.37142855,0,0,0.38709681,200.22858,202.17744)"
       x1="344"
       y1="52"
       x2="344"
       y2="55" />
    <linearGradient
       inkscape:collect="always"
       xlink:href="#linearGradient4513"
       id="linearGradient4667"
       gradientUnits="userSpaceOnUse"
       gradientTransform="matrix(6.6666666,0,0,6.3461539,-2133.3333,-278.00001)"
       x1="344"
       y1="106.20606"
       x2="344"
       y2="67.127274" />
    <filter
       inkscape:collect="always"
       style="color-interpolation-filters:sRGB"
       id="filter4528"
       x="-0.18000001"
       width="1.36"
       y="-0.090000004"
       height="1.1799999">
      <feGaussianBlur
         inkscape:collect="always"
         stdDeviation="2.4"
         id="feGaussianBlur4530" />
    </filter>
    <filter
       inkscape:collect="always"
       style="color-interpolation-filters:sRGB"
       id="filter4701"
       x="-0.011142857"
       width="1.0222857"
       y="-0.013"
       height="1.026">
      <feGaussianBlur
         inkscape:collect="always"
         stdDeviation="1.04"
         id="feGaussianBlur4703" />
    </filter>
    <linearGradient
       inkscape:collect="always"
       xlink:href="#linearGradient4525"
       id="linearGradient4715"
       gradientUnits="userSpaceOnUse"
       gradientTransform="matrix(6.3714284,0,0,6.1612906,-2031.7714,-262.96767)"
       x1="345.88342"
       y1="52.418835"
       x2="345.88342"
       y2="53.06805" />
    <linearGradient
       inkscape:collect="always"
       xlink:href="#linearGradient4726"
       id="linearGradient4720"
       gradientUnits="userSpaceOnUse"
       gradientTransform="matrix(6.3714284,0,0,6.1612906,-2031.7714,-574.96767)"
       x1="345.88342"
       y1="52.418835"
       x2="345.88342"
       y2="53.06805" />
  </defs>
  <sodipodi:namedview
     stroke="#ef2929"
     fill="#f57900"
     id="base"
     pagecolor="#ffffff"
     bordercolor="#666666"
     borderopacity="0.25490196"
     inkscape:pageopacity="0"
     inkscape:pageshadow="2"
     inkscape:zoom="1"
     inkscape:cx="216.80173"
     inkscape:cy="238.36936"
     inkscape:current-layer="layer9"
     showgrid="false"
     inkscape:grid-bbox="true"
     inkscape:document-units="px"
     inkscape:showpageshadow="false"
     inkscape:window-width="1920"
     inkscape:window-height="1016"
     inkscape:window-x="0"
     inkscape:window-y="27"
     width="400px"
     height="300px"
     inkscape:snap-nodes="true"
     inkscape:snap-bbox="true"
     objecttolerance="7"
     gridtolerance="12"
     guidetolerance="13"
     inkscape:window-maximized="1"
     inkscape:pagecheckerboard="false"
     showguides="false"
     inkscape:guide-bbox="true"
     inkscape:locked="false"
     inkscape:measure-start="0,0"
     inkscape:measure-end="0,0"
     inkscape:object-nodes="true"
     inkscape:bbox-nodes="true">
    <inkscape:grid
       type="xygrid"
       id="grid5883"
       spacingx="1px"
       spacingy="1px"
       enabled="true"
       visible="true"
       empspacing="4" />
  </sodipodi:namedview>
  <metadata
     id="metadata4">
    <rdf:RDF>
      <cc:Work
         rdf:about="">
        <dc:format>image/svg+xml</dc:format>
        <dc:type
           rdf:resource="http://purl.org/dc/dcmitype/StillImage" />
        <dc:creator>
          <cc:Agent>
            <dc:title>Sam Hewitt</dc:title>
          </cc:Agent>
        </dc:creator>
        <dc:source />
        <cc:license
           rdf:resource="http://creativecommons.org/licenses/by-nc-sa/4.0/" />
        <dc:title>Solus Icon Template</dc:title>
        <dc:subject>
          <rdf:Bag />
        </dc:subject>
        <dc:date />
        <dc:rights>
          <cc:Agent>
            <dc:title />
          </cc:Agent>
        </dc:rights>
        <dc:publisher>
          <cc:Agent>
            <dc:title />
          </cc:Agent>
        </dc:publisher>
        <dc:identifier />
        <dc:relation />
        <dc:language />
        <dc:coverage />
        <dc:description />
        <dc:contributor>
          <cc:Agent>
            <dc:title />
          </cc:Agent>
        </dc:contributor>
      </cc:Work>
      <cc:License
         rdf:about="http://creativecommons.org/licenses/by-nc-sa/4.0/">
        <cc:permits
           rdf:resource="http://creativecommons.org/ns#Reproduction" />
        <cc:permits
           rdf:resource="http://creativecommons.org/ns#Distribution" />
        <cc:requires
           rdf:resource="http://creativecommons.org/ns#Notice" />
        <cc:requires
           rdf:resource="http://creativecommons.org/ns#Attribution" />
        <cc:prohibits
           rdf:resource="http://creativecommons.org/ns#CommercialUse" />
        <cc:permits
           rdf:resource="http://creativecommons.org/ns#DerivativeWorks" />
        <cc:requires
           rdf:resource="http://creativecommons.org/ns#ShareAlike" />
      </cc:License>
    </rdf:RDF>
  </metadata>
  <g
     id="layer1"
     inkscape:label="package-x-generic"
     inkscape:groupmode="layer"
     style="display:inline"
     transform="translate(0,20)">
    <g
       inkscape:groupmode="layer"
       id="layer7"
       inkscape:label="baseplate"
       style="display:none">
      <rect
         style="display:inline;overflow:visible;visibility:visible;fill:#eeeeec;fill-opacity:1;fill-rule:nonzero;stroke:none;stroke-width:2;marker:none;enable-background:accumulate"
         id="rect6592"
         width="32"
         height="32"
         x="320"
         y="116"
         inkscape:label="32x32" />
      <rect
         inkscape:label="22x22"
         y="173.05884"
         x="321"
         height="22"
         width="22"
         id="rect6749"
         style="display:inline;overflow:visible;visibility:visible;fill:#eeeeec;fill-opacity:1;fill-rule:nonzero;stroke:none;stroke-width:2;marker:none;enable-background:accumulate" />
      <rect
         style="display:inline;overflow:visible;visibility:visible;fill:#eeeeec;fill-opacity:1;fill-rule:nonzero;stroke:none;stroke-width:2;marker:none;enable-background:accumulate"
         id="rect6833"
         width="16"
         height="16"
         x="320"
         y="220"
         inkscape:label="16x16" />
      <rect
         style="display:inline;overflow:visible;visibility:visible;fill:#eeeeec;fill-opacity:1;fill-rule:nonzero;stroke:none;stroke-width:2;marker:none;enable-background:accumulate"
         id="rect8104"
         width="24"
         height="24"
         x="320"
         y="172"
         inkscape:label="24x24" />
      <text
         xml:space="preserve"
         style="font-style:normal;font-variant:normal;font-weight:normal;font-stretch:normal;font-size:13.33333302px;line-height:125%;font-family:monospace;-inkscape-font-specification:monospace;text-align:start;writing-mode:lr-tb;text-anchor:start;display:inline;fill:#000000;fill-opacity:1;stroke:none;enable-background:new"
         x="31.855944"
         y="-65.699577"
         id="context"
         inkscape:label="context"><tspan
           sodipodi:role="line"
           id="tspan2716"
           x="31.855944"
           y="-65.699577"
           style="font-weight:bold">mimetypes</tspan></text>
      <text
         inkscape:label="icon-name"
         id="text3021"
         y="-39.900627"
         x="31.264769"
         style="font-style:normal;font-variant:normal;font-weight:normal;font-stretch:normal;font-size:13.33333302px;line-height:125%;font-family:monospace;-inkscape-font-specification:monospace;text-align:start;writing-mode:lr-tb;text-anchor:start;display:inline;fill:#000000;fill-opacity:1;stroke:none;enable-background:new"
         xml:space="preserve"><tspan
           y="-39.900627"
           x="31.264769"
           id="tspan3023"
           sodipodi:role="line">package-x-generic</tspan></text>
      <rect
         style="display:inline;overflow:visible;visibility:visible;fill:#eeeeec;fill-opacity:1;fill-rule:nonzero;stroke:none;stroke-width:1.99999976;marker:none;enable-background:accumulate"
         id="rect13805"
         width="256"
         height="256"
         x="32.000004"
         y="12.000042"
         inkscape:label="512x512" />
      <rect
         inkscape:label="48x48"
         y="320"
         x="44"
         height="48"
         width="48"
         id="rect6284"
         style="display:inline;overflow:visible;visibility:visible;fill:#eeeeec;fill-opacity:1;fill-rule:nonzero;stroke:none;stroke-width:2;marker:none;enable-background:accumulate"
         transform="matrix(0,1,1,0,0,0)" />
    </g>
    <g
       inkscape:groupmode="layer"
       id="layer9"
       inkscape:label="icons"
       style="display:inline">
      <rect
         ry="2"
         y="54.000004"
         x="324"
         height="33.939396"
         width="40"
         id="rect4730"
         style="opacity:0.05;fill:none;fill-opacity:1;stroke:#000000;stroke-width:4;stroke-linecap:round;stroke-linejoin:miter;stroke-miterlimit:4;stroke-dasharray:none;stroke-dashoffset:0;stroke-opacity:1"
         rx="2.0000002" />
      <rect
         rx="2.0000002"
         style="opacity:0.05;fill:none;fill-opacity:1;stroke:#000000;stroke-width:2;stroke-linecap:round;stroke-linejoin:miter;stroke-miterlimit:4;stroke-dasharray:none;stroke-dashoffset:0;stroke-opacity:1"
         id="rect4728"
         width="40"
         height="33.939396"
         x="324"
         y="54.000004"
         ry="2" />
      <rect
         style="opacity:0.4;fill:#000000;fill-opacity:1;stroke:none;stroke-width:0.99999988;stroke-linecap:round;stroke-linejoin:miter;stroke-miterlimit:4;stroke-dasharray:none;stroke-dashoffset:0;stroke-opacity:1;filter:url(#filter4701)"
         id="rect4705"
         width="224"
         height="192"
         x="48"
         y="60"
         ry="12"
         rx="12" />
      <rect
         ry="12"
         y="61"
         x="48"
         height="192"
         width="224"
         id="rect4697"
         style="opacity:0.4;fill:#000000;fill-opacity:1;stroke:none;stroke-width:0.99999988;stroke-linecap:round;stroke-linejoin:miter;stroke-miterlimit:4;stroke-dasharray:none;stroke-dashoffset:0;stroke-opacity:1;filter:url(#filter4701)"
         rx="12" />
      <rect
         style="opacity:0.4;fill:#000000;fill-opacity:1;stroke:none;stroke-width:0.99999982;stroke-linecap:round;stroke-linejoin:miter;stroke-miterlimit:4;stroke-dasharray:none;stroke-dashoffset:0;stroke-opacity:1"
         id="rect4531"
         width="28"
         height="23.913019"
         x="322"
         y="122.087"
         ry="1.9999998"
         rx="2" />
      <rect
         style="opacity:0.8;fill:none;fill-opacity:1;stroke:#594739;stroke-width:1.99999964;stroke-linecap:round;stroke-linejoin:miter;stroke-miterlimit:4;stroke-dasharray:none;stroke-dashoffset:0;stroke-opacity:1"
         id="rect4533"
         width="28"
         height="23.913019"
         x="322"
         y="121.00002"
         ry="1.9999998"
         rx="2" />
      <rect
         ry="2"
         y="54.060608"
         x="324"
         height="33.939396"
         width="40"
         id="rect4529"
         style="opacity:0.4;fill:#000000;fill-opacity:1;stroke:none;stroke-width:1;stroke-linecap:round;stroke-linejoin:miter;stroke-miterlimit:4;stroke-dasharray:none;stroke-dashoffset:0;stroke-opacity:1"
         rx="2.0000002" />
      <rect
         ry="2"
         y="53.000004"
         x="324"
         height="33.939396"
         width="40"
         id="rect4517"
         style="opacity:0.8;fill:none;fill-opacity:1;stroke:#594739;stroke-width:2;stroke-linecap:round;stroke-linejoin:miter;stroke-miterlimit:4;stroke-dasharray:none;stroke-dashoffset:0;stroke-opacity:1"
         rx="2.0000002" />
      <rect
         style="opacity:1;fill:url(#linearGradient4515);fill-opacity:1;stroke:none;stroke-width:1;stroke-linecap:round;stroke-linejoin:miter;stroke-miterlimit:4;stroke-dasharray:none;stroke-dashoffset:0;stroke-opacity:1"
         id="rect4504"
         width="40"
         height="33.939396"
         x="324"
         y="53.000004"
         ry="2"
         rx="2.0000002" />
      <g
         style="display:inline;enable-background:new"
         transform="translate(319.97844,42.999875)"
         id="g4284">
        <path
           inkscape:connector-curvature="0"
           id="path8689"
           d="m 24.021561,23.500125 c -1.376493,0 -2.5,1.128788 -2.5,2.5 v 4 c 0,1.371212 1.123507,2.5 2.5,2.5 1.376493,0 2.5,-1.128788 2.5,-2.5 v -4 c 0,-1.371212 -1.123507,-2.5 -2.5,-2.5 z m 0,1.5 c 0.552,0 1,0.4 1,1 0,0.5 -0.448,1 -1,1 -0.552,0 -1,-0.5 -1,-1 0,-0.6 0.448,-1 1,-1 z m 0,3 c 0.552,0 1,0.4 1,1 v 1 c 0,0.5 -0.448,1 -1,1 -0.552,0 -1,-0.5 -1,-1 v -1 c 0,-0.6 0.448,-1 1,-1 z"
           style="opacity:0.2;fill:#000000;fill-opacity:1;stroke:#000000;stroke-opacity:1" />
        <path
           style="opacity:0.5;fill:#000000;fill-opacity:1"
           d="m 342,76 v 14 c 0,1.1 0.895,2 2,2 1.105,0 2,-0.9 2,-2 V 76 Z"
           transform="translate(-319.97844,-65.999875)"
           id="path14"
           inkscape:connector-curvature="0"
           sodipodi:nodetypes="cssscc" />
        <path
           inkscape:connector-curvature="0"
           style="fill:#999999"
           id="path16"
           d="m 24.021561,14.000125 v 1 h 1 v -1 z m 0,1 h -1 v 1 h 1 z m 0,1 v 1 h 1 v -1 z m 0,1 h -1 v 1 h 1 z m 0,1 v 1 h 1 v -1 z m 0,1 h -1 v 1 h 1 z m 0,1 v 1 h 1 v -1 z m 0,1 h -1 v 1 h 1 z m 0,1 v 1 h 1 v -1 z m 0,1 h -1 v 1 h 1 z m 0,1 v 1 c 0.552,0 1,-0.5 1,-1 z" />
        <path
           inkscape:connector-curvature="0"
           d="m 24.021561,10.000125 v 1 h 1 v -1 z m 0,1 h -1 v 1 h 1 z m 0,1 v 1 h 1 v -1 z m 0,1 h -1 v 1 h 1 z"
           id="path8680"
           style="fill:#999999"
           sodipodi:nodetypes="cccccccccccccccccccc" />
        <path
           inkscape:connector-curvature="0"
           d="m 23.021561,15.000125 v -1 h 1 v 1 z m 0,-2 v -1 h 1 v 1 z m 0,-2 v -1 h 1 v 1 z"
           id="path8682"
           style="fill:#ecf0f1;fill-opacity:1"
           sodipodi:nodetypes="ccccccccccccccc" />
        <path
           inkscape:connector-curvature="0"
           style="fill:#ecf0f1"
           id="path18"
           d="m 23.021561,14.000125 v 1 h 1 v -1 z m 0,2 v 1 h 1 v -1 z m 0,2 v 1 h 1 v -1 z m 0,2 v 1 h 1 v -1 z m 0,2 v 1 h 1 v -1 z m 0,2 c 0,0.5 0.448,1 1,1 v -1 z" />
        <path
           inkscape:connector-curvature="0"
           style="fill:#f2f2f2;stroke:#000000;stroke-opacity:0.46296297"
           d="m 24.021561,22.500125 c -1.376493,0 -2.5,1.128788 -2.5,2.5 v 4 c 0,1.371212 1.123507,2.5 2.5,2.5 1.376493,0 2.5,-1.128788 2.5,-2.5 v -4 c 0,-1.371212 -1.123507,-2.5 -2.5,-2.5 z m 0,1.5 c 0.552,0 1,0.4 1,1 0,0.5 -0.448,1 -1,1 -0.552,0 -1,-0.5 -1,-1 0,-0.6 0.448,-1 1,-1 z m 0,3 c 0.552,0 1,0.4 1,1 v 1 c 0,0.5 -0.448,1 -1,1 -0.552,0 -1,-0.5 -1,-1 v -1 c 0,-0.6 0.448,-1 1,-1 z"
           id="path22" />
      </g>
      <rect
         style="opacity:0.4;fill:none;fill-opacity:1;stroke:url(#linearGradient4527);stroke-width:1;stroke-linecap:round;stroke-linejoin:miter;stroke-miterlimit:4;stroke-dasharray:none;stroke-dashoffset:0;stroke-opacity:1"
         id="rect4519"
         width="38.888893"
         height="32.878788"
         x="324.55557"
         y="53.530304"
         ry="1.5"
         rx="1.5" />
      <rect
         ry="1.9999998"
         y="121.00002"
         x="322"
         height="23.913019"
         width="28"
         id="rect4535"
         style="opacity:1;fill:url(#linearGradient4555);fill-opacity:1;stroke:none;stroke-width:0.99999982;stroke-linecap:round;stroke-linejoin:miter;stroke-miterlimit:4;stroke-dasharray:none;stroke-dashoffset:0;stroke-opacity:1"
         rx="2" />
      <g
         id="g4551"
         transform="translate(311.97844,106.99988)"
         style="display:inline;enable-background:new">
        <path
           style="opacity:0.2;fill:#000000;fill-opacity:1;stroke:#000000;stroke-opacity:1"
           d="m 24.021561,23.500125 c -1.376493,0 -2.5,1.128788 -2.5,2.5 v 4 c 0,1.371212 1.123507,2.5 2.5,2.5 1.376493,0 2.5,-1.128788 2.5,-2.5 v -4 c 0,-1.371212 -1.123507,-2.5 -2.5,-2.5 z m 0,1.5 c 0.552,0 1,0.4 1,1 0,0.5 -0.448,1 -1,1 -0.552,0 -1,-0.5 -1,-1 0,-0.6 0.448,-1 1,-1 z m 0,3 c 0.552,0 1,0.4 1,1 v 1 c 0,0.5 -0.448,1 -1,1 -0.552,0 -1,-0.5 -1,-1 v -1 c 0,-0.6 0.448,-1 1,-1 z"
           id="path4537"
           inkscape:connector-curvature="0" />
        <path
           sodipodi:nodetypes="cssscc"
           inkscape:connector-curvature="0"
           id="path4539"
           transform="translate(-319.97844,-65.999875)"
           d="m 342,80 v 10 c 0,1.1 0.895,2 2,2 1.105,0 2,-0.9 2,-2 V 80 Z"
           style="opacity:0.5;fill:#000000;fill-opacity:1" />
        <path
           d="m 24.021561,14.000125 v 1 h 1 v -1 z m 0,1 h -1 v 1 h 1 z m 0,1 v 1 h 1 v -1 z m 0,1 h -1 v 1 h 1 z m 0,1 v 1 h 1 v -1 z m 0,1 h -1 v 1 h 1 z m 0,1 v 1 h 1 v -1 z m 0,1 h -1 v 1 h 1 z m 0,1 v 1 h 1 v -1 z m 0,1 h -1 v 1 h 1 z m 0,1 v 1 c 0.552,0 1,-0.5 1,-1 z"
           id="path4541"
           style="fill:#999999"
           inkscape:connector-curvature="0" />
        <path
           sodipodi:nodetypes="ccccc"
           style="fill:#ecf0f1;fill-opacity:1"
           id="path4545"
           d="m 23.021561,15.000125 v -1 h 1 v 1 z"
           inkscape:connector-curvature="0" />
        <path
           d="m 23.021561,14.000125 v 1 h 1 v -1 z m 0,2 v 1 h 1 v -1 z m 0,2 v 1 h 1 v -1 z m 0,2 v 1 h 1 v -1 z m 0,2 v 1 h 1 v -1 z m 0,2 c 0,0.5 0.448,1 1,1 v -1 z"
           id="path4547"
           style="fill:#ecf0f1"
           inkscape:connector-curvature="0" />
        <path
           id="path4549"
           d="m 24.021561,22.500125 c -1.376493,0 -2.5,1.128788 -2.5,2.5 v 4 c 0,1.371212 1.123507,2.5 2.5,2.5 1.376493,0 2.5,-1.128788 2.5,-2.5 v -4 c 0,-1.371212 -1.123507,-2.5 -2.5,-2.5 z m 0,1.5 c 0.552,0 1,0.4 1,1 0,0.5 -0.448,1 -1,1 -0.552,0 -1,-0.5 -1,-1 0,-0.6 0.448,-1 1,-1 z m 0,3 c 0.552,0 1,0.4 1,1 v 1 c 0,0.5 -0.448,1 -1,1 -0.552,0 -1,-0.5 -1,-1 v -1 c 0,-0.6 0.448,-1 1,-1 z"
           style="fill:#f2f2f2;stroke:#000000;stroke-opacity:0.46296297"
           inkscape:connector-curvature="0" />
      </g>
      <rect
         ry="1.5"
         y="121.5435"
         x="322.53845"
         height="22.826063"
         width="26.923077"
         id="rect4553"
         style="opacity:0.4;fill:none;fill-opacity:1;stroke:url(#linearGradient4557);stroke-width:0.99999988;stroke-linecap:round;stroke-linejoin:miter;stroke-miterlimit:4;stroke-dasharray:none;stroke-dashoffset:0;stroke-opacity:1"
         rx="1.5" />
      <g
         id="g4622"
         transform="translate(0,1)">
        <rect
           style="opacity:0.4;fill:#000000;fill-opacity:1;stroke:none;stroke-width:0.99999982;stroke-linecap:round;stroke-linejoin:miter;stroke-miterlimit:4;stroke-dasharray:none;stroke-dashoffset:0;stroke-opacity:1"
           id="rect4559"
           width="20"
           height="17.909918"
           x="322"
           y="176.0901"
           ry="1.9999999"
           rx="2" />
        <rect
           rx="1.5"
           style="opacity:0.8;fill:none;fill-opacity:1;stroke:#594739;stroke-width:1.99999976;stroke-linecap:round;stroke-linejoin:miter;stroke-miterlimit:4;stroke-dasharray:none;stroke-dashoffset:0;stroke-opacity:1"
           id="rect4561"
           width="20"
           height="18.000002"
           x="322"
           y="175"
           ry="1.5" />
        <rect
           ry="1.5"
           y="175"
           x="322"
           height="18"
           width="20"
           id="rect4563"
           style="opacity:1;fill:url(#linearGradient4581);fill-opacity:1;stroke:none;stroke-width:0.99999982;stroke-linecap:round;stroke-linejoin:miter;stroke-miterlimit:4;stroke-dasharray:none;stroke-dashoffset:0;stroke-opacity:1"
           rx="1.5" />
        <g
           id="g4596">
          <path
             style="opacity:0.2;fill:#000000;fill-opacity:1;stroke:#000000;stroke-opacity:1"
             d="m 332,182.5 c -1.37649,0 -2.5,1.12879 -2.5,2.5 v 4 c 0,1.37122 1.12351,2.5 2.5,2.5 1.37649,0 2.5,-1.12878 2.5,-2.5 v -4 c 0,-1.37121 -1.12351,-2.5 -2.5,-2.5 z m 0,1.5 c 0.552,0 1,0.4 1,1 0,0.5 -0.448,1 -1,1 -0.552,0 -1,-0.5 -1,-1 0,-0.6 0.448,-1 1,-1 z m 0,3 c 0.552,0 1,0.4 1,1 v 1 c 0,0.5 -0.448,1 -1,1 -0.552,0 -1,-0.5 -1,-1 v -1 c 0,-0.6 0.448,-1 1,-1 z"
             id="path4565"
             inkscape:connector-curvature="0"
             sodipodi:nodetypes="sssssssssssssssssss" />
          <path
             sodipodi:nodetypes="cssscc"
             inkscape:connector-curvature="0"
             id="path4567"
             d="m 330,175 v 8 c 0,1.1 0.895,2 2,2 1.105,0 2,-0.9 2,-2 v -8 z"
             style="opacity:0.5;fill:#000000;fill-opacity:1" />
          <path
             d="m 332,175 v 1 h 1 v -1 z m 0,1 h -1 v 1 h 1 z m 0,1 v 1 h 1 v -1 z m 0,1 h -1 v 1 h 1 z m 0,1 v 1 h 1 v -1 z m 0,1 h -1 v 1 h 1 z m 0,1 v 1 h 1 v -1 z m 0,1 h -1 v 1 h 1 z m 0,1 v 1 c 0.552,0 1,-0.5 1,-1 z"
             id="path4569"
             style="fill:#999999"
             inkscape:connector-curvature="0"
             sodipodi:nodetypes="cccccccccccccccccccccccccccccccccccccccccccc" />
          <path
             d="m 331,175 v 1 h 1 v -1 z m 0,2 v 1 h 1 v -1 z m 0,2 v 1 h 1 v -1 z m 0,2 v 1 h 1 v -1 z m 0,2 c 0,0.5 0.448,1 1,1 v -1 z"
             id="path4573"
             style="fill:#ecf0f1"
             inkscape:connector-curvature="0"
             sodipodi:nodetypes="cccccccccccccccccccccccc" />
          <path
             id="path4575"
             d="m 332,181.5 c -1.37649,0 -2.5,1.12879 -2.5,2.5 v 4 c 0,1.37122 1.12351,2.5 2.5,2.5 1.37649,0 2.5,-1.12878 2.5,-2.5 v -4 c 0,-1.37121 -1.12351,-2.5 -2.5,-2.5 z m 0,1.5 c 0.552,0 1,0.4 1,1 0,0.5 -0.448,1 -1,1 -0.552,0 -1,-0.5 -1,-1 0,-0.6 0.448,-1 1,-1 z m 0,3 c 0.552,0 1,0.4 1,1 v 1 c 0,0.5 -0.448,1 -1,1 -0.552,0 -1,-0.5 -1,-1 v -1 c 0,-0.6 0.448,-1 1,-1 z"
             style="fill:#f2f2f2;stroke:#000000;stroke-opacity:0.46296297"
             inkscape:connector-curvature="0"
             sodipodi:nodetypes="sssssssssssssssssss" />
        </g>
        <rect
           ry="1"
           y="175.5"
           x="322.5"
           height="17"
           width="19"
           id="rect4579"
           style="opacity:0.4;fill:none;fill-opacity:1;stroke:url(#linearGradient4583);stroke-width:0.99999994;stroke-linecap:round;stroke-linejoin:miter;stroke-miterlimit:4;stroke-dasharray:none;stroke-dashoffset:0;stroke-opacity:1"
           rx="1" />
      </g>
      <rect
         rx="1.5"
         style="opacity:0.8;fill:none;fill-opacity:1;stroke:#594739;stroke-width:1.99999976;stroke-linecap:round;stroke-linejoin:miter;stroke-miterlimit:4;stroke-dasharray:none;stroke-dashoffset:0;stroke-opacity:1"
         id="rect4626"
         width="14"
         height="13"
         x="321"
         y="222"
         ry="1.5" />
      <rect
         rx="1.5"
         ry="1.5"
         y="222"
         x="321"
         height="13"
         width="14"
         id="rect4628"
         style="opacity:1;fill:url(#linearGradient4646);fill-opacity:1;stroke:none;stroke-width:0.99999976;stroke-linecap:round;stroke-linejoin:miter;stroke-miterlimit:4;stroke-dasharray:none;stroke-dashoffset:0;stroke-opacity:1" />
      <path
         style="opacity:0.5;fill:#000000;fill-opacity:1"
         d="m 326,222 v 5 c 0,1.1 0.895,2 2,2 1.105,0 2,-0.9 2,-2 v -5 z"
         id="path4632"
         inkscape:connector-curvature="0"
         sodipodi:nodetypes="cssscc" />
      <path
         sodipodi:nodetypes="ccccccccccccccccccccccccccccc"
         inkscape:connector-curvature="0"
         style="fill:#999999"
         id="path4634"
         d="m 328,222 h -1 v 1 h 1 z m 0,1 v 1 h 1 v -1 z m 0,1 h -1 v 1 h 1 z m 0,1 v 1 h 1 v -1 z m 0,1 h -1 v 1 h 1 z m 0,1 v 1 c 0.552,0 1,-0.5 1,-1 z" />
      <path
         sodipodi:nodetypes="cccccccccccccc"
         inkscape:connector-curvature="0"
         style="fill:#ecf0f1"
         id="path4636"
         d="m 327,223 v 1 h 1 v -1 z m 0,2 v 1 h 1 v -1 z m 0,2 c 0,0.5 0.448,1 1,1 v -1 z" />
      <path
         sodipodi:nodetypes="sssssssssssssssssss"
         inkscape:connector-curvature="0"
         style="fill:#f2f2f2;stroke:#000000;stroke-opacity:0.46296297"
         d="m 328,225.5 c -1.37649,0 -2.5,1.12879 -2.5,2.5 v 4 c 0,1.37122 1.12351,2.5 2.5,2.5 1.37649,0 2.5,-1.12878 2.5,-2.5 v -4 c 0,-1.37121 -1.12351,-2.5 -2.5,-2.5 z m 0,1.5 c 0.552,0 1,0.4 1,1 0,0.5 -0.448,1 -1,1 -0.552,0 -1,-0.5 -1,-1 0,-0.6 0.448,-1 1,-1 z m 0,3 c 0.552,0 1,0.4 1,1 v 1 c 0,0.5 -0.448,1 -1,1 -0.552,0 -1,-0.5 -1,-1 v -1 c 0,-0.6 0.448,-1 1,-1 z"
         id="path4638" />
      <rect
         rx="0.99999994"
         ry="1"
         y="222.5"
         x="321.5"
         height="12"
         width="13"
         id="rect4642"
         style="opacity:0.4;fill:none;fill-opacity:1;stroke:url(#linearGradient4648);stroke-width:0.99999982;stroke-linecap:round;stroke-linejoin:miter;stroke-miterlimit:4;stroke-dasharray:none;stroke-dashoffset:0;stroke-opacity:1" />
      <rect
         rx="12"
         style="opacity:1;fill:url(#linearGradient4667);fill-opacity:1;stroke:none;stroke-width:0.99999988;stroke-linecap:round;stroke-linejoin:miter;stroke-miterlimit:4;stroke-dasharray:none;stroke-dashoffset:0;stroke-opacity:1"
         id="rect4665"
         width="224"
         height="192"
         x="48"
         y="60"
         ry="12" />
      <g
         id="g4695"
         transform="matrix(0.5,0,0,0.5,104.5,36.439999)">
        <path
           d="M 95,47.120002 V 223.12 c 0,8.8 7.16,16 16,16 8.84,0 16,-7.2 16,-16 V 47.120002 Z"
           id="path4438"
           inkscape:connector-curvature="0"
           style="display:inline;opacity:0.1;fill:#000000;fill-opacity:1;stroke:none;enable-background:new"
           sodipodi:nodetypes="cssscc" />
        <path
           sodipodi:nodetypes="cccccccccccccccccccccccccccccccccccccccccccccccccccccccccccccccccccccccccccccccccccccccccccccccccccccccccccccccccc"
           id="path4440"
           d="m 111,47.120002 v 8 h 8 v -8 z m 0,8 h -8 v 8 h 8 z m 0,8 v 8 h 8 v -8 z m 0,8 h -8 v 8 h 8 z m 0,8 v 8 h 8 v -8 z m 0,8 h -8 v 8 h 8 z m 0,8 V 103.12 h 8 v -7.999998 z m 0,7.999998 h -8 v 8 h 8 z m 0,8 v 8 h 8 v -8 z m 0,8 h -8 v 8 h 8 z m 0,8 v 8 h 8 v -8 z m 0,8 h -8 v 8 h 8 z m 0,8 v 8 h 8 v -8 z m 0,8 h -8 v 8 h 8 z m 0,8 v 8 h 8 v -8 z m 0,8 h -8 v 8 h 8 z m 0,8 v 8 h 8 v -8 z m 0,8 h -8 v 8 h 8 z m 0,8 v 8 h 8 v -8 z m 0,8 h -8 v 8 h 8 z m 0,8 v 8 h 8 v -8 z m 0,8 h -8 v 8 h 8 z m 0,8 v 8 c 4.416,0 8,-4 8,-8 z"
           style="display:inline;opacity:0.2;fill:#000000;fill-opacity:1;stroke:none;enable-background:new"
           inkscape:connector-curvature="0" />
        <path
           sodipodi:nodetypes="ccccccccccccccccccccccccccccccccccccccccccccccccccccccccccc"
           id="path4442"
           d="m 103,47.120002 v 8 h 8 v -8 z m 0,16 v 8 h 8 v -8 z m 0,16 v 8 h 8 v -8 z m 0,16 V 103.12 h 8 V 95.120002 Z M 103,111.12 v 8 h 8 v -8 z m 0,16 v 8 h 8 v -8 z m 0,16 v 8 h 8 v -8 z m 0,16 v 8 h 8 v -8 z m 0,16 v 8 h 8 v -8 z m 0,16 v 8 h 8 v -8 z m 0,16 v 8 h 8 v -8 z m 0,16 c 0,4 3.584,8 8,8 v -8 z"
           style="display:inline;fill:#dddddd;fill-opacity:1;stroke:none;enable-background:new"
           inkscape:connector-curvature="0" />
        <path
           sodipodi:nodetypes="sssssssssssssssssss"
           d="m 111,235.12 c -8.84,0 -16,7.2 -16,16 v 32 c 0,8.8 7.16,16 16,16 8.84,0 16,-7.2 16,-16 v -32 c 0,-8.8 -7.16,-16 -16,-16 z m 0,8 c 4.416,0 8,3.2 8,8 0,4 -3.584,8 -8,8 -4.416,0 -8,-4 -8,-8 0,-4.8 3.584,-8 8,-8 z m 0,24 c 4.416,0 8,3.2 8,8 v 8 c 0,4 -3.584,8 -8,8 -4.416,0 -8,-4 -8,-8 v -8 c 0,-4.8 3.584,-8 8,-8 z"
           id="path4444"
           inkscape:connector-curvature="0"
           style="display:inline;opacity:0.2;fill:#000000;fill-opacity:1;stroke:none;filter:url(#filter4528);enable-background:new" />
        <path
           sodipodi:nodetypes="sssssssssssssssssss"
           d="m 111,231.12 c -8.84,0 -16,7.2 -16,16 v 32 c 0,8.8 7.16,16 16,16 8.84,0 16,-7.2 16,-16 v -32 c 0,-8.8 -7.16,-16 -16,-16 z m 0,8 c 4.416,0 8,3.2 8,8 0,4 -3.584,8 -8,8 -4.416,0 -8,-4 -8,-8 0,-4.8 3.584,-8 8,-8 z m 0,24 c 4.416,0 8,3.2 8,8 v 8 c 0,4 -3.584,8 -8,8 -4.416,0 -8,-4 -8,-8 v -8 c 0,-4.8 3.584,-8 8,-8 z"
           id="path4446"
           inkscape:connector-curvature="0"
           style="display:inline;fill:#f5f5f5;fill-opacity:1;stroke:none;enable-background:new" />
        <path
           sodipodi:nodetypes="ccccccccccccccccccccccccccccccccccccccccccccccccccccccc"
           inkscape:connector-curvature="0"
           style="display:inline;fill:#b3b3b3;fill-opacity:1;stroke:none;enable-background:new"
           d="m 119,55.120002 v 8 h -8 v -8 z m 0,16 v 8 h -8 v -8 z m 0,16 v 8 h -8 v -8 z M 119,103.12 v 8 h -8 v -8 z m 0,16 v 8 h -8 v -8 z m 0,16 v 8 h -8 v -8 z m 0,16 v 8 h -8 v -8 z m 0,16 v 8 h -8 v -8 z m 0,16 v 8 h -8 v -8 z m 0,16 v 8 h -8 v -8 z m 0,16 v 8 h -8 v -8 z"
           id="path4553" />
      </g>
      <rect
         style="opacity:0.4;fill:none;fill-opacity:1;stroke:url(#linearGradient4715);stroke-width:0.99999994;stroke-linecap:round;stroke-linejoin:miter;stroke-miterlimit:4;stroke-dasharray:none;stroke-dashoffset:0;stroke-opacity:1"
         id="rect4713"
         width="223"
         height="191"
         x="48.5"
         y="60.5"
         ry="11.5"
         rx="11.5" />
      <rect
         ry="11.5"
         y="-251.5"
         x="48.5"
         height="191"
         width="223"
         id="rect4718"
         style="opacity:0.2;fill:none;fill-opacity:1;stroke:url(#linearGradient4720);stroke-width:1;stroke-linecap:round;stroke-linejoin:miter;stroke-miterlimit:4;stroke-dasharray:none;stroke-dashoffset:0;stroke-opacity:1"
         rx="11.5"
         transform="scale(1,-1)" />
    </g>
  </g>
</svg>
