<?xml version="1.0" encoding="UTF-8" standalone="no"?>
<!-- Created with Inkscape (http://www.inkscape.org/) -->

<svg
   xmlns:dc="http://purl.org/dc/elements/1.1/"
   xmlns:cc="http://creativecommons.org/ns#"
   xmlns:rdf="http://www.w3.org/1999/02/22-rdf-syntax-ns#"
   xmlns:svg="http://www.w3.org/2000/svg"
   xmlns="http://www.w3.org/2000/svg"
   xmlns:xlink="http://www.w3.org/1999/xlink"
   xmlns:sodipodi="http://sodipodi.sourceforge.net/DTD/sodipodi-0.dtd"
   xmlns:inkscape="http://www.inkscape.org/namespaces/inkscape"
   inkscape:export-ydpi="96"
   inkscape:export-xdpi="96"
   inkscape:export-filename="Template.png"
   width="400"
   height="320"
   id="svg11300"
   sodipodi:version="0.32"
   inkscape:version="0.92.0 r"
   sodipodi:docname="preferences-system-time.svg"
   inkscape:output_extension="org.inkscape.output.svg.inkscape"
   version="1.0"
   style="display:inline;enable-background:new"
   viewBox="0 0 400 320">
  <title
     id="title4162">Solus Icon Template</title>
  <defs
     id="defs3">
    <linearGradient
       inkscape:collect="always"
       id="linearGradient4554">
      <stop
         style="stop-color:#ffffff;stop-opacity:1"
         offset="0"
         id="stop4550" />
      <stop
         style="stop-color:#f9f9f9;stop-opacity:1"
         offset="1"
         id="stop4552" />
    </linearGradient>
    <linearGradient
       inkscape:collect="always"
       xlink:href="#linearGradient4502"
       id="linearGradient4524"
       x1="328"
       y1="221"
       x2="328"
       y2="235"
       gradientUnits="userSpaceOnUse" />
    <linearGradient
       inkscape:collect="always"
       xlink:href="#linearGradient4502"
       id="linearGradient4530"
       gradientUnits="userSpaceOnUse"
       x1="328"
       y1="221"
       x2="328"
       y2="235"
       gradientTransform="matrix(1.375,0,0,1.375,-119,-129.44116)" />
    <linearGradient
       inkscape:collect="always"
       xlink:href="#linearGradient4502"
       id="linearGradient4536"
       gradientUnits="userSpaceOnUse"
       gradientTransform="matrix(1.75,0,0,1.75,-238,-267)"
       x1="328"
       y1="221"
       x2="328"
       y2="235" />
    <linearGradient
       inkscape:collect="always"
       xlink:href="#linearGradient4502"
       id="linearGradient4540"
       gradientUnits="userSpaceOnUse"
       gradientTransform="matrix(2.75,0,0,2.75,-558.00001,-559.00002)"
       x1="328"
       y1="221"
       x2="328"
       y2="235" />
    <linearGradient
       inkscape:collect="always"
       xlink:href="#linearGradient4502"
       id="linearGradient4544"
       gradientUnits="userSpaceOnUse"
       gradientTransform="matrix(14.25,0,0,14.25,-4514.0001,-3109.0001)"
       x1="328"
       y1="221"
       x2="328"
       y2="235" />
    <filter
       inkscape:collect="always"
       style="color-interpolation-filters:sRGB"
       id="filter4576"
       x="-0.012"
       width="1.024"
       y="-0.012"
       height="1.024">
      <feGaussianBlur
         inkscape:collect="always"
         stdDeviation="1.14"
         id="feGaussianBlur4578" />
    </filter>
    <filter
       inkscape:collect="always"
       style="color-interpolation-filters:sRGB"
       id="filter4582"
       x="-0.06"
       width="1.12"
       y="-0.06"
       height="1.12">
      <feGaussianBlur
         inkscape:collect="always"
         stdDeviation="5.7"
         id="feGaussianBlur4584" />
    </filter>
    <linearGradient
       inkscape:collect="always"
       id="linearGradient4502">
      <stop
         id="stop4500"
         offset="0"
         style="stop-color:#adb5c0;stop-opacity:1" />
      <stop
         id="stop4498"
         offset="1"
         style="stop-color:#808c9d;stop-opacity:1" />
    </linearGradient>
    <linearGradient
       inkscape:collect="always"
       xlink:href="#linearGradient4554"
       id="linearGradient4556"
       x1="324"
       y1="68"
       x2="364"
       y2="68"
       gradientUnits="userSpaceOnUse"
       gradientTransform="translate(-412,-412)" />
    <linearGradient
       inkscape:collect="always"
       xlink:href="#linearGradient4554"
       id="linearGradient4664"
       gradientUnits="userSpaceOnUse"
       gradientTransform="translate(-412,-412)"
       x1="324"
       y1="68"
       x2="364"
       y2="68" />
    <linearGradient
       inkscape:collect="always"
       xlink:href="#linearGradient4554"
       id="linearGradient4682"
       gradientUnits="userSpaceOnUse"
       gradientTransform="translate(-412,-412)"
       x1="324"
       y1="68"
       x2="364"
       y2="68" />
    <linearGradient
       inkscape:collect="always"
       xlink:href="#linearGradient4554"
       id="linearGradient4716"
       gradientUnits="userSpaceOnUse"
       gradientTransform="translate(-412,-412)"
       x1="324"
       y1="68"
       x2="364"
       y2="68" />
    <linearGradient
       inkscape:collect="always"
       xlink:href="#linearGradient4554"
       id="linearGradient4752"
       gradientUnits="userSpaceOnUse"
       gradientTransform="matrix(5.2,0,0,5.2,-1928.8001,-513.6)"
       x1="324"
       y1="68"
       x2="364"
       y2="68" />
    <clipPath
       clipPathUnits="userSpaceOnUse"
       id="clipPath4776">
      <circle
         style="display:inline;opacity:1;fill:url(#linearGradient4780);fill-opacity:1;stroke:none;stroke-width:4.81818199;stroke-linecap:round;stroke-linejoin:miter;stroke-miterlimit:4;stroke-dasharray:none;stroke-dashoffset:0;stroke-opacity:1;enable-background:new"
         id="circle4778"
         cx="-140.00005"
         cy="-160"
         r="106" />
    </clipPath>
    <linearGradient
       inkscape:collect="always"
       xlink:href="#linearGradient4554"
       id="linearGradient4780"
       gradientUnits="userSpaceOnUse"
       gradientTransform="matrix(5.3,0,0,5.3,-1963.2001,-520.4)"
       x1="324"
       y1="68"
       x2="364"
       y2="68" />
  </defs>
  <sodipodi:namedview
     stroke="#ef2929"
     fill="#f57900"
     id="base"
     pagecolor="#ffffff"
     bordercolor="#666666"
     borderopacity="0.25490196"
     inkscape:pageopacity="0"
     inkscape:pageshadow="2"
     inkscape:zoom="1"
     inkscape:cx="184.8735"
     inkscape:cy="165.16009"
     inkscape:current-layer="layer9"
     showgrid="false"
     inkscape:grid-bbox="true"
     inkscape:document-units="px"
     inkscape:showpageshadow="false"
     inkscape:window-width="1920"
     inkscape:window-height="1016"
     inkscape:window-x="0"
     inkscape:window-y="27"
     width="400px"
     height="300px"
     inkscape:snap-nodes="true"
     inkscape:snap-bbox="true"
     objecttolerance="7"
     gridtolerance="12"
     guidetolerance="13"
     inkscape:window-maximized="1"
     inkscape:pagecheckerboard="false"
     showguides="true"
     inkscape:guide-bbox="true"
     inkscape:locked="false"
     inkscape:measure-start="0,0"
     inkscape:measure-end="0,0"
     inkscape:object-nodes="true"
     inkscape:bbox-nodes="true"
     inkscape:snap-bbox-midpoints="true">
    <inkscape:grid
       type="xygrid"
       id="grid5883"
       spacingx="1px"
       spacingy="1px"
       enabled="true"
       visible="true"
       empspacing="4" />
  </sodipodi:namedview>
  <metadata
     id="metadata4">
    <rdf:RDF>
      <cc:Work
         rdf:about="">
        <dc:format>image/svg+xml</dc:format>
        <dc:type
           rdf:resource="http://purl.org/dc/dcmitype/StillImage" />
        <dc:creator>
          <cc:Agent>
            <dc:title>Sam Hewitt</dc:title>
          </cc:Agent>
        </dc:creator>
        <dc:source />
        <cc:license
           rdf:resource="http://creativecommons.org/licenses/by-nc-sa/4.0/" />
        <dc:title>Solus Icon Template</dc:title>
        <dc:subject>
          <rdf:Bag />
        </dc:subject>
        <dc:date />
        <dc:rights>
          <cc:Agent>
            <dc:title />
          </cc:Agent>
        </dc:rights>
        <dc:publisher>
          <cc:Agent>
            <dc:title />
          </cc:Agent>
        </dc:publisher>
        <dc:identifier />
        <dc:relation />
        <dc:language />
        <dc:coverage />
        <dc:description />
        <dc:contributor>
          <cc:Agent>
            <dc:title />
          </cc:Agent>
        </dc:contributor>
      </cc:Work>
      <cc:License
         rdf:about="http://creativecommons.org/licenses/by-nc-sa/4.0/">
        <cc:permits
           rdf:resource="http://creativecommons.org/ns#Reproduction" />
        <cc:permits
           rdf:resource="http://creativecommons.org/ns#Distribution" />
        <cc:requires
           rdf:resource="http://creativecommons.org/ns#Notice" />
        <cc:requires
           rdf:resource="http://creativecommons.org/ns#Attribution" />
        <cc:prohibits
           rdf:resource="http://creativecommons.org/ns#CommercialUse" />
        <cc:permits
           rdf:resource="http://creativecommons.org/ns#DerivativeWorks" />
        <cc:requires
           rdf:resource="http://creativecommons.org/ns#ShareAlike" />
      </cc:License>
    </rdf:RDF>
  </metadata>
  <g
     id="layer1"
     inkscape:label="artwork:icon-name"
     inkscape:groupmode="layer"
     style="display:inline"
     transform="translate(0,20)">
    <g
       inkscape:groupmode="layer"
       id="layer7"
       inkscape:label="baseplate"
       style="display:none">
      <rect
         style="display:inline;overflow:visible;visibility:visible;fill:#eeeeec;fill-opacity:1;fill-rule:nonzero;stroke:none;stroke-width:2;marker:none;enable-background:accumulate"
         id="rect6592"
         width="32"
         height="32"
         x="320"
         y="116"
         inkscape:label="32x32" />
      <rect
         inkscape:label="22x22"
         y="173.05884"
         x="321"
         height="22"
         width="22"
         id="rect6749"
         style="display:inline;overflow:visible;visibility:visible;fill:#eeeeec;fill-opacity:1;fill-rule:nonzero;stroke:none;stroke-width:2;marker:none;enable-background:accumulate" />
      <rect
         style="display:inline;overflow:visible;visibility:visible;fill:#eeeeec;fill-opacity:1;fill-rule:nonzero;stroke:none;stroke-width:2;marker:none;enable-background:accumulate"
         id="rect6833"
         width="16"
         height="16"
         x="320"
         y="220"
         inkscape:label="16x16" />
      <rect
         style="display:inline;overflow:visible;visibility:visible;fill:#eeeeec;fill-opacity:1;fill-rule:nonzero;stroke:none;stroke-width:2;marker:none;enable-background:accumulate"
         id="rect8104"
         width="24"
         height="24"
         x="320"
         y="172"
         inkscape:label="24x24" />
      <text
         xml:space="preserve"
         style="font-style:normal;font-variant:normal;font-weight:normal;font-stretch:normal;font-size:13.33333302px;line-height:125%;font-family:monospace;-inkscape-font-specification:monospace;text-align:start;writing-mode:lr-tb;text-anchor:start;display:inline;fill:#000000;fill-opacity:1;stroke:none;enable-background:new"
         x="31.855944"
         y="-65.699577"
         id="context"
         inkscape:label="context"><tspan
           sodipodi:role="line"
           id="tspan2716"
           x="31.855944"
           y="-65.699577"
           style="font-weight:bold">categories</tspan></text>
      <text
         inkscape:label="icon-name"
         id="text3021"
         y="-39.900627"
         x="31.264769"
         style="font-style:normal;font-variant:normal;font-weight:normal;font-stretch:normal;font-size:13.33333302px;line-height:125%;font-family:monospace;-inkscape-font-specification:monospace;text-align:start;writing-mode:lr-tb;text-anchor:start;display:inline;fill:#000000;fill-opacity:1;stroke:none;enable-background:new"
         xml:space="preserve"><tspan
           y="-39.900627"
           x="31.264769"
           id="tspan3023"
           sodipodi:role="line">preferences-system-time</tspan></text>
      <rect
         style="display:inline;overflow:visible;visibility:visible;fill:#eeeeec;fill-opacity:1;fill-rule:nonzero;stroke:none;stroke-width:1.99999976;marker:none;enable-background:accumulate"
         id="rect13805"
         width="256"
         height="256"
         x="32.000004"
         y="12.000042"
         inkscape:label="512x512" />
      <rect
         inkscape:label="48x48"
         y="320"
         x="44"
         height="48"
         width="48"
         id="rect6284"
         style="display:inline;overflow:visible;visibility:visible;fill:#eeeeec;fill-opacity:1;fill-rule:nonzero;stroke:none;stroke-width:2;marker:none;enable-background:accumulate"
         transform="matrix(0,1,1,0,0,0)" />
    </g>
    <g
       inkscape:groupmode="layer"
       id="layer9"
       inkscape:label="icons"
       style="display:inline">
      <circle
         r="22"
         cy="69"
         cx="344"
         id="circle4596"
         style="display:inline;opacity:0.1;fill:#000000;fill-opacity:1;stroke:#000000;stroke-width:2;stroke-linecap:round;stroke-linejoin:miter;stroke-miterlimit:4;stroke-dasharray:none;stroke-dashoffset:0;stroke-opacity:1;enable-background:new" />
      <circle
         style="display:inline;opacity:0.1;fill:#000000;fill-opacity:1;stroke:none;stroke-width:1;stroke-linecap:round;stroke-linejoin:miter;stroke-miterlimit:4;stroke-dasharray:none;stroke-dashoffset:0;stroke-opacity:1;enable-background:new"
         id="circle4594"
         cx="344"
         cy="69"
         r="22" />
      <circle
         style="display:inline;opacity:0.2;fill:#000000;fill-opacity:1;stroke:#000000;stroke-width:1;stroke-linecap:round;stroke-linejoin:miter;stroke-miterlimit:4;stroke-dasharray:none;stroke-dashoffset:0;stroke-opacity:1;filter:url(#filter4582);enable-background:new"
         id="circle4580"
         cx="160"
         cy="142.00005"
         r="114" />
      <circle
         r="114"
         cy="141.00005"
         cx="160"
         id="circle4572"
         style="display:inline;opacity:0.5;fill:#000000;fill-opacity:1;stroke:#000000;stroke-width:1;stroke-linecap:round;stroke-linejoin:miter;stroke-miterlimit:4;stroke-dasharray:none;stroke-dashoffset:0;stroke-opacity:1;enable-background:new;filter:url(#filter4576)" />
      <circle
         style="display:inline;enable-background:new;opacity:1;fill:url(#linearGradient4524);fill-opacity:1.0;stroke:none;stroke-width:1;stroke-linecap:round;stroke-linejoin:miter;stroke-miterlimit:4;stroke-dasharray:none;stroke-dashoffset:0;stroke-opacity:1"
         id="path4510"
         cx="328"
         cy="228"
         r="8" />
      <circle
         r="11"
         cy="184.05884"
         cx="332"
         id="circle4528"
         style="display:inline;opacity:1;fill:url(#linearGradient4530);fill-opacity:1.0;stroke:none;stroke-width:1;stroke-linecap:round;stroke-linejoin:miter;stroke-miterlimit:4;stroke-dasharray:none;stroke-dashoffset:0;stroke-opacity:1;enable-background:new" />
      <circle
         style="display:inline;opacity:1;fill:url(#linearGradient4536);fill-opacity:1.0;stroke:none;stroke-width:1;stroke-linecap:round;stroke-linejoin:miter;stroke-miterlimit:4;stroke-dasharray:none;stroke-dashoffset:0;stroke-opacity:1;enable-background:new"
         id="circle4534"
         cx="336"
         cy="132"
         r="14" />
      <circle
         r="22"
         cy="68"
         cx="344"
         id="circle4538"
         style="display:inline;opacity:1;fill:url(#linearGradient4540);fill-opacity:1.0;stroke:none;stroke-width:1;stroke-linecap:round;stroke-linejoin:miter;stroke-miterlimit:4;stroke-dasharray:none;stroke-dashoffset:0;stroke-opacity:1;enable-background:new" />
      <circle
         style="display:inline;opacity:1;fill:url(#linearGradient4544);fill-opacity:1.0;stroke:none;stroke-width:1;stroke-linecap:round;stroke-linejoin:miter;stroke-miterlimit:4;stroke-dasharray:none;stroke-dashoffset:0;stroke-opacity:1;enable-background:new"
         id="circle4542"
         cx="160"
         cy="140.00005"
         r="114" />
      <g
         id="g4644">
        <circle
           transform="matrix(0,-1,-1,0,0,0)"
           r="20"
           cy="-344"
           cx="-68"
           id="circle4539"
           style="display:inline;opacity:1;fill:url(#linearGradient4556);fill-opacity:1;stroke:none;stroke-width:0.90909094;stroke-linecap:round;stroke-linejoin:miter;stroke-miterlimit:4;stroke-dasharray:none;stroke-dashoffset:0;stroke-opacity:1;enable-background:new" />
        <path
           id="path4609"
           transform="translate(0,-20)"
           d="M 344.92383 70 C 344.67572 70 344.46252 70.088152 344.32031 70.203125 L 344.42773 70.466797 C 344.52763 70.391157 344.67412 70.302734 344.84961 70.302734 C 345.1068 70.302734 345.19922 70.457321 345.19922 70.632812 C 345.19622 70.893024 344.97855 71.128942 344.51562 71.558594 L 344.2832 71.773438 L 344.2832 72 L 345.61523 72 L 345.61523 71.691406 L 344.80859 71.691406 L 344.80859 71.685547 L 344.97852 71.537109 C 345.32346 71.219409 345.57227 70.940634 345.57227 70.595703 C 345.57227 70.274976 345.35954 70 344.92383 70 z M 343.29883 70.033203 L 342.81836 70.269531 L 342.88086 70.550781 L 343.24219 70.369141 L 343.24805 70.369141 L 343.24805 72 L 343.60742 72 L 343.60742 70.033203 L 343.29883 70.033203 z M 326.1582 87 C 325.74065 87 325.44922 87.322957 325.44922 87.701172 C 325.44922 88.064258 325.70302 88.310547 326.04492 88.310547 C 326.23252 88.310547 326.37476 88.245645 326.47461 88.136719 L 326.48047 88.136719 C 326.44417 88.324314 326.35666 88.473298 326.22656 88.576172 C 326.11763 88.663922 325.97638 88.716413 325.82812 88.728516 C 325.74043 88.737616 325.68161 88.740375 325.62109 88.734375 L 325.62109 89.029297 C 325.67859 89.032297 325.76098 89.032538 325.8457 89.023438 C 326.11196 89.005278 326.34814 88.911243 326.51758 88.753906 C 326.72333 88.557234 326.85938 88.258466 326.85938 87.837891 C 326.85938 87.356802 326.61811 87 326.1582 87 z M 362.09766 87 C 361.86468 87 361.6432 87.074745 361.53125 87.150391 L 361.61523 87.419922 C 361.69693 87.365462 361.85722 87.296875 362.01758 87.296875 C 362.23543 87.296875 362.33203 87.408765 362.33203 87.544922 C 362.33203 87.738568 362.11475 87.816406 361.94531 87.816406 L 361.77539 87.816406 L 361.77539 88.089844 L 361.94531 88.089844 C 362.17223 88.089844 362.39258 88.188896 362.39258 88.421875 C 362.39258 88.576186 362.28051 88.736328 361.99609 88.736328 C 361.8085 88.736328 361.62447 88.660622 361.54883 88.615234 L 361.46484 88.896484 C 361.57074 88.966074 361.7766 89.033203 362.01562 89.033203 C 362.50277 89.033203 362.78125 88.770329 362.78125 88.4375 C 362.77825 88.171237 362.58669 87.992652 362.34766 87.947266 L 362.34766 87.941406 C 362.58971 87.856686 362.71094 87.686218 362.71094 87.480469 C 362.71094 87.223283 362.50613 87 362.09766 87 z M 326.13867 87.275391 C 326.38073 87.275391 326.48047 87.501315 326.48047 87.767578 C 326.48047 87.819018 326.47118 87.849727 326.45898 87.876953 C 326.40148 87.967723 326.29386 88.041016 326.14258 88.041016 C 325.93683 88.041016 325.81836 87.884364 325.81836 87.681641 C 325.81836 87.442609 325.95108 87.275391 326.13867 87.275391 z M 344.66797 105.00586 C 344.62257 105.00286 344.56216 105.00352 344.48047 105.01562 C 344.19908 105.03681 343.95976 105.13222 343.78125 105.30469 C 343.5755 105.49833 343.43945 105.80538 343.43945 106.18359 C 343.43945 106.67073 343.70358 107.0332 344.18164 107.0332 C 344.59919 107.0332 344.875 106.70722 344.875 106.33203 C 344.875 105.93264 344.61036 105.68945 344.27148 105.68945 C 344.07481 105.68945 343.9269 105.76891 343.83008 105.88086 L 343.82227 105.88086 C 343.87067 105.60854 344.06594 105.35701 344.48047 105.30859 C 344.55307 105.29949 344.61351 105.29583 344.66797 105.29883 L 344.66797 105.00586 z M 344.1543 105.96289 C 344.37215 105.96289 344.49609 106.12161 344.49609 106.35156 C 344.49609 106.58757 344.37226 106.75586 344.18164 106.75586 C 343.93656 106.75586 343.81464 106.54341 343.80859 106.2832 C 343.80859 106.23176 343.81878 106.19432 343.83398 106.16406 C 343.89148 106.04606 344.01512 105.96289 344.1543 105.96289 z "
           style="font-style:normal;font-variant:normal;font-weight:600;font-stretch:normal;font-size:medium;line-height:1.89107418px;font-family:'Myriad Pro';-inkscape-font-specification:'Myriad Pro Semi-Bold';text-align:center;letter-spacing:0px;word-spacing:0px;text-anchor:middle;fill:#000000;fill-opacity:1;stroke:none;stroke-width:0.07564297px;stroke-linecap:butt;stroke-linejoin:miter;stroke-opacity:1;opacity:0.4" />
        <path
           inkscape:connector-curvature="0"
           id="path4560"
           d="M 344,68 356,56"
           style="fill:none;fill-rule:evenodd;stroke:#000000;stroke-width:1px;stroke-linecap:round;stroke-linejoin:miter;stroke-opacity:1" />
        <path
           sodipodi:nodetypes="cc"
           inkscape:connector-curvature="0"
           id="path4562"
           d="m 336,60 8,8"
           style="fill:none;fill-rule:evenodd;stroke:#000000;stroke-width:1;stroke-linecap:round;stroke-linejoin:miter;stroke-miterlimit:4;stroke-dasharray:none;stroke-opacity:1" />
        <path
           sodipodi:nodetypes="cc"
           inkscape:connector-curvature="0"
           id="path4564"
           d="M 344.5,62 V 87"
           style="fill:none;fill-rule:evenodd;stroke:#e40004;stroke-width:1px;stroke-linecap:butt;stroke-linejoin:miter;stroke-opacity:1" />
        <circle
           r="1.5"
           cy="67.5"
           cx="344.5"
           id="path4566"
           style="opacity:1;fill:#e40004;fill-opacity:1;stroke:none;stroke-width:2.25;stroke-linecap:round;stroke-linejoin:miter;stroke-miterlimit:4;stroke-dasharray:none;stroke-dashoffset:0;stroke-opacity:1" />
        <path
           id="path4623"
           transform="translate(0,-20)"
           d="M 352.76172 72.84375 A 0.5 0.5 0 0 0 352.31641 73.09375 A 0.5 0.5 0 0 0 352.5 73.777344 A 0.5 0.5 0 0 0 353.18359 73.59375 A 0.5 0.5 0 0 0 353 72.912109 A 0.5 0.5 0 0 0 352.76172 72.84375 z M 335.22266 72.845703 A 0.5 0.5 0 0 0 335 72.912109 A 0.5 0.5 0 0 0 334.81641 73.59375 A 0.5 0.5 0 0 0 335.5 73.777344 A 0.5 0.5 0 0 0 335.68359 73.09375 A 0.5 0.5 0 0 0 335.22266 72.845703 z M 328.85547 79.25 A 0.5 0.5 0 0 0 328.41211 79.5 A 0.5 0.5 0 0 0 328.59375 80.183594 A 0.5 0.5 0 0 0 329.27734 80 A 0.5 0.5 0 0 0 329.09375 79.316406 A 0.5 0.5 0 0 0 328.85547 79.25 z M 359.12891 79.25 A 0.5 0.5 0 0 0 358.90625 79.316406 A 0.5 0.5 0 0 0 358.72266 80 A 0.5 0.5 0 0 0 359.40625 80.183594 A 0.5 0.5 0 0 0 359.58789 79.5 A 0.5 0.5 0 0 0 359.12891 79.25 z M 328.81836 96.75 A 0.5 0.5 0 0 0 328.59375 96.816406 A 0.5 0.5 0 0 0 328.41211 97.5 A 0.5 0.5 0 0 0 329.09375 97.683594 A 0.5 0.5 0 0 0 329.27734 97 A 0.5 0.5 0 0 0 328.81836 96.75 z M 359.16797 96.75 A 0.5 0.5 0 0 0 358.72266 97 A 0.5 0.5 0 0 0 358.90625 97.683594 A 0.5 0.5 0 0 0 359.58789 97.5 A 0.5 0.5 0 0 0 359.40625 96.816406 A 0.5 0.5 0 0 0 359.16797 96.75 z M 335.21094 103.15625 A 0.5 0.5 0 0 0 334.81641 103.40625 A 0.5 0.5 0 0 0 335 104.08789 A 0.5 0.5 0 0 0 335.68359 103.90625 A 0.5 0.5 0 0 0 335.5 103.22266 A 0.5 0.5 0 0 0 335.21094 103.15625 z M 352.72266 103.15625 A 0.5 0.5 0 0 0 352.5 103.22266 A 0.5 0.5 0 0 0 352.31641 103.90625 A 0.5 0.5 0 0 0 353 104.08789 A 0.5 0.5 0 0 0 353.18359 103.40625 A 0.5 0.5 0 0 0 352.72266 103.15625 z "
           style="opacity:0.2;fill:#000000;fill-opacity:1;stroke:none;stroke-width:1.5;stroke-linecap:round;stroke-linejoin:miter;stroke-miterlimit:4;stroke-dasharray:none;stroke-dashoffset:0;stroke-opacity:1" />
      </g>
      <g
         id="g4660"
         transform="matrix(0.45,0,0,0.45,177.2,153.45884)"
         style="stroke-width:2.22222233">
        <circle
           style="display:inline;opacity:1;fill:url(#linearGradient4664);fill-opacity:1;stroke:none;stroke-width:2.02020216;stroke-linecap:round;stroke-linejoin:miter;stroke-miterlimit:4;stroke-dasharray:none;stroke-dashoffset:0;stroke-opacity:1;enable-background:new"
           id="circle4646"
           cx="-68"
           cy="-344"
           r="20"
           transform="matrix(0,-1,-1,0,0,0)" />
        <path
           style="font-style:normal;font-variant:normal;font-weight:600;font-stretch:normal;font-size:medium;line-height:1.89107418px;font-family:'Myriad Pro';-inkscape-font-specification:'Myriad Pro Semi-Bold';text-align:center;letter-spacing:0px;word-spacing:0px;text-anchor:middle;opacity:0.4;fill:#000000;fill-opacity:1;stroke:none;stroke-width:0.1680955px;stroke-linecap:butt;stroke-linejoin:miter;stroke-opacity:1"
           d="m 344.92383,70 c -0.24811,0 -0.46131,0.08815 -0.60352,0.203125 l 0.10742,0.263672 c 0.0999,-0.07564 0.24639,-0.164063 0.42188,-0.164063 0.25719,0 0.34961,0.154587 0.34961,0.330078 -0.003,0.260212 -0.22067,0.49613 -0.6836,0.925782 l -0.23242,0.214844 V 72 h 1.33203 v -0.308594 h -0.80664 v -0.0059 l 0.16993,-0.148438 c 0.34494,-0.3177 0.59375,-0.596475 0.59375,-0.941406 C 345.57227,70.274976 345.35954,70 344.92383,70 Z m -1.625,0.0332 -0.48047,0.236328 0.0625,0.28125 0.36133,-0.18164 h 0.006 V 72 h 0.35937 V 70.033203 Z M 326.1582,87 c -0.41755,0 -0.70898,0.322957 -0.70898,0.701172 0,0.363086 0.2538,0.609375 0.5957,0.609375 0.1876,0 0.32984,-0.0649 0.42969,-0.173828 h 0.006 c -0.0363,0.187595 -0.12381,0.336579 -0.25391,0.439453 -0.10893,0.08775 -0.25018,0.140241 -0.39844,0.152344 -0.0877,0.0091 -0.14651,0.01186 -0.20703,0.0059 v 0.294922 c 0.0575,0.003 0.13989,0.0032 0.22461,-0.0059 0.26626,-0.01816 0.50244,-0.112195 0.67188,-0.269532 0.20575,-0.196672 0.3418,-0.49544 0.3418,-0.916015 C 326.85938,87.356802 326.61811,87 326.1582,87 Z m 35.93946,0 c -0.23298,0 -0.45446,0.07474 -0.56641,0.150391 l 0.084,0.269531 c 0.0817,-0.05446 0.24199,-0.123047 0.40235,-0.123047 0.21785,0 0.31445,0.11189 0.31445,0.248047 0,0.193646 -0.21728,0.271484 -0.38672,0.271484 h -0.16992 v 0.273438 h 0.16992 c 0.22692,0 0.44727,0.09905 0.44727,0.332031 0,0.154311 -0.11207,0.314453 -0.39649,0.314453 -0.18759,0 -0.37162,-0.07571 -0.44726,-0.121094 l -0.084,0.28125 c 0.1059,0.06959 0.31176,0.136719 0.55078,0.136719 0.48715,0 0.76563,-0.262874 0.76563,-0.595703 -0.003,-0.266263 -0.19456,-0.444848 -0.43359,-0.490234 v -0.0059 c 0.24205,-0.08472 0.36328,-0.255188 0.36328,-0.460937 C 362.71094,87.223283 362.50613,87 362.09766,87 Z m -35.95899,0.275391 c 0.24206,0 0.3418,0.225924 0.3418,0.492187 0,0.05144 -0.009,0.08215 -0.0215,0.109375 -0.0575,0.09077 -0.16512,0.164063 -0.3164,0.164063 -0.20575,0 -0.32422,-0.156652 -0.32422,-0.359375 0,-0.239032 0.13272,-0.40625 0.32031,-0.40625 z m 18.5293,17.730469 c -0.0454,-0.003 -0.10581,-0.002 -0.1875,0.01 -0.28139,0.0212 -0.52071,0.1166 -0.69922,0.28907 -0.20575,0.19364 -0.3418,0.50069 -0.3418,0.8789 0,0.48714 0.26413,0.84961 0.74219,0.84961 0.41755,0 0.69336,-0.32598 0.69336,-0.70117 0,-0.39939 -0.26464,-0.64258 -0.60352,-0.64258 -0.19667,0 -0.34458,0.0795 -0.4414,0.19141 h -0.008 c 0.0484,-0.27232 0.24367,-0.52385 0.6582,-0.57227 0.0726,-0.009 0.13304,-0.0128 0.1875,-0.01 z m -0.51367,0.95703 c 0.21785,0 0.34179,0.15872 0.34179,0.38867 0,0.23601 -0.12383,0.4043 -0.31445,0.4043 -0.24508,0 -0.367,-0.21245 -0.37305,-0.47266 0,-0.0514 0.0102,-0.0889 0.0254,-0.11914 0.0575,-0.118 0.18114,-0.20117 0.32032,-0.20117 z"
           transform="translate(0,-20)"
           id="path4648"
           inkscape:connector-curvature="0" />
        <path
           style="fill:none;fill-rule:evenodd;stroke:#000000;stroke-width:1.11111111;stroke-linecap:round;stroke-linejoin:miter;stroke-opacity:1;stroke-miterlimit:4;stroke-dasharray:none"
           d="M 344,68 356,56"
           id="path4650"
           inkscape:connector-curvature="0" />
        <path
           style="fill:none;fill-rule:evenodd;stroke:#000000;stroke-width:1.11111111;stroke-linecap:round;stroke-linejoin:miter;stroke-miterlimit:4;stroke-dasharray:none;stroke-opacity:1"
           d="m 336,60 8,8"
           id="path4652"
           inkscape:connector-curvature="0"
           sodipodi:nodetypes="cc" />
        <path
           style="fill:none;fill-rule:evenodd;stroke:#e40004;stroke-width:1.11111111;stroke-linecap:butt;stroke-linejoin:miter;stroke-opacity:1;stroke-miterlimit:4;stroke-dasharray:none"
           d="M 344.5,62 V 87"
           id="path4654"
           inkscape:connector-curvature="0"
           sodipodi:nodetypes="cc" />
        <circle
           style="opacity:1;fill:#e40004;fill-opacity:1;stroke:none;stroke-width:5;stroke-linecap:round;stroke-linejoin:miter;stroke-miterlimit:4;stroke-dasharray:none;stroke-dashoffset:0;stroke-opacity:1"
           id="circle4656"
           cx="344.11111"
           cy="67.888885"
           r="1.1111112" />
        <path
           style="opacity:0.2;fill:#000000;fill-opacity:1;stroke:none;stroke-width:3.33333325;stroke-linecap:round;stroke-linejoin:miter;stroke-miterlimit:4;stroke-dasharray:none;stroke-dashoffset:0;stroke-opacity:1"
           d="m 352.76172,72.84375 a 0.5,0.5 0 0 0 -0.44531,0.25 A 0.5,0.5 0 0 0 352.5,73.777344 0.5,0.5 0 0 0 353.18359,73.59375 0.5,0.5 0 0 0 353,72.912109 0.5,0.5 0 0 0 352.76172,72.84375 Z m -17.53906,0.002 A 0.5,0.5 0 0 0 335,72.912109 0.5,0.5 0 0 0 334.81641,73.59375 0.5,0.5 0 0 0 335.5,73.777344 0.5,0.5 0 0 0 335.68359,73.09375 0.5,0.5 0 0 0 335.22266,72.845703 Z M 328.85547,79.25 a 0.5,0.5 0 0 0 -0.44336,0.25 0.5,0.5 0 0 0 0.18164,0.683594 A 0.5,0.5 0 0 0 329.27734,80 0.5,0.5 0 0 0 329.09375,79.316406 0.5,0.5 0 0 0 328.85547,79.25 Z m 30.27344,0 A 0.5,0.5 0 0 0 358.90625,79.31641 0.5,0.5 0 0 0 358.72266,80 0.5,0.5 0 0 0 359.40625,80.183594 0.5,0.5 0 0 0 359.58789,79.5 0.5,0.5 0 0 0 359.12891,79.25 Z m -30.31055,17.5 a 0.5,0.5 0 0 0 -0.22461,0.06641 0.5,0.5 0 0 0 -0.18164,0.68359 0.5,0.5 0 0 0 0.68164,0.183594 A 0.5,0.5 0 0 0 329.27734,97 0.5,0.5 0 0 0 328.81836,96.75 Z m 30.34961,0 A 0.5,0.5 0 0 0 358.72266,97 0.5,0.5 0 0 0 358.90625,97.683594 0.5,0.5 0 0 0 359.58789,97.5 0.5,0.5 0 0 0 359.40625,96.816406 0.5,0.5 0 0 0 359.16797,96.75 Z m -23.95703,6.40625 a 0.5,0.5 0 0 0 -0.39453,0.25 0.5,0.5 0 0 0 0.18359,0.68164 0.5,0.5 0 0 0 0.68359,-0.18164 0.5,0.5 0 0 0 -0.18359,-0.68359 0.5,0.5 0 0 0 -0.28906,-0.0664 z m 17.51172,0 a 0.5,0.5 0 0 0 -0.22266,0.0664 0.5,0.5 0 0 0 -0.18359,0.68359 0.5,0.5 0 0 0 0.68359,0.18164 0.5,0.5 0 0 0 0.18359,-0.68164 0.5,0.5 0 0 0 -0.46093,-0.25 z"
           transform="translate(0,-20)"
           id="path4658"
           inkscape:connector-curvature="0" />
      </g>
      <g
         style="stroke-width:3.33333349"
         transform="matrix(0.3,0,0,0.3,224.8,207.6)"
         id="g4680">
        <circle
           transform="matrix(0,-1,-1,0,0,0)"
           r="20"
           cy="-344"
           cx="-68"
           id="circle4666"
           style="display:inline;opacity:1;fill:url(#linearGradient4682);fill-opacity:1;stroke:none;stroke-width:3.03030324;stroke-linecap:round;stroke-linejoin:miter;stroke-miterlimit:4;stroke-dasharray:none;stroke-dashoffset:0;stroke-opacity:1;enable-background:new" />
        <path
           inkscape:connector-curvature="0"
           id="path4668"
           transform="translate(0,-20)"
           d="m 344.92383,70 c -0.24811,0 -0.46131,0.08815 -0.60352,0.203125 l 0.10742,0.263672 c 0.0999,-0.07564 0.24639,-0.164063 0.42188,-0.164063 0.25719,0 0.34961,0.154587 0.34961,0.330078 -0.003,0.260212 -0.22067,0.49613 -0.6836,0.925782 l -0.23242,0.214844 V 72 h 1.33203 v -0.308594 h -0.80664 v -0.0059 l 0.16993,-0.148438 c 0.34494,-0.3177 0.59375,-0.596475 0.59375,-0.941406 C 345.57227,70.274976 345.35954,70 344.92383,70 Z m -1.625,0.0332 -0.48047,0.236328 0.0625,0.28125 0.36133,-0.18164 h 0.006 V 72 h 0.35937 V 70.033203 Z M 326.1582,87 c -0.41755,0 -0.70898,0.322957 -0.70898,0.701172 0,0.363086 0.2538,0.609375 0.5957,0.609375 0.1876,0 0.32984,-0.0649 0.42969,-0.173828 h 0.006 c -0.0363,0.187595 -0.12381,0.336579 -0.25391,0.439453 -0.10893,0.08775 -0.25018,0.140241 -0.39844,0.152344 -0.0877,0.0091 -0.14651,0.01186 -0.20703,0.0059 v 0.294922 c 0.0575,0.003 0.13989,0.0032 0.22461,-0.0059 0.26626,-0.01816 0.50244,-0.112195 0.67188,-0.269532 0.20575,-0.196672 0.3418,-0.49544 0.3418,-0.916015 C 326.85938,87.356802 326.61811,87 326.1582,87 Z m 35.93946,0 c -0.23298,0 -0.45446,0.07474 -0.56641,0.150391 l 0.084,0.269531 c 0.0817,-0.05446 0.24199,-0.123047 0.40235,-0.123047 0.21785,0 0.31445,0.11189 0.31445,0.248047 0,0.193646 -0.21728,0.271484 -0.38672,0.271484 h -0.16992 v 0.273438 h 0.16992 c 0.22692,0 0.44727,0.09905 0.44727,0.332031 0,0.154311 -0.11207,0.314453 -0.39649,0.314453 -0.18759,0 -0.37162,-0.07571 -0.44726,-0.121094 l -0.084,0.28125 c 0.1059,0.06959 0.31176,0.136719 0.55078,0.136719 0.48715,0 0.76563,-0.262874 0.76563,-0.595703 -0.003,-0.266263 -0.19456,-0.444848 -0.43359,-0.490234 v -0.0059 c 0.24205,-0.08472 0.36328,-0.255188 0.36328,-0.460937 C 362.71094,87.223283 362.50613,87 362.09766,87 Z m -35.95899,0.275391 c 0.24206,0 0.3418,0.225924 0.3418,0.492187 0,0.05144 -0.009,0.08215 -0.0215,0.109375 -0.0575,0.09077 -0.16512,0.164063 -0.3164,0.164063 -0.20575,0 -0.32422,-0.156652 -0.32422,-0.359375 0,-0.239032 0.13272,-0.40625 0.32031,-0.40625 z m 18.5293,17.730469 c -0.0454,-0.003 -0.10581,-0.002 -0.1875,0.01 -0.28139,0.0212 -0.52071,0.1166 -0.69922,0.28907 -0.20575,0.19364 -0.3418,0.50069 -0.3418,0.8789 0,0.48714 0.26413,0.84961 0.74219,0.84961 0.41755,0 0.69336,-0.32598 0.69336,-0.70117 0,-0.39939 -0.26464,-0.64258 -0.60352,-0.64258 -0.19667,0 -0.34458,0.0795 -0.4414,0.19141 h -0.008 c 0.0484,-0.27232 0.24367,-0.52385 0.6582,-0.57227 0.0726,-0.009 0.13304,-0.0128 0.1875,-0.01 z m -0.51367,0.95703 c 0.21785,0 0.34179,0.15872 0.34179,0.38867 0,0.23601 -0.12383,0.4043 -0.31445,0.4043 -0.24508,0 -0.367,-0.21245 -0.37305,-0.47266 0,-0.0514 0.0102,-0.0889 0.0254,-0.11914 0.0575,-0.118 0.18114,-0.20117 0.32032,-0.20117 z"
           style="font-style:normal;font-variant:normal;font-weight:600;font-stretch:normal;font-size:medium;line-height:1.89107418px;font-family:'Myriad Pro';-inkscape-font-specification:'Myriad Pro Semi-Bold';text-align:center;letter-spacing:0px;word-spacing:0px;text-anchor:middle;opacity:0.4;fill:#000000;fill-opacity:1;stroke:none;stroke-width:0.25214326px;stroke-linecap:butt;stroke-linejoin:miter;stroke-opacity:1" />
        <path
           inkscape:connector-curvature="0"
           id="path4670"
           d="M 344,68 356,56"
           style="fill:none;fill-rule:evenodd;stroke:#000000;stroke-width:1.66666675;stroke-linecap:round;stroke-linejoin:miter;stroke-miterlimit:4;stroke-dasharray:none;stroke-opacity:1" />
        <path
           sodipodi:nodetypes="cc"
           inkscape:connector-curvature="0"
           id="path4672"
           d="m 336,60 8,8"
           style="fill:none;fill-rule:evenodd;stroke:#000000;stroke-width:1.66666675;stroke-linecap:round;stroke-linejoin:miter;stroke-miterlimit:4;stroke-dasharray:none;stroke-opacity:1" />
        <path
           sodipodi:nodetypes="cc"
           inkscape:connector-curvature="0"
           id="path4674"
           d="M 344.5,62 V 87"
           style="fill:none;fill-rule:evenodd;stroke:#e40004;stroke-width:1.66666675;stroke-linecap:butt;stroke-linejoin:miter;stroke-miterlimit:4;stroke-dasharray:none;stroke-opacity:1" />
        <circle
           r="1.1111112"
           cy="67.888885"
           cx="344.11111"
           id="circle4676"
           style="opacity:1;fill:#e40004;fill-opacity:1;stroke:none;stroke-width:7.5;stroke-linecap:round;stroke-linejoin:miter;stroke-miterlimit:4;stroke-dasharray:none;stroke-dashoffset:0;stroke-opacity:1" />
        <path
           inkscape:connector-curvature="0"
           id="path4678"
           transform="translate(0,-20)"
           d="m 352.76172,72.84375 a 0.5,0.5 0 0 0 -0.44531,0.25 A 0.5,0.5 0 0 0 352.5,73.777344 0.5,0.5 0 0 0 353.18359,73.59375 0.5,0.5 0 0 0 353,72.912109 0.5,0.5 0 0 0 352.76172,72.84375 Z m -17.53906,0.002 A 0.5,0.5 0 0 0 335,72.912109 0.5,0.5 0 0 0 334.81641,73.59375 0.5,0.5 0 0 0 335.5,73.777344 0.5,0.5 0 0 0 335.68359,73.09375 0.5,0.5 0 0 0 335.22266,72.845703 Z M 328.85547,79.25 a 0.5,0.5 0 0 0 -0.44336,0.25 0.5,0.5 0 0 0 0.18164,0.683594 A 0.5,0.5 0 0 0 329.27734,80 0.5,0.5 0 0 0 329.09375,79.316406 0.5,0.5 0 0 0 328.85547,79.25 Z m 30.27344,0 A 0.5,0.5 0 0 0 358.90625,79.31641 0.5,0.5 0 0 0 358.72266,80 0.5,0.5 0 0 0 359.40625,80.183594 0.5,0.5 0 0 0 359.58789,79.5 0.5,0.5 0 0 0 359.12891,79.25 Z m -30.31055,17.5 a 0.5,0.5 0 0 0 -0.22461,0.06641 0.5,0.5 0 0 0 -0.18164,0.68359 0.5,0.5 0 0 0 0.68164,0.183594 A 0.5,0.5 0 0 0 329.27734,97 0.5,0.5 0 0 0 328.81836,96.75 Z m 30.34961,0 A 0.5,0.5 0 0 0 358.72266,97 0.5,0.5 0 0 0 358.90625,97.683594 0.5,0.5 0 0 0 359.58789,97.5 0.5,0.5 0 0 0 359.40625,96.816406 0.5,0.5 0 0 0 359.16797,96.75 Z m -23.95703,6.40625 a 0.5,0.5 0 0 0 -0.39453,0.25 0.5,0.5 0 0 0 0.18359,0.68164 0.5,0.5 0 0 0 0.68359,-0.18164 0.5,0.5 0 0 0 -0.18359,-0.68359 0.5,0.5 0 0 0 -0.28906,-0.0664 z m 17.51172,0 a 0.5,0.5 0 0 0 -0.22266,0.0664 0.5,0.5 0 0 0 -0.18359,0.68359 0.5,0.5 0 0 0 0.68359,0.18164 0.5,0.5 0 0 0 0.18359,-0.68164 0.5,0.5 0 0 0 -0.46093,-0.25 z"
           style="opacity:0.2;fill:#000000;fill-opacity:1;stroke:none;stroke-width:5;stroke-linecap:round;stroke-linejoin:miter;stroke-miterlimit:4;stroke-dasharray:none;stroke-dashoffset:0;stroke-opacity:1" />
      </g>
      <g
         id="g4714"
         transform="matrix(0.6,0,0,0.6,129.6,91.2)"
         style="stroke-width:1.66666675">
        <circle
           style="display:inline;opacity:1;fill:url(#linearGradient4716);fill-opacity:1;stroke:none;stroke-width:1.5151515;stroke-linecap:round;stroke-linejoin:miter;stroke-miterlimit:4;stroke-dasharray:none;stroke-dashoffset:0;stroke-opacity:1;enable-background:new"
           id="circle4700"
           cx="-68"
           cy="-344"
           r="20"
           transform="matrix(0,-1,-1,0,0,0)" />
        <path
           style="font-style:normal;font-variant:normal;font-weight:600;font-stretch:normal;font-size:medium;line-height:1.89107418px;font-family:'Myriad Pro';-inkscape-font-specification:'Myriad Pro Semi-Bold';text-align:center;letter-spacing:0px;word-spacing:0px;text-anchor:middle;opacity:0.4;fill:#000000;fill-opacity:1;stroke:none;stroke-width:0.12607162px;stroke-linecap:butt;stroke-linejoin:miter;stroke-opacity:1"
           d="m 344.92383,70 c -0.24811,0 -0.46131,0.08815 -0.60352,0.203125 l 0.10742,0.263672 c 0.0999,-0.07564 0.24639,-0.164063 0.42188,-0.164063 0.25719,0 0.34961,0.154587 0.34961,0.330078 -0.003,0.260212 -0.22067,0.49613 -0.6836,0.925782 l -0.23242,0.214844 V 72 h 1.33203 v -0.308594 h -0.80664 v -0.0059 l 0.16993,-0.148438 c 0.34494,-0.3177 0.59375,-0.596475 0.59375,-0.941406 C 345.57227,70.274976 345.35954,70 344.92383,70 Z m -1.625,0.0332 -0.48047,0.236328 0.0625,0.28125 0.36133,-0.18164 h 0.006 V 72 h 0.35937 V 70.033203 Z M 326.1582,87 c -0.41755,0 -0.70898,0.322957 -0.70898,0.701172 0,0.363086 0.2538,0.609375 0.5957,0.609375 0.1876,0 0.32984,-0.0649 0.42969,-0.173828 h 0.006 c -0.0363,0.187595 -0.12381,0.336579 -0.25391,0.439453 -0.10893,0.08775 -0.25018,0.140241 -0.39844,0.152344 -0.0877,0.0091 -0.14651,0.01186 -0.20703,0.0059 v 0.294922 c 0.0575,0.003 0.13989,0.0032 0.22461,-0.0059 0.26626,-0.01816 0.50244,-0.112195 0.67188,-0.269532 0.20575,-0.196672 0.3418,-0.49544 0.3418,-0.916015 C 326.85938,87.356802 326.61811,87 326.1582,87 Z m 35.93946,0 c -0.23298,0 -0.45446,0.07474 -0.56641,0.150391 l 0.084,0.269531 c 0.0817,-0.05446 0.24199,-0.123047 0.40235,-0.123047 0.21785,0 0.31445,0.11189 0.31445,0.248047 0,0.193646 -0.21728,0.271484 -0.38672,0.271484 h -0.16992 v 0.273438 h 0.16992 c 0.22692,0 0.44727,0.09905 0.44727,0.332031 0,0.154311 -0.11207,0.314453 -0.39649,0.314453 -0.18759,0 -0.37162,-0.07571 -0.44726,-0.121094 l -0.084,0.28125 c 0.1059,0.06959 0.31176,0.136719 0.55078,0.136719 0.48715,0 0.76563,-0.262874 0.76563,-0.595703 -0.003,-0.266263 -0.19456,-0.444848 -0.43359,-0.490234 v -0.0059 c 0.24205,-0.08472 0.36328,-0.255188 0.36328,-0.460937 C 362.71094,87.223283 362.50613,87 362.09766,87 Z m -35.95899,0.275391 c 0.24206,0 0.3418,0.225924 0.3418,0.492187 0,0.05144 -0.009,0.08215 -0.0215,0.109375 -0.0575,0.09077 -0.16512,0.164063 -0.3164,0.164063 -0.20575,0 -0.32422,-0.156652 -0.32422,-0.359375 0,-0.239032 0.13272,-0.40625 0.32031,-0.40625 z m 18.5293,17.730469 c -0.0454,-0.003 -0.10581,-0.002 -0.1875,0.01 -0.28139,0.0212 -0.52071,0.1166 -0.69922,0.28907 -0.20575,0.19364 -0.3418,0.50069 -0.3418,0.8789 0,0.48714 0.26413,0.84961 0.74219,0.84961 0.41755,0 0.69336,-0.32598 0.69336,-0.70117 0,-0.39939 -0.26464,-0.64258 -0.60352,-0.64258 -0.19667,0 -0.34458,0.0795 -0.4414,0.19141 h -0.008 c 0.0484,-0.27232 0.24367,-0.52385 0.6582,-0.57227 0.0726,-0.009 0.13304,-0.0128 0.1875,-0.01 z m -0.51367,0.95703 c 0.21785,0 0.34179,0.15872 0.34179,0.38867 0,0.23601 -0.12383,0.4043 -0.31445,0.4043 -0.24508,0 -0.367,-0.21245 -0.37305,-0.47266 0,-0.0514 0.0102,-0.0889 0.0254,-0.11914 0.0575,-0.118 0.18114,-0.20117 0.32032,-0.20117 z"
           transform="translate(0,-20)"
           id="path4702"
           inkscape:connector-curvature="0" />
        <path
           style="fill:none;fill-rule:evenodd;stroke:#000000;stroke-width:1.66666675px;stroke-linecap:round;stroke-linejoin:miter;stroke-opacity:1"
           d="M 344,68 356,56"
           id="path4704"
           inkscape:connector-curvature="0" />
        <path
           style="fill:none;fill-rule:evenodd;stroke:#000000;stroke-width:1.66666667;stroke-linecap:round;stroke-linejoin:miter;stroke-miterlimit:4;stroke-dasharray:none;stroke-opacity:1"
           d="m 336,60 8,8"
           id="path4706"
           inkscape:connector-curvature="0"
           sodipodi:nodetypes="cc" />
        <path
           style="fill:none;fill-rule:evenodd;stroke:#e40004;stroke-width:0.83333331;stroke-linecap:butt;stroke-linejoin:miter;stroke-miterlimit:4;stroke-dasharray:none;stroke-opacity:1"
           d="M 344.41667,62 V 87"
           id="path4708"
           inkscape:connector-curvature="0"
           sodipodi:nodetypes="cc" />
        <circle
           style="opacity:1;fill:#e40004;fill-opacity:1;stroke:none;stroke-width:3.74999976;stroke-linecap:round;stroke-linejoin:miter;stroke-miterlimit:4;stroke-dasharray:none;stroke-dashoffset:0;stroke-opacity:1"
           id="circle4710"
           cx="344.5"
           cy="67.5"
           r="1.5" />
        <path
           style="opacity:0.2;fill:#000000;fill-opacity:1;stroke:none;stroke-width:2.5;stroke-linecap:round;stroke-linejoin:miter;stroke-miterlimit:4;stroke-dasharray:none;stroke-dashoffset:0;stroke-opacity:1"
           d="m 352.76172,72.84375 a 0.5,0.5 0 0 0 -0.44531,0.25 A 0.5,0.5 0 0 0 352.5,73.777344 0.5,0.5 0 0 0 353.18359,73.59375 0.5,0.5 0 0 0 353,72.912109 0.5,0.5 0 0 0 352.76172,72.84375 Z m -17.53906,0.002 A 0.5,0.5 0 0 0 335,72.912109 0.5,0.5 0 0 0 334.81641,73.59375 0.5,0.5 0 0 0 335.5,73.777344 0.5,0.5 0 0 0 335.68359,73.09375 0.5,0.5 0 0 0 335.22266,72.845703 Z M 328.85547,79.25 a 0.5,0.5 0 0 0 -0.44336,0.25 0.5,0.5 0 0 0 0.18164,0.683594 A 0.5,0.5 0 0 0 329.27734,80 0.5,0.5 0 0 0 329.09375,79.316406 0.5,0.5 0 0 0 328.85547,79.25 Z m 30.27344,0 A 0.5,0.5 0 0 0 358.90625,79.31641 0.5,0.5 0 0 0 358.72266,80 0.5,0.5 0 0 0 359.40625,80.183594 0.5,0.5 0 0 0 359.58789,79.5 0.5,0.5 0 0 0 359.12891,79.25 Z m -30.31055,17.5 a 0.5,0.5 0 0 0 -0.22461,0.06641 0.5,0.5 0 0 0 -0.18164,0.68359 0.5,0.5 0 0 0 0.68164,0.183594 A 0.5,0.5 0 0 0 329.27734,97 0.5,0.5 0 0 0 328.81836,96.75 Z m 30.34961,0 A 0.5,0.5 0 0 0 358.72266,97 0.5,0.5 0 0 0 358.90625,97.683594 0.5,0.5 0 0 0 359.58789,97.5 0.5,0.5 0 0 0 359.40625,96.816406 0.5,0.5 0 0 0 359.16797,96.75 Z m -23.95703,6.40625 a 0.5,0.5 0 0 0 -0.39453,0.25 0.5,0.5 0 0 0 0.18359,0.68164 0.5,0.5 0 0 0 0.68359,-0.18164 0.5,0.5 0 0 0 -0.18359,-0.68359 0.5,0.5 0 0 0 -0.28906,-0.0664 z m 17.51172,0 a 0.5,0.5 0 0 0 -0.22266,0.0664 0.5,0.5 0 0 0 -0.18359,0.68359 0.5,0.5 0 0 0 0.68359,0.18164 0.5,0.5 0 0 0 0.18359,-0.68164 0.5,0.5 0 0 0 -0.46093,-0.25 z"
           transform="translate(0,-20)"
           id="path4712"
           inkscape:connector-curvature="0" />
      </g>
      <circle
         style="display:inline;opacity:1;fill:#9da6b3;fill-opacity:1;stroke:none;stroke-width:4.72727299;stroke-linecap:round;stroke-linejoin:miter;stroke-miterlimit:4;stroke-dasharray:none;stroke-dashoffset:0;stroke-opacity:1;enable-background:new"
         id="circle4806"
         cx="-141.00005"
         cy="-160"
         r="104"
         transform="matrix(0,-1,-1,0,0,0)" />
      <circle
         transform="matrix(0,-1,-1,0,0,0)"
         r="104"
         cy="-160"
         cx="-140.00005"
         id="circle4736"
         style="display:inline;opacity:1;fill:url(#linearGradient4752);fill-opacity:1;stroke:none;stroke-width:4.72727299;stroke-linecap:round;stroke-linejoin:miter;stroke-miterlimit:4;stroke-dasharray:none;stroke-dashoffset:0;stroke-opacity:1;enable-background:new" />
      <path
         inkscape:connector-curvature="0"
         id="path4738"
         d="m 164.8963,44.60005 c -1.31498,0 -2.44494,0.467195 -3.19866,1.076562 l 0.56933,1.397462 c 0.52947,-0.400892 1.30587,-0.869534 2.23596,-0.869534 1.36311,0 1.85294,0.819311 1.85294,1.749414 -0.0159,1.379123 -1.16956,2.629489 -3.62308,4.906644 l -1.23183,1.138673 v 1.200779 h 7.05976 v -1.635548 h -4.27519 v -0.03127 l 0.90063,-0.786722 c 1.82818,-1.68381 3.14687,-3.161317 3.14687,-4.989451 0,-1.699636 -1.12747,-3.157009 -3.43673,-3.157009 z m -8.6125,0.17596 -2.54649,1.252538 0.33125,1.490625 1.91505,-0.962692 h 0.0318 v 8.643569 h 1.90466 V 44.776026 Z m -90.84534,89.92404 c -2.213015,0 -3.757594,1.71167 -3.757594,3.71621 0,1.92436 1.34514,3.22969 3.15721,3.22969 0.99428,0 1.748152,-0.34397 2.277357,-0.92129 h 0.0318 c -0.19239,0.99425 -0.656193,1.78387 -1.345723,2.3291 -0.577329,0.46508 -1.325954,0.74328 -2.111732,0.80742 -0.46481,0.0482 -0.776503,0.0629 -1.097259,0.0313 v 1.56309 c 0.30475,0.0159 0.741417,0.017 1.190433,-0.0313 1.411178,-0.0962 2.662932,-0.59463 3.560964,-1.42852 1.090475,-1.04236 1.81154,-2.62583 1.81154,-4.85488 -7.42e-4,-2.54977 -1.279473,-4.44082 -3.716996,-4.44082 z m 190.47914,0 c -1.2348,0 -2.40864,0.39612 -3.00198,0.79707 l 0.4452,1.42852 c 0.43301,-0.28864 1.28255,-0.65215 2.13246,-0.65215 1.1546,0 1.66659,0.59301 1.66659,1.31465 0,1.02632 -1.15159,1.43886 -2.04962,1.43886 h -0.90058 v 1.44922 h 0.90058 c 1.20267,0 2.37053,0.52497 2.37053,1.75977 0,0.81785 -0.59397,1.6666 -2.1014,1.6666 -0.99422,0 -1.96958,-0.40126 -2.37048,-0.6418 l -0.44519,1.49063 c 0.56126,0.36882 1.65232,0.72461 2.91913,0.72461 2.58189,0 4.05784,-1.39324 4.05784,-3.15723 -0.0159,-1.41119 -1.03117,-2.35769 -2.29803,-2.59824 v -0.0313 c 1.28287,-0.44902 1.92538,-1.3525 1.92538,-2.44297 -5e-5,-1.36287 -1.08554,-2.54627 -3.25043,-2.54627 z m -190.582649,1.45957 c 1.282918,0 1.81154,1.1974 1.81154,2.60859 0,0.27264 -0.0477,0.4354 -0.11395,0.57969 -0.30475,0.48108 -0.875136,0.86953 -1.67692,0.86953 -1.090475,0 -1.718366,-0.83025 -1.718366,-1.90468 0,-1.26687 0.703416,-2.15313 1.697643,-2.15313 z m 98.205289,93.97149 c -0.24062,-0.0159 -0.56079,-0.0106 -0.99375,0.053 -1.49137,0.11236 -2.75976,0.61798 -3.70587,1.53207 -1.09047,1.02629 -1.81153,2.65366 -1.81153,4.65817 0,2.58184 1.39988,4.50293 3.9336,4.50293 2.21302,0 3.67481,-1.72769 3.67481,-3.7162 0,-2.11677 -1.40259,-3.40567 -3.19866,-3.40567 -1.04235,0 -1.82627,0.42135 -2.33942,1.01447 h -0.0424 c 0.25652,-1.4433 1.29145,-2.77641 3.48846,-3.03303 0.38478,-0.0477 0.70512,-0.0678 0.99375,-0.053 z m -2.72245,5.07226 c 1.1546,0 1.81149,0.84121 1.81149,2.05995 0,1.25085 -0.6563,2.14279 -1.66659,2.14279 -1.29892,0 -1.9451,-1.12599 -1.97716,-2.5051 0,-0.27242 0.0541,-0.47117 0.13462,-0.63144 0.30475,-0.6254 0.96004,-1.0662 1.69769,-1.0662 z"
         style="font-style:normal;font-variant:normal;font-weight:600;font-stretch:normal;font-size:medium;line-height:1.89107418px;font-family:'Myriad Pro';-inkscape-font-specification:'Myriad Pro Semi-Bold';text-align:center;letter-spacing:0px;word-spacing:0px;text-anchor:middle;opacity:0.4;fill:#000000;fill-opacity:1;stroke:none;stroke-width:0.40090775px;stroke-linecap:butt;stroke-linejoin:miter;stroke-opacity:1" />
      <path
         inkscape:connector-curvature="0"
         id="path4740"
         d="m 161,140.00005 63.6,-63.6"
         style="fill:none;fill-rule:evenodd;stroke:#000000;stroke-width:2;stroke-linecap:butt;stroke-linejoin:miter;stroke-miterlimit:4;stroke-dasharray:none;stroke-opacity:1" />
      <path
         sodipodi:nodetypes="cc"
         inkscape:connector-curvature="0"
         id="path4742"
         d="M 118.6,97.60005 161,140"
         style="fill:none;fill-rule:evenodd;stroke:#000000;stroke-width:3;stroke-linecap:butt;stroke-linejoin:miter;stroke-miterlimit:4;stroke-dasharray:none;stroke-opacity:1" />
      <path
         sodipodi:nodetypes="cc"
         inkscape:connector-curvature="0"
         id="path4744"
         d="m 161,108.20005 v 132.5"
         style="fill:none;fill-rule:evenodd;stroke:#e40004;stroke-width:2;stroke-linecap:butt;stroke-linejoin:miter;stroke-miterlimit:4;stroke-dasharray:none;stroke-opacity:1" />
      <circle
         r="4"
         cy="140"
         cx="161"
         id="circle4746"
         style="opacity:1;fill:#e40004;fill-opacity:1;stroke:none;stroke-width:6.00000048;stroke-linecap:round;stroke-linejoin:miter;stroke-miterlimit:4;stroke-dasharray:none;stroke-dashoffset:0;stroke-opacity:1" />
      <path
         inkscape:connector-curvature="0"
         id="path4748"
         d="m 206.43712,59.671925 a 2.65,2.65 0 0 0 -2.36015,1.325 2.65,2.65 0 0 0 0.97303,3.623048 2.65,2.65 0 0 0 3.62303,-0.973048 2.65,2.65 0 0 0 -0.97303,-3.612697 2.65,2.65 0 0 0 -1.26288,-0.362303 z m -92.95702,0.0106 a 2.65,2.65 0 0 0 -1.1801,0.351703 2.65,2.65 0 0 0 -0.97303,3.612697 2.65,2.65 0 0 0 3.62303,0.973048 2.65,2.65 0 0 0 0.97303,-3.623048 2.65,2.65 0 0 0 -2.44293,-1.314649 z M 79.733991,93.62505 a 2.65,2.65 0 0 0 -2.349808,1.325 2.65,2.65 0 0 0 0.962692,3.623048 2.65,2.65 0 0 0 3.623027,-0.973048 2.65,2.65 0 0 0 -0.973027,-3.623048 2.65,2.65 0 0 0 -1.262884,-0.351952 z m 160.449229,0 a 2.65,2.65 0 0 0 -1.1801,0.351973 2.65,2.65 0 0 0 -0.97302,3.623027 2.65,2.65 0 0 0 3.62302,0.973048 2.65,2.65 0 0 0 0.9627,-3.623048 2.65,2.65 0 0 0 -2.4326,-1.325 z m -160.645912,92.75 a 2.65,2.65 0 0 0 -1.190433,0.35197 2.65,2.65 0 0 0 -0.962692,3.62303 2.65,2.65 0 0 0 3.612692,0.97305 2.65,2.65 0 0 0 0.973027,-3.62305 2.65,2.65 0 0 0 -2.432594,-1.325 z m 160.852932,0 a 2.65,2.65 0 0 0 -2.36014,1.325 2.65,2.65 0 0 0 0.97302,3.62305 2.65,2.65 0 0 0 3.6127,-0.97305 2.65,2.65 0 0 0 -0.9627,-3.62305 2.65,2.65 0 0 0 -1.26288,-0.35195 z m -126.97226,33.95312 a 2.65,2.65 0 0 0 -2.09101,1.32501 2.65,2.65 0 0 0 0.97303,3.61269 2.65,2.65 0 0 0 3.62303,-0.9627 2.65,2.65 0 0 0 -0.97303,-3.62302 2.65,2.65 0 0 0 -1.53202,-0.35192 z m 92.81212,0 a 2.65,2.65 0 0 0 -1.1801,0.35193 2.65,2.65 0 0 0 -0.97303,3.62302 2.65,2.65 0 0 0 3.62303,0.96269 2.65,2.65 0 0 0 0.97303,-3.61269 2.65,2.65 0 0 0 -2.44293,-1.325 z"
         style="opacity:0.2;fill:#000000;fill-opacity:1;stroke:none;stroke-width:7.94999981;stroke-linecap:round;stroke-linejoin:miter;stroke-miterlimit:4;stroke-dasharray:none;stroke-dashoffset:0;stroke-opacity:1" />
    </g>
  </g>
</svg>
