<?xml version="1.0" encoding="UTF-8" standalone="no"?>
<!-- Created with Inkscape (http://www.inkscape.org/) -->

<svg
   xmlns:dc="http://purl.org/dc/elements/1.1/"
   xmlns:cc="http://creativecommons.org/ns#"
   xmlns:rdf="http://www.w3.org/1999/02/22-rdf-syntax-ns#"
   xmlns:svg="http://www.w3.org/2000/svg"
   xmlns="http://www.w3.org/2000/svg"
   xmlns:xlink="http://www.w3.org/1999/xlink"
   xmlns:sodipodi="http://sodipodi.sourceforge.net/DTD/sodipodi-0.dtd"
   xmlns:inkscape="http://www.inkscape.org/namespaces/inkscape"
   inkscape:export-ydpi="96"
   inkscape:export-xdpi="96"
   inkscape:export-filename="Template.png"
   width="400"
   height="320"
   id="svg11300"
   sodipodi:version="0.32"
   inkscape:version="0.92.0 r"
   sodipodi:docname="preferences-system.svg"
   inkscape:output_extension="org.inkscape.output.svg.inkscape"
   version="1.0"
   style="display:inline;enable-background:new"
   viewBox="0 0 400 320">
  <title
     id="title4162">Solus Icon Template</title>
  <defs
     id="defs3">
    <clipPath
       clipPathUnits="userSpaceOnUse"
       id="clipPath4673">
      <path
         style="display:inline;opacity:1;fill:#d20082;fill-opacity:1;stroke:none;stroke-width:0.99999994;stroke-linecap:round;stroke-linejoin:miter;stroke-miterlimit:4;stroke-dasharray:none;stroke-dashoffset:0;stroke-opacity:1;enable-background:new"
         d="m 130.99996,24.000015 -1.07416,3.081804 -8.52389,24.455859 c -3.32498,1.40592 -6.59471,2.986895 -9.7421,4.757793 -3.12431,1.804222 -6.13809,3.769051 -9.04199,5.911255 l -28.587995,-5.31396 -29.000001,50.235064 19.010608,22.07955 c -0.809891,7.1611 -0.816218,14.40161 -0.02109,21.56461 l -18.969481,22.10022 29.000002,50.23506 28.629217,-5.37575 c 5.80665,4.26964 12.07392,7.89527 18.68117,10.77207 l 9.63971,27.49644 h 58 l 9.61862,-27.53767 c 3.32498,-1.40592 6.57403,-2.98689 9.72153,-4.75779 3.1242,-1.80422 6.13809,-3.76905 9.04199,-5.91126 l 28.58799,5.33453 29.00001,-50.23507 -19.01061,-22.10011 c 0.80989,-7.1611 0.81622,-14.40161 0.0211,-21.56461 l 18.96948,-22.10022 -29,-50.235064 -28.62922,5.375756 C 211.5142,57.998878 205.24704,54.373245 198.63968,51.496445 l -9.63971,-27.49643 z m 29,63.272735 c 29.12043,0 52.72727,23.60684 52.72727,52.72727 0,29.12043 -23.60684,52.72727 -52.72727,52.72727 -29.12043,0 -52.72728,-23.60684 -52.72728,-52.72727 0,-29.12043 23.60685,-52.72727 52.72728,-52.72727 z"
         id="path4675"
         inkscape:connector-curvature="0"
         sodipodi:nodetypes="ccccccccccccccccccccccccccccsssss" />
    </clipPath>
    <clipPath
       clipPathUnits="userSpaceOnUse"
       id="clipPath4656">
      <path
         sodipodi:nodetypes="cccccccccccccccccccccccccccc"
         inkscape:connector-curvature="0"
         id="path4658"
         d="m 130,20.000042 -1.1112,3.188073 -8.81781,25.299163 c -3.43964,1.4544 -6.82212,3.089891 -10.07804,4.921855 -3.23204,1.866436 -6.34975,3.899018 -9.35378,6.115091 L 71.065379,54.027025 41.06538,105.99432 60.731526,128.83524 c -0.837819,7.40802 -0.844364,14.89821 -0.02182,22.30821 l -19.623599,22.8623 30.000001,51.9673 29.616432,-5.56113 c 6.00689,4.41687 12.49026,8.16753 19.32535,11.14353 L 130,260.00004 h 60 l 9.9503,-28.48725 c 3.43963,-1.4544 6.80072,-3.08988 10.05675,-4.92184 3.23193,-1.86644 6.34975,-3.89903 9.35379,-6.1151 l 29.57378,5.51847 30.00001,-51.9673 -19.66615,-22.86218 c 0.83782,-7.40805 0.84437,-14.89822 0.0218,-22.30822 l 19.62365,-22.8623 -29.99998,-51.967295 -29.61645,5.561126 c -6.00688,-4.416873 -12.49015,-8.167527 -19.32534,-11.143527 l -9.97212,-28.444582 z"
         style="display:inline;opacity:1;fill:#9b9fa6;fill-opacity:1;stroke:none;stroke-width:8;stroke-linecap:round;stroke-linejoin:miter;stroke-miterlimit:4;stroke-dasharray:none;stroke-dashoffset:0;stroke-opacity:1;enable-background:new" />
    </clipPath>
    <linearGradient
       inkscape:collect="always"
       xlink:href="#linearGradient4641"
       id="linearGradient4618"
       x1="321.01172"
       y1="227.38927"
       x2="334.9881"
       y2="227.38927"
       gradientUnits="userSpaceOnUse"
       gradientTransform="rotate(90,327.9999,227.38927)" />
    <linearGradient
       inkscape:collect="always"
       xlink:href="#linearGradient4641"
       id="linearGradient4620"
       x1="322.02341"
       y1="131.77853"
       x2="349.9762"
       y2="131.77853"
       gradientUnits="userSpaceOnUse"
       gradientTransform="rotate(90,335.9998,131.77854)" />
    <linearGradient
       inkscape:collect="always"
       xlink:href="#linearGradient4641"
       id="linearGradient4622"
       x1="48.187321"
       y1="138.22829"
       x2="271.80948"
       y2="138.22829"
       gradientUnits="userSpaceOnUse"
       gradientTransform="rotate(90,159.9984,138.22828)" />
    <linearGradient
       inkscape:collect="always"
       xlink:href="#linearGradient4641"
       id="linearGradient4624"
       x1="323.03528"
       y1="67.683472"
       x2="364.96442"
       y2="67.683472"
       gradientUnits="userSpaceOnUse"
       gradientTransform="rotate(90,343.99984,67.683478)" />
    <linearGradient
       inkscape:collect="always"
       xlink:href="#linearGradient4641"
       id="linearGradient4626"
       x1="322.01764"
       y1="184.34222"
       x2="342.98218"
       y2="184.34222"
       gradientUnits="userSpaceOnUse"
       gradientTransform="rotate(90,332.49992,184.34223)" />
    <linearGradient
       inkscape:collect="always"
       id="linearGradient4641">
      <stop
         id="stop4639"
         offset="0"
         style="stop-color:#d7dadf;stop-opacity:1" />
      <stop
         id="stop4637"
         offset="1"
         style="stop-color:#9da6b3;stop-opacity:1" />
    </linearGradient>
    <filter
       inkscape:collect="always"
       style="color-interpolation-filters:sRGB"
       id="filter4686"
       x="-0.011915091"
       width="1.0238302"
       y="-0.012086128"
       height="1.0241723">
      <feGaussianBlur
         inkscape:collect="always"
         stdDeviation="1.1101993"
         id="feGaussianBlur4688" />
    </filter>
    <filter
       inkscape:collect="always"
       style="color-interpolation-filters:sRGB"
       id="filter4721"
       x="-0.01191509"
       width="1.0238302"
       y="-0.012086128"
       height="1.0241723">
      <feGaussianBlur
         inkscape:collect="always"
         stdDeviation="1.1101993"
         id="feGaussianBlur4723" />
    </filter>
  </defs>
  <sodipodi:namedview
     stroke="#ef2929"
     fill="#f57900"
     id="base"
     pagecolor="#ffffff"
     bordercolor="#666666"
     borderopacity="0.25490196"
     inkscape:pageopacity="0"
     inkscape:pageshadow="2"
     inkscape:zoom="1"
     inkscape:cx="150.33994"
     inkscape:cy="95.833729"
     inkscape:current-layer="svg11300"
     showgrid="false"
     inkscape:grid-bbox="true"
     inkscape:document-units="px"
     inkscape:showpageshadow="false"
     inkscape:window-width="1920"
     inkscape:window-height="1016"
     inkscape:window-x="0"
     inkscape:window-y="27"
     width="400px"
     height="300px"
     inkscape:snap-nodes="true"
     inkscape:snap-bbox="true"
     objecttolerance="7"
     gridtolerance="12"
     guidetolerance="13"
     inkscape:window-maximized="1"
     inkscape:pagecheckerboard="false"
     showguides="false"
     inkscape:guide-bbox="true"
     inkscape:locked="false"
     inkscape:measure-start="0,0"
     inkscape:measure-end="0,0"
     inkscape:object-nodes="true"
     inkscape:bbox-nodes="true">
    <inkscape:grid
       type="xygrid"
       id="grid5883"
       spacingx="1px"
       spacingy="1px"
       enabled="true"
       visible="true"
       empspacing="4" />
  </sodipodi:namedview>
  <metadata
     id="metadata4">
    <rdf:RDF>
      <cc:Work
         rdf:about="">
        <dc:format>image/svg+xml</dc:format>
        <dc:type
           rdf:resource="http://purl.org/dc/dcmitype/StillImage" />
        <dc:creator>
          <cc:Agent>
            <dc:title>Sam Hewitt</dc:title>
          </cc:Agent>
        </dc:creator>
        <dc:source />
        <cc:license
           rdf:resource="http://creativecommons.org/licenses/by-nc-sa/4.0/" />
        <dc:title>Solus Icon Template</dc:title>
        <dc:subject>
          <rdf:Bag />
        </dc:subject>
        <dc:date />
        <dc:rights>
          <cc:Agent>
            <dc:title />
          </cc:Agent>
        </dc:rights>
        <dc:publisher>
          <cc:Agent>
            <dc:title />
          </cc:Agent>
        </dc:publisher>
        <dc:identifier />
        <dc:relation />
        <dc:language />
        <dc:coverage />
        <dc:description />
        <dc:contributor>
          <cc:Agent>
            <dc:title />
          </cc:Agent>
        </dc:contributor>
      </cc:Work>
      <cc:License
         rdf:about="http://creativecommons.org/licenses/by-nc-sa/4.0/">
        <cc:permits
           rdf:resource="http://creativecommons.org/ns#Reproduction" />
        <cc:permits
           rdf:resource="http://creativecommons.org/ns#Distribution" />
        <cc:requires
           rdf:resource="http://creativecommons.org/ns#Notice" />
        <cc:requires
           rdf:resource="http://creativecommons.org/ns#Attribution" />
        <cc:prohibits
           rdf:resource="http://creativecommons.org/ns#CommercialUse" />
        <cc:permits
           rdf:resource="http://creativecommons.org/ns#DerivativeWorks" />
        <cc:requires
           rdf:resource="http://creativecommons.org/ns#ShareAlike" />
      </cc:License>
    </rdf:RDF>
  </metadata>
  <g
     inkscape:groupmode="layer"
     id="layer2"
     inkscape:label="dark"
     style="display:none">
    <rect
       transform="translate(0,20)"
       style="display:inline;opacity:1;fill:#4f555d;fill-opacity:1;stroke:none;stroke-width:1;stroke-linecap:round;stroke-linejoin:miter;stroke-miterlimit:4;stroke-dasharray:none;stroke-dashoffset:0;stroke-opacity:1;enable-background:new"
       id="rect4607"
       width="400"
       height="320"
       x="0"
       y="-20" />
  </g>
  <g
     id="layer1"
     inkscape:label="preferences-system"
     inkscape:groupmode="layer"
     style="display:inline"
     transform="translate(0,20)">
    <g
       inkscape:groupmode="layer"
       id="layer7"
       inkscape:label="baseplate"
       style="display:none">
      <rect
         style="display:inline;overflow:visible;visibility:visible;fill:#eeeeec;fill-opacity:1;fill-rule:nonzero;stroke:none;stroke-width:2;marker:none;enable-background:accumulate"
         id="rect6592"
         width="32"
         height="32"
         x="320"
         y="116"
         inkscape:label="32x32" />
      <rect
         inkscape:label="22x22"
         y="173.05884"
         x="321"
         height="22"
         width="22"
         id="rect6749"
         style="display:inline;overflow:visible;visibility:visible;fill:#eeeeec;fill-opacity:1;fill-rule:nonzero;stroke:none;stroke-width:2;marker:none;enable-background:accumulate" />
      <rect
         style="display:inline;overflow:visible;visibility:visible;fill:#eeeeec;fill-opacity:1;fill-rule:nonzero;stroke:none;stroke-width:2;marker:none;enable-background:accumulate"
         id="rect6833"
         width="16"
         height="16"
         x="320"
         y="220"
         inkscape:label="16x16" />
      <rect
         style="display:inline;overflow:visible;visibility:visible;fill:#eeeeec;fill-opacity:1;fill-rule:nonzero;stroke:none;stroke-width:2;marker:none;enable-background:accumulate"
         id="rect8104"
         width="24"
         height="24"
         x="320"
         y="172"
         inkscape:label="24x24" />
      <text
         xml:space="preserve"
         style="font-style:normal;font-variant:normal;font-weight:normal;font-stretch:normal;font-size:13.33333302px;line-height:125%;font-family:monospace;-inkscape-font-specification:monospace;text-align:start;writing-mode:lr-tb;text-anchor:start;display:inline;fill:#000000;fill-opacity:1;stroke:none;enable-background:new"
         x="31.855944"
         y="-65.699577"
         id="context"
         inkscape:label="context"><tspan
           sodipodi:role="line"
           id="tspan2716"
           x="31.855944"
           y="-65.699577"
           style="font-weight:bold">categories</tspan></text>
      <text
         inkscape:label="icon-name"
         id="text3021"
         y="-39.900627"
         x="31.264769"
         style="font-style:normal;font-variant:normal;font-weight:normal;font-stretch:normal;font-size:13.33333302px;line-height:16.66666603px;font-family:monospace;-inkscape-font-specification:monospace;text-align:start;writing-mode:lr-tb;text-anchor:start;display:inline;fill:#000000;fill-opacity:1;stroke:none;enable-background:new"
         xml:space="preserve"><tspan
           y="-39.900627"
           x="31.264769"
           id="tspan3023"
           sodipodi:role="line">preferences-system</tspan></text>
      <rect
         style="display:inline;overflow:visible;visibility:visible;fill:#eeeeec;fill-opacity:1;fill-rule:nonzero;stroke:none;stroke-width:1.99999976;marker:none;enable-background:accumulate"
         id="rect13805"
         width="256"
         height="256"
         x="32.000004"
         y="12.000042"
         inkscape:label="512x512" />
      <rect
         inkscape:label="48x48"
         y="320"
         x="44"
         height="48"
         width="48"
         id="rect6284"
         style="display:inline;overflow:visible;visibility:visible;fill:#eeeeec;fill-opacity:1;fill-rule:nonzero;stroke:none;stroke-width:2;marker:none;enable-background:accumulate"
         transform="matrix(0,1,1,0,0,0)" />
    </g>
    <g
       inkscape:groupmode="layer"
       id="layer9"
       inkscape:label="icons"
       style="display:inline">
      <path
         inkscape:connector-curvature="0"
         style="color:#000000;font-style:normal;font-variant:normal;font-weight:normal;font-stretch:normal;font-size:medium;line-height:normal;font-family:sans-serif;font-variant-ligatures:normal;font-variant-position:normal;font-variant-caps:normal;font-variant-numeric:normal;font-variant-alternates:normal;font-feature-settings:normal;text-indent:0;text-align:start;text-decoration:none;text-decoration-line:none;text-decoration-style:solid;text-decoration-color:#000000;letter-spacing:normal;word-spacing:normal;text-transform:none;writing-mode:lr-tb;direction:ltr;text-orientation:mixed;dominant-baseline:auto;baseline-shift:baseline;text-anchor:start;white-space:normal;shape-padding:0;clip-rule:nonzero;display:inline;overflow:visible;visibility:visible;opacity:0.4;isolation:auto;mix-blend-mode:normal;color-interpolation:sRGB;color-interpolation-filters:linearRGB;solid-color:#000000;solid-opacity:1;vector-effect:none;fill:#000000;fill-opacity:1;fill-rule:nonzero;stroke:none;stroke-width:1;stroke-linecap:round;stroke-linejoin:round;stroke-miterlimit:4;stroke-dasharray:none;stroke-dashoffset:0;stroke-opacity:1;color-rendering:auto;image-rendering:auto;shape-rendering:auto;text-rendering:auto;enable-background:accumulate;filter:url(#filter4686)"
         d="m 152,29.9995 c -4.432,0 -8,3.568 -8,8 v 17.5312 c -9.7472,1.81008 -18.92928,5.24288 -27.28128,10 L 105.40624,52.06206 c -2.8488,-3.3952 -7.88608,-3.84896 -11.28128,-1 L 81.87504,61.34318 c -3.3952,2.84896 -3.8176,7.88624 -0.9696,11.28128 l 11.28128,13.4376 c 0,0 -0.032,0.032 -0.032,0.032 -6.15328,7.44832 -11.01072,15.96816 -14.4688,25.15616 l -17.34384,-3.0624 c -4.36464,-0.7696 -8.48032,2.13536 -9.24992,6.5 l -2.78128,15.74992 c -0.7696,4.3648 2.13536,8.48048 6.5,9.25008 l 17.21888,3.0312 c 0.08,10.04096 1.9136,19.66656 5.12512,28.65632 L 61.936,180.15662 c -3.8384,2.216 -5.1536,7.068 -2.9376,10.90624 l 8,13.87488 c 2.216,3.83824 7.0992,5.12224 10.9376,2.90624 l 15.24992,-8.81248 c 6.32224,7.39088 13.84112,13.67536 22.25008,18.65632 l -6.03136,16.5624 c -1.5152,4.1648 0.616,8.73424 4.78128,10.25008 l 15.0312,5.4688 c 4.1648,1.5152 8.73424,-0.616 10.25008,-4.78128 l 6,-16.5 c 4.7384,0.7968 9.57472,1.312 14.5312,1.312 4.95648,0 9.7928,-0.5152 14.5312,-1.312 l 6,16.5 c 1.5152,4.16464 6.08528,6.29712 10.25008,4.78128 l 15.0312,-5.4688 c 4.1648,-1.5152 6.29712,-6.08528 4.78128,-10.25008 l -6.0312,-16.5624 c 8.40304,-4.97968 15.93136,-11.26976 22.24992,-18.65632 l 15.25008,8.81248 c 3.83824,2.216 8.72144,0.9328 10.93744,-2.90624 l 8,-13.87488 c 2.216,-3.83824 0.9008,-8.69024 -2.93744,-10.90624 l -15.21888,-8.78128 c 3.21152,-8.98976 5.04288,-18.61536 5.12512,-28.65632 l 17.21872,-3.0312 c 4.36464,-0.7696 7.2696,-4.88528 6.5,-9.25008 l -2.78128,-15.74992 c -0.7696,-4.36464 -4.91664,-7.2696 -9.28128,-6.5 l -17.31248,3.0624 c -3.45808,-9.188 -8.34672,-17.73904 -14.5,-25.18736 l 11.28128,-13.4376 c 2.8488,-3.39504 2.4264,-8.43232 -0.9696,-11.28128 L 225.87264,51.06286 c -3.3952,-2.84896 -8.43248,-2.4264 -11.28128,0.968 l -11.31248,13.5 c -8.35696,-4.76256 -17.52688,-8.18848 -27.28128,-10 V 37.9995 c 0,-4.432 -3.568,-8 -8,-8 z m 8,56 c 31.11744,0 56,24.88256 56,56 0,31.11744 -24.88256,56 -56,56 -31.11744,0 -56,-24.88256 -56,-56 0,-31.11744 24.88256,-56 56,-56 z"
         id="path4682" />
      <path
         inkscape:connector-curvature="0"
         style="color:#000000;font-style:normal;font-variant:normal;font-weight:normal;font-stretch:normal;font-size:medium;line-height:normal;font-family:sans-serif;font-variant-ligatures:normal;font-variant-position:normal;font-variant-caps:normal;font-variant-numeric:normal;font-variant-alternates:normal;font-feature-settings:normal;text-indent:0;text-align:start;text-decoration:none;text-decoration-line:none;text-decoration-style:solid;text-decoration-color:#000000;letter-spacing:normal;word-spacing:normal;text-transform:none;writing-mode:lr-tb;direction:ltr;text-orientation:mixed;dominant-baseline:auto;baseline-shift:baseline;text-anchor:start;white-space:normal;shape-padding:0;clip-rule:nonzero;display:inline;overflow:visible;visibility:visible;opacity:0.4;isolation:auto;mix-blend-mode:normal;color-interpolation:sRGB;color-interpolation-filters:linearRGB;solid-color:#000000;solid-opacity:1;vector-effect:none;fill:#232a34;fill-opacity:1;fill-rule:nonzero;stroke:#0d0f10;stroke-width:2;stroke-linecap:round;stroke-linejoin:round;stroke-miterlimit:4;stroke-dasharray:none;stroke-dashoffset:0;stroke-opacity:1;filter:url(#filter4721);color-rendering:auto;image-rendering:auto;shape-rendering:auto;text-rendering:auto;enable-background:accumulate"
         d="m 152,27.999955 c -4.432,0 -8,3.568 -8,8 v 17.5312 c -9.7472,1.81008 -18.92928,5.24288 -27.28128,10 l -11.31248,-13.46864 c -2.8488,-3.3952 -7.88608,-3.84896 -11.28128,-1 l -12.24992,10.28112 c -3.3952,2.84896 -3.8176,7.88624 -0.9696,11.28128 l 11.28128,13.4376 c 0,0 -0.032,0.032 -0.032,0.032 -6.15328,7.44832 -11.01072,15.968165 -14.4688,25.156155 l -17.34384,-3.0624 c -4.36464,-0.7696 -8.48032,2.13536 -9.24992,6.5 l -2.78128,15.74992 c -0.7696,4.3648 2.13536,8.48048 6.5,9.25008 l 17.21888,3.0312 c 0.08,10.04096 1.9136,19.66656 5.12512,28.65632 L 61.936,178.15707 c -3.8384,2.216 -5.1536,7.068 -2.9376,10.90624 l 8,13.87488 c 2.216,3.83824 7.0992,5.12224 10.9376,2.90624 l 15.24992,-8.81248 c 6.32224,7.39088 13.84112,13.67536 22.25008,18.65632 l -6.03136,16.5624 c -1.5152,4.1648 0.616,8.73424 4.78128,10.25008 l 15.0312,5.4688 c 4.1648,1.5152 8.73424,-0.616 10.25008,-4.78128 l 6,-16.5 c 4.7384,0.7968 9.57472,1.312 14.5312,1.312 4.95648,0 9.7928,-0.5152 14.5312,-1.312 l 6,16.5 c 1.5152,4.16464 6.08528,6.29712 10.25008,4.78128 l 15.0312,-5.4688 c 4.1648,-1.5152 6.29712,-6.08528 4.78128,-10.25008 l -6.0312,-16.5624 c 8.40304,-4.97968 15.93136,-11.26976 22.24992,-18.65632 l 15.25008,8.81248 c 3.83824,2.216 8.72144,0.9328 10.93744,-2.90624 l 8,-13.87488 c 2.216,-3.83824 0.9008,-8.69024 -2.93744,-10.90624 l -15.21888,-8.78128 c 3.21152,-8.98976 5.04288,-18.61536 5.12512,-28.65632 l 17.21872,-3.0312 c 4.36464,-0.7696 7.2696,-4.88528 6.5,-9.25008 l -2.78128,-15.74992 c -0.7696,-4.36464 -4.91664,-7.2696 -9.28128,-6.5 l -17.31248,3.0624 c -3.45808,-9.188 -8.34672,-17.739035 -14.5,-25.187355 l 11.28128,-13.4376 c 2.8488,-3.39504 2.4264,-8.43232 -0.9696,-11.28128 l -12.24992,-10.28112 c -3.3952,-2.84896 -8.43248,-2.4264 -11.28128,0.968 l -11.31248,13.5 c -8.35696,-4.76256 -17.52688,-8.18848 -27.28128,-10 v -17.53136 c 0,-4.432 -3.568,-8 -8,-8 z m 8,56 c 31.11744,0 56,24.882555 56,55.999995 0,31.11744 -24.88256,56 -56,56 -31.11744,0 -56,-24.88256 -56,-56 0,-31.11744 24.88256,-55.999995 56,-55.999995 z"
         id="path4690" />
      <path
         id="path4652"
         d="m 327.5,221.5004 c -0.277,0 -0.5,0.223 -0.5,0.5 v 1.0957 c -0.6092,0.11313 -1.18308,0.32768 -1.70508,0.625 l -0.70703,-0.84179 c -0.17805,-0.2122 -0.49288,-0.24056 -0.70508,-0.0625 l -0.76562,0.64257 c -0.2122,0.17806 -0.2386,0.49289 -0.0606,0.70508 l 0.70508,0.83985 c 0,0 -0.002,0.002 -0.002,0.002 -0.38458,0.46552 -0.68817,0.99801 -0.9043,1.57226 l -1.08399,-0.1914 c -0.27279,-0.0481 -0.53002,0.13346 -0.57812,0.40625 l -0.17383,0.98437 c -0.0481,0.2728 0.13346,0.53003 0.40625,0.57813 l 1.07618,0.18945 c 0.005,0.62756 0.1196,1.22916 0.32032,1.79102 l -0.95118,0.54883 c -0.2399,0.1385 -0.3221,0.44175 -0.1836,0.68164 l 0.5,0.86718 c 0.1385,0.23989 0.4437,0.32014 0.6836,0.18164 l 0.95312,-0.55078 c 0.39514,0.46193 0.86507,0.85471 1.39063,1.16602 l -0.37696,1.03515 c -0.0947,0.2603 0.0385,0.54589 0.29883,0.64063 l 0.93945,0.3418 c 0.2603,0.0947 0.54589,-0.0385 0.64063,-0.29883 l 0.375,-1.03125 c 0.29615,0.0498 0.59842,0.082 0.9082,0.082 0.30978,0 0.61205,-0.0322 0.9082,-0.082 l 0.375,1.03125 c 0.0947,0.26029 0.38033,0.39357 0.64063,0.29883 l 0.93945,-0.3418 c 0.2603,-0.0947 0.39357,-0.38033 0.29883,-0.64063 l -0.37695,-1.03515 c 0.52519,-0.31123 0.99571,-0.70436 1.39062,-1.16602 l 0.95313,0.55078 c 0.23989,0.1385 0.54509,0.0583 0.68359,-0.18164 l 0.5,-0.86718 c 0.1385,-0.23989 0.0563,-0.54314 -0.18359,-0.68164 l -0.95118,-0.54883 c 0.20072,-0.56186 0.31518,-1.16346 0.32032,-1.79102 l 1.07617,-0.18945 c 0.27279,-0.0481 0.45435,-0.30533 0.40625,-0.57813 l -0.17383,-0.98437 c -0.0481,-0.27279 -0.30729,-0.45435 -0.58008,-0.40625 l -1.08203,0.1914 c -0.21613,-0.57425 -0.52167,-1.10869 -0.90625,-1.57421 l 0.70508,-0.83985 c 0.17805,-0.21219 0.15165,-0.52702 -0.0606,-0.70508 l -0.76562,-0.64257 c -0.2122,-0.17806 -0.52703,-0.15165 -0.70508,0.0605 l -0.70703,0.84375 c -0.52231,-0.29766 -1.09543,-0.51178 -1.70508,-0.625 v -1.09571 c 0,-0.277 -0.223,-0.5 -0.5,-0.5 z m 0.5,3.5 c 1.94484,0 3.5,1.55516 3.5,3.5 0,1.94484 -1.55516,3.5 -3.5,3.5 -1.94484,0 -3.5,-1.55516 -3.5,-3.5 0,-1.94484 1.55516,-3.5 3.5,-3.5 z"
         style="color:#000000;font-style:normal;font-variant:normal;font-weight:normal;font-stretch:normal;font-size:medium;line-height:normal;font-family:sans-serif;font-variant-ligatures:normal;font-variant-position:normal;font-variant-caps:normal;font-variant-numeric:normal;font-variant-alternates:normal;font-feature-settings:normal;text-indent:0;text-align:start;text-decoration:none;text-decoration-line:none;text-decoration-style:solid;text-decoration-color:#000000;letter-spacing:normal;word-spacing:normal;text-transform:none;writing-mode:lr-tb;direction:ltr;text-orientation:mixed;dominant-baseline:auto;baseline-shift:baseline;text-anchor:start;white-space:normal;shape-padding:0;clip-rule:nonzero;display:inline;overflow:visible;visibility:visible;opacity:0.4;isolation:auto;mix-blend-mode:normal;color-interpolation:sRGB;color-interpolation-filters:linearRGB;solid-color:#000000;solid-opacity:1;vector-effect:none;fill:#0b0b0b;fill-opacity:1;fill-rule:nonzero;stroke:none;stroke-width:2;stroke-linecap:round;stroke-linejoin:round;stroke-miterlimit:4;stroke-dasharray:none;stroke-dashoffset:0;stroke-opacity:1;color-rendering:auto;image-rendering:auto;shape-rendering:auto;text-rendering:auto;enable-background:accumulate"
         inkscape:connector-curvature="0" />
      <path
         inkscape:connector-curvature="0"
         style="color:#000000;font-style:normal;font-variant:normal;font-weight:normal;font-stretch:normal;font-size:medium;line-height:normal;font-family:sans-serif;font-variant-ligatures:normal;font-variant-position:normal;font-variant-caps:normal;font-variant-numeric:normal;font-variant-alternates:normal;font-feature-settings:normal;text-indent:0;text-align:start;text-decoration:none;text-decoration-line:none;text-decoration-style:solid;text-decoration-color:#000000;letter-spacing:normal;word-spacing:normal;text-transform:none;writing-mode:lr-tb;direction:ltr;text-orientation:mixed;dominant-baseline:auto;baseline-shift:baseline;text-anchor:start;white-space:normal;shape-padding:0;clip-rule:nonzero;display:inline;overflow:visible;visibility:visible;opacity:0.4;isolation:auto;mix-blend-mode:normal;color-interpolation:sRGB;color-interpolation-filters:linearRGB;solid-color:#000000;solid-opacity:1;vector-effect:none;fill:#0b0b0b;fill-opacity:1;fill-rule:nonzero;stroke:none;stroke-width:2;stroke-linecap:round;stroke-linejoin:round;stroke-miterlimit:4;stroke-dasharray:none;stroke-dashoffset:0;stroke-opacity:1;color-rendering:auto;image-rendering:auto;shape-rendering:auto;text-rendering:auto;enable-background:accumulate"
         d="m 335,119.00037 c -0.554,0 -1,0.446 -1,1 v 2.1914 c -1.2184,0.22626 -2.36616,0.65536 -3.41016,1.25 l -1.41406,-1.68358 c -0.3561,-0.4244 -0.98576,-0.48112 -1.41016,-0.125 l -1.53124,1.28514 c -0.4244,0.35612 -0.4772,0.98578 -0.1212,1.41016 l 1.41016,1.6797 c 0,0 -0.004,0.004 -0.004,0.004 -0.76916,0.93104 -1.37634,1.99602 -1.8086,3.14452 l -2.16798,-0.3828 c -0.54558,-0.0962 -1.06004,0.26692 -1.15624,0.8125 l -0.34766,1.96874 c -0.0962,0.5456 0.26692,1.06006 0.8125,1.15626 l 2.15236,0.3789 c 0.01,1.25512 0.2392,2.45832 0.64064,3.58204 l -1.90236,1.09766 c -0.4798,0.277 -0.6442,0.8835 -0.3672,1.36328 l 1,1.73436 c 0.277,0.47978 0.8874,0.64028 1.3672,0.36328 l 1.90624,-1.10156 c 0.79028,0.92386 1.73014,1.70942 2.78126,2.33204 l -0.75392,2.0703 c -0.1894,0.5206 0.077,1.09178 0.59766,1.28126 l 1.8789,0.6836 c 0.5206,0.1894 1.09178,-0.077 1.28126,-0.59766 l 0.75,-2.0625 c 0.5923,0.0996 1.19684,0.164 1.8164,0.164 0.61956,0 1.2241,-0.0644 1.8164,-0.164 l 0.75,2.0625 c 0.1894,0.52058 0.76066,0.78714 1.28126,0.59766 l 1.8789,-0.6836 c 0.5206,-0.1894 0.78714,-0.76066 0.59766,-1.28126 l -0.7539,-2.0703 c 1.05038,-0.62246 1.99142,-1.40872 2.78124,-2.33204 l 1.90626,1.10156 c 0.47978,0.277 1.09018,0.1166 1.36718,-0.36328 l 1,-1.73436 c 0.277,-0.47978 0.1126,-1.08628 -0.36718,-1.36328 l -1.90236,-1.09766 c 0.40144,-1.12372 0.63036,-2.32692 0.64064,-3.58204 l 2.15234,-0.3789 c 0.54558,-0.0962 0.9087,-0.61066 0.8125,-1.15626 l -0.34766,-1.96874 c -0.0962,-0.54558 -0.61458,-0.9087 -1.16016,-0.8125 l -2.16406,0.3828 c -0.43226,-1.1485 -1.04334,-2.21738 -1.8125,-3.14842 l 1.41016,-1.6797 c 0.3561,-0.42438 0.3033,-1.05404 -0.1212,-1.41016 l -1.53124,-1.28514 c -0.4244,-0.35612 -1.05406,-0.3033 -1.41016,0.121 l -1.41406,1.6875 c -1.04462,-0.59532 -2.19086,-1.02356 -3.41016,-1.25 v -2.19142 c 0,-0.554 -0.446,-1 -1,-1 z m 1,7 c 3.88968,0 7,3.11032 7,7 0,3.88968 -3.11032,7 -7,7 -3.88968,0 -7,-3.11032 -7,-7 0,-3.88968 3.11032,-7 7,-7 z"
         id="path4654" />
      <path
         inkscape:connector-curvature="0"
         id="path4656"
         d="m 342.49994,48.016016 c -0.831,0 -1.5,0.669 -1.5,1.5 v 3.28711 c -1.8276,0.33939 -3.54923,0.98304 -5.11523,1.875 l -2.1211,-2.52539 c -0.53415,-0.6366 -1.47863,-0.72168 -2.11523,-0.1875 l -2.29688,1.92773 c -0.6366,0.53418 -0.71564,1.47867 -0.18164,2.11524 l 2.11524,2.51953 -0.006,0.006 c -1.15374,1.39656 -2.0645,2.99405 -2.71289,4.7168 l -3.25196,-0.57422 c -0.81837,-0.1443 -1.59007,0.40038 -1.73437,1.21875 l -0.52149,2.95312 c -0.1443,0.8184 0.40038,1.59008 1.21875,1.73438 l 3.22852,0.56836 c 0.015,1.88268 0.35878,3.68746 0.96094,5.37305 l -2.85352,1.64648 c -0.7197,0.4155 -0.96628,1.32525 -0.55078,2.04492 l 1.5,2.60156 c 0.4155,0.71968 1.33108,0.96043 2.05078,0.54493 l 2.85938,-1.65235 c 1.18542,1.38579 2.59519,2.56412 4.17187,3.49805 l -1.13086,3.10547 c -0.2841,0.7809 0.1155,1.63765 0.89649,1.92188 l 2.81836,1.02539 c 0.7809,0.2841 1.63765,-0.1155 1.92187,-0.89649 l 1.125,-3.09375 c 0.88845,0.1494 1.79527,0.24609 2.72461,0.24609 0.92934,0 1.83616,-0.0967 2.72461,-0.24609 l 1.125,3.09375 c 0.2841,0.78087 1.14097,1.18071 1.92187,0.89649 l 2.81836,-1.02539 c 0.7809,-0.2841 1.18071,-1.14098 0.89649,-1.92188 l -1.13086,-3.10547 c 1.57557,-0.93369 2.98714,-2.11307 4.17187,-3.49805 l 2.85938,1.65235 c 0.71967,0.4155 1.63528,0.1749 2.05078,-0.54493 l 1.5,-2.60156 c 0.4155,-0.71967 0.16889,-1.62942 -0.55078,-2.04492 l -2.85352,-1.64648 c 0.60216,-1.68559 0.94552,-3.49037 0.96094,-5.37305 l 3.22852,-0.56836 c 0.81837,-0.1443 1.36305,-0.91598 1.21875,-1.73438 l -0.52149,-2.95312 c -0.1443,-0.81837 -0.92186,-1.36305 -1.74023,-1.21875 l -3.24596,0.57418 c -0.64839,-1.72275 -1.56501,-3.3261 -2.71875,-4.72266 l 2.11524,-2.51953 c 0.53415,-0.63657 0.45511,-1.58106 -0.18164,-2.11524 l -2.29688,-1.92773 c -0.6366,-0.53418 -1.58108,-0.45481 -2.11523,0.18164 l -2.1211,2.53125 c -1.56693,-0.89298 -3.28628,-1.53534 -5.11523,-1.875 v -3.28711 c 0,-0.831 -0.669,-1.5 -1.5,-1.5 z m 1.5,10.98438 a 10,10 0 0 1 10,10 10,10 0 0 1 -10,10 10,10 0 0 1 -10,-10 10,10 0 0 1 10,-10 z"
         style="color:#000000;font-style:normal;font-variant:normal;font-weight:normal;font-stretch:normal;font-size:medium;line-height:normal;font-family:sans-serif;font-variant-ligatures:normal;font-variant-position:normal;font-variant-caps:normal;font-variant-numeric:normal;font-variant-alternates:normal;font-feature-settings:normal;text-indent:0;text-align:start;text-decoration:none;text-decoration-line:none;text-decoration-style:solid;text-decoration-color:#000000;letter-spacing:normal;word-spacing:normal;text-transform:none;writing-mode:lr-tb;direction:ltr;text-orientation:mixed;dominant-baseline:auto;baseline-shift:baseline;text-anchor:start;white-space:normal;shape-padding:0;clip-rule:nonzero;display:inline;overflow:visible;visibility:visible;opacity:0.4;isolation:auto;mix-blend-mode:normal;color-interpolation:sRGB;color-interpolation-filters:linearRGB;solid-color:#000000;solid-opacity:1;vector-effect:none;fill:#0b0b0b;fill-opacity:1;fill-rule:nonzero;stroke:none;stroke-width:2;stroke-linecap:round;stroke-linejoin:round;stroke-miterlimit:4;stroke-dasharray:none;stroke-dashoffset:0;stroke-opacity:1;color-rendering:auto;image-rendering:auto;shape-rendering:auto;text-rendering:auto;enable-background:accumulate" />
      <path
         inkscape:connector-curvature="0"
         id="path4659"
         d="m 331.75,175.00824 c -0.4155,0 -0.75,0.3345 -0.75,0.75 v 1.64454 c -0.9138,0.16969 -1.77364,0.49151 -2.55664,0.9375 l -1.0625,-1.26367 c -0.26708,-0.3183 -0.73834,-0.36084 -1.05664,-0.0937 l -1.14844,0.96485 c -0.3183,0.26709 -0.35872,0.73834 -0.0918,1.05663 l 1.0586,1.25977 -0.004,0.004 c -0.57687,0.69828 -1.03127,1.49604 -1.35547,2.35742 l -1.62695,-0.28711 c -0.40918,-0.0721 -0.79504,0.20019 -0.86719,0.60938 l -0.25976,1.47656 c -0.0721,0.4092 0.20019,0.79504 0.60937,0.86719 l 1.61328,0.28515 c 0.007,0.94134 0.17939,1.84276 0.48047,2.68555 l -1.42578,0.82422 c -0.35985,0.20775 -0.48314,0.66165 -0.27539,1.02148 l 0.75,1.30078 c 0.20775,0.35984 0.66554,0.48119 1.02539,0.27344 l 1.42969,-0.82617 c 0.59271,0.69289 1.2976,1.28108 2.08594,1.74805 l -0.56641,1.55273 c -0.14205,0.39045 0.0587,0.81881 0.44922,0.96094 l 1.4082,0.51367 c 0.39045,0.14205 0.81883,-0.0587 0.96094,-0.44922 l 0.5625,-1.54687 c 0.44422,0.0747 0.89861,0.12304 1.36328,0.12304 0.46467,0 0.9171,-0.0483 1.36133,-0.12304 l 0.5625,1.54687 c 0.14205,0.39044 0.57049,0.59133 0.96094,0.44922 l 1.41015,-0.51367 c 0.39045,-0.14205 0.58938,-0.57049 0.44727,-0.96094 l -0.56446,-1.55273 c 0.78779,-0.46685 1.49358,-1.05556 2.08594,-1.74805 l 1.42969,0.82617 c 0.35983,0.20775 0.81764,0.0865 1.02539,-0.27344 l 0.75,-1.30078 c 0.20775,-0.35983 0.0845,-0.81373 -0.27539,-1.02148 l -1.42774,-0.82422 c 0.30109,-0.84279 0.47276,-1.74421 0.48047,-2.68555 l 1.61524,-0.28515 c 0.40918,-0.0721 0.68152,-0.45799 0.60937,-0.86719 l -0.26172,-1.47656 c -0.0722,-0.40919 -0.45995,-0.68153 -0.86914,-0.60938 l -1.62304,0.28711 c -0.3242,-0.86137 -0.78251,-1.66305 -1.35938,-2.36133 l 1.05664,-1.25976 c 0.26708,-0.31829 0.22847,-0.78955 -0.0898,-1.05664 l -1.14844,-0.96485 c -0.3183,-0.26709 -0.79152,-0.22637 -1.05859,0.0918 l -1.06055,1.26563 c -0.78346,-0.4465 -1.64216,-0.76768 -2.55664,-0.9375 v -1.64454 c 0,-0.4155 -0.3345,-0.75 -0.75,-0.75 z m 0.75,4.99219 a 5.5,5.5 0 0 1 5.5,5.5 5.5,5.5 0 0 1 -5.5,5.5 5.5,5.5 0 0 1 -5.5,-5.5 5.5,5.5 0 0 1 5.5,-5.5 z"
         style="color:#000000;font-style:normal;font-variant:normal;font-weight:normal;font-stretch:normal;font-size:medium;line-height:normal;font-family:sans-serif;font-variant-ligatures:normal;font-variant-position:normal;font-variant-caps:normal;font-variant-numeric:normal;font-variant-alternates:normal;font-feature-settings:normal;text-indent:0;text-align:start;text-decoration:none;text-decoration-line:none;text-decoration-style:solid;text-decoration-color:#000000;letter-spacing:normal;word-spacing:normal;text-transform:none;writing-mode:lr-tb;direction:ltr;text-orientation:mixed;dominant-baseline:auto;baseline-shift:baseline;text-anchor:start;white-space:normal;shape-padding:0;clip-rule:nonzero;display:inline;overflow:visible;visibility:visible;opacity:0.4;isolation:auto;mix-blend-mode:normal;color-interpolation:sRGB;color-interpolation-filters:linearRGB;solid-color:#000000;solid-opacity:1;vector-effect:none;fill:#0b0b0b;fill-opacity:1;fill-rule:nonzero;stroke:none;stroke-width:2;stroke-linecap:round;stroke-linejoin:round;stroke-miterlimit:4;stroke-dasharray:none;stroke-dashoffset:0;stroke-opacity:1;color-rendering:auto;image-rendering:auto;shape-rendering:auto;text-rendering:auto;enable-background:accumulate" />
      <path
         inkscape:connector-curvature="0"
         style="color:#000000;font-style:normal;font-variant:normal;font-weight:normal;font-stretch:normal;font-size:medium;line-height:normal;font-family:sans-serif;font-variant-ligatures:normal;font-variant-position:normal;font-variant-caps:normal;font-variant-numeric:normal;font-variant-alternates:normal;font-feature-settings:normal;text-indent:0;text-align:start;text-decoration:none;text-decoration-line:none;text-decoration-style:solid;text-decoration-color:#000000;letter-spacing:normal;word-spacing:normal;text-transform:none;writing-mode:lr-tb;direction:ltr;text-orientation:mixed;dominant-baseline:auto;baseline-shift:baseline;text-anchor:start;white-space:normal;shape-padding:0;clip-rule:nonzero;display:inline;overflow:visible;visibility:visible;opacity:0.6;isolation:auto;mix-blend-mode:normal;color-interpolation:sRGB;color-interpolation-filters:linearRGB;solid-color:#000000;solid-opacity:1;vector-effect:none;fill:none;fill-opacity:1;fill-rule:nonzero;stroke:#232a34;stroke-width:2;stroke-linecap:round;stroke-linejoin:round;stroke-miterlimit:4;stroke-dasharray:none;stroke-dashoffset:0;stroke-opacity:1;color-rendering:auto;image-rendering:auto;shape-rendering:auto;text-rendering:auto;enable-background:accumulate"
         d="m 327.5,220.49997 c -0.277,0 -0.5,0.223 -0.5,0.5 v 1.0957 c -0.6092,0.11313 -1.18308,0.32768 -1.70508,0.625 l -0.70703,-0.84179 c -0.17805,-0.2122 -0.49288,-0.24056 -0.70508,-0.0625 l -0.76562,0.64257 c -0.2122,0.17806 -0.2386,0.49289 -0.0606,0.70508 l 0.70508,0.83985 c 0,0 -0.002,0.002 -0.002,0.002 -0.38458,0.46552 -0.68817,0.99801 -0.9043,1.57226 l -1.08399,-0.1914 c -0.27279,-0.0481 -0.53002,0.13346 -0.57812,0.40625 l -0.17383,0.98437 c -0.0481,0.2728 0.13346,0.53003 0.40625,0.57813 l 1.07618,0.18945 c 0.005,0.62756 0.1196,1.22916 0.32032,1.79102 l -0.95118,0.54883 c -0.2399,0.1385 -0.3221,0.44175 -0.1836,0.68164 l 0.5,0.86718 c 0.1385,0.23989 0.4437,0.32014 0.6836,0.18164 l 0.95312,-0.55078 c 0.39514,0.46193 0.86507,0.85471 1.39063,1.16602 l -0.37696,1.03515 c -0.0947,0.2603 0.0385,0.54589 0.29883,0.64063 l 0.93945,0.3418 c 0.2603,0.0947 0.54589,-0.0385 0.64063,-0.29883 l 0.375,-1.03125 c 0.29615,0.0498 0.59842,0.082 0.9082,0.082 0.30978,0 0.61205,-0.0322 0.9082,-0.082 l 0.375,1.03125 c 0.0947,0.26029 0.38033,0.39357 0.64063,0.29883 l 0.93945,-0.3418 c 0.2603,-0.0947 0.39357,-0.38033 0.29883,-0.64063 l -0.37695,-1.03515 c 0.52519,-0.31123 0.99571,-0.70436 1.39062,-1.16602 l 0.95313,0.55078 c 0.23989,0.1385 0.54509,0.0583 0.68359,-0.18164 l 0.5,-0.86718 c 0.1385,-0.23989 0.0563,-0.54314 -0.18359,-0.68164 l -0.95118,-0.54883 c 0.20072,-0.56186 0.31518,-1.16346 0.32032,-1.79102 l 1.07617,-0.18945 c 0.27279,-0.0481 0.45435,-0.30533 0.40625,-0.57813 l -0.17383,-0.98437 c -0.0481,-0.27279 -0.30729,-0.45435 -0.58008,-0.40625 l -1.08203,0.1914 c -0.21613,-0.57425 -0.52167,-1.10869 -0.90625,-1.57421 l 0.70508,-0.83985 c 0.17805,-0.21219 0.15165,-0.52702 -0.0606,-0.70508 l -0.76562,-0.64257 c -0.2122,-0.17806 -0.52703,-0.15165 -0.70508,0.0605 l -0.70703,0.84375 c -0.52231,-0.29766 -1.09543,-0.51178 -1.70508,-0.625 v -1.09571 c 0,-0.277 -0.223,-0.5 -0.5,-0.5 z m 0.5,3.5 c 1.94484,0 3.5,1.55516 3.5,3.5 0,1.94484 -1.55516,3.5 -3.5,3.5 -1.94484,0 -3.5,-1.55516 -3.5,-3.5 0,-1.94484 1.55516,-3.5 3.5,-3.5 z"
         id="path4644" />
      <path
         id="path4646"
         d="m 335,117.99994 c -0.554,0 -1,0.446 -1,1 v 2.1914 c -1.2184,0.22626 -2.36616,0.65536 -3.41016,1.25 l -1.41406,-1.68358 c -0.3561,-0.4244 -0.98576,-0.48112 -1.41016,-0.125 l -1.53124,1.28514 c -0.4244,0.35612 -0.4772,0.98578 -0.1212,1.41016 l 1.41016,1.6797 c 0,0 -0.004,0.004 -0.004,0.004 -0.76916,0.93104 -1.37634,1.99602 -1.8086,3.14452 l -2.16798,-0.3828 c -0.54558,-0.0962 -1.06004,0.26692 -1.15624,0.8125 l -0.34766,1.96874 c -0.0962,0.5456 0.26692,1.06006 0.8125,1.15626 l 2.15236,0.3789 c 0.01,1.25512 0.2392,2.45832 0.64064,3.58204 l -1.90236,1.09766 c -0.4798,0.277 -0.6442,0.8835 -0.3672,1.36328 l 1,1.73436 c 0.277,0.47978 0.8874,0.64028 1.3672,0.36328 l 1.90624,-1.10156 c 0.79028,0.92386 1.73014,1.70942 2.78126,2.33204 l -0.75392,2.0703 c -0.1894,0.5206 0.077,1.09178 0.59766,1.28126 l 1.8789,0.6836 c 0.5206,0.1894 1.09178,-0.077 1.28126,-0.59766 l 0.75,-2.0625 c 0.5923,0.0996 1.19684,0.164 1.8164,0.164 0.61956,0 1.2241,-0.0644 1.8164,-0.164 l 0.75,2.0625 c 0.1894,0.52058 0.76066,0.78714 1.28126,0.59766 l 1.8789,-0.6836 c 0.5206,-0.1894 0.78714,-0.76066 0.59766,-1.28126 l -0.7539,-2.0703 c 1.05038,-0.62246 1.99142,-1.40872 2.78124,-2.33204 l 1.90626,1.10156 c 0.47978,0.277 1.09018,0.1166 1.36718,-0.36328 l 1,-1.73436 c 0.277,-0.47978 0.1126,-1.08628 -0.36718,-1.36328 l -1.90236,-1.09766 c 0.40144,-1.12372 0.63036,-2.32692 0.64064,-3.58204 l 2.15234,-0.3789 c 0.54558,-0.0962 0.9087,-0.61066 0.8125,-1.15626 l -0.34766,-1.96874 c -0.0962,-0.54558 -0.61458,-0.9087 -1.16016,-0.8125 l -2.16406,0.3828 c -0.43226,-1.1485 -1.04334,-2.21738 -1.8125,-3.14842 l 1.41016,-1.6797 c 0.3561,-0.42438 0.3033,-1.05404 -0.1212,-1.41016 l -1.53124,-1.28514 c -0.4244,-0.35612 -1.05406,-0.3033 -1.41016,0.121 l -1.41406,1.6875 c -1.04462,-0.59532 -2.19086,-1.02356 -3.41016,-1.25 v -2.19142 c 0,-0.554 -0.446,-1 -1,-1 z m 1,7 c 3.88968,0 7,3.11032 7,7 0,3.88968 -3.11032,7 -7,7 -3.88968,0 -7,-3.11032 -7,-7 0,-3.88968 3.11032,-7 7,-7 z"
         style="color:#000000;font-style:normal;font-variant:normal;font-weight:normal;font-stretch:normal;font-size:medium;line-height:normal;font-family:sans-serif;font-variant-ligatures:normal;font-variant-position:normal;font-variant-caps:normal;font-variant-numeric:normal;font-variant-alternates:normal;font-feature-settings:normal;text-indent:0;text-align:start;text-decoration:none;text-decoration-line:none;text-decoration-style:solid;text-decoration-color:#000000;letter-spacing:normal;word-spacing:normal;text-transform:none;writing-mode:lr-tb;direction:ltr;text-orientation:mixed;dominant-baseline:auto;baseline-shift:baseline;text-anchor:start;white-space:normal;shape-padding:0;clip-rule:nonzero;display:inline;overflow:visible;visibility:visible;opacity:0.6;isolation:auto;mix-blend-mode:normal;color-interpolation:sRGB;color-interpolation-filters:linearRGB;solid-color:#000000;solid-opacity:1;vector-effect:none;fill:none;fill-opacity:1;fill-rule:nonzero;stroke:#232a34;stroke-width:2;stroke-linecap:round;stroke-linejoin:round;stroke-miterlimit:4;stroke-dasharray:none;stroke-dashoffset:0;stroke-opacity:1;color-rendering:auto;image-rendering:auto;shape-rendering:auto;text-rendering:auto;enable-background:accumulate"
         inkscape:connector-curvature="0" />
      <path
         style="color:#000000;font-style:normal;font-variant:normal;font-weight:normal;font-stretch:normal;font-size:medium;line-height:normal;font-family:sans-serif;font-variant-ligatures:normal;font-variant-position:normal;font-variant-caps:normal;font-variant-numeric:normal;font-variant-alternates:normal;font-feature-settings:normal;text-indent:0;text-align:start;text-decoration:none;text-decoration-line:none;text-decoration-style:solid;text-decoration-color:#000000;letter-spacing:normal;word-spacing:normal;text-transform:none;writing-mode:lr-tb;direction:ltr;text-orientation:mixed;dominant-baseline:auto;baseline-shift:baseline;text-anchor:start;white-space:normal;shape-padding:0;clip-rule:nonzero;display:inline;overflow:visible;visibility:visible;opacity:0.6;isolation:auto;mix-blend-mode:normal;color-interpolation:sRGB;color-interpolation-filters:linearRGB;solid-color:#000000;solid-opacity:1;vector-effect:none;fill:none;fill-opacity:1;fill-rule:nonzero;stroke:#232a34;stroke-width:2;stroke-linecap:round;stroke-linejoin:round;stroke-miterlimit:4;stroke-dasharray:none;stroke-dashoffset:0;stroke-opacity:1;color-rendering:auto;image-rendering:auto;shape-rendering:auto;text-rendering:auto;enable-background:accumulate"
         d="m 342.49994,47.015583 c -0.831,0 -1.5,0.669 -1.5,1.5 v 3.28711 c -1.8276,0.33939 -3.54923,0.98304 -5.11523,1.875 l -2.1211,-2.52539 c -0.53415,-0.6366 -1.47863,-0.72168 -2.11523,-0.1875 l -2.29688,1.92773 c -0.6366,0.53418 -0.71564,1.47867 -0.18164,2.11524 l 2.11524,2.51953 -0.006,0.006 c -1.15374,1.39656 -2.0645,2.99405 -2.71289,4.7168 l -3.25196,-0.57422 c -0.81837,-0.1443 -1.59007,0.40038 -1.73437,1.21875 l -0.52149,2.95312 c -0.1443,0.8184 0.40038,1.59008 1.21875,1.73438 l 3.22852,0.56836 c 0.015,1.88268 0.35878,3.68746 0.96094,5.37305 l -2.85352,1.64648 c -0.7197,0.4155 -0.96628,1.32525 -0.55078,2.04492 l 1.5,2.60156 c 0.4155,0.71968 1.33108,0.96043 2.05078,0.54493 l 2.85938,-1.65235 c 1.18542,1.38579 2.59519,2.56412 4.17187,3.49805 l -1.13086,3.10547 c -0.2841,0.7809 0.1155,1.63765 0.89649,1.92188 l 2.81836,1.02539 c 0.7809,0.2841 1.63765,-0.1155 1.92187,-0.89649 l 1.125,-3.09375 c 0.88845,0.1494 1.79527,0.24609 2.72461,0.24609 0.92934,0 1.83616,-0.0967 2.72461,-0.24609 l 1.125,3.09375 c 0.2841,0.78087 1.14097,1.18071 1.92187,0.89649 l 2.81836,-1.02539 c 0.7809,-0.2841 1.18071,-1.14098 0.89649,-1.92188 l -1.13086,-3.10547 c 1.57557,-0.93369 2.98714,-2.11307 4.17187,-3.49805 l 2.85938,1.65235 c 0.71967,0.4155 1.63528,0.1749 2.05078,-0.54493 l 1.5,-2.60156 c 0.4155,-0.71967 0.16889,-1.62942 -0.55078,-2.04492 l -2.85352,-1.64648 c 0.60216,-1.68559 0.94552,-3.49037 0.96094,-5.37305 l 3.22852,-0.56836 c 0.81837,-0.1443 1.36305,-0.91598 1.21875,-1.73438 l -0.52149,-2.95312 c -0.1443,-0.81837 -0.92186,-1.36305 -1.74023,-1.21875 l -3.24596,0.57418 c -0.64839,-1.72275 -1.56501,-3.3261 -2.71875,-4.72266 l 2.11524,-2.51953 c 0.53415,-0.63657 0.45511,-1.58106 -0.18164,-2.11524 l -2.29688,-1.92773 c -0.6366,-0.53418 -1.58108,-0.45481 -2.11523,0.18164 l -2.1211,2.53125 c -1.56693,-0.89298 -3.28628,-1.53534 -5.11523,-1.875 v -3.28711 c 0,-0.831 -0.669,-1.5 -1.5,-1.5 z m 1.5,10.98438 a 10,10 0 0 1 10,10 10,10 0 0 1 -10,10 10,10 0 0 1 -10,-10 10,10 0 0 1 10,-10 z"
         id="path4648"
         inkscape:connector-curvature="0" />
      <path
         style="color:#000000;font-style:normal;font-variant:normal;font-weight:normal;font-stretch:normal;font-size:medium;line-height:normal;font-family:sans-serif;font-variant-ligatures:normal;font-variant-position:normal;font-variant-caps:normal;font-variant-numeric:normal;font-variant-alternates:normal;font-feature-settings:normal;text-indent:0;text-align:start;text-decoration:none;text-decoration-line:none;text-decoration-style:solid;text-decoration-color:#000000;letter-spacing:normal;word-spacing:normal;text-transform:none;writing-mode:lr-tb;direction:ltr;text-orientation:mixed;dominant-baseline:auto;baseline-shift:baseline;text-anchor:start;white-space:normal;shape-padding:0;clip-rule:nonzero;display:inline;overflow:visible;visibility:visible;opacity:0.6;isolation:auto;mix-blend-mode:normal;color-interpolation:sRGB;color-interpolation-filters:linearRGB;solid-color:#000000;solid-opacity:1;vector-effect:none;fill:none;fill-opacity:1;fill-rule:nonzero;stroke:#232a34;stroke-width:2;stroke-linecap:round;stroke-linejoin:round;stroke-miterlimit:4;stroke-dasharray:none;stroke-dashoffset:0;stroke-opacity:1;color-rendering:auto;image-rendering:auto;shape-rendering:auto;text-rendering:auto;enable-background:accumulate"
         d="m 331.75,174.00781 c -0.4155,0 -0.75,0.3345 -0.75,0.75 v 1.64454 c -0.9138,0.16969 -1.77364,0.49151 -2.55664,0.9375 l -1.0625,-1.26367 c -0.26708,-0.3183 -0.73834,-0.36084 -1.05664,-0.0937 l -1.14844,0.96485 c -0.3183,0.26709 -0.35872,0.73834 -0.0918,1.05663 l 1.0586,1.25977 -0.004,0.004 c -0.57687,0.69828 -1.03127,1.49604 -1.35547,2.35742 l -1.62695,-0.28711 c -0.40918,-0.0721 -0.79504,0.20019 -0.86719,0.60938 l -0.25976,1.47656 c -0.0721,0.4092 0.20019,0.79504 0.60937,0.86719 l 1.61328,0.28515 c 0.007,0.94134 0.17939,1.84276 0.48047,2.68555 l -1.42578,0.82422 c -0.35985,0.20775 -0.48314,0.66165 -0.27539,1.02148 l 0.75,1.30078 c 0.20775,0.35984 0.66554,0.48119 1.02539,0.27344 l 1.42969,-0.82617 c 0.59271,0.69289 1.2976,1.28108 2.08594,1.74805 l -0.56641,1.55273 c -0.14205,0.39045 0.0587,0.81881 0.44922,0.96094 l 1.4082,0.51367 c 0.39045,0.14205 0.81883,-0.0587 0.96094,-0.44922 l 0.5625,-1.54687 c 0.44422,0.0747 0.89861,0.12304 1.36328,0.12304 0.46467,0 0.9171,-0.0483 1.36133,-0.12304 l 0.5625,1.54687 c 0.14205,0.39044 0.57049,0.59133 0.96094,0.44922 l 1.41015,-0.51367 c 0.39045,-0.14205 0.58938,-0.57049 0.44727,-0.96094 l -0.56446,-1.55273 c 0.78779,-0.46685 1.49358,-1.05556 2.08594,-1.74805 l 1.42969,0.82617 c 0.35983,0.20775 0.81764,0.0865 1.02539,-0.27344 l 0.75,-1.30078 c 0.20775,-0.35983 0.0845,-0.81373 -0.27539,-1.02148 l -1.42774,-0.82422 c 0.30109,-0.84279 0.47276,-1.74421 0.48047,-2.68555 l 1.61524,-0.28515 c 0.40918,-0.0721 0.68152,-0.45799 0.60937,-0.86719 l -0.26172,-1.47656 c -0.0722,-0.40919 -0.45995,-0.68153 -0.86914,-0.60938 l -1.62304,0.28711 c -0.3242,-0.86137 -0.78251,-1.66305 -1.35938,-2.36133 l 1.05664,-1.25976 c 0.26708,-0.31829 0.22847,-0.78955 -0.0898,-1.05664 l -1.14844,-0.96485 c -0.3183,-0.26709 -0.79152,-0.22637 -1.05859,0.0918 l -1.06055,1.26563 c -0.78346,-0.4465 -1.64216,-0.76768 -2.55664,-0.9375 v -1.64454 c 0,-0.4155 -0.3345,-0.75 -0.75,-0.75 z M 332.5,179 a 5.5,5.5 0 0 1 5.5,5.5 5.5,5.5 0 0 1 -5.5,5.5 5.5,5.5 0 0 1 -5.5,-5.5 5.5,5.5 0 0 1 5.5,-5.5 z"
         id="path4650"
         inkscape:connector-curvature="0" />
      <path
         id="path9614"
         d="m 327.5,220.49997 c -0.277,0 -0.5,0.223 -0.5,0.5 v 1.0957 c -0.6092,0.11313 -1.18308,0.32768 -1.70508,0.625 l -0.70703,-0.84179 c -0.17805,-0.2122 -0.49288,-0.24056 -0.70508,-0.0625 l -0.76562,0.64257 c -0.2122,0.17806 -0.2386,0.49289 -0.0606,0.70508 l 0.70508,0.83985 c 0,0 -0.002,0.002 -0.002,0.002 -0.38458,0.46552 -0.68817,0.99801 -0.9043,1.57226 l -1.08399,-0.1914 c -0.27279,-0.0481 -0.53002,0.13346 -0.57812,0.40625 l -0.17383,0.98437 c -0.0481,0.2728 0.13346,0.53003 0.40625,0.57813 l 1.07618,0.18945 c 0.005,0.62756 0.1196,1.22916 0.32032,1.79102 l -0.95118,0.54883 c -0.2399,0.1385 -0.3221,0.44175 -0.1836,0.68164 l 0.5,0.86718 c 0.1385,0.23989 0.4437,0.32014 0.6836,0.18164 l 0.95312,-0.55078 c 0.39514,0.46193 0.86507,0.85471 1.39063,1.16602 l -0.37696,1.03515 c -0.0947,0.2603 0.0385,0.54589 0.29883,0.64063 l 0.93945,0.3418 c 0.2603,0.0947 0.54589,-0.0385 0.64063,-0.29883 l 0.375,-1.03125 c 0.29615,0.0498 0.59842,0.082 0.9082,0.082 0.30978,0 0.61205,-0.0322 0.9082,-0.082 l 0.375,1.03125 c 0.0947,0.26029 0.38033,0.39357 0.64063,0.29883 l 0.93945,-0.3418 c 0.2603,-0.0947 0.39357,-0.38033 0.29883,-0.64063 l -0.37695,-1.03515 c 0.52519,-0.31123 0.99571,-0.70436 1.39062,-1.16602 l 0.95313,0.55078 c 0.23989,0.1385 0.54509,0.0583 0.68359,-0.18164 l 0.5,-0.86718 c 0.1385,-0.23989 0.0563,-0.54314 -0.18359,-0.68164 l -0.95118,-0.54883 c 0.20072,-0.56186 0.31518,-1.16346 0.32032,-1.79102 l 1.07617,-0.18945 c 0.27279,-0.0481 0.45435,-0.30533 0.40625,-0.57813 l -0.17383,-0.98437 c -0.0481,-0.27279 -0.30729,-0.45435 -0.58008,-0.40625 l -1.08203,0.1914 c -0.21613,-0.57425 -0.52167,-1.10869 -0.90625,-1.57421 l 0.70508,-0.83985 c 0.17805,-0.21219 0.15165,-0.52702 -0.0606,-0.70508 l -0.76562,-0.64257 c -0.2122,-0.17806 -0.52703,-0.15165 -0.70508,0.0605 l -0.70703,0.84375 c -0.52231,-0.29766 -1.09543,-0.51178 -1.70508,-0.625 v -1.09571 c 0,-0.277 -0.223,-0.5 -0.5,-0.5 z m 0.5,3.5 c 1.94484,0 3.5,1.55516 3.5,3.5 0,1.94484 -1.55516,3.5 -3.5,3.5 -1.94484,0 -3.5,-1.55516 -3.5,-3.5 0,-1.94484 1.55516,-3.5 3.5,-3.5 z"
         style="color:#000000;font-style:normal;font-variant:normal;font-weight:normal;font-stretch:normal;font-size:medium;line-height:normal;font-family:sans-serif;font-variant-ligatures:normal;font-variant-position:normal;font-variant-caps:normal;font-variant-numeric:normal;font-variant-alternates:normal;font-feature-settings:normal;text-indent:0;text-align:start;text-decoration:none;text-decoration-line:none;text-decoration-style:solid;text-decoration-color:#000000;letter-spacing:normal;word-spacing:normal;text-transform:none;writing-mode:lr-tb;direction:ltr;text-orientation:mixed;dominant-baseline:auto;baseline-shift:baseline;text-anchor:start;white-space:normal;shape-padding:0;clip-rule:nonzero;display:inline;overflow:visible;visibility:visible;opacity:1;isolation:auto;mix-blend-mode:normal;color-interpolation:sRGB;color-interpolation-filters:linearRGB;solid-color:#000000;solid-opacity:1;vector-effect:none;fill:url(#linearGradient4618);fill-opacity:1.0;fill-rule:nonzero;stroke:none;stroke-width:1;stroke-linecap:round;stroke-linejoin:round;stroke-miterlimit:4;stroke-dasharray:none;stroke-dashoffset:0;stroke-opacity:1;color-rendering:auto;image-rendering:auto;shape-rendering:auto;text-rendering:auto;enable-background:accumulate"
         inkscape:connector-curvature="0" />
      <path
         inkscape:connector-curvature="0"
         style="color:#000000;font-style:normal;font-variant:normal;font-weight:normal;font-stretch:normal;font-size:medium;line-height:normal;font-family:sans-serif;font-variant-ligatures:normal;font-variant-position:normal;font-variant-caps:normal;font-variant-numeric:normal;font-variant-alternates:normal;font-feature-settings:normal;text-indent:0;text-align:start;text-decoration:none;text-decoration-line:none;text-decoration-style:solid;text-decoration-color:#000000;letter-spacing:normal;word-spacing:normal;text-transform:none;writing-mode:lr-tb;direction:ltr;text-orientation:mixed;dominant-baseline:auto;baseline-shift:baseline;text-anchor:start;white-space:normal;shape-padding:0;clip-rule:nonzero;display:inline;overflow:visible;visibility:visible;opacity:1;isolation:auto;mix-blend-mode:normal;color-interpolation:sRGB;color-interpolation-filters:linearRGB;solid-color:#000000;solid-opacity:1;vector-effect:none;fill:url(#linearGradient4620);fill-opacity:1.0;fill-rule:nonzero;stroke:none;stroke-width:1;stroke-linecap:round;stroke-linejoin:round;stroke-miterlimit:4;stroke-dasharray:none;stroke-dashoffset:0;stroke-opacity:1;color-rendering:auto;image-rendering:auto;shape-rendering:auto;text-rendering:auto;enable-background:accumulate"
         d="m 335,117.99994 c -0.554,0 -1,0.446 -1,1 v 2.1914 c -1.2184,0.22626 -2.36616,0.65536 -3.41016,1.25 l -1.41406,-1.68358 c -0.3561,-0.4244 -0.98576,-0.48112 -1.41016,-0.125 l -1.53124,1.28514 c -0.4244,0.35612 -0.4772,0.98578 -0.1212,1.41016 l 1.41016,1.6797 c 0,0 -0.004,0.004 -0.004,0.004 -0.76916,0.93104 -1.37634,1.99602 -1.8086,3.14452 l -2.16798,-0.3828 c -0.54558,-0.0962 -1.06004,0.26692 -1.15624,0.8125 l -0.34766,1.96874 c -0.0962,0.5456 0.26692,1.06006 0.8125,1.15626 l 2.15236,0.3789 c 0.01,1.25512 0.2392,2.45832 0.64064,3.58204 l -1.90236,1.09766 c -0.4798,0.277 -0.6442,0.8835 -0.3672,1.36328 l 1,1.73436 c 0.277,0.47978 0.8874,0.64028 1.3672,0.36328 l 1.90624,-1.10156 c 0.79028,0.92386 1.73014,1.70942 2.78126,2.33204 l -0.75392,2.0703 c -0.1894,0.5206 0.077,1.09178 0.59766,1.28126 l 1.8789,0.6836 c 0.5206,0.1894 1.09178,-0.077 1.28126,-0.59766 l 0.75,-2.0625 c 0.5923,0.0996 1.19684,0.164 1.8164,0.164 0.61956,0 1.2241,-0.0644 1.8164,-0.164 l 0.75,2.0625 c 0.1894,0.52058 0.76066,0.78714 1.28126,0.59766 l 1.8789,-0.6836 c 0.5206,-0.1894 0.78714,-0.76066 0.59766,-1.28126 l -0.7539,-2.0703 c 1.05038,-0.62246 1.99142,-1.40872 2.78124,-2.33204 l 1.90626,1.10156 c 0.47978,0.277 1.09018,0.1166 1.36718,-0.36328 l 1,-1.73436 c 0.277,-0.47978 0.1126,-1.08628 -0.36718,-1.36328 l -1.90236,-1.09766 c 0.40144,-1.12372 0.63036,-2.32692 0.64064,-3.58204 l 2.15234,-0.3789 c 0.54558,-0.0962 0.9087,-0.61066 0.8125,-1.15626 l -0.34766,-1.96874 c -0.0962,-0.54558 -0.61458,-0.9087 -1.16016,-0.8125 l -2.16406,0.3828 c -0.43226,-1.1485 -1.04334,-2.21738 -1.8125,-3.14842 l 1.41016,-1.6797 c 0.3561,-0.42438 0.3033,-1.05404 -0.1212,-1.41016 l -1.53124,-1.28514 c -0.4244,-0.35612 -1.05406,-0.3033 -1.41016,0.121 l -1.41406,1.6875 c -1.04462,-0.59532 -2.19086,-1.02356 -3.41016,-1.25 v -2.19142 c 0,-0.554 -0.446,-1 -1,-1 z m 1,7 c 3.88968,0 7,3.11032 7,7 0,3.88968 -3.11032,7 -7,7 -3.88968,0 -7,-3.11032 -7,-7 0,-3.88968 3.11032,-7 7,-7 z"
         id="path4544" />
      <path
         id="path4550"
         d="m 152,27.9995 c -4.432,0 -8,3.568 -8,8 v 17.5312 c -9.7472,1.81008 -18.92928,5.24288 -27.28128,10 L 105.40624,50.06206 c -2.8488,-3.3952 -7.88608,-3.84896 -11.28128,-1 L 81.87504,59.34318 c -3.3952,2.84896 -3.8176,7.88624 -0.9696,11.28128 l 11.28128,13.4376 c 0,0 -0.032,0.032 -0.032,0.032 -6.15328,7.44832 -11.01072,15.96816 -14.4688,25.15616 l -17.34384,-3.0624 c -4.36464,-0.7696 -8.48032,2.13536 -9.24992,6.5 l -2.78128,15.74992 c -0.7696,4.3648 2.13536,8.48048 6.5,9.25008 l 17.21888,3.0312 c 0.08,10.04096 1.9136,19.66656 5.12512,28.65632 L 61.936,178.15662 c -3.8384,2.216 -5.1536,7.068 -2.9376,10.90624 l 8,13.87488 c 2.216,3.83824 7.0992,5.12224 10.9376,2.90624 l 15.24992,-8.81248 c 6.32224,7.39088 13.84112,13.67536 22.25008,18.65632 l -6.03136,16.5624 c -1.5152,4.1648 0.616,8.73424 4.78128,10.25008 l 15.0312,5.4688 c 4.1648,1.5152 8.73424,-0.616 10.25008,-4.78128 l 6,-16.5 c 4.7384,0.7968 9.57472,1.312 14.5312,1.312 4.95648,0 9.7928,-0.5152 14.5312,-1.312 l 6,16.5 c 1.5152,4.16464 6.08528,6.29712 10.25008,4.78128 l 15.0312,-5.4688 c 4.1648,-1.5152 6.29712,-6.08528 4.78128,-10.25008 l -6.0312,-16.5624 c 8.40304,-4.97968 15.93136,-11.26976 22.24992,-18.65632 l 15.25008,8.81248 c 3.83824,2.216 8.72144,0.9328 10.93744,-2.90624 l 8,-13.87488 c 2.216,-3.83824 0.9008,-8.69024 -2.93744,-10.90624 l -15.21888,-8.78128 c 3.21152,-8.98976 5.04288,-18.61536 5.12512,-28.65632 l 17.21872,-3.0312 c 4.36464,-0.7696 7.2696,-4.88528 6.5,-9.25008 l -2.78128,-15.74992 c -0.7696,-4.36464 -4.91664,-7.2696 -9.28128,-6.5 l -17.31248,3.0624 c -3.45808,-9.188 -8.34672,-17.73904 -14.5,-25.18736 l 11.28128,-13.4376 c 2.8488,-3.39504 2.4264,-8.43232 -0.9696,-11.28128 L 225.87264,49.06286 c -3.3952,-2.84896 -8.43248,-2.4264 -11.28128,0.968 l -11.31248,13.5 c -8.35696,-4.76256 -17.52688,-8.18848 -27.28128,-10 V 35.9995 c 0,-4.432 -3.568,-8 -8,-8 z m 8,56 c 31.11744,0 56,24.88256 56,56 0,31.11744 -24.88256,56 -56,56 -31.11744,0 -56,-24.88256 -56,-56 0,-31.11744 24.88256,-56 56,-56 z"
         style="color:#000000;font-style:normal;font-variant:normal;font-weight:normal;font-stretch:normal;font-size:medium;line-height:normal;font-family:sans-serif;font-variant-ligatures:normal;font-variant-position:normal;font-variant-caps:normal;font-variant-numeric:normal;font-variant-alternates:normal;font-feature-settings:normal;text-indent:0;text-align:start;text-decoration:none;text-decoration-line:none;text-decoration-style:solid;text-decoration-color:#000000;letter-spacing:normal;word-spacing:normal;text-transform:none;writing-mode:lr-tb;direction:ltr;text-orientation:mixed;dominant-baseline:auto;baseline-shift:baseline;text-anchor:start;white-space:normal;shape-padding:0;clip-rule:nonzero;display:inline;overflow:visible;visibility:visible;opacity:1;isolation:auto;mix-blend-mode:normal;color-interpolation:sRGB;color-interpolation-filters:linearRGB;solid-color:#000000;solid-opacity:1;vector-effect:none;fill:url(#linearGradient4622);fill-opacity:1.0;fill-rule:nonzero;stroke:none;stroke-width:1;stroke-linecap:round;stroke-linejoin:round;stroke-miterlimit:4;stroke-dasharray:none;stroke-dashoffset:0;stroke-opacity:1;color-rendering:auto;image-rendering:auto;shape-rendering:auto;text-rendering:auto;enable-background:accumulate"
         inkscape:connector-curvature="0" />
      <path
         inkscape:connector-curvature="0"
         id="path4562"
         d="m 342.49994,47.015583 c -0.831,0 -1.5,0.669 -1.5,1.5 v 3.28711 c -1.8276,0.33939 -3.54923,0.98304 -5.11523,1.875 l -2.1211,-2.52539 c -0.53415,-0.6366 -1.47863,-0.72168 -2.11523,-0.1875 l -2.29688,1.92773 c -0.6366,0.53418 -0.71564,1.47867 -0.18164,2.11524 l 2.11524,2.51953 -0.006,0.006 c -1.15374,1.39656 -2.0645,2.99405 -2.71289,4.7168 l -3.25196,-0.57422 c -0.81837,-0.1443 -1.59007,0.40038 -1.73437,1.21875 l -0.52149,2.95312 c -0.1443,0.8184 0.40038,1.59008 1.21875,1.73438 l 3.22852,0.56836 c 0.015,1.88268 0.35878,3.68746 0.96094,5.37305 l -2.85352,1.64648 c -0.7197,0.4155 -0.96628,1.32525 -0.55078,2.04492 l 1.5,2.60156 c 0.4155,0.71968 1.33108,0.96043 2.05078,0.54493 l 2.85938,-1.65235 c 1.18542,1.38579 2.59519,2.56412 4.17187,3.49805 l -1.13086,3.10547 c -0.2841,0.7809 0.1155,1.63765 0.89649,1.92188 l 2.81836,1.02539 c 0.7809,0.2841 1.63765,-0.1155 1.92187,-0.89649 l 1.125,-3.09375 c 0.88845,0.1494 1.79527,0.24609 2.72461,0.24609 0.92934,0 1.83616,-0.0967 2.72461,-0.24609 l 1.125,3.09375 c 0.2841,0.78087 1.14097,1.18071 1.92187,0.89649 l 2.81836,-1.02539 c 0.7809,-0.2841 1.18071,-1.14098 0.89649,-1.92188 l -1.13086,-3.10547 c 1.57557,-0.93369 2.98714,-2.11307 4.17187,-3.49805 l 2.85938,1.65235 c 0.71967,0.4155 1.63528,0.1749 2.05078,-0.54493 l 1.5,-2.60156 c 0.4155,-0.71967 0.16889,-1.62942 -0.55078,-2.04492 l -2.85352,-1.64648 c 0.60216,-1.68559 0.94552,-3.49037 0.96094,-5.37305 l 3.22852,-0.56836 c 0.81837,-0.1443 1.36305,-0.91598 1.21875,-1.73438 l -0.52149,-2.95312 c -0.1443,-0.81837 -0.92186,-1.36305 -1.74023,-1.21875 l -3.24596,0.57418 c -0.64839,-1.72275 -1.56501,-3.3261 -2.71875,-4.72266 l 2.11524,-2.51953 c 0.53415,-0.63657 0.45511,-1.58106 -0.18164,-2.11524 l -2.29688,-1.92773 c -0.6366,-0.53418 -1.58108,-0.45481 -2.11523,0.18164 l -2.1211,2.53125 c -1.56693,-0.89298 -3.28628,-1.53534 -5.11523,-1.875 v -3.28711 c 0,-0.831 -0.669,-1.5 -1.5,-1.5 z m 1.5,10.98438 a 10,10 0 0 1 10,10 10,10 0 0 1 -10,10 10,10 0 0 1 -10,-10 10,10 0 0 1 10,-10 z"
         style="color:#000000;font-style:normal;font-variant:normal;font-weight:normal;font-stretch:normal;font-size:medium;line-height:normal;font-family:sans-serif;font-variant-ligatures:normal;font-variant-position:normal;font-variant-caps:normal;font-variant-numeric:normal;font-variant-alternates:normal;font-feature-settings:normal;text-indent:0;text-align:start;text-decoration:none;text-decoration-line:none;text-decoration-style:solid;text-decoration-color:#000000;letter-spacing:normal;word-spacing:normal;text-transform:none;writing-mode:lr-tb;direction:ltr;text-orientation:mixed;dominant-baseline:auto;baseline-shift:baseline;text-anchor:start;white-space:normal;shape-padding:0;clip-rule:nonzero;display:inline;overflow:visible;visibility:visible;opacity:1;isolation:auto;mix-blend-mode:normal;color-interpolation:sRGB;color-interpolation-filters:linearRGB;solid-color:#000000;solid-opacity:1;vector-effect:none;fill:url(#linearGradient4624);fill-opacity:1.0;fill-rule:nonzero;stroke:none;stroke-width:1;stroke-linecap:round;stroke-linejoin:round;stroke-miterlimit:4;stroke-dasharray:none;stroke-dashoffset:0;stroke-opacity:1;color-rendering:auto;image-rendering:auto;shape-rendering:auto;text-rendering:auto;enable-background:accumulate" />
      <path
         inkscape:connector-curvature="0"
         id="path4572"
         d="m 331.75,174.00781 c -0.4155,0 -0.75,0.3345 -0.75,0.75 v 1.64454 c -0.9138,0.16969 -1.77364,0.49151 -2.55664,0.9375 l -1.0625,-1.26367 c -0.26708,-0.3183 -0.73834,-0.36084 -1.05664,-0.0937 l -1.14844,0.96485 c -0.3183,0.26709 -0.35872,0.73834 -0.0918,1.05663 l 1.0586,1.25977 -0.004,0.004 c -0.57687,0.69828 -1.03127,1.49604 -1.35547,2.35742 l -1.62695,-0.28711 c -0.40918,-0.0721 -0.79504,0.20019 -0.86719,0.60938 l -0.25976,1.47656 c -0.0721,0.4092 0.20019,0.79504 0.60937,0.86719 l 1.61328,0.28515 c 0.007,0.94134 0.17939,1.84276 0.48047,2.68555 l -1.42578,0.82422 c -0.35985,0.20775 -0.48314,0.66165 -0.27539,1.02148 l 0.75,1.30078 c 0.20775,0.35984 0.66554,0.48119 1.02539,0.27344 l 1.42969,-0.82617 c 0.59271,0.69289 1.2976,1.28108 2.08594,1.74805 l -0.56641,1.55273 c -0.14205,0.39045 0.0587,0.81881 0.44922,0.96094 l 1.4082,0.51367 c 0.39045,0.14205 0.81883,-0.0587 0.96094,-0.44922 l 0.5625,-1.54687 c 0.44422,0.0747 0.89861,0.12304 1.36328,0.12304 0.46467,0 0.9171,-0.0483 1.36133,-0.12304 l 0.5625,1.54687 c 0.14205,0.39044 0.57049,0.59133 0.96094,0.44922 l 1.41015,-0.51367 c 0.39045,-0.14205 0.58938,-0.57049 0.44727,-0.96094 l -0.56446,-1.55273 c 0.78779,-0.46685 1.49358,-1.05556 2.08594,-1.74805 l 1.42969,0.82617 c 0.35983,0.20775 0.81764,0.0865 1.02539,-0.27344 l 0.75,-1.30078 c 0.20775,-0.35983 0.0845,-0.81373 -0.27539,-1.02148 l -1.42774,-0.82422 c 0.30109,-0.84279 0.47276,-1.74421 0.48047,-2.68555 l 1.61524,-0.28515 c 0.40918,-0.0721 0.68152,-0.45799 0.60937,-0.86719 l -0.26172,-1.47656 c -0.0722,-0.40919 -0.45995,-0.68153 -0.86914,-0.60938 l -1.62304,0.28711 c -0.3242,-0.86137 -0.78251,-1.66305 -1.35938,-2.36133 l 1.05664,-1.25976 c 0.26708,-0.31829 0.22847,-0.78955 -0.0898,-1.05664 l -1.14844,-0.96485 c -0.3183,-0.26709 -0.79152,-0.22637 -1.05859,0.0918 l -1.06055,1.26563 c -0.78346,-0.4465 -1.64216,-0.76768 -2.55664,-0.9375 v -1.64454 c 0,-0.4155 -0.3345,-0.75 -0.75,-0.75 z M 332.5,179 a 5.5,5.5 0 0 1 5.5,5.5 5.5,5.5 0 0 1 -5.5,5.5 5.5,5.5 0 0 1 -5.5,-5.5 5.5,5.5 0 0 1 5.5,-5.5 z"
         style="color:#000000;font-style:normal;font-variant:normal;font-weight:normal;font-stretch:normal;font-size:medium;line-height:normal;font-family:sans-serif;font-variant-ligatures:normal;font-variant-position:normal;font-variant-caps:normal;font-variant-numeric:normal;font-variant-alternates:normal;font-feature-settings:normal;text-indent:0;text-align:start;text-decoration:none;text-decoration-line:none;text-decoration-style:solid;text-decoration-color:#000000;letter-spacing:normal;word-spacing:normal;text-transform:none;writing-mode:lr-tb;direction:ltr;text-orientation:mixed;dominant-baseline:auto;baseline-shift:baseline;text-anchor:start;white-space:normal;shape-padding:0;clip-rule:nonzero;display:inline;overflow:visible;visibility:visible;opacity:1;isolation:auto;mix-blend-mode:normal;color-interpolation:sRGB;color-interpolation-filters:linearRGB;solid-color:#000000;solid-opacity:1;vector-effect:none;fill:url(#linearGradient4626);fill-opacity:1.0;fill-rule:nonzero;stroke:none;stroke-width:1;stroke-linecap:round;stroke-linejoin:round;stroke-miterlimit:4;stroke-dasharray:none;stroke-dashoffset:0;stroke-opacity:1;color-rendering:auto;image-rendering:auto;shape-rendering:auto;text-rendering:auto;enable-background:accumulate" />
      <path
         style="color:#000000;font-style:normal;font-variant:normal;font-weight:normal;font-stretch:normal;font-size:medium;line-height:normal;font-family:sans-serif;font-variant-ligatures:normal;font-variant-position:normal;font-variant-caps:normal;font-variant-numeric:normal;font-variant-alternates:normal;font-feature-settings:normal;text-indent:0;text-align:start;text-decoration:none;text-decoration-line:none;text-decoration-style:solid;text-decoration-color:#000000;letter-spacing:normal;word-spacing:normal;text-transform:none;writing-mode:lr-tb;direction:ltr;text-orientation:mixed;dominant-baseline:auto;baseline-shift:baseline;text-anchor:start;white-space:normal;shape-padding:0;clip-rule:nonzero;display:inline;overflow:visible;visibility:visible;opacity:0.6;isolation:auto;mix-blend-mode:normal;color-interpolation:sRGB;color-interpolation-filters:linearRGB;solid-color:#000000;solid-opacity:1;vector-effect:none;fill:#ffffff;fill-opacity:1;fill-rule:nonzero;stroke:none;stroke-width:2;stroke-linecap:round;stroke-linejoin:round;stroke-miterlimit:4;stroke-dasharray:none;stroke-dashoffset:0;stroke-opacity:1;color-rendering:auto;image-rendering:auto;shape-rendering:auto;text-rendering:auto;enable-background:accumulate"
         d="M 327.5 240.5 C 327.223 240.5 327 240.723 327 241 L 327 242 C 327 241.723 327.223 241.5 327.5 241.5 L 328.5 241.5 C 328.777 241.5 329 241.723 329 242 L 329 241 C 329 240.723 328.777 240.5 328.5 240.5 L 327.5 240.5 z M 324.24805 241.70117 C 324.12056 241.68981 323.98891 241.72738 323.88281 241.81641 L 323.11719 242.45898 C 322.90499 242.63704 322.87864 242.95187 323.05664 243.16406 L 323.22656 243.36719 L 323.88281 242.81641 C 324.09501 242.63835 324.40984 242.66671 324.58789 242.87891 L 325.29492 243.7207 C 325.81692 243.42338 326.3908 243.20883 327 243.0957 L 327 242.0957 C 326.3908 242.20883 325.81692 242.42338 325.29492 242.7207 L 324.58789 241.87891 C 324.49887 241.77281 324.37554 241.71253 324.24805 241.70117 z M 331.75195 241.70117 C 331.62446 241.71204 331.50113 241.77088 331.41211 241.87695 L 330.70508 242.7207 C 330.18277 242.42304 329.60965 242.20892 329 242.0957 L 329 243.0957 C 329.60965 243.20892 330.18277 243.42304 330.70508 243.7207 L 331.41211 242.87695 C 331.59016 242.6648 331.90499 242.63835 332.11719 242.81641 L 332.77344 243.36719 L 332.94336 243.16406 C 333.12141 242.95187 333.09506 242.63704 332.88281 242.45898 L 332.11719 241.81641 C 332.01109 241.72738 331.87944 241.69031 331.75195 241.70117 z M 323.38281 244.55273 C 323.1772 244.87673 322.99246 245.21415 322.85547 245.57812 L 321.77148 245.38672 C 321.49869 245.33862 321.24146 245.52018 321.19336 245.79297 L 321.01953 246.77734 C 320.99332 246.92601 321.03915 247.06574 321.12695 247.17383 L 321.19336 246.79297 C 321.24146 246.52018 321.49869 246.33862 321.77148 246.38672 L 322.85547 246.57812 C 323.0716 246.00387 323.37519 245.47138 323.75977 245.00586 L 323.76172 245.00391 L 323.38281 244.55273 z M 332.61719 244.55273 L 332.23828 245.00391 C 332.62286 245.46943 332.9284 246.00387 333.14453 246.57812 L 334.22656 246.38672 C 334.49935 246.33862 334.75854 246.52018 334.80664 246.79297 L 334.87305 247.17383 C 334.96085 247.06574 335.00668 246.92601 334.98047 246.77734 L 334.80664 245.79297 C 334.75854 245.52018 334.49935 245.33862 334.22656 245.38672 L 333.14453 245.57812 C 333.00787 245.21501 332.82273 244.87665 332.61719 244.55273 z M 324.54883 248 C 324.52546 248.16457 324.5 248.32858 324.5 248.5 C 324.5 250.44484 326.05516 252 328 252 C 329.94484 252 331.5 250.44484 331.5 248.5 C 331.5 248.32858 331.47454 248.16457 331.45117 248 C 331.20944 249.70252 329.77342 251 328 251 C 326.22658 251 324.79056 249.70252 324.54883 248 z M 333.4082 249.46875 C 333.35388 249.76633 333.27762 250.05634 333.17773 250.33594 L 334.12891 250.88477 L 334.3125 250.56641 C 334.451 250.32652 334.3688 250.02327 334.12891 249.88477 L 333.4082 249.46875 z M 322.58984 249.4707 L 321.87109 249.88477 C 321.63119 250.02327 321.549 250.32652 321.6875 250.56641 L 321.87109 250.88477 L 322.82227 250.33594 C 322.72259 250.05693 322.64417 249.76762 322.58984 249.4707 z M 324.92578 253.02539 L 324.83789 253.26562 C 324.76228 253.47345 324.83635 253.6922 325 253.82227 L 325.21484 253.23047 C 325.1126 253.16991 325.02367 253.09203 324.92578 253.02539 z M 331.07422 253.02539 C 330.97634 253.09204 330.88733 253.16992 330.78516 253.23047 L 331 253.82227 C 331.16365 253.69221 331.23775 253.47345 331.16211 253.26562 L 331.07422 253.02539 z "
         transform="translate(0,-20)"
         id="path4669" />
      <path
         style="color:#000000;font-style:normal;font-variant:normal;font-weight:normal;font-stretch:normal;font-size:medium;line-height:normal;font-family:sans-serif;font-variant-ligatures:normal;font-variant-position:normal;font-variant-caps:normal;font-variant-numeric:normal;font-variant-alternates:normal;font-feature-settings:normal;text-indent:0;text-align:start;text-decoration:none;text-decoration-line:none;text-decoration-style:solid;text-decoration-color:#000000;letter-spacing:normal;word-spacing:normal;text-transform:none;writing-mode:lr-tb;direction:ltr;text-orientation:mixed;dominant-baseline:auto;baseline-shift:baseline;text-anchor:start;white-space:normal;shape-padding:0;clip-rule:nonzero;display:inline;overflow:visible;visibility:visible;opacity:0.6;isolation:auto;mix-blend-mode:normal;color-interpolation:sRGB;color-interpolation-filters:linearRGB;solid-color:#000000;solid-opacity:1;vector-effect:none;fill:#f2f2f2;fill-opacity:1;fill-rule:nonzero;stroke:none;stroke-width:2;stroke-linecap:round;stroke-linejoin:round;stroke-miterlimit:4;stroke-dasharray:none;stroke-dashoffset:0;stroke-opacity:1;color-rendering:auto;image-rendering:auto;shape-rendering:auto;text-rendering:auto;enable-background:accumulate"
         d="M 335 138 C 334.446 138 334 138.446 334 139 L 334 140 C 334 139.446 334.446 139 335 139 L 337 139 C 337.554 139 338 139.446 338 140 L 338 139 C 338 138.446 337.554 138 337 138 L 335 138 z M 343.50391 140.40039 C 343.24893 140.42212 343.00227 140.54176 342.82422 140.75391 L 341.41016 142.44141 C 340.36554 141.84609 339.2193 141.41785 338 141.19141 L 338 142.19141 C 339.2193 142.41785 340.36554 142.84609 341.41016 143.44141 L 342.82422 141.75391 C 343.18032 141.32961 343.80998 141.27669 344.23438 141.63281 L 345.76562 142.91797 C 345.85318 142.99142 345.9151 143.0813 345.9707 143.17383 C 346.20779 142.76113 346.14335 142.23485 345.76562 141.91797 L 344.23438 140.63281 C 344.02218 140.45475 343.75888 140.37866 343.50391 140.40039 z M 328.49609 140.40234 C 328.24112 140.37963 327.97782 140.45475 327.76562 140.63281 L 326.23438 141.91797 C 325.85674 142.23485 325.79228 142.76113 326.0293 143.17383 C 326.08489 143.0813 326.14684 142.99142 326.23438 142.91797 L 327.76562 141.63281 C 328.19002 141.27669 328.81968 141.33341 329.17578 141.75781 L 330.58984 143.44141 C 331.63384 142.84677 332.7816 142.41767 334 142.19141 L 334 141.19141 C 332.7816 141.41767 331.63384 141.84677 330.58984 142.44141 L 329.17578 140.75781 C 328.99773 140.54561 328.75107 140.42506 328.49609 140.40234 z M 327.125 145.5332 C 326.54283 146.33456 326.06522 147.21493 325.71094 148.15625 L 323.54297 147.77344 C 322.99739 147.67724 322.48292 148.04036 322.38672 148.58594 L 322.03906 150.55469 C 322.00441 150.7512 322.0456 150.93708 322.11719 151.10742 L 322.38672 149.58594 C 322.48292 149.04036 322.99739 148.67724 323.54297 148.77344 L 325.71094 149.15625 C 326.1432 148.00775 326.75037 146.94276 327.51953 146.01172 L 327.52344 146.00781 L 327.125 145.5332 z M 344.87305 145.53516 L 344.47656 146.00781 C 345.24572 146.93885 345.8568 148.00775 346.28906 149.15625 L 348.45312 148.77344 C 348.99871 148.67724 349.51708 149.04036 349.61328 149.58594 L 349.88281 151.10742 C 349.9544 150.93708 349.99559 150.7512 349.96094 150.55469 L 349.61328 148.58594 C 349.51708 148.04036 348.99871 147.67724 348.45312 147.77344 L 346.28906 148.15625 C 345.93534 147.21642 345.45489 146.33645 344.87305 145.53516 z M 329.02539 152.5 C 329.01382 152.66599 329 152.83087 329 153 C 329 156.88968 332.11032 160 336 160 C 339.88968 160 343 156.88968 343 153 C 343 152.83087 342.98618 152.66599 342.97461 152.5 C 342.72074 156.15215 339.72101 159 336 159 C 332.27899 159 329.27926 156.15215 329.02539 152.5 z M 325.38086 155.82422 L 323.74219 156.76953 C 323.26239 157.04653 323.098 157.65303 323.375 158.13281 L 323.38477 158.15039 C 323.46998 158.00022 323.58097 157.8626 323.74219 157.76953 L 325.64453 156.67188 C 325.54534 156.39422 325.45831 156.11116 325.38086 155.82422 z M 346.61914 155.82422 C 346.54171 156.11116 346.45466 156.39422 346.35547 156.67188 L 348.25781 157.76953 C 348.41902 157.8626 348.53002 158.00022 348.61523 158.15039 L 348.625 158.13281 C 348.902 157.65303 348.73759 157.04653 348.25781 156.76953 L 346.61914 155.82422 z M 330.13477 162.26953 L 329.67578 163.53125 C 329.57381 163.81153 329.61333 164.10161 329.74414 164.34375 L 330.42969 162.46094 C 330.3286 162.40106 330.23376 162.3324 330.13477 162.26953 z M 341.86523 162.26953 C 341.7661 162.33252 341.67151 162.40097 341.57031 162.46094 L 342.25586 164.34375 C 342.38669 164.1016 342.42623 163.81153 342.32422 163.53125 L 341.86523 162.26953 z "
         transform="translate(0,-20)"
         id="path4671" />
      <path
         style="color:#000000;font-style:normal;font-variant:normal;font-weight:normal;font-stretch:normal;font-size:medium;line-height:normal;font-family:sans-serif;font-variant-ligatures:normal;font-variant-position:normal;font-variant-caps:normal;font-variant-numeric:normal;font-variant-alternates:normal;font-feature-settings:normal;text-indent:0;text-align:start;text-decoration:none;text-decoration-line:none;text-decoration-style:solid;text-decoration-color:#000000;letter-spacing:normal;word-spacing:normal;text-transform:none;writing-mode:lr-tb;direction:ltr;text-orientation:mixed;dominant-baseline:auto;baseline-shift:baseline;text-anchor:start;white-space:normal;shape-padding:0;clip-rule:nonzero;display:inline;overflow:visible;visibility:visible;opacity:0.6;isolation:auto;mix-blend-mode:normal;color-interpolation:sRGB;color-interpolation-filters:linearRGB;solid-color:#000000;solid-opacity:1;vector-effect:none;fill:#ffffff;fill-opacity:1;fill-rule:nonzero;stroke:none;stroke-width:2;stroke-linecap:round;stroke-linejoin:round;stroke-miterlimit:4;stroke-dasharray:none;stroke-dashoffset:0;stroke-opacity:1;color-rendering:auto;image-rendering:auto;shape-rendering:auto;text-rendering:auto;enable-background:accumulate"
         d="M 342.5 67.015625 C 341.669 67.015625 341 67.684625 341 68.515625 L 341 69.515625 C 341 68.684625 341.669 68.015625 342.5 68.015625 L 345.5 68.015625 C 346.331 68.015625 347 68.684625 347 69.515625 L 347 68.515625 C 347 67.684625 346.331 67.015625 345.5 67.015625 L 342.5 67.015625 z M 355.25586 70.617188 C 354.8734 70.649814 354.5034 70.828259 354.23633 71.146484 L 352.11523 73.677734 C 350.5483 72.784754 348.82895 72.142394 347 71.802734 L 347 72.802734 C 348.82895 73.142394 350.5483 73.784754 352.11523 74.677734 L 354.23633 72.146484 C 354.77048 71.510034 355.71496 71.430664 356.35156 71.964844 L 358.64844 73.892578 C 358.86175 74.071529 359.00575 74.298926 359.0918 74.542969 C 359.29656 73.969366 359.14323 73.30767 358.64844 72.892578 L 356.35156 70.964844 C 356.03326 70.697754 355.63832 70.584561 355.25586 70.617188 z M 332.74414 70.619141 C 332.36168 70.585068 331.96674 70.697754 331.64844 70.964844 L 329.35156 72.892578 C 328.85757 73.307091 328.70285 73.967966 328.90625 74.541016 C 328.99235 74.297457 329.13867 74.071222 329.35156 73.892578 L 331.64844 71.964844 C 332.28504 71.430664 333.22952 71.515744 333.76367 72.152344 L 335.88477 74.677734 C 337.45077 73.785774 339.1724 73.142124 341 72.802734 L 341 71.802734 C 339.1724 72.142124 337.45077 72.785774 335.88477 73.677734 L 333.76367 71.152344 C 333.4966 70.834044 333.1266 70.653213 332.74414 70.619141 z M 330.88672 78.052734 C 329.92262 79.323455 329.13715 80.733559 328.56641 82.25 L 325.31445 81.675781 C 324.49608 81.531481 323.72438 82.076161 323.58008 82.894531 L 323.05859 85.847656 C 323.01511 86.094265 323.0391 86.334404 323.10938 86.556641 L 323.58008 83.894531 C 323.72438 83.076161 324.49608 82.531481 325.31445 82.675781 L 328.56641 83.25 C 329.2148 81.52725 330.12556 79.929763 331.2793 78.533203 L 331.28516 78.527344 L 330.88672 78.052734 z M 357.11328 78.054688 L 356.71484 78.527344 C 357.86858 79.923904 358.7852 81.52725 359.43359 83.25 L 362.67969 82.675781 C 363.49806 82.531481 364.27562 83.076161 364.41992 83.894531 L 364.88867 86.552734 C 364.95803 86.331463 364.98466 86.092959 364.94141 85.847656 L 364.41992 82.894531 C 364.27562 82.076161 363.49806 81.531481 362.67969 81.675781 L 359.43359 82.25 C 358.86393 80.736413 358.07595 79.324673 357.11328 78.054688 z M 353.97852 88.414062 A 10 10 0 0 1 344 98 A 10 10 0 0 1 334.02148 88.585938 A 10 10 0 0 0 334 89 A 10 10 0 0 0 344 99 A 10 10 0 0 0 354 89 A 10 10 0 0 0 353.97852 88.414062 z M 328.20117 93.675781 L 325.61328 95.169922 C 324.97269 95.539749 324.71082 96.300307 324.95312 96.970703 C 325.06821 96.646112 325.28957 96.356805 325.61328 96.169922 L 328.4668 94.523438 C 328.3675 94.245471 328.2861 93.960045 328.20117 93.675781 z M 359.79883 93.675781 C 359.71391 93.960045 359.6325 94.245471 359.5332 94.523438 L 362.38672 96.169922 C 362.71041 96.356805 362.93179 96.646112 363.04688 96.970703 C 363.28917 96.300307 363.02728 95.539749 362.38672 95.169922 L 359.79883 93.675781 z M 335.34961 103.01562 L 334.51367 105.3125 C 334.39029 105.65163 334.40197 106.00373 334.51172 106.31836 C 334.51243 106.31638 334.51295 106.31447 334.51367 106.3125 L 335.64453 103.20703 C 335.54346 103.14716 335.4493 103.07749 335.34961 103.01562 z M 352.65039 103.01562 C 352.55075 103.07749 352.45647 103.14718 352.35547 103.20703 L 353.48633 106.3125 C 353.48705 106.31448 353.48757 106.31638 353.48828 106.31836 C 353.59805 106.00371 353.60976 105.65163 353.48633 105.3125 L 352.65039 103.01562 z "
         transform="translate(0,-20)"
         id="path4673" />
      <path
         style="color:#000000;font-style:normal;font-variant:normal;font-weight:normal;font-stretch:normal;font-size:medium;line-height:normal;font-family:sans-serif;font-variant-ligatures:normal;font-variant-position:normal;font-variant-caps:normal;font-variant-numeric:normal;font-variant-alternates:normal;font-feature-settings:normal;text-indent:0;text-align:start;text-decoration:none;text-decoration-line:none;text-decoration-style:solid;text-decoration-color:#000000;letter-spacing:normal;word-spacing:normal;text-transform:none;writing-mode:lr-tb;direction:ltr;text-orientation:mixed;dominant-baseline:auto;baseline-shift:baseline;text-anchor:start;white-space:normal;shape-padding:0;clip-rule:nonzero;display:inline;overflow:visible;visibility:visible;opacity:0.6;isolation:auto;mix-blend-mode:normal;color-interpolation:sRGB;color-interpolation-filters:linearRGB;solid-color:#000000;solid-opacity:1;vector-effect:none;fill:#ffffff;fill-opacity:1;fill-rule:nonzero;stroke:none;stroke-width:2;stroke-linecap:round;stroke-linejoin:round;stroke-miterlimit:4;stroke-dasharray:none;stroke-dashoffset:0;stroke-opacity:1;color-rendering:auto;image-rendering:auto;shape-rendering:auto;text-rendering:auto;enable-background:accumulate"
         d="M 331.75 194.00781 C 331.3345 194.00781 331 194.34231 331 194.75781 L 331 195.75781 C 331 195.34231 331.3345 195.00781 331.75 195.00781 L 333.25 195.00781 C 333.6655 195.00781 334 195.34231 334 195.75781 L 334 194.75781 C 334 194.34231 333.6655 194.00781 333.25 194.00781 L 331.75 194.00781 z M 338.12695 195.80859 C 337.93548 195.82516 337.75072 195.91513 337.61719 196.07422 L 336.55664 197.33984 C 335.77318 196.89334 334.91448 196.57216 334 196.40234 L 334 197.40234 C 334.91448 197.57216 335.77318 197.89334 336.55664 198.33984 L 337.61719 197.07422 C 337.88426 196.75605 338.35748 196.71533 338.67578 196.98242 L 339.82422 197.94727 C 339.85272 197.97118 339.86663 198.00432 339.89062 198.03125 L 339.91406 198.00391 C 340.18114 197.68562 340.14249 197.21436 339.82422 196.94727 L 338.67578 195.98242 C 338.51663 195.84888 338.31843 195.79203 338.12695 195.80859 z M 326.87109 195.81055 C 326.68011 195.79352 326.48337 195.84885 326.32422 195.98242 L 325.17578 196.94727 C 324.85748 197.21436 324.81706 197.68562 325.08398 198.00391 L 325.10742 198.0332 C 325.13194 198.00551 325.14655 197.97179 325.17578 197.94727 L 326.32422 196.98242 C 326.64252 196.71528 327.11378 196.75787 327.38086 197.07617 L 328.44336 198.33984 C 329.22636 197.89385 330.0862 197.57203 331 197.40234 L 331 196.40234 C 330.0862 196.57203 329.22636 196.89385 328.44336 197.33984 L 327.38086 196.07617 C 327.24732 195.91702 327.06208 195.82758 326.87109 195.81055 z M 325.74414 199.78906 C 325.35091 200.35433 325.02952 200.97056 324.7832 201.625 L 323.15625 201.33789 C 322.74707 201.26579 322.36121 201.53808 322.28906 201.94727 L 322.0293 203.42383 C 321.99852 203.5985 322.04055 203.76463 322.11914 203.9082 L 322.28906 202.94727 C 322.36121 202.53808 322.74707 202.26579 323.15625 202.33789 L 324.7832 202.625 C 325.1074 201.76362 325.5618 200.96586 326.13867 200.26758 L 326.14258 200.26367 L 325.74414 199.78906 z M 339.25391 199.78906 L 338.85742 200.26367 C 339.43429 200.96195 339.8926 201.76363 340.2168 202.625 L 341.83984 202.33789 C 342.24903 202.26574 342.63678 202.53808 342.70898 202.94727 L 342.87891 203.9082 C 342.95778 203.76447 343.00155 203.59879 342.9707 203.42383 L 342.70898 201.94727 C 342.63678 201.53808 342.24903 201.26574 341.83984 201.33789 L 340.2168 201.625 C 339.97099 200.97193 339.64711 200.35446 339.25391 199.78906 z M 327.02539 204.98633 A 5.5 5.5 0 0 0 327 205.5 A 5.5 5.5 0 0 0 332.5 211 A 5.5 5.5 0 0 0 338 205.5 A 5.5 5.5 0 0 0 337.97461 205.01367 A 5.5 5.5 0 0 1 332.5 210 A 5.5 5.5 0 0 1 327.02539 204.98633 z M 324.48242 207.40625 L 323.30664 208.08594 C 322.94679 208.29369 322.8235 208.74759 323.03125 209.10742 L 323.11523 209.25391 C 323.1695 209.19062 323.23 209.13018 323.30664 209.08594 L 324.73242 208.26172 C 324.63294 207.98324 324.55248 207.69685 324.48242 207.40625 z M 340.51562 207.40625 C 340.44564 207.6969 340.36513 207.9832 340.26562 208.26172 L 341.69336 209.08594 C 341.77 209.13018 341.8305 209.19062 341.88477 209.25391 L 341.96875 209.10742 C 342.1765 208.74759 342.05325 208.29369 341.69336 208.08594 L 340.51562 207.40625 z M 328.02734 212.41211 L 327.75586 213.15625 C 327.66664 213.40148 327.72387 213.65478 327.86719 213.84961 L 328.32227 212.60352 C 328.22131 212.54372 328.1255 212.47585 328.02734 212.41211 z M 336.97266 212.41211 C 336.8743 212.47601 336.77886 212.54359 336.67773 212.60352 L 337.13086 213.84961 C 337.27388 213.65473 337.33151 213.40167 337.24219 213.15625 L 336.97266 212.41211 z "
         transform="translate(0,-20)"
         id="path4676" />
      <path
         style="color:#000000;font-style:normal;font-variant:normal;font-weight:normal;font-stretch:normal;font-size:medium;line-height:normal;font-family:sans-serif;font-variant-ligatures:normal;font-variant-position:normal;font-variant-caps:normal;font-variant-numeric:normal;font-variant-alternates:normal;font-feature-settings:normal;text-indent:0;text-align:start;text-decoration:none;text-decoration-line:none;text-decoration-style:solid;text-decoration-color:#000000;letter-spacing:normal;word-spacing:normal;text-transform:none;writing-mode:lr-tb;direction:ltr;text-orientation:mixed;dominant-baseline:auto;baseline-shift:baseline;text-anchor:start;white-space:normal;shape-padding:0;clip-rule:nonzero;display:inline;overflow:visible;visibility:visible;opacity:0.6;isolation:auto;mix-blend-mode:normal;color-interpolation:sRGB;color-interpolation-filters:linearRGB;solid-color:#000000;solid-opacity:1;vector-effect:none;fill:#ffffff;fill-opacity:1;fill-rule:nonzero;stroke:none;stroke-width:1;stroke-linecap:round;stroke-linejoin:round;stroke-miterlimit:4;stroke-dasharray:none;stroke-dashoffset:0;stroke-opacity:1;color-rendering:auto;image-rendering:auto;shape-rendering:auto;text-rendering:auto;enable-background:accumulate"
         d="M 152 48 C 147.568 48 144 51.568 144 56 L 144 57 C 144 52.568 147.568 49 152 49 L 167.99805 49 C 172.43005 49 175.99805 52.568 175.99805 57 L 175.99805 56 C 175.99805 51.568 172.43005 48 167.99805 48 L 152 48 z M 220.79492 67.177734 C 218.48933 67.15313 216.19425 68.1219 214.5918 70.03125 L 203.29492 83.511719 A 88 88 0 0 0 188.80469 76.957031 C 187.8635 76.62789 186.91828 76.30926 185.96289 76.011719 A 88 88 0 0 0 181.20508 74.683594 C 179.8083 74.334385 178.39947 74.015591 176.97656 73.734375 A 88 88 0 0 0 160 72 A 88 88 0 0 0 140.72266 74.212891 C 139.19709 74.557574 137.68791 74.943709 136.19336 75.367188 A 88 88 0 0 0 130.92383 77.050781 C 130.28463 77.276731 129.64806 77.507766 129.01562 77.748047 A 88 88 0 0 0 116.66992 83.472656 L 105.40625 70.0625 C 103.8038 68.1527 101.50872 67.173573 99.203125 67.189453 C 97.409888 67.201804 95.6104 67.81608 94.125 69.0625 L 81.875 79.34375 C 79.858831 81.035546 78.900204 83.498631 79.042969 85.931641 C 79.181579 83.838045 80.135283 81.803571 81.875 80.34375 L 94.125 70.0625 C 97.5202 67.21354 102.55745 67.6673 105.40625 71.0625 L 116.11523 83.8125 A 88 88 0 0 0 77.607422 129.23633 L 60.341797 126.1875 C 55.977157 125.4179 51.861397 128.32286 51.091797 132.6875 L 48.310547 148.4375 C 48.199707 149.06613 48.172048 149.68783 48.207031 150.29688 C 48.22645 150.0119 48.25976 149.72554 48.310547 149.4375 L 51.091797 133.6875 C 51.861397 129.32286 55.977157 126.4179 60.341797 127.1875 L 77.292969 130.18164 A 88 88 0 0 0 72 160 A 88 88 0 0 0 72.021484 160.58594 A 88 88 0 0 1 77.685547 130.25 C 79.665769 124.98862 82.119542 119.95646 84.998047 115.20898 A 88 88 0 0 1 86.173828 113.3125 C 87.121036 111.83698 88.116469 110.39458 89.150391 108.98242 A 88 88 0 0 1 91.542969 105.86719 C 91.749306 105.61132 91.944956 105.34715 92.154297 105.09375 L 92.1875 105.0625 L 92.173828 105.04492 A 88 88 0 0 1 116.71094 84.521484 L 116.71875 84.53125 C 121.31429 81.913726 126.16863 79.713188 131.22266 77.947266 A 88 88 0 0 1 134.56055 76.855469 C 136.02108 76.41046 137.49689 76.004179 138.98828 75.634766 A 88 88 0 0 1 160 73 A 88 88 0 0 1 176.03125 74.539062 C 177.09095 74.736293 178.1419 74.958375 179.1875 75.193359 A 88 88 0 0 1 183.92969 76.404297 C 185.54409 76.864085 187.13577 77.375002 188.71094 77.923828 A 88 88 0 0 1 191.30664 78.873047 C 195.45062 80.46628 199.45406 82.35128 203.2793 84.53125 L 203.32422 84.478516 A 88 88 0 0 1 227.81836 105.05273 L 227.81055 105.0625 C 228.7365 106.18334 229.62407 107.33666 230.49219 108.50586 A 88 88 0 0 1 232.42383 111.20898 C 233.6829 113.0498 234.87567 114.94005 235.99414 116.87891 A 88 88 0 0 1 236.14844 117.14648 C 238.53763 121.32167 240.60075 125.70712 242.31055 130.25 L 242.375 130.23828 A 88 88 0 0 1 247.72461 154.48438 A 88 88 0 0 0 242.67969 130.18555 L 259.62305 127.1875 C 263.98769 126.4179 268.1347 129.32286 268.9043 133.6875 L 271.68555 149.4375 C 271.73633 149.72554 271.76964 150.0119 271.78906 150.29688 C 271.82405 149.68783 271.79639 149.06613 271.68555 148.4375 L 268.9043 132.6875 C 268.1347 128.32286 263.98769 125.4179 259.62305 126.1875 L 242.33594 129.24609 A 88 88 0 0 0 230.39453 107.37305 A 88 88 0 0 0 203.86133 83.837891 L 214.5918 71.03125 C 217.4406 67.63685 222.47785 67.21354 225.87305 70.0625 L 238.12305 80.34375 C 239.86587 81.805833 240.81881 83.844384 240.95508 85.941406 C 241.10111 83.505214 240.1424 81.037817 238.12305 79.34375 L 225.87305 69.0625 C 224.38765 67.81608 222.58816 67.196871 220.79492 67.177734 z M 247.72461 154.48438 A 88 88 0 0 1 247.83594 156.72656 A 88 88 0 0 0 247.72461 154.48438 z M 247.83594 156.72656 A 88 88 0 0 1 247.97852 160.41406 A 88 88 0 0 0 248 160 A 88 88 0 0 0 247.83594 156.72656 z M 104.02148 160.41602 A 56 56 0 0 0 104.01562 160.5957 C 104.0153 160.56361 104.012 160.53211 104.01172 160.5 C 104.01028 160.66738 104 160.83226 104 161 C 104 190.69935 126.67101 214.70249 155.79102 216.83008 A 56 56 0 0 0 156.32812 216.86914 C 157.54277 216.94642 158.76454 217 160 217 C 189.69935 217 213.70249 194.32899 215.83008 165.20898 A 56 56 0 0 0 215.86914 164.67188 C 215.94642 163.45723 216 162.23546 216 161 C 216 160.83226 215.98972 160.66738 215.98828 160.5 C 215.9878 160.55569 215.98306 160.61036 215.98242 160.66602 A 56 56 0 0 0 215.97852 160.58398 A 56 56 0 0 1 163.52344 215.88086 C 163.42216 215.88704 163.32213 215.89669 163.2207 215.90234 A 56 56 0 0 1 160 216 A 56 56 0 0 1 104.02148 160.41602 z M 104.08398 162.69727 A 56 56 0 0 0 104.13672 163.7168 C 104.11492 163.37824 104.09985 163.03751 104.08398 162.69727 z M 76.873047 189.53711 L 61.935547 198.15625 C 59.224979 199.72113 57.780477 202.60113 57.941406 205.50977 C 58.123063 202.95645 59.536547 200.54125 61.935547 199.15625 L 77.154297 190.375 C 77.055354 190.09804 76.969363 189.81527 76.873047 189.53711 z M 243.12305 189.53711 C 243.02674 189.81527 242.94074 190.09804 242.8418 190.375 L 258.06055 199.15625 C 260.45945 200.54125 261.87305 202.95645 262.05469 205.50977 C 262.21563 202.60113 260.771 199.72113 258.06055 198.15625 L 243.12305 189.53711 z M 115.13867 236.50391 L 109.4043 252.25 C 109.0123 253.32747 108.8693 254.43215 108.9375 255.50391 C 108.98446 254.75301 109.13333 253.99479 109.4043 253.25 L 115.43555 236.6875 C 115.3353 236.62812 115.23866 236.56365 115.13867 236.50391 z M 204.85742 236.50391 C 204.75745 236.56367 204.66076 236.62811 204.56055 236.6875 L 210.5918 253.25 C 210.86313 253.99549 211.01372 254.75424 211.06055 255.50586 C 211.12903 254.43349 210.98418 253.32807 210.5918 252.25 L 204.85742 236.50391 z "
         transform="translate(0,-20)"
         id="path4696" />
    </g>
  </g>
  <path
     style="opacity:0.1;fill:#000000;fill-opacity:1;stroke:none;stroke-width:2;stroke-linecap:round;stroke-linejoin:miter;stroke-miterlimit:4;stroke-dasharray:none;stroke-dashoffset:0;stroke-opacity:1"
     d="M 160,248 A 88,88 0 0 1 72,160 88,88 0 0 1 72.021484,159.41406 88,88 0 0 0 160,247 88,88 0 0 0 247.97852,159.58594 88,88 0 0 1 248,160 88,88 0 0 1 160,248 Z M 104.02148,159.58398 A 56,56 0 0 1 104,159 a 56,56 0 0 1 56,-56 56,56 0 0 1 56,56 56,56 0 0 1 -0.0215,0.41602 A 56,56 0 0 0 160,104 56,56 0 0 0 104.02148,159.58398 Z"
     id="path4739"
     inkscape:connector-curvature="0" />
</svg>
