<?xml version="1.0" encoding="UTF-8" standalone="no"?>
<!-- Created with Inkscape (http://www.inkscape.org/) -->

<svg
   xmlns:dc="http://purl.org/dc/elements/1.1/"
   xmlns:cc="http://creativecommons.org/ns#"
   xmlns:rdf="http://www.w3.org/1999/02/22-rdf-syntax-ns#"
   xmlns:svg="http://www.w3.org/2000/svg"
   xmlns="http://www.w3.org/2000/svg"
   xmlns:xlink="http://www.w3.org/1999/xlink"
   xmlns:sodipodi="http://sodipodi.sourceforge.net/DTD/sodipodi-0.dtd"
   xmlns:inkscape="http://www.inkscape.org/namespaces/inkscape"
   inkscape:export-ydpi="96"
   inkscape:export-xdpi="96"
   inkscape:export-filename="Template.png"
   width="400"
   height="320"
   id="svg11300"
   sodipodi:version="0.32"
   inkscape:version="0.92.0 r"
   sodipodi:docname="preferences-system.svg"
   inkscape:output_extension="org.inkscape.output.svg.inkscape"
   version="1.0"
   style="display:inline;enable-background:new"
   viewBox="0 0 400 320">
  <title
     id="title4162">Solus Icon Template</title>
  <defs
     id="defs3">
    <linearGradient
       inkscape:collect="always"
       id="linearGradient4665">
      <stop
         style="stop-color:#ffffff;stop-opacity:1;"
         offset="0"
         id="stop4661" />
      <stop
         style="stop-color:#ffffff;stop-opacity:0;"
         offset="1"
         id="stop4663" />
    </linearGradient>
    <linearGradient
       inkscape:collect="always"
       id="linearGradient4502">
      <stop
         id="stop4500"
         offset="0"
         style="stop-color:#9da6b3;stop-opacity:1" />
      <stop
         id="stop4498"
         offset="1"
         style="stop-color:#4f555d;stop-opacity:1" />
    </linearGradient>
    <linearGradient
       inkscape:collect="always"
       xlink:href="#linearGradient4502"
       id="linearGradient4574"
       x1="326"
       y1="184"
       x2="338"
       y2="184"
       gradientUnits="userSpaceOnUse"
       gradientTransform="matrix(0,-1.1666667,-1.1666667,0,546.6667,571.33337)" />
    <radialGradient
       inkscape:collect="always"
       xlink:href="#linearGradient4502"
       id="radialGradient4584"
       cx="332"
       cy="179.04439"
       fx="332"
       fy="179.04439"
       r="10.90234"
       gradientTransform="matrix(2.0179159,1.3140069e-6,-1.1945511e-6,1.8344681,-337.94788,-129.45167)"
       gradientUnits="userSpaceOnUse" />
    <linearGradient
       inkscape:collect="always"
       xlink:href="#linearGradient4502"
       id="linearGradient4608"
       gradientUnits="userSpaceOnUse"
       gradientTransform="matrix(0,-12.303031,-12.303031,0,2423.758,4244.6065)"
       x1="323.54681"
       y1="184.00003"
       x2="339.80298"
       y2="184.00003" />
    <linearGradient
       inkscape:collect="always"
       xlink:href="#linearGradient4502"
       id="linearGradient4623"
       x1="160"
       y1="28"
       x2="160"
       y2="252"
       gradientUnits="userSpaceOnUse"
       gradientTransform="matrix(1.0344827,0,0,1.0344827,-5.517195,-4.827559)" />
    <linearGradient
       inkscape:collect="always"
       xlink:href="#linearGradient4665"
       id="linearGradient4667"
       x1="87"
       y1="160"
       x2="160"
       y2="160"
       gradientUnits="userSpaceOnUse"
       gradientTransform="matrix(0,-0.99305556,0.99305556,0,1.1111111,298.88889)" />
    <clipPath
       clipPathUnits="userSpaceOnUse"
       id="clipPath4673">
      <path
         style="display:inline;opacity:1;fill:#d20082;fill-opacity:1;stroke:none;stroke-width:0.99999994;stroke-linecap:round;stroke-linejoin:miter;stroke-miterlimit:4;stroke-dasharray:none;stroke-dashoffset:0;stroke-opacity:1;enable-background:new"
         d="m 130.99996,24.000015 -1.07416,3.081804 -8.52389,24.455859 c -3.32498,1.40592 -6.59471,2.986895 -9.7421,4.757793 -3.12431,1.804222 -6.13809,3.769051 -9.04199,5.911255 l -28.587995,-5.31396 -29.000001,50.235064 19.010608,22.07955 c -0.809891,7.1611 -0.816218,14.40161 -0.02109,21.56461 l -18.969481,22.10022 29.000002,50.23506 28.629217,-5.37575 c 5.80665,4.26964 12.07392,7.89527 18.68117,10.77207 l 9.63971,27.49644 h 58 l 9.61862,-27.53767 c 3.32498,-1.40592 6.57403,-2.98689 9.72153,-4.75779 3.1242,-1.80422 6.13809,-3.76905 9.04199,-5.91126 l 28.58799,5.33453 29.00001,-50.23507 -19.01061,-22.10011 c 0.80989,-7.1611 0.81622,-14.40161 0.0211,-21.56461 l 18.96948,-22.10022 -29,-50.235064 -28.62922,5.375756 C 211.5142,57.998878 205.24704,54.373245 198.63968,51.496445 l -9.63971,-27.49643 z m 29,63.272735 c 29.12043,0 52.72727,23.60684 52.72727,52.72727 0,29.12043 -23.60684,52.72727 -52.72727,52.72727 -29.12043,0 -52.72728,-23.60684 -52.72728,-52.72727 0,-29.12043 23.60685,-52.72727 52.72728,-52.72727 z"
         id="path4675"
         inkscape:connector-curvature="0"
         sodipodi:nodetypes="ccccccccccccccccccccccccccccsssss" />
    </clipPath>
    <filter
       inkscape:collect="always"
       style="color-interpolation-filters:sRGB"
       id="filter4738"
       x="-0.012053699"
       width="1.0241074"
       y="-0.011946777"
       height="1.0238936">
      <feGaussianBlur
         inkscape:collect="always"
         stdDeviation="1.1946777"
         id="feGaussianBlur4740" />
    </filter>
  </defs>
  <sodipodi:namedview
     stroke="#ef2929"
     fill="#f57900"
     id="base"
     pagecolor="#ffffff"
     bordercolor="#666666"
     borderopacity="0.25490196"
     inkscape:pageopacity="0"
     inkscape:pageshadow="2"
     inkscape:zoom="1"
     inkscape:cx="204.7036"
     inkscape:cy="40.76074"
     inkscape:current-layer="layer9"
     showgrid="false"
     inkscape:grid-bbox="true"
     inkscape:document-units="px"
     inkscape:showpageshadow="false"
     inkscape:window-width="1920"
     inkscape:window-height="1016"
     inkscape:window-x="0"
     inkscape:window-y="27"
     width="400px"
     height="300px"
     inkscape:snap-nodes="true"
     inkscape:snap-bbox="true"
     objecttolerance="7"
     gridtolerance="12"
     guidetolerance="13"
     inkscape:window-maximized="1"
     inkscape:pagecheckerboard="false"
     showguides="false"
     inkscape:guide-bbox="true"
     inkscape:locked="false"
     inkscape:measure-start="0,0"
     inkscape:measure-end="0,0"
     inkscape:object-nodes="true"
     inkscape:bbox-nodes="true">
    <inkscape:grid
       type="xygrid"
       id="grid5883"
       spacingx="1px"
       spacingy="1px"
       enabled="true"
       visible="true"
       empspacing="4" />
  </sodipodi:namedview>
  <metadata
     id="metadata4">
    <rdf:RDF>
      <cc:Work
         rdf:about="">
        <dc:format>image/svg+xml</dc:format>
        <dc:type
           rdf:resource="http://purl.org/dc/dcmitype/StillImage" />
        <dc:creator>
          <cc:Agent>
            <dc:title>Sam Hewitt</dc:title>
          </cc:Agent>
        </dc:creator>
        <dc:source />
        <cc:license
           rdf:resource="http://creativecommons.org/licenses/by-nc-sa/4.0/" />
        <dc:title>Solus Icon Template</dc:title>
        <dc:subject>
          <rdf:Bag />
        </dc:subject>
        <dc:date />
        <dc:rights>
          <cc:Agent>
            <dc:title />
          </cc:Agent>
        </dc:rights>
        <dc:publisher>
          <cc:Agent>
            <dc:title />
          </cc:Agent>
        </dc:publisher>
        <dc:identifier />
        <dc:relation />
        <dc:language />
        <dc:coverage />
        <dc:description />
        <dc:contributor>
          <cc:Agent>
            <dc:title />
          </cc:Agent>
        </dc:contributor>
      </cc:Work>
      <cc:License
         rdf:about="http://creativecommons.org/licenses/by-nc-sa/4.0/">
        <cc:permits
           rdf:resource="http://creativecommons.org/ns#Reproduction" />
        <cc:permits
           rdf:resource="http://creativecommons.org/ns#Distribution" />
        <cc:requires
           rdf:resource="http://creativecommons.org/ns#Notice" />
        <cc:requires
           rdf:resource="http://creativecommons.org/ns#Attribution" />
        <cc:prohibits
           rdf:resource="http://creativecommons.org/ns#CommercialUse" />
        <cc:permits
           rdf:resource="http://creativecommons.org/ns#DerivativeWorks" />
        <cc:requires
           rdf:resource="http://creativecommons.org/ns#ShareAlike" />
      </cc:License>
    </rdf:RDF>
  </metadata>
  <g
     id="layer1"
     inkscape:label="preferences-system"
     inkscape:groupmode="layer"
     style="display:inline"
     transform="translate(0,20)">
    <path
       inkscape:connector-curvature="0"
       id="path4732"
       d="m 130,21 -1.11133,3.1875 -8.81836,25.298828 c -3.43964,1.4544 -6.8222,3.089911 -10.07812,4.921875 -3.23204,1.866436 -6.34949,3.899162 -9.35352,6.115235 l -29.574217,-5.496094 -30,51.966796 19.667969,22.8418 c -0.837819,7.40802 -0.845982,14.89664 -0.02344,22.30664 l -19.623046,22.86328 30,51.9668 29.617184,-5.56055 c 6.00689,4.41687 12.48913,8.16658 19.32422,11.14258 L 130,261 h 60 l 9.95117,-28.48633 c 3.43963,-1.4544 6.80061,-3.08991 10.05664,-4.92187 3.23193,-1.86644 6.34948,-3.89917 9.35352,-6.11524 l 29.57422,5.51758 30,-51.9668 -19.66797,-22.86328 c 0.83782,-7.40805 0.84601,-14.89664 0.0234,-22.30664 l 19.62304,-22.86328 -30,-51.966796 -29.61718,5.560547 C 213.29,56.171018 206.80785,52.421313 199.97266,49.445312 L 190,21 Z m 30,88 a 32,32 0 0 1 32,32 32,32 0 0 1 -32,32 32,32 0 0 1 -32,-32 32,32 0 0 1 32,-32 z"
       style="display:inline;opacity:0.4;fill:#000000;fill-opacity:1;stroke:none;stroke-width:1;stroke-linecap:round;stroke-linejoin:miter;stroke-miterlimit:4;stroke-dasharray:none;stroke-dashoffset:0;stroke-opacity:1;filter:url(#filter4738);enable-background:new" />
    <g
       inkscape:groupmode="layer"
       id="layer7"
       inkscape:label="baseplate"
       style="display:none">
      <rect
         style="display:inline;overflow:visible;visibility:visible;fill:#eeeeec;fill-opacity:1;fill-rule:nonzero;stroke:none;stroke-width:2;marker:none;enable-background:accumulate"
         id="rect6592"
         width="32"
         height="32"
         x="320"
         y="116"
         inkscape:label="32x32" />
      <rect
         inkscape:label="22x22"
         y="173.05884"
         x="321"
         height="22"
         width="22"
         id="rect6749"
         style="display:inline;overflow:visible;visibility:visible;fill:#eeeeec;fill-opacity:1;fill-rule:nonzero;stroke:none;stroke-width:2;marker:none;enable-background:accumulate" />
      <rect
         style="display:inline;overflow:visible;visibility:visible;fill:#eeeeec;fill-opacity:1;fill-rule:nonzero;stroke:none;stroke-width:2;marker:none;enable-background:accumulate"
         id="rect6833"
         width="16"
         height="16"
         x="320"
         y="220"
         inkscape:label="16x16" />
      <rect
         style="display:inline;overflow:visible;visibility:visible;fill:#eeeeec;fill-opacity:1;fill-rule:nonzero;stroke:none;stroke-width:2;marker:none;enable-background:accumulate"
         id="rect8104"
         width="24"
         height="24"
         x="320"
         y="172"
         inkscape:label="24x24" />
      <text
         xml:space="preserve"
         style="font-style:normal;font-variant:normal;font-weight:normal;font-stretch:normal;font-size:13.33333302px;line-height:125%;font-family:monospace;-inkscape-font-specification:monospace;text-align:start;writing-mode:lr-tb;text-anchor:start;display:inline;fill:#000000;fill-opacity:1;stroke:none;enable-background:new"
         x="31.855944"
         y="-65.699577"
         id="context"
         inkscape:label="context"><tspan
           sodipodi:role="line"
           id="tspan2716"
           x="31.855944"
           y="-65.699577"
           style="font-weight:bold">categories</tspan></text>
      <text
         inkscape:label="icon-name"
         id="text3021"
         y="-39.900627"
         x="31.264769"
         style="font-style:normal;font-variant:normal;font-weight:normal;font-stretch:normal;font-size:13.33333302px;line-height:16.66666603px;font-family:monospace;-inkscape-font-specification:monospace;text-align:start;writing-mode:lr-tb;text-anchor:start;display:inline;fill:#000000;fill-opacity:1;stroke:none;enable-background:new"
         xml:space="preserve"><tspan
           y="-39.900627"
           x="31.264769"
           id="tspan3023"
           sodipodi:role="line">preferences-system</tspan></text>
      <rect
         style="display:inline;overflow:visible;visibility:visible;fill:#eeeeec;fill-opacity:1;fill-rule:nonzero;stroke:none;stroke-width:1.99999976;marker:none;enable-background:accumulate"
         id="rect13805"
         width="256"
         height="256"
         x="32.000004"
         y="12.000042"
         inkscape:label="512x512" />
      <rect
         inkscape:label="48x48"
         y="320"
         x="44"
         height="48"
         width="48"
         id="rect6284"
         style="display:inline;overflow:visible;visibility:visible;fill:#eeeeec;fill-opacity:1;fill-rule:nonzero;stroke:none;stroke-width:2;marker:none;enable-background:accumulate"
         transform="matrix(0,1,1,0,0,0)" />
    </g>
    <g
       inkscape:groupmode="layer"
       id="layer9"
       inkscape:label="icons"
       style="display:inline" />
    <g
       id="g4598">
      <path
         id="rect8577"
         transform="translate(0,-20)"
         d="M 329.25 193 L 328.33984 195.61133 C 328.02454 195.74465 327.71448 195.89457 327.41602 196.0625 C 327.11975 196.23359 326.83396 196.41991 326.55859 196.62305 L 323.84766 196.11914 L 321.09766 200.88281 L 322.90039 202.97656 C 322.82359 203.65563 322.82304 204.34223 322.89844 205.02148 L 321.09961 207.11719 L 323.84961 211.88086 L 326.56445 211.37109 C 327.11508 211.77597 327.70939 212.11978 328.33594 212.39258 L 329.25 215 L 334.75 215 L 335.66211 212.38867 C 335.97741 212.25535 336.28551 212.10543 336.58398 211.9375 C 336.88024 211.76641 337.16604 211.58009 337.44141 211.37695 L 340.15234 211.88281 L 342.90234 207.11914 L 341.09961 205.02344 C 341.17641 204.34437 341.17696 203.65777 341.10156 202.97852 L 342.90039 200.88281 L 340.15039 196.11914 L 337.43555 196.62891 C 336.88492 196.22403 336.29062 195.88022 335.66406 195.60742 L 334.75 193 L 329.25 193 z M 332 199 A 5 5 0 0 1 337 204 A 5 5 0 0 1 332 209 A 5 5 0 0 1 327 204 A 5 5 0 0 1 332 199 z "
         style="display:inline;opacity:1;fill:url(#radialGradient4584);fill-opacity:1;stroke:none;stroke-width:1;stroke-linecap:round;stroke-linejoin:miter;stroke-miterlimit:4;stroke-dasharray:none;stroke-dashoffset:0;stroke-opacity:1;enable-background:new" />
      <path
         inkscape:connector-curvature="0"
         id="path4566"
         d="m 332,191 a 7,7 0 0 1 -7,-7 7,7 0 0 1 7,-7 7,7 0 0 1 7,7 7,7 0 0 1 -7,7 z m 0,-4 a 3,3 0 0 0 3,-3 3,3 0 0 0 -3,-3 3,3 0 0 0 -3,3 3,3 0 0 0 3,3 z"
         style="opacity:1;fill:url(#linearGradient4574);fill-opacity:1;stroke:none;stroke-width:2;stroke-linecap:round;stroke-linejoin:miter;stroke-miterlimit:4;stroke-dasharray:none;stroke-dashoffset:0;stroke-opacity:1" />
    </g>
    <path
       sodipodi:nodetypes="ccccccccccccccccccccccccccccsssss"
       inkscape:connector-curvature="0"
       id="path4600"
       d="m 130,20.000042 -1.1112,3.188073 -8.81781,25.299163 c -3.43964,1.4544 -6.82212,3.089891 -10.07804,4.921855 -3.23204,1.866436 -6.34975,3.899018 -9.35378,6.115091 L 71.065379,54.027025 41.06538,105.99432 60.731526,128.83524 c -0.837819,7.40802 -0.844364,14.89821 -0.02182,22.30821 l -19.623599,22.8623 30.000001,51.9673 29.616432,-5.56113 c 6.00689,4.41687 12.49026,8.16753 19.32535,11.14353 L 130,260.00004 h 60 l 9.9503,-28.48725 c 3.43963,-1.4544 6.80072,-3.08988 10.05675,-4.92184 3.23193,-1.86644 6.34975,-3.89903 9.35379,-6.1151 l 29.57378,5.51847 30.00001,-51.9673 -19.66615,-22.86218 c 0.83782,-7.40805 0.84437,-14.89822 0.0218,-22.30822 l 19.62365,-22.8623 -29.99998,-51.967295 -29.61645,5.561126 c -6.00688,-4.416873 -12.49015,-8.167527 -19.32534,-11.143527 l -9.97212,-28.444582 z m 30,65.454546 c 30.12458,0 54.54545,24.420872 54.54545,54.545452 0,30.12458 -24.42087,54.54544 -54.54545,54.54544 -30.12457,0 -54.54546,-24.42086 -54.54546,-54.54544 0,-30.12458 24.42089,-54.545452 54.54546,-54.545452 z"
       style="display:inline;opacity:1;fill:url(#linearGradient4623);fill-opacity:1;stroke:none;stroke-width:1;stroke-linecap:round;stroke-linejoin:miter;stroke-miterlimit:4;stroke-dasharray:none;stroke-dashoffset:0;stroke-opacity:1;enable-background:new" />
    <path
       style="opacity:1;fill:url(#linearGradient4608);fill-opacity:1;stroke:none;stroke-width:2;stroke-linecap:round;stroke-linejoin:miter;stroke-miterlimit:4;stroke-dasharray:none;stroke-dashoffset:0;stroke-opacity:1"
       d="M 160 88 A 72 72 0 0 0 88 160 A 72 72 0 0 0 160 232 A 72 72 0 0 0 232 160 A 72 72 0 0 0 160 88 z M 160 128 A 32 32 0 0 1 192 160 A 32 32 0 0 1 160 192 A 32 32 0 0 1 128 160 A 32 32 0 0 1 160 128 z "
       id="path4602"
       transform="translate(0,-20)" />
    <path
       id="path4659"
       d="m 88.5,140 c 0,39.48836 32.01164,71.5 71.5,71.5 39.48836,0 71.5,-32.01164 71.5,-71.5 0,-39.48836 -32.01164,-71.5 -71.5,-71.5 -39.48836,0 -71.5,32.01164 -71.5,71.5 z"
       style="opacity:0.2;fill:none;fill-opacity:1;stroke:url(#linearGradient4667);stroke-width:1;stroke-linecap:round;stroke-linejoin:miter;stroke-miterlimit:4;stroke-dasharray:none;stroke-dashoffset:0;stroke-opacity:1"
       inkscape:connector-curvature="0"
       sodipodi:nodetypes="sssss" />
  </g>
</svg>
