<?xml version="1.0" encoding="UTF-8" standalone="no"?>
<!-- Created with Inkscape (http://www.inkscape.org/) -->

<svg
   xmlns:dc="http://purl.org/dc/elements/1.1/"
   xmlns:cc="http://creativecommons.org/ns#"
   xmlns:rdf="http://www.w3.org/1999/02/22-rdf-syntax-ns#"
   xmlns:svg="http://www.w3.org/2000/svg"
   xmlns="http://www.w3.org/2000/svg"
   xmlns:xlink="http://www.w3.org/1999/xlink"
   xmlns:sodipodi="http://sodipodi.sourceforge.net/DTD/sodipodi-0.dtd"
   xmlns:inkscape="http://www.inkscape.org/namespaces/inkscape"
   inkscape:export-ydpi="96"
   inkscape:export-xdpi="96"
   inkscape:export-filename="Template.png"
   width="400"
   height="320"
   id="svg11300"
   sodipodi:version="0.32"
   inkscape:version="0.92.1 r15371"
   sodipodi:docname="red-circles.svg"
   inkscape:output_extension="org.inkscape.output.svg.inkscape"
   version="1.0"
   style="display:inline;enable-background:new"
   viewBox="0 0 400 320">
  <title
     id="title4162">Solus Icon Template</title>
  <defs
     id="defs3">
    <linearGradient
       inkscape:collect="always"
       id="linearGradient4661">
      <stop
         style="stop-color:#ffffff;stop-opacity:1;"
         offset="0"
         id="stop4657" />
      <stop
         style="stop-color:#f2f2f2;stop-opacity:1"
         offset="1"
         id="stop4659" />
    </linearGradient>
    <linearGradient
       inkscape:collect="always"
       id="linearGradient4568">
      <stop
         id="stop4566"
         offset="0"
         style="stop-color:#e95800;stop-opacity:1" />
      <stop
         id="stop4564"
         offset="1"
         style="stop-color:#e40004;stop-opacity:1" />
    </linearGradient>
    <filter
       inkscape:collect="always"
       style="color-interpolation-filters:sRGB"
       id="filter4582-3"
       x="-0.059999999"
       width="1.12"
       y="-0.059999999"
       height="1.12">
      <feGaussianBlur
         inkscape:collect="always"
         stdDeviation="5.7"
         id="feGaussianBlur4584-6" />
    </filter>
    <filter
       inkscape:collect="always"
       style="color-interpolation-filters:sRGB"
       id="filter4576-7"
       x="-0.012"
       width="1.024"
       y="-0.012"
       height="1.024">
      <feGaussianBlur
         inkscape:collect="always"
         stdDeviation="1.14"
         id="feGaussianBlur4578-5" />
    </filter>
    <linearGradient
       inkscape:collect="always"
       xlink:href="#linearGradient4568"
       id="linearGradient4524-3"
       x1="328"
       y1="221"
       x2="328"
       y2="235"
       gradientUnits="userSpaceOnUse"
       gradientTransform="matrix(0.875,0,0,0.875,41,28.5)" />
    <linearGradient
       inkscape:collect="always"
       xlink:href="#linearGradient4568"
       id="linearGradient4530-9"
       gradientUnits="userSpaceOnUse"
       x1="328"
       y1="221"
       x2="328"
       y2="235"
       gradientTransform="matrix(1.25,0,0,1.25,-78,-101)" />
    <linearGradient
       inkscape:collect="always"
       xlink:href="#linearGradient4568"
       id="linearGradient4536-1"
       gradientUnits="userSpaceOnUse"
       gradientTransform="matrix(1.625,0,0,1.625,-197,-238.5)"
       x1="328"
       y1="221"
       x2="328"
       y2="235" />
    <linearGradient
       inkscape:collect="always"
       xlink:href="#linearGradient4568"
       id="linearGradient4540-2"
       gradientUnits="userSpaceOnUse"
       gradientTransform="matrix(2.625,0,0,2.625,-517.00001,-530.50002)"
       x1="328"
       y1="221"
       x2="328"
       y2="235" />
    <linearGradient
       inkscape:collect="always"
       xlink:href="#linearGradient4568"
       id="linearGradient4603"
       gradientUnits="userSpaceOnUse"
       gradientTransform="matrix(14.25,0,0,14.25,-4514.0001,-3109.0001)"
       x1="328"
       y1="221"
       x2="328"
       y2="235" />
    <linearGradient
       inkscape:collect="always"
       xlink:href="#linearGradient4661"
       id="linearGradient4663"
       x1="727"
       y1="68"
       x2="761"
       y2="68"
       gradientUnits="userSpaceOnUse"
       gradientTransform="translate(-676,-812)" />
    <linearGradient
       inkscape:collect="always"
       xlink:href="#linearGradient4661"
       id="linearGradient4667"
       gradientUnits="userSpaceOnUse"
       gradientTransform="matrix(0.58823529,0,0,0.58823529,-305.64706,-776)"
       x1="727"
       y1="68"
       x2="761"
       y2="68" />
    <linearGradient
       inkscape:collect="always"
       xlink:href="#linearGradient4661"
       id="linearGradient4671"
       gradientUnits="userSpaceOnUse"
       gradientTransform="matrix(0.47058825,0,0,0.47058825,-166.11766,-764.00001)"
       x1="727"
       y1="68"
       x2="761"
       y2="68" />
    <linearGradient
       inkscape:collect="always"
       xlink:href="#linearGradient4661"
       id="linearGradient4675"
       gradientUnits="userSpaceOnUse"
       gradientTransform="matrix(0.29411766,0,0,0.29411766,9.176461,708)"
       x1="727"
       y1="68"
       x2="761"
       y2="68" />
    <linearGradient
       inkscape:collect="always"
       xlink:href="#linearGradient4661"
       id="linearGradient4760"
       gradientUnits="userSpaceOnUse"
       gradientTransform="matrix(5.8823529,0,0,5.8823529,-4236.4706,-960)"
       x1="727"
       y1="68"
       x2="761"
       y2="68" />
  </defs>
  <sodipodi:namedview
     stroke="#ef2929"
     fill="#f57900"
     id="base"
     pagecolor="#ffffff"
     bordercolor="#666666"
     borderopacity="0.25490196"
     inkscape:pageopacity="0"
     inkscape:pageshadow="2"
     inkscape:zoom="1"
     inkscape:cx="960.2897"
     inkscape:cy="240.09951"
     inkscape:current-layer="g4602"
     showgrid="false"
     inkscape:grid-bbox="true"
     inkscape:document-units="px"
     inkscape:showpageshadow="false"
     inkscape:window-width="1920"
     inkscape:window-height="1016"
     inkscape:window-x="0"
     inkscape:window-y="27"
     width="400px"
     height="300px"
     inkscape:snap-nodes="true"
     inkscape:snap-bbox="true"
     objecttolerance="7"
     gridtolerance="12"
     guidetolerance="13"
     inkscape:window-maximized="1"
     inkscape:pagecheckerboard="false"
     showguides="false"
     inkscape:guide-bbox="true"
     inkscape:locked="false"
     inkscape:measure-start="0,0"
     inkscape:measure-end="0,0"
     inkscape:object-nodes="true"
     inkscape:bbox-nodes="true"
     inkscape:snap-bbox-midpoints="true">
    <inkscape:grid
       type="xygrid"
       id="grid5883"
       spacingx="1px"
       spacingy="1px"
       enabled="true"
       visible="true"
       empspacing="4" />
  </sodipodi:namedview>
  <metadata
     id="metadata4">
    <rdf:RDF>
      <cc:Work
         rdf:about="">
        <dc:format>image/svg+xml</dc:format>
        <dc:type
           rdf:resource="http://purl.org/dc/dcmitype/StillImage" />
        <dc:creator>
          <cc:Agent>
            <dc:title>Sam Hewitt</dc:title>
          </cc:Agent>
        </dc:creator>
        <dc:source />
        <cc:license
           rdf:resource="http://creativecommons.org/licenses/by-nc-sa/4.0/" />
        <dc:title>Solus Icon Template</dc:title>
        <dc:subject>
          <rdf:Bag />
        </dc:subject>
        <dc:date />
        <dc:rights>
          <cc:Agent>
            <dc:title />
          </cc:Agent>
        </dc:rights>
        <dc:publisher>
          <cc:Agent>
            <dc:title />
          </cc:Agent>
        </dc:publisher>
        <dc:identifier />
        <dc:relation />
        <dc:language />
        <dc:coverage />
        <dc:description />
        <dc:contributor>
          <cc:Agent>
            <dc:title />
          </cc:Agent>
        </dc:contributor>
      </cc:Work>
      <cc:License
         rdf:about="http://creativecommons.org/licenses/by-nc-sa/4.0/">
        <cc:permits
           rdf:resource="http://creativecommons.org/ns#Reproduction" />
        <cc:permits
           rdf:resource="http://creativecommons.org/ns#Distribution" />
        <cc:requires
           rdf:resource="http://creativecommons.org/ns#Notice" />
        <cc:requires
           rdf:resource="http://creativecommons.org/ns#Attribution" />
        <cc:prohibits
           rdf:resource="http://creativecommons.org/ns#CommercialUse" />
        <cc:permits
           rdf:resource="http://creativecommons.org/ns#DerivativeWorks" />
        <cc:requires
           rdf:resource="http://creativecommons.org/ns#ShareAlike" />
      </cc:License>
    </rdf:RDF>
  </metadata>
  <g
     id="layer1"
     inkscape:label="artwork:dialog-error"
     inkscape:groupmode="layer"
     style="display:inline"
     transform="translate(0,20)">
    <g
       inkscape:groupmode="layer"
       id="layer7"
       inkscape:label="baseplate"
       style="display:none">
      <rect
         style="display:inline;overflow:visible;visibility:visible;fill:#eeeeec;fill-opacity:1;fill-rule:nonzero;stroke:none;stroke-width:2;marker:none;enable-background:accumulate"
         id="rect6592"
         width="32"
         height="32"
         x="320"
         y="116"
         inkscape:label="32x32" />
      <rect
         inkscape:label="22x22"
         y="173.05884"
         x="321"
         height="22"
         width="22"
         id="rect6749"
         style="display:inline;overflow:visible;visibility:visible;fill:#eeeeec;fill-opacity:1;fill-rule:nonzero;stroke:none;stroke-width:2;marker:none;enable-background:accumulate" />
      <rect
         style="display:inline;overflow:visible;visibility:visible;fill:#eeeeec;fill-opacity:1;fill-rule:nonzero;stroke:none;stroke-width:2;marker:none;enable-background:accumulate"
         id="rect6833"
         width="16"
         height="16"
         x="320"
         y="220"
         inkscape:label="16x16" />
      <rect
         style="display:inline;overflow:visible;visibility:visible;fill:#eeeeec;fill-opacity:1;fill-rule:nonzero;stroke:none;stroke-width:2;marker:none;enable-background:accumulate"
         id="rect8104"
         width="24"
         height="24"
         x="320"
         y="172"
         inkscape:label="24x24" />
      <text
         xml:space="preserve"
         style="font-style:normal;font-variant:normal;font-weight:normal;font-stretch:normal;font-size:13.33333302px;line-height:125%;font-family:monospace;-inkscape-font-specification:monospace;text-align:start;writing-mode:lr-tb;text-anchor:start;display:inline;fill:#000000;fill-opacity:1;stroke:none;enable-background:new"
         x="31.855944"
         y="-65.699577"
         id="context"
         inkscape:label="context"><tspan
           sodipodi:role="line"
           id="tspan2716"
           x="31.855944"
           y="-65.699577"
           style="font-weight:bold">status</tspan></text>
      <text
         inkscape:label="icon-name"
         id="text3021"
         y="-39.900627"
         x="31.264769"
         style="font-style:normal;font-variant:normal;font-weight:normal;font-stretch:normal;font-size:13.33333302px;line-height:125%;font-family:monospace;-inkscape-font-specification:monospace;text-align:start;writing-mode:lr-tb;text-anchor:start;display:inline;fill:#000000;fill-opacity:1;stroke:none;enable-background:new"
         xml:space="preserve"><tspan
           y="-39.900627"
           x="31.264769"
           id="tspan3023"
           sodipodi:role="line">dialog-error</tspan></text>
      <rect
         style="display:inline;overflow:visible;visibility:visible;fill:#eeeeec;fill-opacity:1;fill-rule:nonzero;stroke:none;stroke-width:1.99999976;marker:none;enable-background:accumulate"
         id="rect13805"
         width="256"
         height="256"
         x="32.000004"
         y="12.000042"
         inkscape:label="512x512" />
      <rect
         inkscape:label="48x48"
         y="320"
         x="44"
         height="48"
         width="48"
         id="rect6284"
         style="display:inline;overflow:visible;visibility:visible;fill:#eeeeec;fill-opacity:1;fill-rule:nonzero;stroke:none;stroke-width:2;marker:none;enable-background:accumulate"
         transform="matrix(0,1,1,0,0,0)" />
    </g>
    <g
       inkscape:groupmode="layer"
       id="layer9"
       inkscape:label="icons"
       style="display:inline">
      <g
         transform="translate(-0.0215,-0.18004717)"
         style="display:inline;enable-background:new"
         id="g5288">
        <circle
           style="display:inline;opacity:0.4;fill:#56533d;fill-opacity:1;stroke:none;stroke-width:1;stroke-linecap:round;stroke-linejoin:miter;stroke-miterlimit:4;stroke-dasharray:none;stroke-dashoffset:0;stroke-opacity:1;enable-background:new"
           id="circle6017"
           cx="328"
           cy="229"
           r="7" />
        <circle
           style="display:inline;opacity:0.8;fill:none;fill-opacity:1;stroke:#891f00;stroke-width:2;stroke-linecap:round;stroke-linejoin:miter;stroke-miterlimit:4;stroke-dasharray:none;stroke-dashoffset:0;stroke-opacity:1;enable-background:new"
           id="circle6006"
           cx="328"
           cy="228"
           r="7" />
        <circle
           r="10"
           cy="185"
           cx="332"
           id="circle6000"
           style="display:inline;opacity:0.4;fill:#000000;fill-opacity:1;stroke:none;stroke-width:1;stroke-linecap:round;stroke-linejoin:miter;stroke-miterlimit:4;stroke-dasharray:none;stroke-dashoffset:0;stroke-opacity:1;enable-background:new" />
        <circle
           r="10"
           cy="184"
           cx="332"
           id="circle5989"
           style="display:inline;opacity:0.8;fill:none;fill-opacity:1;stroke:#891f00;stroke-width:2;stroke-linecap:round;stroke-linejoin:miter;stroke-miterlimit:4;stroke-dasharray:none;stroke-dashoffset:0;stroke-opacity:1;enable-background:new" />
        <circle
           style="display:inline;opacity:0.4;fill:#000000;fill-opacity:1;stroke:none;stroke-width:1;stroke-linecap:round;stroke-linejoin:miter;stroke-miterlimit:4;stroke-dasharray:none;stroke-dashoffset:0;stroke-opacity:1;enable-background:new"
           id="circle5987"
           cx="336"
           cy="133"
           r="13" />
        <circle
           r="21"
           cy="69"
           cx="344"
           id="circle4527"
           style="display:inline;opacity:0.4;fill:#000000;fill-opacity:1;stroke:none;stroke-width:1;stroke-linecap:round;stroke-linejoin:miter;stroke-miterlimit:4;stroke-dasharray:none;stroke-dashoffset:0;stroke-opacity:1;enable-background:new" />
        <circle
           r="21"
           cy="68"
           cx="344"
           id="circle4523"
           style="display:inline;opacity:0.8;fill:none;fill-opacity:1;stroke:#891f00;stroke-width:2;stroke-linecap:round;stroke-linejoin:miter;stroke-miterlimit:4;stroke-dasharray:none;stroke-dashoffset:0;stroke-opacity:1;enable-background:new" />
        <circle
           style="display:inline;opacity:0.8;fill:none;fill-opacity:1;stroke:#891f00;stroke-width:2;stroke-linecap:round;stroke-linejoin:miter;stroke-miterlimit:4;stroke-dasharray:none;stroke-dashoffset:0;stroke-opacity:1;enable-background:new"
           id="circle4525"
           cx="336"
           cy="132"
           r="13" />
        <circle
           r="114"
           cy="142.00005"
           cx="160"
           id="circle4580-7"
           style="display:inline;opacity:0.2;fill:#000000;fill-opacity:1;stroke:#000000;stroke-width:1;stroke-linecap:round;stroke-linejoin:miter;stroke-miterlimit:4;stroke-dasharray:none;stroke-dashoffset:0;stroke-opacity:1;filter:url(#filter4582-3);enable-background:new" />
        <circle
           style="display:inline;opacity:0.5;fill:#000000;fill-opacity:1;stroke:#000000;stroke-width:1;stroke-linecap:round;stroke-linejoin:miter;stroke-miterlimit:4;stroke-dasharray:none;stroke-dashoffset:0;stroke-opacity:1;filter:url(#filter4576-7);enable-background:new"
           id="circle4572-0"
           cx="160"
           cy="141.00005"
           r="114" />
        <circle
           r="7"
           cy="228"
           cx="328"
           id="path4510-9"
           style="display:inline;opacity:1;fill:url(#linearGradient4524-3);fill-opacity:1;stroke:none;stroke-width:1;stroke-linecap:round;stroke-linejoin:miter;stroke-miterlimit:4;stroke-dasharray:none;stroke-dashoffset:0;stroke-opacity:1;enable-background:new" />
        <circle
           style="display:inline;opacity:1;fill:url(#linearGradient4530-9);fill-opacity:1;stroke:none;stroke-width:1;stroke-linecap:round;stroke-linejoin:miter;stroke-miterlimit:4;stroke-dasharray:none;stroke-dashoffset:0;stroke-opacity:1;enable-background:new"
           id="circle4528-3"
           cx="332"
           cy="184"
           r="10" />
        <circle
           r="13"
           cy="132"
           cx="336"
           id="circle4534-6"
           style="display:inline;opacity:1;fill:url(#linearGradient4536-1);fill-opacity:1;stroke:none;stroke-width:1;stroke-linecap:round;stroke-linejoin:miter;stroke-miterlimit:4;stroke-dasharray:none;stroke-dashoffset:0;stroke-opacity:1;enable-background:new" />
        <circle
           style="display:inline;opacity:1;fill:url(#linearGradient4540-2);fill-opacity:1;stroke:none;stroke-width:1;stroke-linecap:round;stroke-linejoin:miter;stroke-miterlimit:4;stroke-dasharray:none;stroke-dashoffset:0;stroke-opacity:1;enable-background:new"
           id="circle4538-0"
           cx="344"
           cy="68"
           r="21" />
        <circle
           r="114"
           cy="140.00005"
           cx="160"
           id="circle4542-6"
           style="display:inline;opacity:1;fill:url(#linearGradient4603);fill-opacity:1;stroke:none;stroke-width:1;stroke-linecap:round;stroke-linejoin:miter;stroke-miterlimit:4;stroke-dasharray:none;stroke-dashoffset:0;stroke-opacity:1;enable-background:new" />
        <path
           inkscape:connector-curvature="0"
           id="circle5967"
           transform="translate(0,-20)"
           d="m 344,67 a 21,21 0 0 0 -21,21 21,21 0 0 0 0.0215,0.585938 A 21,21 0 0 1 344,68 21,21 0 0 1 364.97852,88.414062 21,21 0 0 0 365,88 21,21 0 0 0 344,67 Z"
           style="display:inline;opacity:0.4;fill:#ffffff;fill-opacity:1;stroke:none;stroke-width:1;stroke-linecap:round;stroke-linejoin:miter;stroke-miterlimit:4;stroke-dasharray:none;stroke-dashoffset:0;stroke-opacity:1;enable-background:new" />
        <path
           inkscape:connector-curvature="0"
           id="circle5976"
           transform="translate(0,-20)"
           d="m 336,139 a 13,13 0 0 0 -13,13 13,13 0 0 0 0.0215,0.58008 A 13,13 0 0 1 336,140 13,13 0 0 1 348.97852,152.41992 13,13 0 0 0 349,152 13,13 0 0 0 336,139 Z"
           style="display:inline;opacity:0.4;fill:#ffffff;fill-opacity:1;stroke:none;stroke-width:1;stroke-linecap:round;stroke-linejoin:miter;stroke-miterlimit:4;stroke-dasharray:none;stroke-dashoffset:0;stroke-opacity:1;enable-background:new" />
        <path
           inkscape:connector-curvature="0"
           id="circle5991"
           transform="translate(0,-20)"
           d="m 332,194 a 10,10 0 0 0 -10,10 10,10 0 0 0 0.0215,0.58594 A 10,10 0 0 1 332,195 10,10 0 0 1 341.97852,204.41406 10,10 0 0 0 342,204 10,10 0 0 0 332,194 Z"
           style="display:inline;opacity:0.4;fill:#f5f5f5;fill-opacity:1;stroke:none;stroke-width:1;stroke-linecap:round;stroke-linejoin:miter;stroke-miterlimit:4;stroke-dasharray:none;stroke-dashoffset:0;stroke-opacity:1;enable-background:new" />
        <path
           inkscape:connector-curvature="0"
           id="circle6008"
           transform="translate(0,-20)"
           d="m 328,241 a 7,7 0 0 0 -7,7 7,7 0 0 0 0.0234,0.54102 A 7,7 0 0 1 328,242 7,7 0 0 1 334.97656,248.45898 7,7 0 0 0 335,248 a 7,7 0 0 0 -7,-7 z"
           style="display:inline;opacity:0.4;fill:#ffffff;fill-opacity:1;stroke:none;stroke-width:1;stroke-linecap:round;stroke-linejoin:miter;stroke-miterlimit:4;stroke-dasharray:none;stroke-dashoffset:0;stroke-opacity:1;enable-background:new" />
      </g>
    </g>
    <g
       inkscape:groupmode="layer"
       id="layer2"
       inkscape:label="emblem">
      <rect
         style="display:inline;opacity:0.3;fill:#891f00;fill-opacity:1;stroke:none;stroke-width:1;stroke-linecap:round;stroke-linejoin:miter;stroke-miterlimit:4;stroke-dasharray:none;stroke-dashoffset:0;stroke-opacity:1;enable-background:new"
         id="rect4614"
         width="20"
         height="2"
         x="326"
         y="130" />
      <rect
         y="65"
         x="328"
         height="4"
         width="32"
         id="rect4616"
         style="display:inline;opacity:0.3;fill:#891f00;fill-opacity:1;stroke:none;stroke-width:0.99999994;stroke-linecap:round;stroke-linejoin:miter;stroke-miterlimit:4;stroke-dasharray:none;stroke-dashoffset:0;stroke-opacity:1;enable-background:new" />
      <rect
         style="display:inline;opacity:0.3;fill:#891f00;fill-opacity:1;stroke:none;stroke-width:1;stroke-linecap:round;stroke-linejoin:miter;stroke-miterlimit:4;stroke-dasharray:none;stroke-dashoffset:0;stroke-opacity:1;enable-background:new"
         id="rect4618"
         width="188"
         height="24"
         x="66"
         y="129.00005"
         ry="1" />
      <rect
         style="display:inline;opacity:1;fill:#ffffff;fill-opacity:1;stroke:none;stroke-width:1;stroke-linecap:round;stroke-linejoin:miter;stroke-miterlimit:4;stroke-dasharray:none;stroke-dashoffset:0;stroke-opacity:1;enable-background:new"
         id="rect4524"
         width="12"
         height="2"
         x="322"
         y="227" />
      <rect
         y="131"
         x="326"
         height="2"
         width="20"
         id="rect4526"
         style="display:inline;opacity:1;fill:#ffffff;fill-opacity:1;stroke:none;stroke-width:1;stroke-linecap:round;stroke-linejoin:miter;stroke-miterlimit:4;stroke-dasharray:none;stroke-dashoffset:0;stroke-opacity:1;enable-background:new" />
      <rect
         style="display:inline;opacity:1;fill:#ffffff;fill-opacity:1;stroke:none;stroke-width:0.99999994;stroke-linecap:round;stroke-linejoin:miter;stroke-miterlimit:4;stroke-dasharray:none;stroke-dashoffset:0;stroke-opacity:1;enable-background:new"
         id="rect4528"
         width="32"
         height="4"
         x="328"
         y="66" />
      <rect
         y="130.00005"
         x="66"
         height="24"
         width="188"
         id="rect4530"
         style="display:inline;opacity:1;fill:#ffffff;fill-opacity:1;stroke:none;stroke-width:1;stroke-linecap:round;stroke-linejoin:miter;stroke-miterlimit:4;stroke-dasharray:none;stroke-dashoffset:0;stroke-opacity:1;enable-background:new"
         ry="1" />
      <rect
         y="183"
         x="324"
         height="2"
         width="16"
         id="rect4532"
         style="display:inline;opacity:1;fill:#ffffff;fill-opacity:1;stroke:none;stroke-width:0.99999994;stroke-linecap:round;stroke-linejoin:miter;stroke-miterlimit:4;stroke-dasharray:none;stroke-dashoffset:0;stroke-opacity:1;enable-background:new" />
    </g>
  </g>
  <g
     transform="translate(0,20)"
     style="display:inline"
     inkscape:groupmode="layer"
     inkscape:label="artwork:edit-delete"
     id="g4631">
    <g
       style="display:none"
       inkscape:label="baseplate"
       id="g4569"
       inkscape:groupmode="layer">
      <rect
         inkscape:label="32x32"
         y="116"
         x="720"
         height="32"
         width="32"
         id="rect4543"
         style="display:inline;overflow:visible;visibility:visible;fill:#eeeeec;fill-opacity:1;fill-rule:nonzero;stroke:none;stroke-width:2;marker:none;enable-background:accumulate" />
      <rect
         style="display:inline;overflow:visible;visibility:visible;fill:#eeeeec;fill-opacity:1;fill-rule:nonzero;stroke:none;stroke-width:2;marker:none;enable-background:accumulate"
         id="rect4545"
         width="22"
         height="22"
         x="721"
         y="173.05884"
         inkscape:label="22x22" />
      <rect
         inkscape:label="16x16"
         y="220"
         x="720"
         height="16"
         width="16"
         id="rect4547"
         style="display:inline;overflow:visible;visibility:visible;fill:#eeeeec;fill-opacity:1;fill-rule:nonzero;stroke:none;stroke-width:2;marker:none;enable-background:accumulate" />
      <rect
         inkscape:label="24x24"
         y="172"
         x="720"
         height="24"
         width="24"
         id="rect4549"
         style="display:inline;overflow:visible;visibility:visible;fill:#eeeeec;fill-opacity:1;fill-rule:nonzero;stroke:none;stroke-width:2;marker:none;enable-background:accumulate" />
      <text
         inkscape:label="context"
         id="text4553"
         y="-65.699577"
         x="431.85596"
         style="font-style:normal;font-variant:normal;font-weight:normal;font-stretch:normal;font-size:13.33333302px;line-height:125%;font-family:monospace;-inkscape-font-specification:monospace;text-align:start;writing-mode:lr-tb;text-anchor:start;display:inline;fill:#000000;fill-opacity:1;stroke:none;enable-background:new"
         xml:space="preserve"><tspan
           style="font-weight:bold"
           y="-65.699577"
           x="431.85596"
           id="tspan4551"
           sodipodi:role="line">actions</tspan></text>
      <text
         xml:space="preserve"
         style="font-style:normal;font-variant:normal;font-weight:normal;font-stretch:normal;font-size:13.33333302px;line-height:125%;font-family:monospace;-inkscape-font-specification:monospace;text-align:start;writing-mode:lr-tb;text-anchor:start;display:inline;fill:#000000;fill-opacity:1;stroke:none;enable-background:new"
         x="431.26477"
         y="-39.900627"
         id="text4557"
         inkscape:label="icon-name"><tspan
           sodipodi:role="line"
           id="tspan4555"
           x="431.26477"
           y="-39.900627">edit-delete</tspan></text>
      <rect
         inkscape:label="512x512"
         y="12.000042"
         x="432"
         height="256"
         width="256"
         id="rect4559"
         style="display:inline;overflow:visible;visibility:visible;fill:#eeeeec;fill-opacity:1;fill-rule:nonzero;stroke:none;stroke-width:1.99999976;marker:none;enable-background:accumulate" />
      <rect
         transform="matrix(0,1,1,0,0,0)"
         style="display:inline;overflow:visible;visibility:visible;fill:#eeeeec;fill-opacity:1;fill-rule:nonzero;stroke:none;stroke-width:2;marker:none;enable-background:accumulate"
         id="rect4561"
         width="48"
         height="48"
         x="44"
         y="720"
         inkscape:label="48x48" />
    </g>
    <g
       style="display:inline"
       inkscape:label="icons"
       id="g4611"
       inkscape:groupmode="layer">
      <use
         style="display:inline;enable-background:new"
         x="0"
         y="0"
         xlink:href="#g5288"
         id="use4649"
         transform="translate(400)"
         width="100%"
         height="100%" />
    </g>
    <g
       inkscape:label="emblem"
       id="g4629"
       inkscape:groupmode="layer">
      <circle
         transform="rotate(90)"
         r="100"
         cy="-560"
         cx="139"
         id="circle4765"
         style="opacity:0.3;fill:#000000;fill-opacity:1;stroke:none;stroke-width:0.99999988;stroke-linecap:round;stroke-linejoin:round;stroke-miterlimit:4;stroke-dasharray:none;stroke-dashoffset:0;stroke-opacity:1" />
      <circle
         transform="rotate(90)"
         r="17"
         cy="-744"
         cx="68"
         id="circle4695"
         style="opacity:0.3;fill:none;fill-opacity:1;stroke:#000000;stroke-width:2;stroke-linecap:round;stroke-linejoin:round;stroke-miterlimit:4;stroke-dasharray:none;stroke-dashoffset:0;stroke-opacity:1" />
      <circle
         style="opacity:0.3;fill:none;fill-opacity:1;stroke:#000000;stroke-width:2;stroke-linecap:round;stroke-linejoin:round;stroke-miterlimit:4;stroke-dasharray:none;stroke-dashoffset:0;stroke-opacity:1"
         id="circle4697"
         cx="132"
         cy="-736"
         r="10"
         transform="rotate(90)" />
      <circle
         style="opacity:1;fill:url(#linearGradient4663);fill-opacity:1;stroke:none;stroke-width:0.99999994;stroke-linecap:round;stroke-linejoin:round;stroke-miterlimit:4;stroke-dasharray:none;stroke-dashoffset:0;stroke-opacity:1"
         id="path4655"
         cx="68"
         cy="-744"
         r="17"
         transform="rotate(90)" />
      <circle
         transform="rotate(90)"
         r="8"
         cy="-732"
         cx="184"
         id="circle4735"
         style="opacity:0.3;fill:none;fill-opacity:1;stroke:#000000;stroke-width:2;stroke-linecap:round;stroke-linejoin:round;stroke-miterlimit:4;stroke-dasharray:none;stroke-dashoffset:0;stroke-opacity:1" />
      <circle
         style="opacity:1;fill:url(#linearGradient4671);fill-opacity:1;stroke:none;stroke-width:1;stroke-linecap:round;stroke-linejoin:round;stroke-miterlimit:4;stroke-dasharray:none;stroke-dashoffset:0;stroke-opacity:1"
         id="circle4669"
         cx="184"
         cy="-732"
         r="8"
         transform="rotate(90)" />
      <circle
         style="opacity:0.3;fill:none;fill-opacity:1;stroke:#000000;stroke-width:2;stroke-linecap:round;stroke-linejoin:round;stroke-miterlimit:4;stroke-dasharray:none;stroke-dashoffset:0;stroke-opacity:1"
         id="circle4773"
         cx="228"
         cy="728"
         r="5"
         transform="matrix(0,1,1,0,0,0)" />
      <circle
         transform="matrix(0,1,1,0,0,0)"
         r="5"
         cy="728"
         cx="228"
         id="circle4673"
         style="opacity:1;fill:url(#linearGradient4675);fill-opacity:1;stroke:none;stroke-width:1;stroke-linecap:round;stroke-linejoin:round;stroke-miterlimit:4;stroke-dasharray:none;stroke-dashoffset:0;stroke-opacity:1" />
      <path
         style="fill:none;fill-rule:evenodd;stroke:#000000;stroke-width:1.5;stroke-linecap:square;stroke-linejoin:miter;stroke-miterlimit:4;stroke-dasharray:none;stroke-opacity:1"
         d="m 729,181 6,6"
         id="path4683"
         inkscape:connector-curvature="0"
         sodipodi:nodetypes="cc" />
      <path
         sodipodi:nodetypes="cc"
         inkscape:connector-curvature="0"
         id="path4687"
         d="m 729,187 6,-6"
         style="fill:none;fill-rule:evenodd;stroke:#000000;stroke-width:1.5;stroke-linecap:square;stroke-linejoin:miter;stroke-miterlimit:4;stroke-dasharray:none;stroke-opacity:1" />
      <g
         id="g4750">
        <circle
           style="opacity:1;fill:url(#linearGradient4667);fill-opacity:1;stroke:none;stroke-width:0.99999994;stroke-linecap:round;stroke-linejoin:round;stroke-miterlimit:4;stroke-dasharray:none;stroke-dashoffset:0;stroke-opacity:1"
           id="circle4665"
           cx="132"
           cy="-736"
           r="10"
           transform="rotate(90)" />
        <path
           sodipodi:nodetypes="cc"
           inkscape:connector-curvature="0"
           id="path4727"
           d="m 732,136 8,-8"
           style="fill:none;fill-rule:evenodd;stroke:#000000;stroke-width:1.5;stroke-linecap:square;stroke-linejoin:miter;stroke-miterlimit:4;stroke-dasharray:none;stroke-opacity:1" />
        <path
           style="fill:none;fill-rule:evenodd;stroke:#000000;stroke-width:1.5;stroke-linecap:square;stroke-linejoin:miter;stroke-miterlimit:4;stroke-dasharray:none;stroke-opacity:1"
           d="m 732,128 8,8"
           id="path4729"
           inkscape:connector-curvature="0"
           sodipodi:nodetypes="cc" />
      </g>
      <path
         sodipodi:nodetypes="cc"
         inkscape:connector-curvature="0"
         id="path4731"
         d="M 737,75 751,61"
         style="fill:none;fill-rule:evenodd;stroke:#000000;stroke-width:2;stroke-linecap:square;stroke-linejoin:miter;stroke-miterlimit:4;stroke-dasharray:none;stroke-opacity:1" />
      <path
         style="fill:none;fill-rule:evenodd;stroke:#000000;stroke-width:2;stroke-linecap:square;stroke-linejoin:miter;stroke-miterlimit:4;stroke-dasharray:none;stroke-opacity:1"
         d="M 751,75 737,61"
         id="path4737"
         inkscape:connector-curvature="0"
         sodipodi:nodetypes="cc" />
      <circle
         style="opacity:1;fill:url(#linearGradient4760);fill-opacity:1;stroke:none;stroke-width:0.99999988;stroke-linecap:round;stroke-linejoin:round;stroke-miterlimit:4;stroke-dasharray:none;stroke-dashoffset:0;stroke-opacity:1"
         id="circle4752"
         cx="140"
         cy="-560"
         r="100"
         transform="rotate(90)" />
      <path
         sodipodi:nodetypes="cc"
         inkscape:connector-curvature="0"
         id="path4754"
         d="m 520,180 80,-80"
         style="fill:none;fill-rule:evenodd;stroke:#000000;stroke-width:8;stroke-linecap:butt;stroke-linejoin:miter;stroke-miterlimit:4;stroke-dasharray:none;stroke-opacity:1" />
      <path
         style="fill:none;fill-rule:evenodd;stroke:#000000;stroke-width:8;stroke-linecap:butt;stroke-linejoin:miter;stroke-miterlimit:4;stroke-dasharray:none;stroke-opacity:1"
         d="m 520,100 80,80"
         id="path4756"
         inkscape:connector-curvature="0"
         sodipodi:nodetypes="cc" />
      <path
         style="fill:none;fill-rule:evenodd;stroke:#000000;stroke-width:1.5;stroke-linecap:square;stroke-linejoin:miter;stroke-miterlimit:4;stroke-dasharray:none;stroke-opacity:1"
         d="m 726,230 4,-4"
         id="path4769"
         inkscape:connector-curvature="0"
         sodipodi:nodetypes="cc" />
      <path
         sodipodi:nodetypes="cc"
         inkscape:connector-curvature="0"
         id="path4771"
         d="m 730,230 -4,-4"
         style="fill:none;fill-rule:evenodd;stroke:#000000;stroke-width:1.5;stroke-linecap:square;stroke-linejoin:miter;stroke-miterlimit:4;stroke-dasharray:none;stroke-opacity:1" />
    </g>
  </g>
  <g
     id="g4652"
     inkscape:label="artwork:call-stop"
     inkscape:groupmode="layer"
     style="display:inline"
     transform="translate(0,20)">
    <g
       inkscape:groupmode="layer"
       id="g4602"
       inkscape:label="baseplate"
       style="display:none">
      <rect
         style="display:inline;overflow:visible;visibility:visible;fill:#eeeeec;fill-opacity:1;fill-rule:nonzero;stroke:none;stroke-width:2;marker:none;enable-background:accumulate"
         id="rect4582"
         width="32"
         height="32"
         x="1120"
         y="116"
         inkscape:label="32x32" />
      <rect
         inkscape:label="22x22"
         y="173.05884"
         x="1121"
         height="22"
         width="22"
         id="rect4584"
         style="display:inline;overflow:visible;visibility:visible;fill:#eeeeec;fill-opacity:1;fill-rule:nonzero;stroke:none;stroke-width:2;marker:none;enable-background:accumulate" />
      <rect
         style="display:inline;overflow:visible;visibility:visible;fill:#eeeeec;fill-opacity:1;fill-rule:nonzero;stroke:none;stroke-width:2;marker:none;enable-background:accumulate"
         id="rect4586"
         width="16"
         height="16"
         x="1120"
         y="220"
         inkscape:label="16x16" />
      <rect
         style="display:inline;overflow:visible;visibility:visible;fill:#eeeeec;fill-opacity:1;fill-rule:nonzero;stroke:none;stroke-width:2;marker:none;enable-background:accumulate"
         id="rect4588"
         width="24"
         height="24"
         x="1120"
         y="172"
         inkscape:label="24x24" />
      <text
         xml:space="preserve"
         style="font-style:normal;font-variant:normal;font-weight:normal;font-stretch:normal;font-size:13.33333302px;line-height:125%;font-family:monospace;-inkscape-font-specification:monospace;text-align:start;writing-mode:lr-tb;text-anchor:start;display:inline;fill:#000000;fill-opacity:1;stroke:none;enable-background:new"
         x="831.85596"
         y="-65.699577"
         id="text4592"
         inkscape:label="context"><tspan
           sodipodi:role="line"
           id="tspan4590"
           x="831.85596"
           y="-65.699577"
           style="font-weight:bold">actions</tspan></text>
      <text
         inkscape:label="icon-name"
         id="text4596"
         y="-39.900627"
         x="831.26477"
         style="font-style:normal;font-variant:normal;font-weight:normal;font-stretch:normal;font-size:13.33333302px;line-height:125%;font-family:monospace;-inkscape-font-specification:monospace;text-align:start;writing-mode:lr-tb;text-anchor:start;display:inline;fill:#000000;fill-opacity:1;stroke:none;enable-background:new"
         xml:space="preserve"><tspan
           y="-39.900627"
           x="831.26477"
           id="tspan4594"
           sodipodi:role="line">call-stop</tspan></text>
      <rect
         style="display:inline;overflow:visible;visibility:visible;fill:#eeeeec;fill-opacity:1;fill-rule:nonzero;stroke:none;stroke-width:1.99999976;marker:none;enable-background:accumulate"
         id="rect4598"
         width="256"
         height="256"
         x="832"
         y="12.000045"
         inkscape:label="512x512" />
      <rect
         inkscape:label="48x48"
         y="1120"
         x="44"
         height="48"
         width="48"
         id="rect4600"
         style="display:inline;overflow:visible;visibility:visible;fill:#eeeeec;fill-opacity:1;fill-rule:nonzero;stroke:none;stroke-width:2;marker:none;enable-background:accumulate"
         transform="matrix(0,1,1,0,0,0)" />
    </g>
    <g
       inkscape:groupmode="layer"
       id="g4606"
       inkscape:label="icons"
       style="display:inline">
      <use
         height="100%"
         width="100%"
         transform="translate(800.00001,2.4265317e-6)"
         id="use4604"
         xlink:href="#g5288"
         y="0"
         x="0"
         style="display:inline;enable-background:new" />
    </g>
    <g
       inkscape:groupmode="layer"
       id="g4650"
       inkscape:label="emblem">
      <path
         sodipodi:nodetypes="ccccccccccccccccccccc"
         id="path4678"
         d="m 1155.761,71.045735 c -0.6451,1.103914 -2.2545,0.795882 -3.4033,0.627562 -1.1166,-0.162453 -2.4496,-0.32675 -3.1833,-1.365967 -0.4126,-0.582078 -0.2867,-1.3029 -0.2847,-1.928726 0,-0.617698 0.1893,-1.398156 -0.1656,-1.935576 -0.5746,-0.873266 -1.7769,-1.100557 -2.4816,-1.206964 -1.5956,-0.236692 -2.8282,-0.248592 -4.5327,0.04474 -0.8261,0.141147 -1.9518,0.355622 -2.4064,1.156239 -0.6785,1.196263 0.3425,2.555536 -0.4531,3.808679 -0.757,1.192895 -2.1414,1.241748 -3.1713,1.391972 -0.9942,0.142579 -2.4334,0.516211 -3.228,-0.284858 -0.4558,-0.461006 -0.4181,-1.115151 -0.4177,-1.710616 0,-0.606427 -0.076,-1.202529 0,-1.736739 0.1788,-1.294129 0.7951,-2.536215 1.8419,-3.667479 1.0263,-1.109164 2.203,-1.680637 3.3585,-2.122979 2.2601,-0.864152 4.3859,-1.086605 6.776,-1.115023 2.3502,-0.02857 4.6753,0.24488 6.9329,1.149503 2.8186,1.130274 4.6971,3.461087 5.0266,5.88398 0.057,0.410698 0.02,0.949682 0.014,1.467316 0,0.517534 0.064,1.059507 -0.2203,1.544946 z"
         style="clip-rule:evenodd;display:inline;fill:#000000;fill-opacity:1;fill-rule:evenodd;stroke:none;enable-background:new;opacity:0.2"
         inkscape:connector-curvature="0" />
      <path
         inkscape:connector-curvature="0"
         style="clip-rule:evenodd;display:inline;fill:#000000;fill-opacity:1;fill-rule:evenodd;stroke:none;stroke-width:0.99999994;enable-background:new;opacity:0.2"
         d="m 1137.8756,185.02262 c -0.3226,0.55194 -1.1272,0.39793 -1.7016,0.31377 -0.5583,-0.0812 -1.2248,-0.16337 -1.5916,-0.68295 -0.2063,-0.29103 -0.1433,-0.65143 -0.1423,-0.96433 0,-0.30883 0.095,-0.69904 -0.083,-0.96774 -0.2873,-0.43662 -0.8885,-0.55026 -1.2408,-0.60346 -0.7978,-0.11834 -1.414,-0.12429 -2.2662,0.0224 -0.4131,0.0706 -0.9759,0.1778 -1.2032,0.5781 -0.3392,0.5981 0.1712,1.27771 -0.2265,1.90426 -0.3785,0.59642 -1.0707,0.62084 -1.5856,0.69595 -0.4971,0.0713 -1.2167,0.2581 -1.6139,-0.14242 -0.2279,-0.23049 -0.2091,-0.55755 -0.2089,-0.85527 0,-0.3032 -0.038,-0.60124 0,-0.86834 0.089,-0.64703 0.3975,-1.26805 0.9209,-1.83366 0.5131,-0.55456 1.1015,-0.84028 1.6792,-1.06144 1.13,-0.43206 2.1929,-0.54328 3.3879,-0.55749 1.175,-0.0143 2.3375,0.12243 3.4663,0.57473 1.4092,0.56511 2.3484,1.73047 2.5132,2.94186 0.028,0.20534 0.01,0.47482 0.01,0.73363 0,0.25876 0.032,0.52973 -0.1102,0.77244 z"
         id="path4680"
         sodipodi:nodetypes="ccccccccccccccccccccc" />
      <path
         sodipodi:nodetypes="ccccccccccccccccccccc"
         id="path4682"
         d="m 1143.8406,133.53313 c -0.4302,0.73591 -1.503,0.53057 -2.2689,0.41835 -0.7444,-0.10827 -1.633,-0.21782 -2.1221,-0.9106 -0.2751,-0.38803 -0.1911,-0.86857 -0.1898,-1.28576 0,-0.41178 0.1267,-0.93205 -0.1106,-1.29031 -0.3831,-0.58216 -1.1847,-0.73368 -1.6543,-0.80461 -1.0638,-0.15779 -1.8854,-0.16572 -3.0216,0.0299 -0.5509,0.0941 -1.3013,0.23707 -1.6043,0.7708 -0.4523,0.79746 0.2282,1.70361 -0.3021,2.539 -0.5046,0.79522 -1.4275,0.82778 -2.114,0.92792 -0.6629,0.0951 -1.6223,0.34414 -2.1519,-0.18988 -0.3038,-0.30733 -0.2788,-0.7434 -0.2785,-1.14036 0,-0.40427 -0.051,-0.80164 0,-1.15778 0.1187,-0.8627 0.5299,-1.69072 1.2278,-2.44486 0.6842,-0.73942 1.4687,-1.12037 2.2389,-1.41525 1.5067,-0.57608 2.9239,-0.72437 4.5172,-0.74332 1.5667,-0.019 3.1166,0.16324 4.6217,0.76631 1.8789,0.75347 3.1312,2.30728 3.3509,3.92246 0.037,0.27378 0.013,0.63308 0.013,0.97816 0,0.34501 0.043,0.7063 -0.147,1.02992 z"
         style="clip-rule:evenodd;display:inline;fill:#000000;fill-opacity:1;fill-rule:evenodd;stroke:none;stroke-width:0.99999994;enable-background:new;opacity:0.2"
         inkscape:connector-curvature="0" />
      <path
         inkscape:connector-curvature="0"
         style="clip-rule:evenodd;display:inline;fill:#000000;fill-opacity:1;fill-rule:evenodd;stroke:none;stroke-width:1;enable-background:new;opacity:0.2"
         d="m 1132.8999,228.96024 c -0.2688,0.45994 -0.9393,0.3316 -1.418,0.26147 -0.4652,-0.0677 -1.0206,-0.13614 -1.3263,-0.56912 -0.1719,-0.24253 -0.1194,-0.54286 -0.1186,-0.8036 0,-0.25737 0.079,-0.58254 -0.069,-0.80645 -0.2394,-0.36385 -0.7404,-0.45855 -1.0339,-0.50288 -0.6649,-0.0986 -1.1784,-0.10358 -1.8885,0.0187 -0.3443,0.0588 -0.8133,0.14817 -1.0027,0.48175 -0.2827,0.49841 0.1427,1.06475 -0.1888,1.58688 -0.3154,0.49701 -0.8922,0.51736 -1.3213,0.57995 -0.4142,0.0594 -1.0139,0.21508 -1.3449,-0.11868 -0.1899,-0.19208 -0.1742,-0.46462 -0.1741,-0.71272 0,-0.25267 -0.032,-0.50103 0,-0.72362 0.074,-0.53918 0.3313,-1.0567 0.7674,-1.52804 0.4276,-0.46213 0.918,-0.70022 1.3994,-0.88453 0.9416,-0.36005 1.8274,-0.45273 2.8232,-0.46457 0.9792,-0.0119 1.9479,0.10202 2.8886,0.47894 1.1743,0.47092 1.957,1.44205 2.0943,2.45154 0.023,0.17112 0.01,0.39568 0.01,0.61135 0,0.21563 0.027,0.44144 -0.092,0.6437 z"
         id="path4684"
         sodipodi:nodetypes="ccccccccccccccccccccc" />
      <path
         inkscape:connector-curvature="0"
         style="clip-rule:evenodd;display:inline;fill:#ffffff;fill-opacity:1;fill-rule:evenodd;stroke:none;enable-background:new"
         d="m 1155.761,72.045735 c -0.6451,1.103914 -2.2545,0.795882 -3.4033,0.627562 -1.1166,-0.162453 -2.4496,-0.32675 -3.1833,-1.365967 -0.4126,-0.582078 -0.2867,-1.3029 -0.2847,-1.928726 0,-0.617698 0.1893,-1.398156 -0.1656,-1.935576 -0.5746,-0.873266 -1.7769,-1.100557 -2.4816,-1.206964 -1.5956,-0.236692 -2.8282,-0.248592 -4.5327,0.04474 -0.8261,0.141147 -1.9518,0.355622 -2.4064,1.156239 -0.6785,1.196263 0.3425,2.555536 -0.4531,3.808679 -0.757,1.192895 -2.1414,1.241748 -3.1713,1.391972 -0.9942,0.142579 -2.4334,0.516211 -3.228,-0.284858 -0.4558,-0.461006 -0.4181,-1.115151 -0.4177,-1.710616 0,-0.606427 -0.076,-1.202529 0,-1.736739 0.1788,-1.294129 0.7951,-2.536215 1.8419,-3.667479 1.0263,-1.109164 2.203,-1.680637 3.3585,-2.122979 2.2601,-0.864152 4.3859,-1.086605 6.776,-1.115023 2.3502,-0.02857 4.6753,0.24488 6.9329,1.149503 2.8186,1.130274 4.6971,3.461087 5.0266,5.88398 0.057,0.410698 0.02,0.949682 0.014,1.467316 0,0.517534 0.064,1.059507 -0.2203,1.544946 z"
         id="path8317"
         sodipodi:nodetypes="ccccccccccccccccccccc" />
      <path
         sodipodi:nodetypes="ccccccccccccccccccccc"
         id="path4670"
         d="m 1137.8756,186.02262 c -0.3226,0.55194 -1.1272,0.39793 -1.7016,0.31377 -0.5583,-0.0812 -1.2248,-0.16337 -1.5916,-0.68295 -0.2063,-0.29103 -0.1433,-0.65143 -0.1423,-0.96433 0,-0.30883 0.095,-0.69904 -0.083,-0.96774 -0.2873,-0.43662 -0.8885,-0.55026 -1.2408,-0.60346 -0.7978,-0.11834 -1.414,-0.12429 -2.2662,0.0224 -0.4131,0.0706 -0.9759,0.1778 -1.2032,0.5781 -0.3392,0.5981 0.1712,1.27771 -0.2265,1.90426 -0.3785,0.59642 -1.0707,0.62084 -1.5856,0.69595 -0.4971,0.0713 -1.2167,0.2581 -1.6139,-0.14242 -0.2279,-0.23049 -0.2091,-0.55755 -0.2089,-0.85527 0,-0.3032 -0.038,-0.60124 0,-0.86834 0.089,-0.64703 0.3975,-1.26805 0.9209,-1.83366 0.5131,-0.55456 1.1015,-0.84028 1.6792,-1.06144 1.13,-0.43206 2.1929,-0.54328 3.3879,-0.55749 1.175,-0.0143 2.3375,0.12243 3.4663,0.57473 1.4092,0.56511 2.3484,1.73047 2.5132,2.94186 0.028,0.20534 0.01,0.47482 0.01,0.73363 0,0.25876 0.032,0.52973 -0.1102,0.77244 z"
         style="display:inline;enable-background:new;clip-rule:evenodd;fill:#ffffff;fill-opacity:1;fill-rule:evenodd;stroke:none;stroke-width:0.99999994"
         inkscape:connector-curvature="0" />
      <path
         inkscape:connector-curvature="0"
         style="clip-rule:evenodd;display:inline;fill:#ffffff;fill-opacity:1;fill-rule:evenodd;stroke:none;stroke-width:0.99999994;enable-background:new"
         d="m 1143.8406,134.53313 c -0.4302,0.73591 -1.503,0.53057 -2.2689,0.41835 -0.7444,-0.10827 -1.633,-0.21782 -2.1221,-0.9106 -0.2751,-0.38803 -0.1911,-0.86857 -0.1898,-1.28576 0,-0.41178 0.1267,-0.93205 -0.1106,-1.29031 -0.3831,-0.58216 -1.1847,-0.73368 -1.6543,-0.80461 -1.0638,-0.15779 -1.8854,-0.16572 -3.0216,0.0299 -0.5509,0.0941 -1.3013,0.23707 -1.6043,0.7708 -0.4523,0.79746 0.2282,1.70361 -0.3021,2.539 -0.5046,0.79522 -1.4275,0.82778 -2.114,0.92792 -0.6629,0.0951 -1.6223,0.34414 -2.1519,-0.18988 -0.3038,-0.30733 -0.2788,-0.7434 -0.2785,-1.14036 0,-0.40427 -0.051,-0.80164 0,-1.15778 0.1187,-0.8627 0.5299,-1.69072 1.2278,-2.44486 0.6842,-0.73942 1.4687,-1.12037 2.2389,-1.41525 1.5067,-0.57608 2.9239,-0.72437 4.5172,-0.74332 1.5667,-0.019 3.1166,0.16324 4.6217,0.76631 1.8789,0.75347 3.1312,2.30728 3.3509,3.92246 0.037,0.27378 0.013,0.63308 0.013,0.97816 0,0.34501 0.043,0.7063 -0.147,1.02992 z"
         id="path4674"
         sodipodi:nodetypes="ccccccccccccccccccccc" />
      <path
         sodipodi:nodetypes="ccccccccccccccccccccc"
         id="path4676"
         d="m 1132.8999,229.96024 c -0.2688,0.45994 -0.9393,0.3316 -1.418,0.26147 -0.4652,-0.0677 -1.0206,-0.13614 -1.3263,-0.56912 -0.1719,-0.24253 -0.1194,-0.54286 -0.1186,-0.8036 0,-0.25737 0.079,-0.58254 -0.069,-0.80645 -0.2394,-0.36385 -0.7404,-0.45855 -1.0339,-0.50288 -0.6649,-0.0986 -1.1784,-0.10358 -1.8885,0.0187 -0.3443,0.0588 -0.8133,0.14817 -1.0027,0.48175 -0.2827,0.49841 0.1427,1.06475 -0.1888,1.58688 -0.3154,0.49701 -0.8922,0.51736 -1.3213,0.57995 -0.4142,0.0594 -1.0139,0.21508 -1.3449,-0.11868 -0.1899,-0.19208 -0.1742,-0.46462 -0.1741,-0.71272 0,-0.25267 -0.032,-0.50103 0,-0.72362 0.074,-0.53918 0.3313,-1.0567 0.7674,-1.52804 0.4276,-0.46213 0.918,-0.70022 1.3994,-0.88453 0.9416,-0.36005 1.8274,-0.45273 2.8232,-0.46457 0.9792,-0.0119 1.9479,0.10202 2.8886,0.47894 1.1743,0.47092 1.957,1.44205 2.0943,2.45154 0.023,0.17112 0.01,0.39568 0.01,0.61135 0,0.21563 0.027,0.44144 -0.092,0.6437 z"
         style="clip-rule:evenodd;display:inline;fill:#ffffff;fill-opacity:1;fill-rule:evenodd;stroke:none;stroke-width:1;enable-background:new"
         inkscape:connector-curvature="0" />
      <path
         inkscape:connector-curvature="0"
         style="clip-rule:evenodd;display:inline;opacity:0.2;fill:#000000;fill-opacity:1;fill-rule:evenodd;stroke:none;stroke-width:1;enable-background:new"
         d="m 1022.7225,159.64851 c -3.4404,5.88729 -12.0235,4.24452 -18.1501,3.34685 -5.95502,-0.86638 -13.06402,-1.74259 -16.97692,-7.28485 -2.2005,-3.10428 -1.529,-6.9485 -1.5183,-10.2861 0,-3.29425 1.0095,-7.45652 -0.8832,-10.32264 -3.0644,-4.65722 -9.4764,-5.86939 -13.2347,-6.43687 -8.5095,-1.2623 -15.083,-1.32576 -24.1733,0.23861 -4.4057,0.75275 -10.4092,1.89657 -12.8336,6.16635 -3.6185,6.37979 1.8266,13.62894 -2.4165,20.31209 -4.0371,6.36184 -11.4203,6.62238 -16.9128,7.42354 -5.3022,0.76039 -12.9776,2.75301 -17.2153,-1.51918 -2.4308,-2.45859 -2.2298,-5.94722 -2.2277,-9.1229 0,-3.23414 -0.4053,-6.41322 0,-9.26222 0.9536,-6.90173 4.2404,-13.52591 9.8231,-19.55906 5.4734,-5.91529 11.7488,-8.96302 17.9112,-11.32207 12.0534,-4.60862 23.3905,-5.79499 36.1372,-5.94654 12.5339,-0.15237 24.9339,1.30597 36.9739,6.13042 15.03192,6.02787 25.05012,18.45835 26.80742,31.3799 0.304,2.1903 0.1067,5.06476 0.075,7.82536 0,2.76006 0.3413,5.65046 -1.1749,8.23936 z"
         id="path4688"
         sodipodi:nodetypes="ccccccccccccccccccccc" />
      <path
         sodipodi:nodetypes="ccccccccccccccccccccc"
         id="path4686"
         d="m 1022.7225,160.64851 c -3.4404,5.88729 -12.0235,4.24452 -18.1501,3.34685 -5.95502,-0.86638 -13.06402,-1.74259 -16.97692,-7.28485 -2.2005,-3.10428 -1.529,-6.9485 -1.5183,-10.2861 0,-3.29425 1.0095,-7.45652 -0.8832,-10.32264 -3.0644,-4.65722 -9.4764,-5.86939 -13.2347,-6.43687 -8.5095,-1.2623 -15.083,-1.32576 -24.1733,0.23861 -4.4057,0.75275 -10.4092,1.89657 -12.8336,6.16635 -3.6185,6.37979 1.8266,13.62894 -2.4165,20.31209 -4.0371,6.36184 -11.4203,6.62238 -16.9128,7.42354 -5.3022,0.76039 -12.9776,2.75301 -17.2153,-1.51918 -2.4308,-2.45859 -2.2298,-5.94722 -2.2277,-9.1229 0,-3.23414 -0.4053,-6.41322 0,-9.26222 0.9536,-6.90173 4.2404,-13.52591 9.8231,-19.55906 5.4734,-5.91529 11.7488,-8.96302 17.9112,-11.32207 12.0534,-4.60862 23.3905,-5.79499 36.1372,-5.94654 12.5339,-0.15237 24.9339,1.30597 36.9739,6.13042 15.03192,6.02787 25.05012,18.45835 26.80742,31.3799 0.304,2.1903 0.1067,5.06476 0.075,7.82536 0,2.76006 0.3413,5.65046 -1.1749,8.23936 z"
         style="clip-rule:evenodd;display:inline;fill:#ffffff;fill-opacity:1;fill-rule:evenodd;stroke:none;stroke-width:1;enable-background:new"
         inkscape:connector-curvature="0" />
    </g>
  </g>
</svg>
